<svg xmlns="http://www.w3.org/2000/svg" xmlns:xlink="http://www.w3.org/1999/xlink" width="1000" zoomAndPan="magnify" viewBox="0 0 750 749.999995" height="1000" preserveAspectRatio="xMidYMid meet" version="1.0"><defs><clipPath id="154f2b62b3"><path d="M 589 336.78125 L 623 336.78125 L 623 370 L 589 370 Z M 589 336.78125 " clip-rule="nonzero"/></clipPath><clipPath id="c0e073937c"><path d="M 577.167969 371 L 635 371 L 635 413.28125 L 577.167969 413.28125 Z M 577.167969 371 " clip-rule="nonzero"/></clipPath><clipPath id="c15dd26a8a"><path d="M 252 0 L 750 0 L 750 746.25 L 252 746.25 Z M 252 0 " clip-rule="nonzero"/></clipPath></defs><g clip-path="url(#154f2b62b3)"><path fill="#ffffff" d="M 622.339844 353.09375 C 622.339844 344.097656 615.023438 336.78125 606.027344 336.78125 C 597.03125 336.78125 589.714844 344.097656 589.714844 353.09375 C 589.714844 362.089844 597.03125 369.40625 606.027344 369.40625 C 615.023438 369.40625 622.339844 362.089844 622.339844 353.09375 Z M 597.109375 353.09375 C 597.109375 348.179688 601.109375 344.179688 606.027344 344.179688 C 610.941406 344.179688 614.941406 348.179688 614.941406 353.09375 C 614.941406 358.011719 610.941406 362.011719 606.027344 362.011719 C 601.109375 362.011719 597.109375 358.011719 597.109375 353.09375 Z M 597.109375 353.09375 " fill-opacity="1" fill-rule="nonzero"/></g><g clip-path="url(#c0e073937c)"><path fill="#ffffff" d="M 606.027344 371.300781 C 590.394531 371.300781 577.675781 384.019531 577.675781 399.652344 L 577.675781 404.582031 C 577.675781 409.339844 581.546875 413.210938 586.304688 413.210938 L 625.75 413.210938 C 630.507812 413.210938 634.378906 409.339844 634.378906 404.582031 L 634.378906 399.652344 C 634.378906 384.019531 621.660156 371.300781 606.027344 371.300781 Z M 626.984375 404.582031 C 626.984375 405.261719 626.429688 405.816406 625.75 405.816406 L 586.304688 405.816406 C 585.625 405.816406 585.070312 405.261719 585.070312 404.582031 L 585.070312 399.652344 C 585.070312 388.097656 594.472656 378.695312 606.027344 378.695312 C 617.582031 378.695312 626.984375 388.097656 626.984375 399.652344 Z M 626.984375 404.582031 " fill-opacity="1" fill-rule="nonzero"/></g><path fill="#ffffff" d="M 643.917969 355.644531 L 634.757812 364.804688 L 631.394531 361.445312 C 629.949219 360 627.609375 360 626.164062 361.445312 C 624.71875 362.890625 624.71875 365.230469 626.164062 366.675781 L 632.144531 372.648438 C 632.867188 373.371094 633.8125 373.734375 634.757812 373.734375 C 635.703125 373.734375 636.648438 373.371094 637.371094 372.648438 L 649.148438 360.875 C 650.59375 359.429688 650.59375 357.089844 649.148438 355.644531 C 647.703125 354.199219 645.363281 354.199219 643.917969 355.644531 Z M 643.917969 355.644531 " fill-opacity="1" fill-rule="nonzero"/><g clip-path="url(#c15dd26a8a)"><path fill="#ffffff" d="M 420.230469 -0.125 L 581.617188 -0.125 C 674.132812 -0.125 749.398438 75.140625 749.398438 167.652344 L 749.398438 578.410156 C 749.398438 670.921875 674.132812 746.191406 581.617188 746.191406 L 420.230469 746.191406 C 327.71875 746.191406 252.453125 670.921875 252.453125 578.410156 C 252.453125 561.9375 265.808594 548.582031 282.28125 548.582031 C 298.75 548.582031 312.105469 561.9375 312.105469 578.410156 C 312.105469 638.027344 360.613281 686.535156 420.230469 686.535156 L 581.617188 686.535156 C 641.238281 686.535156 689.742188 638.027344 689.742188 578.410156 L 689.742188 167.652344 C 689.742188 108.035156 641.238281 59.527344 581.617188 59.527344 L 420.230469 59.527344 C 360.613281 59.527344 312.105469 108.035156 312.105469 167.652344 C 312.105469 184.125 298.75 197.480469 282.28125 197.480469 C 265.808594 197.480469 252.453125 184.125 252.453125 167.652344 C 252.453125 75.140625 327.71875 -0.125 420.230469 -0.125 " fill-opacity="1" fill-rule="nonzero"/></g><path fill="#ffffff" d="M 34.402344 343.632812 L 504.085938 343.632812 C 520.558594 343.632812 533.914062 356.988281 533.914062 373.460938 C 533.914062 389.933594 520.558594 403.289062 504.085938 403.289062 L 34.402344 403.289062 C 17.929688 403.289062 4.574219 389.933594 4.574219 373.460938 C 4.574219 356.988281 17.929688 343.632812 34.402344 343.632812 " fill-opacity="1" fill-rule="nonzero"/><path fill="#ffffff" d="M 170.746094 205.570312 C 178.378906 205.570312 186.007812 208.476562 191.835938 214.304688 C 203.488281 225.953125 203.488281 244.835938 191.835938 256.488281 L 54.632812 393.691406 C 42.980469 405.335938 24.097656 405.335938 12.445312 393.691406 C 0.804688 382.046875 0.804688 363.15625 12.445312 351.503906 L 149.648438 214.304688 C 155.476562 208.476562 163.105469 205.570312 170.746094 205.570312 " fill-opacity="1" fill-rule="nonzero"/><path fill="#ffffff" d="M 33.542969 343.632812 C 41.175781 343.632812 48.808594 346.546875 54.632812 352.371094 L 191.835938 489.574219 C 203.488281 501.226562 203.488281 520.109375 191.835938 531.761719 C 180.191406 543.410156 161.300781 543.410156 149.648438 531.761719 L 12.445312 394.558594 C 0.804688 382.90625 0.804688 364.015625 12.445312 352.371094 C 18.273438 346.546875 25.90625 343.632812 33.542969 343.632812 " fill-opacity="1" fill-rule="nonzero"/></svg>