<svg xmlns="http://www.w3.org/2000/svg" xmlns:xlink="http://www.w3.org/1999/xlink" width="1000" zoomAndPan="magnify" viewBox="0 0 750 749.999995" height="1000" preserveAspectRatio="xMidYMid meet" version="1.0"><defs><clipPath id="cf0077f577"><path d="M 589 336.78125 L 623 336.78125 L 623 370 L 589 370 Z M 589 336.78125 " clip-rule="nonzero"/></clipPath><clipPath id="19d645e4f6"><path d="M 577.167969 371 L 635 371 L 635 413.28125 L 577.167969 413.28125 Z M 577.167969 371 " clip-rule="nonzero"/></clipPath></defs><path fill="#ffffff" d="M 581.316406 750.128906 L 368.714844 750.128906 C 275.730469 750.128906 200.089844 674.480469 200.089844 581.503906 C 200.089844 564.949219 213.507812 551.527344 230.070312 551.527344 C 246.625 551.527344 260.046875 564.949219 260.046875 581.503906 C 260.046875 641.421875 308.789062 690.171875 368.714844 690.171875 L 581.316406 690.171875 C 641.234375 690.171875 689.984375 641.421875 689.984375 581.503906 L 689.984375 168.683594 C 689.984375 108.765625 641.234375 60.015625 581.316406 60.015625 L 368.714844 60.015625 C 308.789062 60.015625 260.046875 108.765625 260.046875 168.683594 C 260.046875 185.238281 246.625 198.660156 230.070312 198.660156 C 213.507812 198.660156 200.089844 185.238281 200.089844 168.683594 C 200.089844 75.707031 275.730469 0.0585938 368.714844 0.0585938 L 581.316406 0.0585938 C 674.292969 0.0585938 749.941406 75.707031 749.941406 168.683594 L 749.941406 581.503906 C 749.941406 674.480469 674.292969 750.128906 581.316406 750.128906 " fill-opacity="1" fill-rule="nonzero"/><path fill="#ffffff" d="M 502.28125 404.640625 L 30.238281 404.640625 C 13.683594 404.640625 0.261719 391.21875 0.261719 374.660156 C 0.261719 358.105469 13.683594 344.683594 30.238281 344.683594 L 502.28125 344.683594 C 518.835938 344.683594 532.257812 358.105469 532.257812 374.660156 C 532.257812 391.21875 518.835938 404.640625 502.28125 404.640625 " fill-opacity="1" fill-rule="nonzero"/><path fill="#ffffff" d="M 365.253906 543.394531 C 357.582031 543.394531 349.914062 540.476562 344.058594 534.621094 C 332.347656 522.910156 332.347656 503.933594 344.058594 492.222656 L 481.949219 354.332031 C 493.660156 342.621094 512.636719 342.621094 524.347656 354.332031 C 536.050781 366.039062 536.050781 385.019531 524.347656 396.726562 L 386.457031 534.621094 C 380.601562 540.476562 372.929688 543.394531 365.253906 543.394531 " fill-opacity="1" fill-rule="nonzero"/><path fill="#ffffff" d="M 503.144531 404.640625 C 495.476562 404.640625 487.804688 401.710938 481.949219 395.855469 L 344.058594 257.964844 C 332.347656 246.253906 332.347656 227.277344 344.058594 215.566406 C 355.769531 203.863281 374.746094 203.863281 386.457031 215.566406 L 524.347656 353.460938 C 536.050781 365.167969 536.050781 384.148438 524.347656 395.855469 C 518.492188 401.710938 510.824219 404.640625 503.144531 404.640625 " fill-opacity="1" fill-rule="nonzero"/><g clip-path="url(#cf0077f577)"><path fill="#ffffff" d="M 622.339844 353.09375 C 622.339844 344.097656 615.023438 336.78125 606.027344 336.78125 C 597.03125 336.78125 589.714844 344.097656 589.714844 353.09375 C 589.714844 362.089844 597.03125 369.40625 606.027344 369.40625 C 615.023438 369.40625 622.339844 362.089844 622.339844 353.09375 Z M 597.109375 353.09375 C 597.109375 348.179688 601.109375 344.179688 606.027344 344.179688 C 610.941406 344.179688 614.941406 348.179688 614.941406 353.09375 C 614.941406 358.011719 610.941406 362.011719 606.027344 362.011719 C 601.109375 362.011719 597.109375 358.011719 597.109375 353.09375 Z M 597.109375 353.09375 " fill-opacity="1" fill-rule="nonzero"/></g><g clip-path="url(#19d645e4f6)"><path fill="#ffffff" d="M 606.027344 371.300781 C 590.394531 371.300781 577.675781 384.019531 577.675781 399.652344 L 577.675781 404.582031 C 577.675781 409.339844 581.546875 413.210938 586.304688 413.210938 L 625.75 413.210938 C 630.507812 413.210938 634.378906 409.339844 634.378906 404.582031 L 634.378906 399.652344 C 634.378906 384.019531 621.660156 371.300781 606.027344 371.300781 Z M 626.984375 404.582031 C 626.984375 405.261719 626.429688 405.816406 625.75 405.816406 L 586.304688 405.816406 C 585.625 405.816406 585.070312 405.261719 585.070312 404.582031 L 585.070312 399.652344 C 585.070312 388.097656 594.472656 378.695312 606.027344 378.695312 C 617.582031 378.695312 626.984375 388.097656 626.984375 399.652344 Z M 626.984375 404.582031 " fill-opacity="1" fill-rule="nonzero"/></g><path fill="#ffffff" d="M 643.917969 355.644531 L 634.757812 364.804688 L 631.394531 361.445312 C 629.949219 360 627.609375 360 626.164062 361.445312 C 624.71875 362.890625 624.71875 365.230469 626.164062 366.675781 L 632.144531 372.648438 C 632.867188 373.371094 633.8125 373.734375 634.757812 373.734375 C 635.703125 373.734375 636.648438 373.371094 637.371094 372.648438 L 649.148438 360.875 C 650.59375 359.429688 650.59375 357.089844 649.148438 355.644531 C 647.703125 354.199219 645.363281 354.199219 643.917969 355.644531 Z M 643.917969 355.644531 " fill-opacity="1" fill-rule="nonzero"/></svg>