<svg xmlns="http://www.w3.org/2000/svg" xmlns:xlink="http://www.w3.org/1999/xlink" width="1000" zoomAndPan="magnify" viewBox="0 0 750 749.999995" height="1000" preserveAspectRatio="xMidYMid meet" version="1.0"><defs><g/><clipPath id="8a5d9eeb43"><path d="M 329 68 L 380 68 L 380 119 L 329 119 Z M 329 68 " clip-rule="nonzero"/></clipPath><clipPath id="56d141792e"><path d="M 326.984375 71.277344 L 377.125 65.871094 L 382.53125 116.011719 L 332.390625 121.417969 Z M 326.984375 71.277344 " clip-rule="nonzero"/></clipPath><clipPath id="f3bb58f873"><path d="M 352.054688 68.574219 C 338.207031 70.066406 328.195312 82.503906 329.6875 96.347656 C 331.179688 110.195312 343.613281 120.207031 357.460938 118.714844 C 371.308594 117.222656 381.320312 104.789062 379.828125 90.941406 C 378.335938 77.09375 365.898438 67.082031 352.054688 68.574219 Z M 352.054688 68.574219 " clip-rule="nonzero"/></clipPath><clipPath id="739b3050b7"><path d="M 542 240 L 593 240 L 593 291 L 542 291 Z M 542 240 " clip-rule="nonzero"/></clipPath><clipPath id="b7a061a344"><path d="M 539.878906 243.210938 L 590.019531 237.804688 L 595.425781 287.945312 L 545.285156 293.351562 Z M 539.878906 243.210938 " clip-rule="nonzero"/></clipPath><clipPath id="8d5e8298ba"><path d="M 564.949219 240.507812 C 551.101562 242 541.089844 254.4375 542.582031 268.28125 C 544.074219 282.128906 556.511719 292.140625 570.355469 290.648438 C 584.203125 289.15625 594.214844 276.71875 592.722656 262.875 C 591.230469 249.027344 578.792969 239.015625 564.949219 240.507812 Z M 564.949219 240.507812 " clip-rule="nonzero"/></clipPath><clipPath id="906fd243b1"><path d="M 371 453 L 422 453 L 422 505 L 371 505 Z M 371 453 " clip-rule="nonzero"/></clipPath><clipPath id="669495ee4c"><path d="M 368.539062 456.582031 L 418.679688 451.175781 L 424.085938 501.316406 L 373.945312 506.726562 Z M 368.539062 456.582031 " clip-rule="nonzero"/></clipPath><clipPath id="20b8fa2200"><path d="M 393.609375 453.878906 C 379.761719 455.375 369.75 467.808594 371.242188 481.652344 C 372.734375 495.5 385.167969 505.515625 399.015625 504.019531 C 412.863281 502.527344 422.875 490.09375 421.382812 476.246094 C 419.890625 462.402344 407.453125 452.386719 393.609375 453.878906 Z M 393.609375 453.878906 " clip-rule="nonzero"/></clipPath><clipPath id="75e6552497"><path d="M 157 281 L 208 281 L 208 333 L 157 333 Z M 157 281 " clip-rule="nonzero"/></clipPath><clipPath id="9dd4077e19"><path d="M 154.574219 284.765625 L 204.714844 279.359375 L 210.121094 329.5 L 159.980469 334.90625 Z M 154.574219 284.765625 " clip-rule="nonzero"/></clipPath><clipPath id="572238c514"><path d="M 179.644531 282.0625 C 165.796875 283.554688 155.785156 295.992188 157.277344 309.835938 C 158.769531 323.683594 171.207031 333.695312 185.050781 332.203125 C 198.898438 330.710938 208.910156 318.273438 207.417969 304.429688 C 205.925781 290.582031 193.488281 280.570312 179.644531 282.0625 Z M 179.644531 282.0625 " clip-rule="nonzero"/></clipPath><clipPath id="a71906b414"><path d="M 389 71 L 441 71 L 441 122 L 389 122 Z M 389 71 " clip-rule="nonzero"/></clipPath><clipPath id="779446ca27"><path d="M 395.703125 66.429688 L 445.0625 76.773438 L 434.71875 126.132812 L 385.359375 115.789062 Z M 395.703125 66.429688 " clip-rule="nonzero"/></clipPath><clipPath id="61ef564c3f"><path d="M 420.382812 71.601562 C 406.753906 68.746094 393.390625 77.480469 390.53125 91.109375 C 387.675781 104.738281 396.410156 118.105469 410.039062 120.960938 C 423.671875 123.816406 437.035156 115.082031 439.890625 101.453125 C 442.75 87.824219 434.015625 74.457031 420.382812 71.601562 Z M 420.382812 71.601562 " clip-rule="nonzero"/></clipPath><clipPath id="8c1c0265e1"><path d="M 539 300 L 590 300 L 590 351 L 539 351 Z M 539 300 " clip-rule="nonzero"/></clipPath><clipPath id="5b1e153b2d"><path d="M 545.085938 295.714844 L 594.445312 306.058594 L 584.101562 355.417969 L 534.742188 345.074219 Z M 545.085938 295.714844 " clip-rule="nonzero"/></clipPath><clipPath id="652efc2841"><path d="M 569.765625 300.886719 C 556.132812 298.027344 542.769531 306.761719 539.914062 320.394531 C 537.054688 334.023438 545.789062 347.386719 559.421875 350.246094 C 573.050781 353.101562 586.414062 344.367188 589.273438 330.738281 C 592.128906 317.105469 583.394531 303.742188 569.765625 300.886719 Z M 569.765625 300.886719 " clip-rule="nonzero"/></clipPath><clipPath id="b21bf5b780"><path d="M 310 450 L 361 450 L 361 501 L 310 501 Z M 310 450 " clip-rule="nonzero"/></clipPath><clipPath id="4f79399fff"><path d="M 316.21875 445.730469 L 365.578125 456.074219 L 355.230469 505.433594 L 305.871094 495.089844 Z M 316.21875 445.730469 " clip-rule="nonzero"/></clipPath><clipPath id="65f24cd69c"><path d="M 340.898438 450.902344 C 327.265625 448.046875 313.902344 456.777344 311.042969 470.410156 C 308.1875 484.039062 316.921875 497.40625 330.550781 500.261719 C 344.183594 503.117188 357.546875 494.382812 360.40625 480.753906 C 363.261719 467.125 354.527344 453.757812 340.898438 450.902344 Z M 340.898438 450.902344 " clip-rule="nonzero"/></clipPath><clipPath id="372ffc0892"><path d="M 160 220 L 211 220 L 211 272 L 160 272 Z M 160 220 " clip-rule="nonzero"/></clipPath><clipPath id="e18da81722"><path d="M 165.785156 216.226562 L 215.144531 226.570312 L 204.800781 275.929688 L 155.441406 265.585938 Z M 165.785156 216.226562 " clip-rule="nonzero"/></clipPath><clipPath id="8d332078a9"><path d="M 190.464844 221.398438 C 176.832031 218.539062 163.46875 227.273438 160.613281 240.90625 C 157.757812 254.535156 166.488281 267.898438 180.121094 270.757812 C 193.75 273.613281 207.117188 264.878906 209.972656 251.25 C 212.828125 237.617188 204.09375 224.253906 190.464844 221.398438 Z M 190.464844 221.398438 " clip-rule="nonzero"/></clipPath><clipPath id="f6e3a4c569"><path d="M 270 83 L 322 83 L 322 135 L 270 135 Z M 270 83 " clip-rule="nonzero"/></clipPath><clipPath id="4edc15d061"><path d="M 262.773438 96.132812 L 308.78125 75.484375 L 329.429688 121.496094 L 283.417969 142.144531 Z M 262.773438 96.132812 " clip-rule="nonzero"/></clipPath><clipPath id="69f76ffb03"><path d="M 285.777344 85.808594 C 273.070312 91.511719 267.394531 106.433594 273.09375 119.140625 C 278.796875 131.84375 293.71875 137.523438 306.425781 131.820312 C 319.128906 126.117188 324.808594 111.195312 319.105469 98.492188 C 313.40625 85.785156 298.484375 80.109375 285.777344 85.808594 Z M 285.777344 85.808594 " clip-rule="nonzero"/></clipPath><clipPath id="6110e76088"><path d="M 526 181 L 577 181 L 577 232 L 526 232 Z M 526 181 " clip-rule="nonzero"/></clipPath><clipPath id="f03aa81417"><path d="M 518.398438 193.808594 L 564.410156 173.160156 L 585.058594 219.171875 L 539.046875 239.816406 Z M 518.398438 193.808594 " clip-rule="nonzero"/></clipPath><clipPath id="a2ba951bd7"><path d="M 541.40625 183.484375 C 528.699219 189.183594 523.019531 204.105469 528.722656 216.8125 C 534.425781 229.519531 549.347656 235.195312 562.050781 229.496094 C 574.757812 223.792969 580.433594 208.871094 574.734375 196.164062 C 569.03125 183.460938 554.109375 177.78125 541.40625 183.484375 Z M 541.40625 183.484375 " clip-rule="nonzero"/></clipPath><clipPath id="39ca9e2bbe"><path d="M 429 437 L 480 437 L 480 488 L 429 488 Z M 429 437 " clip-rule="nonzero"/></clipPath><clipPath id="1a9a238b91"><path d="M 421.433594 449.703125 L 467.445312 429.058594 L 488.09375 475.066406 L 442.082031 495.714844 Z M 421.433594 449.703125 " clip-rule="nonzero"/></clipPath><clipPath id="2757ecb0fb"><path d="M 444.441406 439.378906 C 431.734375 445.082031 426.058594 460.003906 431.757812 472.710938 C 437.460938 485.414062 452.382812 491.09375 465.089844 485.390625 C 477.792969 479.691406 483.472656 464.769531 477.769531 452.0625 C 472.070312 439.355469 457.148438 433.679688 444.441406 439.378906 Z M 444.441406 439.378906 " clip-rule="nonzero"/></clipPath><clipPath id="b44cd4e463"><path d="M 172 339 L 224 339 L 224 391 L 172 391 Z M 172 339 " clip-rule="nonzero"/></clipPath><clipPath id="b19227b4a6"><path d="M 164.828125 352.472656 L 210.839844 331.824219 L 231.484375 377.835938 L 185.476562 398.480469 Z M 164.828125 352.472656 " clip-rule="nonzero"/></clipPath><clipPath id="b2ec22d125"><path d="M 187.832031 342.148438 C 175.128906 347.847656 169.449219 362.769531 175.152344 375.476562 C 180.851562 388.183594 195.773438 393.859375 208.480469 388.160156 C 221.1875 382.457031 226.863281 367.535156 221.164062 354.828125 C 215.460938 342.125 200.539062 336.445312 187.832031 342.148438 Z M 187.832031 342.148438 " clip-rule="nonzero"/></clipPath><clipPath id="7431dc451e"><path d="M 181 164 L 232 164 L 232 216 L 181 216 Z M 181 164 " clip-rule="nonzero"/></clipPath><clipPath id="bdd222acc9"><path d="M 172.101562 199.160156 L 197.132812 155.375 L 240.914062 180.40625 L 215.886719 224.1875 Z M 172.101562 199.160156 " clip-rule="nonzero"/></clipPath><clipPath id="aa7bb5d215"><path d="M 184.617188 177.269531 C 177.707031 189.359375 181.902344 204.761719 193.996094 211.675781 C 206.085938 218.585938 221.488281 214.386719 228.398438 202.296875 C 235.3125 190.207031 231.113281 174.800781 219.023438 167.890625 C 206.933594 160.980469 191.527344 165.179688 184.617188 177.269531 Z M 184.617188 177.269531 " clip-rule="nonzero"/></clipPath><clipPath id="b3d6f244be"><path d="M 445 92 L 496 92 L 496 144 L 445 144 Z M 445 92 " clip-rule="nonzero"/></clipPath><clipPath id="d27aaf2180"><path d="M 436.222656 127.566406 L 461.25 83.78125 L 505.035156 108.8125 L 480.007812 152.59375 Z M 436.222656 127.566406 " clip-rule="nonzero"/></clipPath><clipPath id="f00edce520"><path d="M 448.738281 105.675781 C 441.828125 117.765625 446.023438 133.167969 458.113281 140.082031 C 470.207031 146.992188 485.609375 142.792969 492.519531 130.703125 C 499.433594 118.613281 495.234375 103.207031 483.144531 96.296875 C 471.050781 89.386719 455.648438 93.585938 448.738281 105.675781 Z M 448.738281 105.675781 " clip-rule="nonzero"/></clipPath><clipPath id="5d952c14d4"><path d="M 517 356 L 569 356 L 569 408 L 517 408 Z M 517 356 " clip-rule="nonzero"/></clipPath><clipPath id="e3c901c5ef"><path d="M 508.550781 391.488281 L 533.578125 347.703125 L 577.363281 372.730469 L 552.332031 416.515625 Z M 508.550781 391.488281 " clip-rule="nonzero"/></clipPath><clipPath id="8e35b3068c"><path d="M 521.066406 369.59375 C 514.152344 381.6875 518.351562 397.089844 530.441406 404 C 542.53125 410.914062 557.9375 406.714844 564.847656 394.625 C 571.757812 382.535156 567.5625 367.128906 555.46875 360.21875 C 543.378906 353.308594 527.976562 357.503906 521.066406 369.59375 Z M 521.066406 369.59375 " clip-rule="nonzero"/></clipPath><clipPath id="ad99276264"><path d="M 253 429 L 304 429 L 304 480 L 253 480 Z M 253 429 " clip-rule="nonzero"/></clipPath><clipPath id="555330940a"><path d="M 243.894531 464.015625 L 268.925781 420.230469 L 312.707031 445.257812 L 287.679688 489.042969 Z M 243.894531 464.015625 " clip-rule="nonzero"/></clipPath><clipPath id="5d394a1c90"><path d="M 256.410156 442.121094 C 249.5 454.214844 253.699219 469.617188 265.789062 476.527344 C 277.878906 483.441406 293.28125 479.242188 300.195312 467.152344 C 307.105469 455.058594 302.90625 439.65625 290.816406 432.746094 C 278.726562 425.832031 263.320312 430.03125 256.410156 442.121094 Z M 256.410156 442.121094 " clip-rule="nonzero"/></clipPath><clipPath id="bc8b0b38ce"><path d="M 218 117 L 270 117 L 270 168 L 218 168 Z M 218 117 " clip-rule="nonzero"/></clipPath><clipPath id="29167e9a4f"><path d="M 208.480469 140.65625 L 245.808594 106.742188 L 279.71875 144.070312 L 242.394531 177.984375 Z M 208.480469 140.65625 " clip-rule="nonzero"/></clipPath><clipPath id="2d88071c26"><path d="M 227.144531 123.699219 C 216.835938 133.0625 216.074219 149.011719 225.4375 159.320312 C 234.800781 169.625 250.75 170.390625 261.054688 161.027344 C 271.363281 151.664062 272.128906 135.714844 262.765625 125.40625 C 253.398438 115.097656 237.453125 114.335938 227.144531 123.699219 Z M 227.144531 123.699219 " clip-rule="nonzero"/></clipPath><clipPath id="e4711aefff"><path d="M 492 130 L 543 130 L 543 182 L 492 182 Z M 492 130 " clip-rule="nonzero"/></clipPath><clipPath id="f59ef356d8"><path d="M 481.800781 154.140625 L 519.128906 120.230469 L 553.039062 157.558594 L 515.710938 191.46875 Z M 481.800781 154.140625 " clip-rule="nonzero"/></clipPath><clipPath id="dacb6268b8"><path d="M 500.464844 137.1875 C 490.15625 146.550781 489.390625 162.496094 498.757812 172.804688 C 508.121094 183.113281 524.066406 183.878906 534.375 174.515625 C 544.683594 165.148438 545.449219 149.203125 536.082031 138.894531 C 526.71875 128.585938 510.773438 127.820312 500.464844 137.1875 Z M 500.464844 137.1875 " clip-rule="nonzero"/></clipPath><clipPath id="566fd80bb3"><path d="M 479 403 L 530 403 L 530 455 L 479 455 Z M 479 403 " clip-rule="nonzero"/></clipPath><clipPath id="3966c5eaf7"><path d="M 469.074219 427.496094 L 506.402344 393.585938 L 540.3125 430.914062 L 502.984375 464.824219 Z M 469.074219 427.496094 " clip-rule="nonzero"/></clipPath><clipPath id="8c241a2efd"><path d="M 487.738281 410.542969 C 477.429688 419.90625 476.664062 435.855469 486.027344 446.160156 C 495.394531 456.46875 511.339844 457.234375 521.648438 447.871094 C 531.957031 438.503906 532.722656 422.558594 523.355469 412.25 C 513.992188 401.941406 498.042969 401.175781 487.738281 410.542969 Z M 487.738281 410.542969 " clip-rule="nonzero"/></clipPath><clipPath id="80c1a225ca"><path d="M 205 391 L 256 391 L 256 442 L 205 442 Z M 205 391 " clip-rule="nonzero"/></clipPath><clipPath id="e7e921b5de"><path d="M 194.957031 414.734375 L 232.285156 380.824219 L 266.195312 418.148438 L 228.871094 452.0625 Z M 194.957031 414.734375 " clip-rule="nonzero"/></clipPath><clipPath id="a2c80406dc"><path d="M 213.621094 397.777344 C 203.3125 407.144531 202.550781 423.089844 211.914062 433.398438 C 221.277344 443.707031 237.226562 444.46875 247.535156 435.105469 C 257.839844 425.742188 258.605469 409.792969 249.242188 399.484375 C 239.875 389.179688 223.929688 388.414062 213.621094 397.777344 Z M 213.621094 397.777344 " clip-rule="nonzero"/></clipPath><clipPath id="bce227179c"><path d="M 356.605469 123.121094 L 394.195312 123.121094 L 394.195312 160.714844 L 356.605469 160.714844 Z M 356.605469 123.121094 " clip-rule="nonzero"/></clipPath><clipPath id="9d74fd10ba"><path d="M 375.402344 123.121094 C 365.019531 123.121094 356.605469 131.535156 356.605469 141.917969 C 356.605469 152.296875 365.019531 160.714844 375.402344 160.714844 C 385.78125 160.714844 394.195312 152.296875 394.195312 141.917969 C 394.195312 131.535156 385.78125 123.121094 375.402344 123.121094 Z M 375.402344 123.121094 " clip-rule="nonzero"/></clipPath><clipPath id="6ba94a67d8"><path d="M 500.640625 267.558594 L 538.234375 267.558594 L 538.234375 305.152344 L 500.640625 305.152344 Z M 500.640625 267.558594 " clip-rule="nonzero"/></clipPath><clipPath id="5e2fefaa72"><path d="M 519.4375 267.558594 C 509.058594 267.558594 500.640625 275.976562 500.640625 286.355469 C 500.640625 296.734375 509.058594 305.152344 519.4375 305.152344 C 529.820312 305.152344 538.234375 296.734375 538.234375 286.355469 C 538.234375 275.976562 529.820312 267.558594 519.4375 267.558594 Z M 519.4375 267.558594 " clip-rule="nonzero"/></clipPath><clipPath id="f6303473f2"><path d="M 356.605469 411.996094 L 394.195312 411.996094 L 394.195312 449.589844 L 356.605469 449.589844 Z M 356.605469 411.996094 " clip-rule="nonzero"/></clipPath><clipPath id="0ec448c33d"><path d="M 375.402344 411.996094 C 365.019531 411.996094 356.605469 420.414062 356.605469 430.792969 C 356.605469 441.175781 365.019531 449.589844 375.402344 449.589844 C 385.78125 449.589844 394.195312 441.175781 394.195312 430.792969 C 394.195312 420.414062 385.78125 411.996094 375.402344 411.996094 Z M 375.402344 411.996094 " clip-rule="nonzero"/></clipPath><clipPath id="536cb7b645"><path d="M 211.765625 267.558594 L 249.359375 267.558594 L 249.359375 305.152344 L 211.765625 305.152344 Z M 211.765625 267.558594 " clip-rule="nonzero"/></clipPath><clipPath id="4da494e9c6"><path d="M 230.5625 267.558594 C 220.179688 267.558594 211.765625 275.976562 211.765625 286.355469 C 211.765625 296.734375 220.179688 305.152344 230.5625 305.152344 C 240.941406 305.152344 249.359375 296.734375 249.359375 286.355469 C 249.359375 275.976562 240.941406 267.558594 230.5625 267.558594 Z M 230.5625 267.558594 " clip-rule="nonzero"/></clipPath><clipPath id="d251ed9c2e"><path d="M 401 129 L 439 129 L 439 168 L 401 168 Z M 401 129 " clip-rule="nonzero"/></clipPath><clipPath id="336763d0a2"><path d="M 407.921875 125.019531 L 443.675781 136.632812 L 432.066406 172.386719 L 396.3125 160.773438 Z M 407.921875 125.019531 " clip-rule="nonzero"/></clipPath><clipPath id="76bf481e83"><path d="M 425.800781 130.828125 C 415.925781 127.621094 405.324219 133.023438 402.117188 142.898438 C 398.910156 152.769531 404.3125 163.375 414.1875 166.582031 C 424.0625 169.789062 434.664062 164.382812 437.871094 154.507812 C 441.078125 144.636719 435.671875 134.03125 425.800781 130.828125 Z M 425.800781 130.828125 " clip-rule="nonzero"/></clipPath><clipPath id="a6807ef3fc"><path d="M 493 311 L 532 311 L 532 350 L 493 350 Z M 493 311 " clip-rule="nonzero"/></clipPath><clipPath id="36bd1164c3"><path d="M 500.304688 306.886719 L 536.058594 318.496094 L 524.445312 354.25 L 488.691406 342.640625 Z M 500.304688 306.886719 " clip-rule="nonzero"/></clipPath><clipPath id="e1a88de89a"><path d="M 518.179688 312.691406 C 508.308594 309.484375 497.703125 314.890625 494.496094 324.761719 C 491.292969 334.636719 496.695312 345.238281 506.570312 348.445312 C 516.441406 351.652344 527.046875 346.246094 530.25 336.375 C 533.457031 326.5 528.054688 315.898438 518.179688 312.691406 Z M 518.179688 312.691406 " clip-rule="nonzero"/></clipPath><clipPath id="7aafeee11b"><path d="M 311 404 L 350 404 L 350 443 L 311 443 Z M 311 404 " clip-rule="nonzero"/></clipPath><clipPath id="db03d6851a"><path d="M 318.695312 399.773438 L 354.449219 411.382812 L 342.839844 447.136719 L 307.085938 435.527344 Z M 318.695312 399.773438 " clip-rule="nonzero"/></clipPath><clipPath id="fef867965b"><path d="M 336.574219 405.578125 C 326.699219 402.371094 316.097656 407.777344 312.890625 417.648438 C 309.683594 427.523438 315.089844 438.125 324.960938 441.332031 C 334.835938 444.539062 345.4375 439.132812 348.644531 429.261719 C 351.851562 419.386719 346.445312 408.785156 336.574219 405.578125 Z M 336.574219 405.578125 " clip-rule="nonzero"/></clipPath><clipPath id="a985cb5aaa"><path d="M 218 222 L 257 222 L 257 261 L 218 261 Z M 218 222 " clip-rule="nonzero"/></clipPath><clipPath id="cc8c9f0447"><path d="M 225.550781 217.660156 L 261.304688 229.269531 L 249.695312 265.023438 L 213.941406 253.414062 Z M 225.550781 217.660156 " clip-rule="nonzero"/></clipPath><clipPath id="1e6300dee2"><path d="M 243.429688 223.464844 C 233.554688 220.257812 222.953125 225.664062 219.746094 235.535156 C 216.539062 245.410156 221.945312 256.011719 231.816406 259.21875 C 241.691406 262.425781 252.292969 257.019531 255.5 247.148438 C 258.707031 237.273438 253.300781 226.671875 243.429688 223.464844 Z M 243.429688 223.464844 " clip-rule="nonzero"/></clipPath><clipPath id="a5edfa988d"><path d="M 311 129 L 350 129 L 350 168 L 311 168 Z M 311 129 " clip-rule="nonzero"/></clipPath><clipPath id="f899fdff52"><path d="M 307.03125 136.410156 L 342.78125 124.785156 L 354.40625 160.535156 L 318.65625 172.160156 Z M 307.03125 136.410156 " clip-rule="nonzero"/></clipPath><clipPath id="c4c19d1672"><path d="M 324.90625 130.597656 C 315.035156 133.804688 309.632812 144.410156 312.84375 154.285156 C 316.054688 164.15625 326.65625 169.554688 336.53125 166.347656 C 346.402344 163.136719 351.804688 152.53125 348.59375 142.660156 C 345.382812 132.785156 334.777344 127.386719 324.90625 130.597656 Z M 324.90625 130.597656 " clip-rule="nonzero"/></clipPath><clipPath id="5ac9a784c0"><path d="M 493 222 L 532 222 L 532 261 L 493 261 Z M 493 222 " clip-rule="nonzero"/></clipPath><clipPath id="729a7295ef"><path d="M 488.671875 229.226562 L 524.421875 217.601562 L 536.046875 253.351562 L 500.296875 264.976562 Z M 488.671875 229.226562 " clip-rule="nonzero"/></clipPath><clipPath id="1a0a0ec3cb"><path d="M 506.546875 223.414062 C 496.675781 226.625 491.273438 237.230469 494.484375 247.101562 C 497.695312 256.972656 508.300781 262.375 518.171875 259.164062 C 528.042969 255.953125 533.445312 245.351562 530.234375 235.476562 C 527.023438 225.605469 516.417969 220.203125 506.546875 223.414062 Z M 506.546875 223.414062 " clip-rule="nonzero"/></clipPath><clipPath id="3c6c0c1de7"><path d="M 401 404 L 439 404 L 439 442 L 401 442 Z M 401 404 " clip-rule="nonzero"/></clipPath><clipPath id="675ea1b59f"><path d="M 396.359375 411.125 L 432.109375 399.5 L 443.734375 435.25 L 407.984375 446.875 Z M 396.359375 411.125 " clip-rule="nonzero"/></clipPath><clipPath id="067c9e663d"><path d="M 414.234375 405.3125 C 404.359375 408.523438 398.960938 419.128906 402.171875 429 C 405.378906 438.871094 415.984375 444.273438 425.859375 441.0625 C 435.730469 437.855469 441.128906 427.25 437.921875 417.375 C 434.710938 407.503906 424.105469 402.105469 414.234375 405.3125 Z M 414.234375 405.3125 " clip-rule="nonzero"/></clipPath><clipPath id="e2ee20e37a"><path d="M 218 311 L 257 311 L 257 350 L 218 350 Z M 218 311 " clip-rule="nonzero"/></clipPath><clipPath id="c544f91d4d"><path d="M 213.953125 318.554688 L 249.703125 306.929688 L 261.328125 342.679688 L 225.578125 354.304688 Z M 213.953125 318.554688 " clip-rule="nonzero"/></clipPath><clipPath id="553ddfb832"><path d="M 231.828125 312.742188 C 221.957031 315.953125 216.558594 326.558594 219.765625 336.429688 C 222.976562 346.300781 233.582031 351.703125 243.453125 348.492188 C 253.324219 345.28125 258.726562 334.675781 255.515625 324.804688 C 252.308594 314.933594 241.703125 309.53125 231.828125 312.742188 Z M 231.828125 312.742188 " clip-rule="nonzero"/></clipPath><clipPath id="09ce104539"><path d="M 239 182 L 277 182 L 277 221 L 239 221 Z M 239 182 " clip-rule="nonzero"/></clipPath><clipPath id="e520aab288"><path d="M 231.601562 205.515625 L 253.648438 175.066406 L 284.097656 197.113281 L 262.046875 227.5625 Z M 231.601562 205.515625 " clip-rule="nonzero"/></clipPath><clipPath id="6e06533ac9"><path d="M 242.625 190.289062 C 236.535156 198.699219 238.417969 210.449219 246.824219 216.539062 C 255.230469 222.625 266.984375 220.746094 273.074219 212.339844 C 279.160156 203.929688 277.28125 192.179688 268.871094 186.089844 C 260.464844 180 248.714844 181.882812 242.625 190.289062 Z M 242.625 190.289062 " clip-rule="nonzero"/></clipPath><clipPath id="841e6f4fa7"><path d="M 440 150 L 479 150 L 479 189 L 440 189 Z M 440 150 " clip-rule="nonzero"/></clipPath><clipPath id="35e846db2e"><path d="M 433.066406 173.566406 L 455.113281 143.117188 L 485.5625 165.164062 L 463.515625 195.613281 Z M 433.066406 173.566406 " clip-rule="nonzero"/></clipPath><clipPath id="367bd544a7"><path d="M 444.089844 158.339844 C 438 166.75 439.882812 178.5 448.289062 184.589844 C 456.699219 190.679688 468.449219 188.796875 474.539062 180.390625 C 480.625 171.980469 478.746094 160.230469 470.339844 154.140625 C 461.929688 148.054688 450.179688 149.933594 444.089844 158.339844 Z M 444.089844 158.339844 " clip-rule="nonzero"/></clipPath><clipPath id="a455fce5c6"><path d="M 473 351 L 511 351 L 511 390 L 473 390 Z M 473 351 " clip-rule="nonzero"/></clipPath><clipPath id="5274dae2d2"><path d="M 465.574219 374.941406 L 487.621094 344.492188 L 518.070312 366.542969 L 496.023438 396.988281 Z M 465.574219 374.941406 " clip-rule="nonzero"/></clipPath><clipPath id="9bb5bdf920"><path d="M 476.597656 359.71875 C 470.507812 368.125 472.390625 379.878906 480.796875 385.964844 C 489.207031 392.054688 500.957031 390.171875 507.046875 381.765625 C 513.132812 373.359375 511.253906 361.605469 502.847656 355.519531 C 494.4375 349.429688 482.6875 351.308594 476.597656 359.71875 Z M 476.597656 359.71875 " clip-rule="nonzero"/></clipPath><clipPath id="d73fa271a1"><path d="M 271 384 L 309 384 L 309 423 L 271 423 Z M 271 384 " clip-rule="nonzero"/></clipPath><clipPath id="1dec8ee5b5"><path d="M 263.636719 407.539062 L 285.6875 377.089844 L 316.132812 399.140625 L 294.085938 429.585938 Z M 263.636719 407.539062 " clip-rule="nonzero"/></clipPath><clipPath id="b8992dc3bd"><path d="M 274.664062 392.316406 C 268.574219 400.722656 270.453125 412.476562 278.863281 418.5625 C 287.269531 424.652344 299.023438 422.769531 305.109375 414.363281 C 311.199219 405.957031 309.320312 394.203125 300.910156 388.117188 C 292.503906 382.027344 280.75 383.90625 274.664062 392.316406 Z M 274.664062 392.316406 " clip-rule="nonzero"/></clipPath><clipPath id="5f42aca5f4"><path d="M 270 150 L 309 150 L 309 188 L 270 188 Z M 270 150 " clip-rule="nonzero"/></clipPath><clipPath id="a6a6428548"><path d="M 263.238281 165.0625 L 293.613281 142.914062 L 315.761719 173.289062 L 285.386719 195.4375 Z M 263.238281 165.0625 " clip-rule="nonzero"/></clipPath><clipPath id="d43459da50"><path d="M 278.425781 153.988281 C 270.035156 160.105469 268.195312 171.863281 274.3125 180.25 C 280.425781 188.640625 292.183594 190.480469 300.574219 184.363281 C 308.960938 178.246094 310.800781 166.488281 304.6875 158.101562 C 298.570312 149.714844 286.8125 147.875 278.425781 153.988281 Z M 278.425781 153.988281 " clip-rule="nonzero"/></clipPath><clipPath id="26e9ede8f1"><path d="M 472 182 L 510 182 L 510 220 L 472 220 Z M 472 182 " clip-rule="nonzero"/></clipPath><clipPath id="77897b61d1"><path d="M 464.71875 196.90625 L 495.09375 174.757812 L 517.242188 205.128906 L 486.867188 227.28125 Z M 464.71875 196.90625 " clip-rule="nonzero"/></clipPath><clipPath id="b24ba89ca6"><path d="M 479.90625 185.832031 C 471.519531 191.945312 469.675781 203.703125 475.792969 212.09375 C 481.910156 220.480469 493.667969 222.320312 502.054688 216.207031 C 510.441406 210.089844 512.285156 198.332031 506.167969 189.945312 C 500.050781 181.554688 488.292969 179.714844 479.90625 185.832031 Z M 479.90625 185.832031 " clip-rule="nonzero"/></clipPath><clipPath id="d4176b3d57"><path d="M 440 383 L 479 383 L 479 422 L 440 422 Z M 440 383 " clip-rule="nonzero"/></clipPath><clipPath id="49f391c05a"><path d="M 433.4375 398.476562 L 463.8125 376.328125 L 485.960938 406.699219 L 455.585938 428.847656 Z M 433.4375 398.476562 " clip-rule="nonzero"/></clipPath><clipPath id="d32bf21e64"><path d="M 448.625 387.402344 C 440.238281 393.515625 438.398438 405.273438 444.511719 413.664062 C 450.628906 422.050781 462.386719 423.890625 470.773438 417.773438 C 479.164062 411.660156 481.003906 399.902344 474.886719 391.511719 C 468.769531 383.125 457.011719 381.285156 448.625 387.402344 Z M 448.625 387.402344 " clip-rule="nonzero"/></clipPath><clipPath id="935b61e4d7"><path d="M 238 352 L 277 352 L 277 391 L 238 391 Z M 238 352 " clip-rule="nonzero"/></clipPath><clipPath id="2c514674e6"><path d="M 231.308594 367.105469 L 261.683594 344.957031 L 283.832031 375.332031 L 253.457031 397.480469 Z M 231.308594 367.105469 " clip-rule="nonzero"/></clipPath><clipPath id="2ea9a1d418"><path d="M 246.496094 356.03125 C 238.109375 362.148438 236.265625 373.90625 242.382812 382.292969 C 248.5 390.679688 260.257812 392.523438 268.644531 386.40625 C 277.03125 380.289062 278.875 368.53125 272.757812 360.144531 C 266.640625 351.757812 254.882812 349.914062 246.496094 356.03125 Z M 246.496094 356.03125 " clip-rule="nonzero"/></clipPath><clipPath id="b73e4f7add"><path d="M 375 171 L 403 171 L 403 198 L 375 198 Z M 375 171 " clip-rule="nonzero"/></clipPath><clipPath id="9b19d4c5b8"><path d="M 377.089844 169.390625 L 403.636719 172.863281 L 400.164062 199.410156 L 373.617188 195.933594 Z M 377.089844 169.390625 " clip-rule="nonzero"/></clipPath><clipPath id="a906dc1fe7"><path d="M 390.363281 171.125 C 383.035156 170.167969 376.3125 175.332031 375.355469 182.664062 C 374.394531 189.992188 379.558594 196.714844 386.890625 197.671875 C 394.222656 198.632812 400.941406 193.464844 401.898438 186.136719 C 402.859375 178.804688 397.695312 172.085938 390.363281 171.125 Z M 390.363281 171.125 " clip-rule="nonzero"/></clipPath><clipPath id="22033a611d"><path d="M 463 286 L 491 286 L 491 314 L 463 314 Z M 463 286 " clip-rule="nonzero"/></clipPath><clipPath id="c3a080ac76"><path d="M 465.457031 284.691406 L 492.003906 288.164062 L 488.527344 314.710938 L 461.984375 311.238281 Z M 465.457031 284.691406 " clip-rule="nonzero"/></clipPath><clipPath id="fb01702885"><path d="M 478.730469 286.429688 C 471.398438 285.46875 464.679688 290.632812 463.71875 297.964844 C 462.761719 305.292969 467.925781 312.015625 475.257812 312.972656 C 482.585938 313.933594 489.308594 308.769531 490.265625 301.4375 C 491.226562 294.105469 486.058594 287.386719 478.730469 286.429688 Z M 478.730469 286.429688 " clip-rule="nonzero"/></clipPath><clipPath id="a6c41bfadb"><path d="M 348 375 L 376 375 L 376 402 L 348 402 Z M 348 375 " clip-rule="nonzero"/></clipPath><clipPath id="710e5ddbe8"><path d="M 350.402344 373.378906 L 376.945312 376.851562 L 373.472656 403.394531 L 346.929688 399.921875 Z M 350.402344 373.378906 " clip-rule="nonzero"/></clipPath><clipPath id="1266f21841"><path d="M 363.675781 375.113281 C 356.34375 374.15625 349.625 379.320312 348.664062 386.648438 C 347.707031 393.980469 352.871094 400.699219 360.199219 401.660156 C 367.53125 402.617188 374.25 397.453125 375.210938 390.125 C 376.167969 382.792969 371.003906 376.074219 363.675781 375.113281 Z M 363.675781 375.113281 " clip-rule="nonzero"/></clipPath><clipPath id="cac91adc0a"><path d="M 259 259 L 287 259 L 287 287 L 259 287 Z M 259 259 " clip-rule="nonzero"/></clipPath><clipPath id="de195d5615"><path d="M 261.46875 258 L 288.015625 261.476562 L 284.542969 288.019531 L 257.996094 284.546875 Z M 261.46875 258 " clip-rule="nonzero"/></clipPath><clipPath id="90da53a3d3"><path d="M 274.742188 259.738281 C 267.414062 258.777344 260.691406 263.945312 259.734375 271.273438 C 258.773438 278.605469 263.9375 285.324219 271.269531 286.285156 C 278.601562 287.242188 285.320312 282.078125 286.277344 274.746094 C 287.238281 267.417969 282.074219 260.699219 274.742188 259.738281 Z M 274.742188 259.738281 " clip-rule="nonzero"/></clipPath><clipPath id="d42d364cc8"><path d="M 406 179 L 433 179 L 433 207 L 406 207 Z M 406 179 " clip-rule="nonzero"/></clipPath><clipPath id="8f134a7dbf"><path d="M 413.152344 175.472656 L 437.328125 186.976562 L 425.824219 211.148438 L 401.648438 199.648438 Z M 413.152344 175.472656 " clip-rule="nonzero"/></clipPath><clipPath id="4e9f629743"><path d="M 425.238281 181.222656 C 418.5625 178.046875 410.578125 180.882812 407.402344 187.558594 C 404.226562 194.234375 407.0625 202.222656 413.738281 205.398438 C 420.414062 208.574219 428.398438 205.738281 431.574219 199.0625 C 434.753906 192.386719 431.914062 184.402344 425.238281 181.222656 Z M 425.238281 181.222656 " clip-rule="nonzero"/></clipPath><clipPath id="4e4c18a52d"><path d="M 454 316 L 482 316 L 482 344 L 454 344 Z M 454 316 " clip-rule="nonzero"/></clipPath><clipPath id="9823183467"><path d="M 461.582031 312.429688 L 485.757812 323.933594 L 474.257812 348.109375 L 450.082031 336.605469 Z M 461.582031 312.429688 " clip-rule="nonzero"/></clipPath><clipPath id="e3ff4ec5b2"><path d="M 473.671875 318.183594 C 466.996094 315.003906 459.007812 317.84375 455.832031 324.519531 C 452.65625 331.195312 455.492188 339.179688 462.167969 342.355469 C 468.84375 345.53125 476.832031 342.695312 480.007812 336.019531 C 483.183594 329.34375 480.347656 321.359375 473.671875 318.183594 Z M 473.671875 318.183594 " clip-rule="nonzero"/></clipPath><clipPath id="d9d699a5e6"><path d="M 317 365 L 345 365 L 345 393 L 317 393 Z M 317 365 " clip-rule="nonzero"/></clipPath><clipPath id="16002abb55"><path d="M 324.761719 361.242188 L 348.9375 372.746094 L 337.433594 396.917969 L 313.257812 385.417969 Z M 324.761719 361.242188 " clip-rule="nonzero"/></clipPath><clipPath id="4f635e6299"><path d="M 336.847656 366.992188 C 330.171875 363.816406 322.1875 366.652344 319.011719 373.328125 C 315.832031 380.003906 318.671875 387.992188 325.347656 391.167969 C 332.023438 394.34375 340.007812 391.507812 343.183594 384.832031 C 346.359375 378.15625 343.523438 370.167969 336.847656 366.992188 Z M 336.847656 366.992188 " clip-rule="nonzero"/></clipPath><clipPath id="1b0a920b98"><path d="M 268 228 L 296 228 L 296 256 L 268 256 Z M 268 228 " clip-rule="nonzero"/></clipPath><clipPath id="f7bd9f9aa9"><path d="M 275.816406 224.039062 L 299.988281 235.542969 L 288.488281 259.71875 L 264.3125 248.214844 Z M 275.816406 224.039062 " clip-rule="nonzero"/></clipPath><clipPath id="1df6f59811"><path d="M 287.902344 229.789062 C 281.226562 226.613281 273.238281 229.453125 270.0625 236.125 C 266.886719 242.800781 269.722656 250.789062 276.398438 253.964844 C 283.074219 257.140625 291.0625 254.304688 294.238281 247.628906 C 297.414062 240.953125 294.578125 232.96875 287.902344 229.789062 Z M 287.902344 229.789062 " clip-rule="nonzero"/></clipPath><clipPath id="e3e662618c"><path d="M 343 171 L 370 171 L 370 199 L 343 199 Z M 343 171 " clip-rule="nonzero"/></clipPath><clipPath id="49aaefac38"><path d="M 340.859375 174.191406 L 367.175781 169.285156 L 372.082031 195.605469 L 345.761719 200.511719 Z M 340.859375 174.191406 " clip-rule="nonzero"/></clipPath><clipPath id="f241b7fe0e"><path d="M 354.015625 171.738281 C 346.75 173.09375 341.957031 180.082031 343.3125 187.351562 C 344.664062 194.617188 351.65625 199.410156 358.921875 198.058594 C 366.191406 196.703125 370.984375 189.714844 369.628906 182.445312 C 368.273438 175.175781 361.285156 170.382812 354.015625 171.738281 Z M 354.015625 171.738281 " clip-rule="nonzero"/></clipPath><clipPath id="f91c54ab11"><path d="M 462 253 L 490 253 L 490 281 L 462 281 Z M 462 253 " clip-rule="nonzero"/></clipPath><clipPath id="2040b39700"><path d="M 460.546875 256.515625 L 486.867188 251.613281 L 491.769531 277.929688 L 465.453125 282.835938 Z M 460.546875 256.515625 " clip-rule="nonzero"/></clipPath><clipPath id="492ed26014"><path d="M 473.707031 254.0625 C 466.4375 255.417969 461.644531 262.410156 463 269.675781 C 464.355469 276.945312 471.34375 281.738281 478.613281 280.382812 C 485.878906 279.027344 490.671875 272.039062 489.316406 264.769531 C 487.964844 257.503906 480.972656 252.710938 473.707031 254.0625 Z M 473.707031 254.0625 " clip-rule="nonzero"/></clipPath><clipPath id="de565e5abb"><path d="M 380 373 L 408 373 L 408 401 L 380 401 Z M 380 373 " clip-rule="nonzero"/></clipPath><clipPath id="7e0e2b5270"><path d="M 378.554688 376.433594 L 404.871094 371.527344 L 409.777344 397.847656 L 383.460938 402.753906 Z M 378.554688 376.433594 " clip-rule="nonzero"/></clipPath><clipPath id="8e6c77fdb5"><path d="M 391.714844 373.980469 C 384.445312 375.335938 379.652344 382.324219 381.007812 389.59375 C 382.363281 396.859375 389.351562 401.65625 396.617188 400.300781 C 403.886719 398.945312 408.679688 391.957031 407.324219 384.6875 C 405.972656 377.421875 398.980469 372.628906 391.714844 373.980469 Z M 391.714844 373.980469 " clip-rule="nonzero"/></clipPath><clipPath id="8c8056e8a2"><path d="M 260 291 L 288 291 L 288 319 L 260 319 Z M 260 291 " clip-rule="nonzero"/></clipPath><clipPath id="b3115bda15"><path d="M 258.304688 294.214844 L 284.621094 289.308594 L 289.527344 315.625 L 263.210938 320.53125 Z M 258.304688 294.214844 " clip-rule="nonzero"/></clipPath><clipPath id="e777916e1c"><path d="M 271.464844 291.761719 C 264.195312 293.117188 259.402344 300.105469 260.757812 307.371094 C 262.113281 314.640625 269.101562 319.433594 276.367188 318.078125 C 283.636719 316.722656 288.429688 309.734375 287.074219 302.46875 C 285.722656 295.199219 278.730469 290.40625 271.464844 291.761719 Z M 271.464844 291.761719 " clip-rule="nonzero"/></clipPath><clipPath id="2f1becf7d9"><path d="M 286 202 L 314 202 L 314 229 L 286 229 Z M 286 202 " clip-rule="nonzero"/></clipPath><clipPath id="9dfdf6f9ff"><path d="M 281.210938 216.019531 L 299.589844 196.554688 L 319.054688 214.9375 L 300.671875 234.402344 Z M 281.210938 216.019531 " clip-rule="nonzero"/></clipPath><clipPath id="ad893da691"><path d="M 290.398438 206.289062 C 285.324219 211.664062 285.566406 220.132812 290.941406 225.210938 C 296.316406 230.285156 304.789062 230.042969 309.863281 224.671875 C 314.941406 219.296875 314.699219 210.824219 309.324219 205.746094 C 303.949219 200.671875 295.476562 200.914062 290.398438 206.289062 Z M 290.398438 206.289062 " clip-rule="nonzero"/></clipPath><clipPath id="1bf6f97ee1"><path d="M 431 198 L 459 198 L 459 225 L 431 225 Z M 431 198 " clip-rule="nonzero"/></clipPath><clipPath id="0aa7e17314"><path d="M 426.425781 212.074219 L 444.804688 192.609375 L 464.269531 210.992188 L 445.886719 230.457031 Z M 426.425781 212.074219 " clip-rule="nonzero"/></clipPath><clipPath id="a9496d5062"><path d="M 435.613281 202.339844 C 430.539062 207.714844 430.78125 216.1875 436.15625 221.265625 C 441.53125 226.339844 450.003906 226.097656 455.078125 220.722656 C 460.15625 215.347656 459.914062 206.878906 454.539062 201.800781 C 449.164062 196.726562 440.691406 196.96875 435.613281 202.339844 Z M 435.613281 202.339844 " clip-rule="nonzero"/></clipPath><clipPath id="66979a24c4"><path d="M 436 343 L 464 343 L 464 371 L 436 371 Z M 436 343 " clip-rule="nonzero"/></clipPath><clipPath id="3d6f5151a9"><path d="M 430.773438 357.277344 L 449.15625 337.8125 L 468.621094 356.195312 L 450.238281 375.660156 Z M 430.773438 357.277344 " clip-rule="nonzero"/></clipPath><clipPath id="9b57164c53"><path d="M 439.964844 347.542969 C 434.890625 352.917969 435.132812 361.390625 440.503906 366.46875 C 445.878906 371.542969 454.351562 371.300781 459.429688 365.925781 C 464.503906 360.550781 464.261719 352.082031 458.886719 347.003906 C 453.511719 341.929688 445.042969 342.171875 439.964844 347.542969 Z M 439.964844 347.542969 " clip-rule="nonzero"/></clipPath><clipPath id="dd86cfcd6e"><path d="M 290 347 L 318 347 L 318 375 L 290 375 Z M 290 347 " clip-rule="nonzero"/></clipPath><clipPath id="a3c0583051"><path d="M 285.167969 361.636719 L 303.550781 342.175781 L 323.011719 360.558594 L 304.628906 380.019531 Z M 285.167969 361.636719 " clip-rule="nonzero"/></clipPath><clipPath id="24ba114ddc"><path d="M 294.359375 351.90625 C 289.28125 357.28125 289.523438 365.753906 294.898438 370.828125 C 300.273438 375.90625 308.746094 375.664062 313.820312 370.289062 C 318.898438 364.914062 318.65625 356.441406 313.28125 351.367188 C 307.90625 346.289062 299.433594 346.53125 294.359375 351.90625 Z M 294.359375 351.90625 " clip-rule="nonzero"/></clipPath><clipPath id="0db51f29cc"><path d="M 312 182 L 339 182 L 339 210 L 312 210 Z M 312 182 " clip-rule="nonzero"/></clipPath><clipPath id="bd496385ed"><path d="M 307.285156 190.378906 L 330.78125 177.546875 L 343.613281 201.039062 L 320.121094 213.875 Z M 307.285156 190.378906 " clip-rule="nonzero"/></clipPath><clipPath id="995e88de0b"><path d="M 319.035156 183.960938 C 312.546875 187.507812 310.160156 195.640625 313.703125 202.128906 C 317.246094 208.617188 325.378906 211 331.867188 207.457031 C 338.355469 203.914062 340.742188 195.78125 337.199219 189.292969 C 333.652344 182.804688 325.523438 180.417969 319.035156 183.960938 Z M 319.035156 183.960938 " clip-rule="nonzero"/></clipPath><clipPath id="52231c9e92"><path d="M 451 223 L 479 223 L 479 251 L 451 251 Z M 451 223 " clip-rule="nonzero"/></clipPath><clipPath id="c02e2c6e18"><path d="M 446.621094 231.480469 L 470.113281 218.644531 L 482.949219 242.140625 L 459.453125 254.972656 Z M 446.621094 231.480469 " clip-rule="nonzero"/></clipPath><clipPath id="68a13b3c9f"><path d="M 458.367188 225.0625 C 451.878906 228.605469 449.492188 236.738281 453.035156 243.226562 C 456.582031 249.714844 464.710938 252.101562 471.199219 248.558594 C 477.6875 245.011719 480.074219 236.882812 476.53125 230.394531 C 472.988281 223.90625 464.855469 221.519531 458.367188 225.0625 Z M 458.367188 225.0625 " clip-rule="nonzero"/></clipPath><clipPath id="eecfc9147d"><path d="M 410 362 L 438 362 L 438 390 L 410 390 Z M 410 362 " clip-rule="nonzero"/></clipPath><clipPath id="9c9995b36f"><path d="M 405.90625 370.925781 L 429.402344 358.09375 L 442.234375 381.585938 L 418.742188 394.421875 Z M 405.90625 370.925781 " clip-rule="nonzero"/></clipPath><clipPath id="e5c670c749"><path d="M 417.65625 364.507812 C 411.167969 368.054688 408.78125 376.1875 412.324219 382.671875 C 415.867188 389.160156 424 391.546875 430.488281 388.003906 C 436.976562 384.460938 439.363281 376.328125 435.820312 369.839844 C 432.273438 363.351562 424.144531 360.964844 417.65625 364.507812 Z M 417.65625 364.507812 " clip-rule="nonzero"/></clipPath><clipPath id="4a5b39e913"><path d="M 270 322 L 298 322 L 298 349 L 270 349 Z M 270 322 " clip-rule="nonzero"/></clipPath><clipPath id="ffc86b4e78"><path d="M 266.074219 330.101562 L 289.566406 317.265625 L 302.402344 340.761719 L 278.90625 353.59375 Z M 266.074219 330.101562 " clip-rule="nonzero"/></clipPath><clipPath id="5cc51c249a"><path d="M 277.820312 323.683594 C 271.332031 327.226562 268.945312 335.359375 272.488281 341.847656 C 276.035156 348.335938 284.167969 350.722656 290.65625 347.179688 C 297.140625 343.632812 299.527344 335.503906 295.984375 329.015625 C 292.441406 322.527344 284.308594 320.140625 277.820312 323.683594 Z M 277.820312 323.683594 " clip-rule="nonzero"/></clipPath></defs><g clip-path="url(#8a5d9eeb43)"><g clip-path="url(#56d141792e)"><g clip-path="url(#f3bb58f873)"><path fill="#ffffff" d="M 326.984375 71.277344 L 377.125 65.871094 L 382.53125 116.011719 L 332.390625 121.417969 Z M 326.984375 71.277344 " fill-opacity="1" fill-rule="nonzero"/></g></g></g><g clip-path="url(#739b3050b7)"><g clip-path="url(#b7a061a344)"><g clip-path="url(#8d5e8298ba)"><path fill="#ffffff" d="M 539.878906 243.210938 L 590.019531 237.804688 L 595.425781 287.945312 L 545.285156 293.351562 Z M 539.878906 243.210938 " fill-opacity="1" fill-rule="nonzero"/></g></g></g><g clip-path="url(#906fd243b1)"><g clip-path="url(#669495ee4c)"><g clip-path="url(#20b8fa2200)"><path fill="#ffffff" d="M 368.539062 456.582031 L 418.679688 451.175781 L 424.085938 501.316406 L 373.945312 506.726562 Z M 368.539062 456.582031 " fill-opacity="1" fill-rule="nonzero"/></g></g></g><g clip-path="url(#75e6552497)"><g clip-path="url(#9dd4077e19)"><g clip-path="url(#572238c514)"><path fill="#ffffff" d="M 154.574219 284.765625 L 204.714844 279.359375 L 210.121094 329.5 L 159.980469 334.90625 Z M 154.574219 284.765625 " fill-opacity="1" fill-rule="nonzero"/></g></g></g><g clip-path="url(#a71906b414)"><g clip-path="url(#779446ca27)"><g clip-path="url(#61ef564c3f)"><path fill="#ffffff" d="M 395.703125 66.429688 L 445.0625 76.773438 L 434.71875 126.132812 L 385.359375 115.789062 Z M 395.703125 66.429688 " fill-opacity="1" fill-rule="nonzero"/></g></g></g><g clip-path="url(#8c1c0265e1)"><g clip-path="url(#5b1e153b2d)"><g clip-path="url(#652efc2841)"><path fill="#ffffff" d="M 545.085938 295.714844 L 594.445312 306.058594 L 584.101562 355.417969 L 534.742188 345.074219 Z M 545.085938 295.714844 " fill-opacity="1" fill-rule="nonzero"/></g></g></g><g clip-path="url(#b21bf5b780)"><g clip-path="url(#4f79399fff)"><g clip-path="url(#65f24cd69c)"><path fill="#ffffff" d="M 316.21875 445.730469 L 365.578125 456.074219 L 355.230469 505.433594 L 305.871094 495.089844 Z M 316.21875 445.730469 " fill-opacity="1" fill-rule="nonzero"/></g></g></g><g clip-path="url(#372ffc0892)"><g clip-path="url(#e18da81722)"><g clip-path="url(#8d332078a9)"><path fill="#ffffff" d="M 165.785156 216.226562 L 215.144531 226.570312 L 204.800781 275.929688 L 155.441406 265.585938 Z M 165.785156 216.226562 " fill-opacity="1" fill-rule="nonzero"/></g></g></g><g clip-path="url(#f6e3a4c569)"><g clip-path="url(#4edc15d061)"><g clip-path="url(#69f76ffb03)"><path fill="#ffffff" d="M 262.773438 96.132812 L 308.78125 75.484375 L 329.429688 121.496094 L 283.417969 142.144531 Z M 262.773438 96.132812 " fill-opacity="1" fill-rule="nonzero"/></g></g></g><g clip-path="url(#6110e76088)"><g clip-path="url(#f03aa81417)"><g clip-path="url(#a2ba951bd7)"><path fill="#ffffff" d="M 518.398438 193.808594 L 564.410156 173.160156 L 585.058594 219.171875 L 539.046875 239.816406 Z M 518.398438 193.808594 " fill-opacity="1" fill-rule="nonzero"/></g></g></g><g clip-path="url(#39ca9e2bbe)"><g clip-path="url(#1a9a238b91)"><g clip-path="url(#2757ecb0fb)"><path fill="#ffffff" d="M 421.433594 449.703125 L 467.445312 429.058594 L 488.09375 475.066406 L 442.082031 495.714844 Z M 421.433594 449.703125 " fill-opacity="1" fill-rule="nonzero"/></g></g></g><g clip-path="url(#b44cd4e463)"><g clip-path="url(#b19227b4a6)"><g clip-path="url(#b2ec22d125)"><path fill="#ffffff" d="M 164.828125 352.472656 L 210.839844 331.824219 L 231.484375 377.835938 L 185.476562 398.480469 Z M 164.828125 352.472656 " fill-opacity="1" fill-rule="nonzero"/></g></g></g><g clip-path="url(#7431dc451e)"><g clip-path="url(#bdd222acc9)"><g clip-path="url(#aa7bb5d215)"><path fill="#ffffff" d="M 172.101562 199.160156 L 197.132812 155.375 L 240.914062 180.40625 L 215.886719 224.1875 Z M 172.101562 199.160156 " fill-opacity="1" fill-rule="nonzero"/></g></g></g><g clip-path="url(#b3d6f244be)"><g clip-path="url(#d27aaf2180)"><g clip-path="url(#f00edce520)"><path fill="#ffffff" d="M 436.222656 127.566406 L 461.25 83.78125 L 505.035156 108.8125 L 480.007812 152.59375 Z M 436.222656 127.566406 " fill-opacity="1" fill-rule="nonzero"/></g></g></g><g clip-path="url(#5d952c14d4)"><g clip-path="url(#e3c901c5ef)"><g clip-path="url(#8e35b3068c)"><path fill="#ffffff" d="M 508.550781 391.488281 L 533.578125 347.703125 L 577.363281 372.730469 L 552.332031 416.515625 Z M 508.550781 391.488281 " fill-opacity="1" fill-rule="nonzero"/></g></g></g><g clip-path="url(#ad99276264)"><g clip-path="url(#555330940a)"><g clip-path="url(#5d394a1c90)"><path fill="#ffffff" d="M 243.894531 464.015625 L 268.925781 420.230469 L 312.707031 445.257812 L 287.679688 489.042969 Z M 243.894531 464.015625 " fill-opacity="1" fill-rule="nonzero"/></g></g></g><g clip-path="url(#bc8b0b38ce)"><g clip-path="url(#29167e9a4f)"><g clip-path="url(#2d88071c26)"><path fill="#ffffff" d="M 208.480469 140.65625 L 245.808594 106.742188 L 279.71875 144.070312 L 242.394531 177.984375 Z M 208.480469 140.65625 " fill-opacity="1" fill-rule="nonzero"/></g></g></g><g clip-path="url(#e4711aefff)"><g clip-path="url(#f59ef356d8)"><g clip-path="url(#dacb6268b8)"><path fill="#ffffff" d="M 481.800781 154.140625 L 519.128906 120.230469 L 553.039062 157.558594 L 515.710938 191.46875 Z M 481.800781 154.140625 " fill-opacity="1" fill-rule="nonzero"/></g></g></g><g clip-path="url(#566fd80bb3)"><g clip-path="url(#3966c5eaf7)"><g clip-path="url(#8c241a2efd)"><path fill="#ffffff" d="M 469.074219 427.496094 L 506.402344 393.585938 L 540.3125 430.914062 L 502.984375 464.824219 Z M 469.074219 427.496094 " fill-opacity="1" fill-rule="nonzero"/></g></g></g><g clip-path="url(#80c1a225ca)"><g clip-path="url(#e7e921b5de)"><g clip-path="url(#a2c80406dc)"><path fill="#ffffff" d="M 194.957031 414.734375 L 232.285156 380.824219 L 266.195312 418.148438 L 228.871094 452.0625 Z M 194.957031 414.734375 " fill-opacity="1" fill-rule="nonzero"/></g></g></g><g clip-path="url(#bce227179c)"><g clip-path="url(#9d74fd10ba)"><path fill="#ffffff" d="M 356.605469 123.121094 L 394.195312 123.121094 L 394.195312 160.714844 L 356.605469 160.714844 Z M 356.605469 123.121094 " fill-opacity="1" fill-rule="nonzero"/></g></g><g clip-path="url(#6ba94a67d8)"><g clip-path="url(#5e2fefaa72)"><path fill="#ffffff" d="M 500.640625 267.558594 L 538.234375 267.558594 L 538.234375 305.152344 L 500.640625 305.152344 Z M 500.640625 267.558594 " fill-opacity="1" fill-rule="nonzero"/></g></g><g clip-path="url(#f6303473f2)"><g clip-path="url(#0ec448c33d)"><path fill="#ffffff" d="M 356.605469 411.996094 L 394.195312 411.996094 L 394.195312 449.589844 L 356.605469 449.589844 Z M 356.605469 411.996094 " fill-opacity="1" fill-rule="nonzero"/></g></g><g clip-path="url(#536cb7b645)"><g clip-path="url(#4da494e9c6)"><path fill="#ffffff" d="M 211.765625 267.558594 L 249.359375 267.558594 L 249.359375 305.152344 L 211.765625 305.152344 Z M 211.765625 267.558594 " fill-opacity="1" fill-rule="nonzero"/></g></g><g clip-path="url(#d251ed9c2e)"><g clip-path="url(#336763d0a2)"><g clip-path="url(#76bf481e83)"><path fill="#ffffff" d="M 407.921875 125.019531 L 443.675781 136.632812 L 432.066406 172.386719 L 396.3125 160.773438 Z M 407.921875 125.019531 " fill-opacity="1" fill-rule="nonzero"/></g></g></g><g clip-path="url(#a6807ef3fc)"><g clip-path="url(#36bd1164c3)"><g clip-path="url(#e1a88de89a)"><path fill="#ffffff" d="M 500.304688 306.886719 L 536.058594 318.496094 L 524.445312 354.25 L 488.691406 342.640625 Z M 500.304688 306.886719 " fill-opacity="1" fill-rule="nonzero"/></g></g></g><g clip-path="url(#7aafeee11b)"><g clip-path="url(#db03d6851a)"><g clip-path="url(#fef867965b)"><path fill="#ffffff" d="M 318.695312 399.773438 L 354.449219 411.382812 L 342.839844 447.136719 L 307.085938 435.527344 Z M 318.695312 399.773438 " fill-opacity="1" fill-rule="nonzero"/></g></g></g><g clip-path="url(#a985cb5aaa)"><g clip-path="url(#cc8c9f0447)"><g clip-path="url(#1e6300dee2)"><path fill="#ffffff" d="M 225.550781 217.660156 L 261.304688 229.269531 L 249.695312 265.023438 L 213.941406 253.414062 Z M 225.550781 217.660156 " fill-opacity="1" fill-rule="nonzero"/></g></g></g><g clip-path="url(#a5edfa988d)"><g clip-path="url(#f899fdff52)"><g clip-path="url(#c4c19d1672)"><path fill="#ffffff" d="M 307.03125 136.410156 L 342.78125 124.785156 L 354.40625 160.535156 L 318.65625 172.160156 Z M 307.03125 136.410156 " fill-opacity="1" fill-rule="nonzero"/></g></g></g><g clip-path="url(#5ac9a784c0)"><g clip-path="url(#729a7295ef)"><g clip-path="url(#1a0a0ec3cb)"><path fill="#ffffff" d="M 488.671875 229.226562 L 524.421875 217.601562 L 536.046875 253.351562 L 500.296875 264.976562 Z M 488.671875 229.226562 " fill-opacity="1" fill-rule="nonzero"/></g></g></g><g clip-path="url(#3c6c0c1de7)"><g clip-path="url(#675ea1b59f)"><g clip-path="url(#067c9e663d)"><path fill="#ffffff" d="M 396.359375 411.125 L 432.109375 399.5 L 443.734375 435.25 L 407.984375 446.875 Z M 396.359375 411.125 " fill-opacity="1" fill-rule="nonzero"/></g></g></g><g clip-path="url(#e2ee20e37a)"><g clip-path="url(#c544f91d4d)"><g clip-path="url(#553ddfb832)"><path fill="#ffffff" d="M 213.953125 318.554688 L 249.703125 306.929688 L 261.328125 342.679688 L 225.578125 354.304688 Z M 213.953125 318.554688 " fill-opacity="1" fill-rule="nonzero"/></g></g></g><g clip-path="url(#09ce104539)"><g clip-path="url(#e520aab288)"><g clip-path="url(#6e06533ac9)"><path fill="#ffffff" d="M 231.601562 205.515625 L 253.648438 175.066406 L 284.097656 197.113281 L 262.046875 227.5625 Z M 231.601562 205.515625 " fill-opacity="1" fill-rule="nonzero"/></g></g></g><g clip-path="url(#841e6f4fa7)"><g clip-path="url(#35e846db2e)"><g clip-path="url(#367bd544a7)"><path fill="#ffffff" d="M 433.066406 173.566406 L 455.113281 143.117188 L 485.5625 165.164062 L 463.515625 195.613281 Z M 433.066406 173.566406 " fill-opacity="1" fill-rule="nonzero"/></g></g></g><g clip-path="url(#a455fce5c6)"><g clip-path="url(#5274dae2d2)"><g clip-path="url(#9bb5bdf920)"><path fill="#ffffff" d="M 465.574219 374.941406 L 487.621094 344.492188 L 518.070312 366.542969 L 496.023438 396.988281 Z M 465.574219 374.941406 " fill-opacity="1" fill-rule="nonzero"/></g></g></g><g clip-path="url(#d73fa271a1)"><g clip-path="url(#1dec8ee5b5)"><g clip-path="url(#b8992dc3bd)"><path fill="#ffffff" d="M 263.636719 407.539062 L 285.6875 377.089844 L 316.132812 399.140625 L 294.085938 429.585938 Z M 263.636719 407.539062 " fill-opacity="1" fill-rule="nonzero"/></g></g></g><g clip-path="url(#5f42aca5f4)"><g clip-path="url(#a6a6428548)"><g clip-path="url(#d43459da50)"><path fill="#ffffff" d="M 263.238281 165.0625 L 293.613281 142.914062 L 315.761719 173.289062 L 285.386719 195.4375 Z M 263.238281 165.0625 " fill-opacity="1" fill-rule="nonzero"/></g></g></g><g clip-path="url(#26e9ede8f1)"><g clip-path="url(#77897b61d1)"><g clip-path="url(#b24ba89ca6)"><path fill="#ffffff" d="M 464.71875 196.90625 L 495.09375 174.757812 L 517.242188 205.128906 L 486.867188 227.28125 Z M 464.71875 196.90625 " fill-opacity="1" fill-rule="nonzero"/></g></g></g><g clip-path="url(#d4176b3d57)"><g clip-path="url(#49f391c05a)"><g clip-path="url(#d32bf21e64)"><path fill="#ffffff" d="M 433.4375 398.476562 L 463.8125 376.328125 L 485.960938 406.699219 L 455.585938 428.847656 Z M 433.4375 398.476562 " fill-opacity="1" fill-rule="nonzero"/></g></g></g><g clip-path="url(#935b61e4d7)"><g clip-path="url(#2c514674e6)"><g clip-path="url(#2ea9a1d418)"><path fill="#ffffff" d="M 231.308594 367.105469 L 261.683594 344.957031 L 283.832031 375.332031 L 253.457031 397.480469 Z M 231.308594 367.105469 " fill-opacity="1" fill-rule="nonzero"/></g></g></g><g clip-path="url(#b73e4f7add)"><g clip-path="url(#9b19d4c5b8)"><g clip-path="url(#a906dc1fe7)"><path fill="#ffffff" d="M 377.089844 169.390625 L 403.636719 172.863281 L 400.164062 199.410156 L 373.617188 195.933594 Z M 377.089844 169.390625 " fill-opacity="1" fill-rule="nonzero"/></g></g></g><g clip-path="url(#22033a611d)"><g clip-path="url(#c3a080ac76)"><g clip-path="url(#fb01702885)"><path fill="#ffffff" d="M 465.457031 284.691406 L 492.003906 288.164062 L 488.527344 314.710938 L 461.984375 311.238281 Z M 465.457031 284.691406 " fill-opacity="1" fill-rule="nonzero"/></g></g></g><g clip-path="url(#a6c41bfadb)"><g clip-path="url(#710e5ddbe8)"><g clip-path="url(#1266f21841)"><path fill="#ffffff" d="M 350.402344 373.378906 L 376.945312 376.851562 L 373.472656 403.394531 L 346.929688 399.921875 Z M 350.402344 373.378906 " fill-opacity="1" fill-rule="nonzero"/></g></g></g><g clip-path="url(#cac91adc0a)"><g clip-path="url(#de195d5615)"><g clip-path="url(#90da53a3d3)"><path fill="#ffffff" d="M 261.46875 258 L 288.015625 261.476562 L 284.542969 288.019531 L 257.996094 284.546875 Z M 261.46875 258 " fill-opacity="1" fill-rule="nonzero"/></g></g></g><g clip-path="url(#d42d364cc8)"><g clip-path="url(#8f134a7dbf)"><g clip-path="url(#4e9f629743)"><path fill="#ffffff" d="M 413.152344 175.472656 L 437.328125 186.976562 L 425.824219 211.148438 L 401.648438 199.648438 Z M 413.152344 175.472656 " fill-opacity="1" fill-rule="nonzero"/></g></g></g><g clip-path="url(#4e4c18a52d)"><g clip-path="url(#9823183467)"><g clip-path="url(#e3ff4ec5b2)"><path fill="#ffffff" d="M 461.582031 312.429688 L 485.757812 323.933594 L 474.257812 348.109375 L 450.082031 336.605469 Z M 461.582031 312.429688 " fill-opacity="1" fill-rule="nonzero"/></g></g></g><g clip-path="url(#d9d699a5e6)"><g clip-path="url(#16002abb55)"><g clip-path="url(#4f635e6299)"><path fill="#ffffff" d="M 324.761719 361.242188 L 348.9375 372.746094 L 337.433594 396.917969 L 313.257812 385.417969 Z M 324.761719 361.242188 " fill-opacity="1" fill-rule="nonzero"/></g></g></g><g clip-path="url(#1b0a920b98)"><g clip-path="url(#f7bd9f9aa9)"><g clip-path="url(#1df6f59811)"><path fill="#ffffff" d="M 275.816406 224.039062 L 299.988281 235.542969 L 288.488281 259.714844 L 264.3125 248.214844 Z M 275.816406 224.039062 " fill-opacity="1" fill-rule="nonzero"/></g></g></g><g clip-path="url(#e3e662618c)"><g clip-path="url(#49aaefac38)"><g clip-path="url(#f241b7fe0e)"><path fill="#ffffff" d="M 340.859375 174.191406 L 367.175781 169.285156 L 372.082031 195.605469 L 345.761719 200.511719 Z M 340.859375 174.191406 " fill-opacity="1" fill-rule="nonzero"/></g></g></g><g clip-path="url(#f91c54ab11)"><g clip-path="url(#2040b39700)"><g clip-path="url(#492ed26014)"><path fill="#ffffff" d="M 460.546875 256.515625 L 486.867188 251.613281 L 491.769531 277.929688 L 465.453125 282.835938 Z M 460.546875 256.515625 " fill-opacity="1" fill-rule="nonzero"/></g></g></g><g clip-path="url(#de565e5abb)"><g clip-path="url(#7e0e2b5270)"><g clip-path="url(#8e6c77fdb5)"><path fill="#ffffff" d="M 378.554688 376.433594 L 404.871094 371.527344 L 409.777344 397.847656 L 383.460938 402.753906 Z M 378.554688 376.433594 " fill-opacity="1" fill-rule="nonzero"/></g></g></g><g clip-path="url(#8c8056e8a2)"><g clip-path="url(#b3115bda15)"><g clip-path="url(#e777916e1c)"><path fill="#ffffff" d="M 258.304688 294.214844 L 284.621094 289.308594 L 289.527344 315.625 L 263.210938 320.53125 Z M 258.304688 294.214844 " fill-opacity="1" fill-rule="nonzero"/></g></g></g><g clip-path="url(#2f1becf7d9)"><g clip-path="url(#9dfdf6f9ff)"><g clip-path="url(#ad893da691)"><path fill="#ffffff" d="M 281.210938 216.019531 L 299.589844 196.554688 L 319.054688 214.9375 L 300.671875 234.402344 Z M 281.210938 216.019531 " fill-opacity="1" fill-rule="nonzero"/></g></g></g><g clip-path="url(#1bf6f97ee1)"><g clip-path="url(#0aa7e17314)"><g clip-path="url(#a9496d5062)"><path fill="#ffffff" d="M 426.425781 212.074219 L 444.804688 192.609375 L 464.269531 210.992188 L 445.886719 230.457031 Z M 426.425781 212.074219 " fill-opacity="1" fill-rule="nonzero"/></g></g></g><g clip-path="url(#66979a24c4)"><g clip-path="url(#3d6f5151a9)"><g clip-path="url(#9b57164c53)"><path fill="#ffffff" d="M 430.773438 357.277344 L 449.15625 337.8125 L 468.621094 356.195312 L 450.238281 375.660156 Z M 430.773438 357.277344 " fill-opacity="1" fill-rule="nonzero"/></g></g></g><g clip-path="url(#dd86cfcd6e)"><g clip-path="url(#a3c0583051)"><g clip-path="url(#24ba114ddc)"><path fill="#ffffff" d="M 285.167969 361.636719 L 303.550781 342.175781 L 323.011719 360.558594 L 304.628906 380.019531 Z M 285.167969 361.636719 " fill-opacity="1" fill-rule="nonzero"/></g></g></g><g clip-path="url(#0db51f29cc)"><g clip-path="url(#bd496385ed)"><g clip-path="url(#995e88de0b)"><path fill="#ffffff" d="M 307.285156 190.378906 L 330.78125 177.546875 L 343.613281 201.039062 L 320.121094 213.875 Z M 307.285156 190.378906 " fill-opacity="1" fill-rule="nonzero"/></g></g></g><g clip-path="url(#52231c9e92)"><g clip-path="url(#c02e2c6e18)"><g clip-path="url(#68a13b3c9f)"><path fill="#ffffff" d="M 446.621094 231.480469 L 470.113281 218.644531 L 482.949219 242.140625 L 459.453125 254.972656 Z M 446.621094 231.480469 " fill-opacity="1" fill-rule="nonzero"/></g></g></g><g clip-path="url(#eecfc9147d)"><g clip-path="url(#9c9995b36f)"><g clip-path="url(#e5c670c749)"><path fill="#ffffff" d="M 405.90625 370.925781 L 429.402344 358.09375 L 442.234375 381.585938 L 418.742188 394.421875 Z M 405.90625 370.925781 " fill-opacity="1" fill-rule="nonzero"/></g></g></g><g clip-path="url(#4a5b39e913)"><g clip-path="url(#ffc86b4e78)"><g clip-path="url(#5cc51c249a)"><path fill="#ffffff" d="M 266.074219 330.101562 L 289.566406 317.265625 L 302.402344 340.761719 L 278.90625 353.59375 Z M 266.074219 330.101562 " fill-opacity="1" fill-rule="nonzero"/></g></g></g><g fill="#ffffff" fill-opacity="1"><g transform="translate(21.18504, 633.762426)"><g><path d="M 55.921875 0 L 49.5625 0 L 49.5625 -12.703125 L 14.046875 -12.703125 L 14.046875 -19.0625 L 49.5625 -19.0625 L 49.5625 -38.125 L 26.75 -38.125 C 23.875 -38.125 21.226562 -37.414062 18.8125 -36 C 16.394531 -34.582031 14.476562 -32.664062 13.0625 -30.25 C 11.644531 -27.832031 10.9375 -25.160156 10.9375 -22.234375 L 10.9375 0 L 4.578125 0 L 4.578125 -22.234375 C 4.578125 -25.285156 5.144531 -28.15625 6.28125 -30.84375 C 7.425781 -33.539062 9.015625 -35.914062 11.046875 -37.96875 C 13.085938 -40.019531 15.453125 -41.617188 18.140625 -42.765625 C 20.828125 -43.910156 23.695312 -44.484375 26.75 -44.484375 L 55.921875 -44.484375 Z M 55.921875 0 "/></g></g></g><g fill="#ffffff" fill-opacity="1"><g transform="translate(83.700827, 633.762426)"><g><path d="M 47.84375 0 L 5.34375 0 L 5.34375 -44.484375 L 11.6875 -44.484375 L 11.6875 -6.359375 L 47.84375 -6.359375 Z M 47.84375 0 "/></g></g></g><g fill="#ffffff" fill-opacity="1"><g transform="translate(133.446726, 633.762426)"><g><path d="M 47.84375 0 L 5.34375 0 L 5.34375 -44.484375 L 11.6875 -44.484375 L 11.6875 -6.359375 L 47.84375 -6.359375 Z M 47.84375 0 "/></g></g></g><g fill="#ffffff" fill-opacity="1"><g transform="translate(183.192626, 633.762426)"><g/></g></g><g fill="#ffffff" fill-opacity="1"><g transform="translate(208.288244, 633.762426)"><g><path d="M 51.921875 0 L 23.265625 0 C 20.171875 0 17.375 -0.570312 14.875 -1.71875 C 12.375 -2.863281 10.222656 -4.453125 8.421875 -6.484375 C 6.617188 -8.515625 5.226562 -10.875 4.25 -13.5625 C 3.28125 -16.257812 2.796875 -19.148438 2.796875 -22.234375 C 2.796875 -25.285156 3.28125 -28.15625 4.25 -30.84375 C 5.226562 -33.539062 6.617188 -35.914062 8.421875 -37.96875 C 10.222656 -40.019531 12.375 -41.617188 14.875 -42.765625 C 17.375 -43.910156 20.171875 -44.484375 23.265625 -44.484375 L 51.921875 -44.484375 L 51.921875 -38.125 L 23.265625 -38.125 C 20.335938 -38.125 17.820312 -37.414062 15.71875 -36 C 13.625 -34.582031 12.003906 -32.664062 10.859375 -30.25 C 9.722656 -27.832031 9.15625 -25.160156 9.15625 -22.234375 C 9.15625 -19.316406 9.722656 -16.660156 10.859375 -14.265625 C 12.003906 -11.867188 13.625 -9.953125 15.71875 -8.515625 C 17.820312 -7.078125 20.335938 -6.359375 23.265625 -6.359375 L 51.921875 -6.359375 Z M 51.921875 0 "/></g></g></g><g fill="#ffffff" fill-opacity="1"><g transform="translate(263.815533, 633.762426)"><g><path d="M 58.46875 -22.234375 C 58.46875 -19.148438 57.976562 -16.257812 57 -13.5625 C 56.03125 -10.875 54.644531 -8.515625 52.84375 -6.484375 C 51.039062 -4.453125 48.890625 -2.863281 46.390625 -1.71875 C 43.890625 -0.570312 41.113281 0 38.0625 0 L 23.265625 0 C 20.171875 0 17.375 -0.570312 14.875 -1.71875 C 12.375 -2.863281 10.222656 -4.453125 8.421875 -6.484375 C 6.617188 -8.515625 5.226562 -10.875 4.25 -13.5625 C 3.28125 -16.257812 2.796875 -19.148438 2.796875 -22.234375 C 2.796875 -25.285156 3.28125 -28.15625 4.25 -30.84375 C 5.226562 -33.539062 6.617188 -35.914062 8.421875 -37.96875 C 10.222656 -40.019531 12.375 -41.617188 14.875 -42.765625 C 17.375 -43.910156 20.171875 -44.484375 23.265625 -44.484375 L 38.0625 -44.484375 C 41.113281 -44.484375 43.890625 -43.910156 46.390625 -42.765625 C 48.890625 -41.617188 51.039062 -40.019531 52.84375 -37.96875 C 54.644531 -35.914062 56.03125 -33.539062 57 -30.84375 C 57.976562 -28.15625 58.46875 -25.285156 58.46875 -22.234375 Z M 52.109375 -22.234375 C 52.109375 -25.160156 51.546875 -27.832031 50.421875 -30.25 C 49.296875 -32.664062 47.6875 -34.582031 45.59375 -36 C 43.5 -37.414062 40.988281 -38.125 38.0625 -38.125 L 23.265625 -38.125 C 20.335938 -38.125 17.820312 -37.414062 15.71875 -36 C 13.625 -34.582031 12.003906 -32.664062 10.859375 -30.25 C 9.722656 -27.832031 9.15625 -25.160156 9.15625 -22.234375 C 9.15625 -19.316406 9.722656 -16.660156 10.859375 -14.265625 C 12.003906 -11.867188 13.625 -9.953125 15.71875 -8.515625 C 17.820312 -7.078125 20.335938 -6.359375 23.265625 -6.359375 L 38.0625 -6.359375 C 40.988281 -6.359375 43.5 -7.078125 45.59375 -8.515625 C 47.6875 -9.953125 49.296875 -11.867188 50.421875 -14.265625 C 51.546875 -16.660156 52.109375 -19.316406 52.109375 -22.234375 Z M 52.109375 -22.234375 "/></g></g></g><g fill="#ffffff" fill-opacity="1"><g transform="translate(326.331319, 633.762426)"><g><path d="M 11.6875 0 L 5.34375 0 L 5.34375 -44.484375 L 8.515625 -44.484375 C 11.609375 -44.484375 14.960938 -43.890625 18.578125 -42.703125 C 22.203125 -41.515625 25.835938 -39.835938 29.484375 -37.671875 C 33.128906 -35.515625 36.570312 -32.941406 39.8125 -29.953125 C 43.050781 -26.972656 45.835938 -23.660156 48.171875 -20.015625 L 48.171875 -44.484375 L 54.515625 -44.484375 L 54.515625 0 L 48.171875 0 C 48.171875 -3.894531 47.375 -7.628906 45.78125 -11.203125 C 44.195312 -14.785156 42.085938 -18.09375 39.453125 -21.125 C 36.828125 -24.15625 33.914062 -26.847656 30.71875 -29.203125 C 27.519531 -31.554688 24.269531 -33.484375 20.96875 -34.984375 C 17.664062 -36.484375 14.570312 -37.445312 11.6875 -37.875 Z M 11.6875 0 "/></g></g></g><g fill="#ffffff" fill-opacity="1"><g transform="translate(387.449387, 633.762426)"><g><path d="M 11.6875 0 L 5.34375 0 L 5.34375 -44.484375 L 8.515625 -44.484375 C 11.609375 -44.484375 14.960938 -43.890625 18.578125 -42.703125 C 22.203125 -41.515625 25.835938 -39.835938 29.484375 -37.671875 C 33.128906 -35.515625 36.570312 -32.941406 39.8125 -29.953125 C 43.050781 -26.972656 45.835938 -23.660156 48.171875 -20.015625 L 48.171875 -44.484375 L 54.515625 -44.484375 L 54.515625 0 L 48.171875 0 C 48.171875 -3.894531 47.375 -7.628906 45.78125 -11.203125 C 44.195312 -14.785156 42.085938 -18.09375 39.453125 -21.125 C 36.828125 -24.15625 33.914062 -26.847656 30.71875 -29.203125 C 27.519531 -31.554688 24.269531 -33.484375 20.96875 -34.984375 C 17.664062 -36.484375 14.570312 -37.445312 11.6875 -37.875 Z M 11.6875 0 "/></g></g></g><g fill="#ffffff" fill-opacity="1"><g transform="translate(448.567431, 633.762426)"><g><path d="M 51.34375 0 L 5.34375 0 L 5.34375 -44.484375 L 51.34375 -44.484375 L 51.34375 -38.125 L 11.6875 -38.125 L 11.6875 -6.359375 L 51.34375 -6.359375 Z M 45.9375 -19.0625 L 14.875 -19.0625 L 14.875 -25.421875 L 45.9375 -25.421875 Z M 45.9375 -19.0625 "/></g></g></g><g fill="#ffffff" fill-opacity="1"><g transform="translate(503.71355, 633.762426)"><g><path d="M 51.921875 0 L 23.265625 0 C 20.171875 0 17.375 -0.570312 14.875 -1.71875 C 12.375 -2.863281 10.222656 -4.453125 8.421875 -6.484375 C 6.617188 -8.515625 5.226562 -10.875 4.25 -13.5625 C 3.28125 -16.257812 2.796875 -19.148438 2.796875 -22.234375 C 2.796875 -25.285156 3.28125 -28.15625 4.25 -30.84375 C 5.226562 -33.539062 6.617188 -35.914062 8.421875 -37.96875 C 10.222656 -40.019531 12.375 -41.617188 14.875 -42.765625 C 17.375 -43.910156 20.171875 -44.484375 23.265625 -44.484375 L 51.921875 -44.484375 L 51.921875 -38.125 L 23.265625 -38.125 C 20.335938 -38.125 17.820312 -37.414062 15.71875 -36 C 13.625 -34.582031 12.003906 -32.664062 10.859375 -30.25 C 9.722656 -27.832031 9.15625 -25.160156 9.15625 -22.234375 C 9.15625 -19.316406 9.722656 -16.660156 10.859375 -14.265625 C 12.003906 -11.867188 13.625 -9.953125 15.71875 -8.515625 C 17.820312 -7.078125 20.335938 -6.359375 23.265625 -6.359375 L 51.921875 -6.359375 Z M 51.921875 0 "/></g></g></g><g fill="#ffffff" fill-opacity="1"><g transform="translate(559.240839, 633.762426)"><g><path d="M 29.484375 0 L 23.125 0 L 23.125 -38.125 L 0.640625 -38.125 L 0.640625 -44.484375 L 51.984375 -44.484375 L 51.984375 -38.125 L 29.484375 -38.125 Z M 29.484375 0 "/></g></g></g><g fill="#ffffff" fill-opacity="1"><g transform="translate(613.116295, 633.762426)"><g><path d="M 51.34375 0 L 5.34375 0 L 5.34375 -44.484375 L 51.34375 -44.484375 L 51.34375 -38.125 L 11.6875 -38.125 L 11.6875 -6.359375 L 51.34375 -6.359375 Z M 45.9375 -19.0625 L 14.875 -19.0625 L 14.875 -25.421875 L 45.9375 -25.421875 Z M 45.9375 -19.0625 "/></g></g></g><g fill="#ffffff" fill-opacity="1"><g transform="translate(668.262414, 633.762426)"><g><path d="M 57.765625 -22.234375 C 57.765625 -19.148438 57.273438 -16.257812 56.296875 -13.5625 C 55.328125 -10.875 53.941406 -8.515625 52.140625 -6.484375 C 50.335938 -4.453125 48.175781 -2.863281 45.65625 -1.71875 C 43.132812 -0.570312 40.347656 0 37.296875 0 L 14.875 0 L 14.875 -6.359375 L 37.296875 -6.359375 C 40.222656 -6.359375 42.742188 -7.078125 44.859375 -8.515625 C 46.984375 -9.953125 48.601562 -11.867188 49.71875 -14.265625 C 50.84375 -16.660156 51.40625 -19.316406 51.40625 -22.234375 C 51.40625 -25.160156 50.84375 -27.832031 49.71875 -30.25 C 48.601562 -32.664062 46.984375 -34.582031 44.859375 -36 C 42.742188 -37.414062 40.222656 -38.125 37.296875 -38.125 L 11.6875 -38.125 L 11.6875 0 L 5.34375 0 L 5.34375 -44.484375 L 37.296875 -44.484375 C 40.347656 -44.484375 43.132812 -43.910156 45.65625 -42.765625 C 48.175781 -41.617188 50.335938 -40.019531 52.140625 -37.96875 C 53.941406 -35.914062 55.328125 -33.539062 56.296875 -30.84375 C 57.273438 -28.15625 57.765625 -25.285156 57.765625 -22.234375 Z M 57.765625 -22.234375 "/></g></g></g><g fill="#ffffff" fill-opacity="1"><g transform="translate(50.787475, 676.631037)"><g><path d="M 17.421875 -1.828125 L 17.421875 0 L 3.265625 0 L 3.265625 -20.03125 L 17 -20.03125 L 17 -18.203125 L 5.375 -18.203125 L 5.375 -11.078125 L 15.734375 -11.078125 L 15.734375 -9.265625 L 5.375 -9.265625 L 5.375 -1.828125 Z M 17.421875 -1.828125 "/></g></g></g><g fill="#ffffff" fill-opacity="1"><g transform="translate(84.938984, 676.631037)"><g><path d="M 24.0625 -20.03125 L 24.0625 0 L 22.03125 0 L 22.03125 -16.015625 L 14.15625 -2.546875 L 13.15625 -2.546875 L 5.296875 -15.9375 L 5.296875 0 L 3.265625 0 L 3.265625 -20.03125 L 5 -20.03125 L 13.703125 -5.171875 L 22.3125 -20.03125 Z M 24.0625 -20.03125 "/></g></g></g><g fill="#ffffff" fill-opacity="1"><g transform="translate(127.267425, 676.631037)"><g/></g></g><g fill="#ffffff" fill-opacity="1"><g transform="translate(149.782556, 676.631037)"><g><path d="M 7.15625 -18.203125 L 0.109375 -18.203125 L 0.109375 -20.03125 L 16.3125 -20.03125 L 16.3125 -18.203125 L 9.265625 -18.203125 L 9.265625 0 L 7.15625 0 Z M 7.15625 -18.203125 "/></g></g></g><g fill="#ffffff" fill-opacity="1"><g transform="translate(181.217959, 676.631037)"><g><path d="M 12.015625 0.171875 C 10.035156 0.171875 8.238281 -0.269531 6.625 -1.15625 C 5.007812 -2.039062 3.75 -3.253906 2.84375 -4.796875 C 1.9375 -6.347656 1.484375 -8.085938 1.484375 -10.015625 C 1.484375 -11.941406 1.9375 -13.675781 2.84375 -15.21875 C 3.75 -16.757812 5.007812 -17.972656 6.625 -18.859375 C 8.238281 -19.753906 10.035156 -20.203125 12.015625 -20.203125 C 13.992188 -20.203125 15.78125 -19.757812 17.375 -18.875 C 18.96875 -18 20.222656 -16.785156 21.140625 -15.234375 C 22.054688 -13.679688 22.515625 -11.941406 22.515625 -10.015625 C 22.515625 -8.085938 22.054688 -6.34375 21.140625 -4.78125 C 20.222656 -3.226562 18.96875 -2.015625 17.375 -1.140625 C 15.78125 -0.265625 13.992188 0.171875 12.015625 0.171875 Z M 12.015625 -1.71875 C 13.597656 -1.71875 15.023438 -2.070312 16.296875 -2.78125 C 17.578125 -3.5 18.578125 -4.492188 19.296875 -5.765625 C 20.023438 -7.035156 20.390625 -8.453125 20.390625 -10.015625 C 20.390625 -11.578125 20.023438 -12.992188 19.296875 -14.265625 C 18.578125 -15.535156 17.578125 -16.523438 16.296875 -17.234375 C 15.023438 -17.953125 13.597656 -18.3125 12.015625 -18.3125 C 10.429688 -18.3125 8.992188 -17.953125 7.703125 -17.234375 C 6.421875 -16.523438 5.410156 -15.535156 4.671875 -14.265625 C 3.941406 -12.992188 3.578125 -11.578125 3.578125 -10.015625 C 3.578125 -8.453125 3.941406 -7.035156 4.671875 -5.765625 C 5.410156 -4.492188 6.421875 -3.5 7.703125 -2.78125 C 8.992188 -2.070312 10.429688 -1.71875 12.015625 -1.71875 Z M 12.015625 -1.71875 "/></g></g></g><g fill="#ffffff" fill-opacity="1"><g transform="translate(220.229886, 676.631037)"><g><path d="M 3.265625 -20.03125 L 11.421875 -20.03125 C 13.535156 -20.03125 15.398438 -19.601562 17.015625 -18.75 C 18.640625 -17.90625 19.898438 -16.722656 20.796875 -15.203125 C 21.691406 -13.691406 22.140625 -11.960938 22.140625 -10.015625 C 22.140625 -8.066406 21.691406 -6.332031 20.796875 -4.8125 C 19.898438 -3.300781 18.640625 -2.117188 17.015625 -1.265625 C 15.398438 -0.421875 13.535156 0 11.421875 0 L 3.265625 0 Z M 11.296875 -1.828125 C 13.054688 -1.828125 14.59375 -2.175781 15.90625 -2.875 C 17.21875 -3.570312 18.238281 -4.535156 18.96875 -5.765625 C 19.695312 -6.992188 20.0625 -8.410156 20.0625 -10.015625 C 20.0625 -11.617188 19.695312 -13.035156 18.96875 -14.265625 C 18.238281 -15.492188 17.21875 -16.457031 15.90625 -17.15625 C 14.59375 -17.851562 13.054688 -18.203125 11.296875 -18.203125 L 5.375 -18.203125 L 5.375 -1.828125 Z M 11.296875 -1.828125 "/></g></g></g><g fill="#ffffff" fill-opacity="1"><g transform="translate(258.870111, 676.631037)"><g><path d="M 12.015625 0.171875 C 10.035156 0.171875 8.238281 -0.269531 6.625 -1.15625 C 5.007812 -2.039062 3.75 -3.253906 2.84375 -4.796875 C 1.9375 -6.347656 1.484375 -8.085938 1.484375 -10.015625 C 1.484375 -11.941406 1.9375 -13.675781 2.84375 -15.21875 C 3.75 -16.757812 5.007812 -17.972656 6.625 -18.859375 C 8.238281 -19.753906 10.035156 -20.203125 12.015625 -20.203125 C 13.992188 -20.203125 15.78125 -19.757812 17.375 -18.875 C 18.96875 -18 20.222656 -16.785156 21.140625 -15.234375 C 22.054688 -13.679688 22.515625 -11.941406 22.515625 -10.015625 C 22.515625 -8.085938 22.054688 -6.34375 21.140625 -4.78125 C 20.222656 -3.226562 18.96875 -2.015625 17.375 -1.140625 C 15.78125 -0.265625 13.992188 0.171875 12.015625 0.171875 Z M 12.015625 -1.71875 C 13.597656 -1.71875 15.023438 -2.070312 16.296875 -2.78125 C 17.578125 -3.5 18.578125 -4.492188 19.296875 -5.765625 C 20.023438 -7.035156 20.390625 -8.453125 20.390625 -10.015625 C 20.390625 -11.578125 20.023438 -12.992188 19.296875 -14.265625 C 18.578125 -15.535156 17.578125 -16.523438 16.296875 -17.234375 C 15.023438 -17.953125 13.597656 -18.3125 12.015625 -18.3125 C 10.429688 -18.3125 8.992188 -17.953125 7.703125 -17.234375 C 6.421875 -16.523438 5.410156 -15.535156 4.671875 -14.265625 C 3.941406 -12.992188 3.578125 -11.578125 3.578125 -10.015625 C 3.578125 -8.453125 3.941406 -7.035156 4.671875 -5.765625 C 5.410156 -4.492188 6.421875 -3.5 7.703125 -2.78125 C 8.992188 -2.070312 10.429688 -1.71875 12.015625 -1.71875 Z M 12.015625 -1.71875 "/></g></g></g><g fill="#ffffff" fill-opacity="1"><g transform="translate(297.882026, 676.631037)"><g><path d="M 8.78125 0.171875 C 7.289062 0.171875 5.863281 -0.0664062 4.5 -0.546875 C 3.132812 -1.023438 2.082031 -1.65625 1.34375 -2.4375 L 2.171875 -4.0625 C 2.898438 -3.332031 3.863281 -2.742188 5.0625 -2.296875 C 6.257812 -1.847656 7.5 -1.625 8.78125 -1.625 C 10.570312 -1.625 11.914062 -1.953125 12.8125 -2.609375 C 13.707031 -3.273438 14.15625 -4.128906 14.15625 -5.171875 C 14.15625 -5.972656 13.910156 -6.613281 13.421875 -7.09375 C 12.941406 -7.570312 12.347656 -7.9375 11.640625 -8.1875 C 10.929688 -8.445312 9.953125 -8.734375 8.703125 -9.046875 C 7.191406 -9.421875 5.988281 -9.785156 5.09375 -10.140625 C 4.195312 -10.492188 3.425781 -11.03125 2.78125 -11.75 C 2.144531 -12.476562 1.828125 -13.460938 1.828125 -14.703125 C 1.828125 -15.710938 2.09375 -16.628906 2.625 -17.453125 C 3.164062 -18.285156 3.988281 -18.953125 5.09375 -19.453125 C 6.195312 -19.953125 7.570312 -20.203125 9.21875 -20.203125 C 10.351562 -20.203125 11.46875 -20.039062 12.5625 -19.71875 C 13.664062 -19.40625 14.617188 -18.972656 15.421875 -18.421875 L 14.703125 -16.734375 C 13.867188 -17.285156 12.972656 -17.695312 12.015625 -17.96875 C 11.054688 -18.25 10.125 -18.390625 9.21875 -18.390625 C 7.457031 -18.390625 6.132812 -18.050781 5.25 -17.375 C 4.363281 -16.695312 3.921875 -15.828125 3.921875 -14.765625 C 3.921875 -13.960938 4.160156 -13.316406 4.640625 -12.828125 C 5.128906 -12.347656 5.738281 -11.976562 6.46875 -11.71875 C 7.207031 -11.457031 8.195312 -11.175781 9.4375 -10.875 C 10.90625 -10.507812 12.09375 -10.148438 13 -9.796875 C 13.90625 -9.441406 14.671875 -8.90625 15.296875 -8.1875 C 15.929688 -7.476562 16.25 -6.515625 16.25 -5.296875 C 16.25 -4.285156 15.976562 -3.363281 15.4375 -2.53125 C 14.894531 -1.695312 14.0625 -1.035156 12.9375 -0.546875 C 11.8125 -0.0664062 10.425781 0.171875 8.78125 0.171875 Z M 8.78125 0.171875 "/></g></g></g><g fill="#ffffff" fill-opacity="1"><g transform="translate(330.489627, 676.631037)"><g/></g></g><g fill="#ffffff" fill-opacity="1"><g transform="translate(353.004752, 676.631037)"><g><path d="M 12.015625 0.171875 C 10.035156 0.171875 8.238281 -0.269531 6.625 -1.15625 C 5.007812 -2.039062 3.75 -3.253906 2.84375 -4.796875 C 1.9375 -6.347656 1.484375 -8.085938 1.484375 -10.015625 C 1.484375 -11.941406 1.9375 -13.675781 2.84375 -15.21875 C 3.75 -16.757812 5.007812 -17.972656 6.625 -18.859375 C 8.238281 -19.753906 10.035156 -20.203125 12.015625 -20.203125 C 13.992188 -20.203125 15.78125 -19.757812 17.375 -18.875 C 18.96875 -18 20.222656 -16.785156 21.140625 -15.234375 C 22.054688 -13.679688 22.515625 -11.941406 22.515625 -10.015625 C 22.515625 -8.085938 22.054688 -6.34375 21.140625 -4.78125 C 20.222656 -3.226562 18.96875 -2.015625 17.375 -1.140625 C 15.78125 -0.265625 13.992188 0.171875 12.015625 0.171875 Z M 12.015625 -1.71875 C 13.597656 -1.71875 15.023438 -2.070312 16.296875 -2.78125 C 17.578125 -3.5 18.578125 -4.492188 19.296875 -5.765625 C 20.023438 -7.035156 20.390625 -8.453125 20.390625 -10.015625 C 20.390625 -11.578125 20.023438 -12.992188 19.296875 -14.265625 C 18.578125 -15.535156 17.578125 -16.523438 16.296875 -17.234375 C 15.023438 -17.953125 13.597656 -18.3125 12.015625 -18.3125 C 10.429688 -18.3125 8.992188 -17.953125 7.703125 -17.234375 C 6.421875 -16.523438 5.410156 -15.535156 4.671875 -14.265625 C 3.941406 -12.992188 3.578125 -11.578125 3.578125 -10.015625 C 3.578125 -8.453125 3.941406 -7.035156 4.671875 -5.765625 C 5.410156 -4.492188 6.421875 -3.5 7.703125 -2.78125 C 8.992188 -2.070312 10.429688 -1.71875 12.015625 -1.71875 Z M 12.015625 -1.71875 "/></g></g></g><g fill="#ffffff" fill-opacity="1"><g transform="translate(392.016667, 676.631037)"><g><path d="M 8.78125 0.171875 C 7.289062 0.171875 5.863281 -0.0664062 4.5 -0.546875 C 3.132812 -1.023438 2.082031 -1.65625 1.34375 -2.4375 L 2.171875 -4.0625 C 2.898438 -3.332031 3.863281 -2.742188 5.0625 -2.296875 C 6.257812 -1.847656 7.5 -1.625 8.78125 -1.625 C 10.570312 -1.625 11.914062 -1.953125 12.8125 -2.609375 C 13.707031 -3.273438 14.15625 -4.128906 14.15625 -5.171875 C 14.15625 -5.972656 13.910156 -6.613281 13.421875 -7.09375 C 12.941406 -7.570312 12.347656 -7.9375 11.640625 -8.1875 C 10.929688 -8.445312 9.953125 -8.734375 8.703125 -9.046875 C 7.191406 -9.421875 5.988281 -9.785156 5.09375 -10.140625 C 4.195312 -10.492188 3.425781 -11.03125 2.78125 -11.75 C 2.144531 -12.476562 1.828125 -13.460938 1.828125 -14.703125 C 1.828125 -15.710938 2.09375 -16.628906 2.625 -17.453125 C 3.164062 -18.285156 3.988281 -18.953125 5.09375 -19.453125 C 6.195312 -19.953125 7.570312 -20.203125 9.21875 -20.203125 C 10.351562 -20.203125 11.46875 -20.039062 12.5625 -19.71875 C 13.664062 -19.40625 14.617188 -18.972656 15.421875 -18.421875 L 14.703125 -16.734375 C 13.867188 -17.285156 12.972656 -17.695312 12.015625 -17.96875 C 11.054688 -18.25 10.125 -18.390625 9.21875 -18.390625 C 7.457031 -18.390625 6.132812 -18.050781 5.25 -17.375 C 4.363281 -16.695312 3.921875 -15.828125 3.921875 -14.765625 C 3.921875 -13.960938 4.160156 -13.316406 4.640625 -12.828125 C 5.128906 -12.347656 5.738281 -11.976562 6.46875 -11.71875 C 7.207031 -11.457031 8.195312 -11.175781 9.4375 -10.875 C 10.90625 -10.507812 12.09375 -10.148438 13 -9.796875 C 13.90625 -9.441406 14.671875 -8.90625 15.296875 -8.1875 C 15.929688 -7.476562 16.25 -6.515625 16.25 -5.296875 C 16.25 -4.285156 15.976562 -3.363281 15.4375 -2.53125 C 14.894531 -1.695312 14.0625 -1.035156 12.9375 -0.546875 C 11.8125 -0.0664062 10.425781 0.171875 8.78125 0.171875 Z M 8.78125 0.171875 "/></g></g></g><g fill="#ffffff" fill-opacity="1"><g transform="translate(424.624267, 676.631037)"><g/></g></g><g fill="#ffffff" fill-opacity="1"><g transform="translate(447.139393, 676.631037)"><g><path d="M 3.265625 -20.03125 L 5.375 -20.03125 L 5.375 -1.828125 L 16.59375 -1.828125 L 16.59375 0 L 3.265625 0 Z M 3.265625 -20.03125 "/></g></g></g><g fill="#ffffff" fill-opacity="1"><g transform="translate(479.003659, 676.631037)"><g><path d="M 11.328125 0.171875 C 8.734375 0.171875 6.710938 -0.570312 5.265625 -2.0625 C 3.816406 -3.550781 3.09375 -5.710938 3.09375 -8.546875 L 3.09375 -20.03125 L 5.203125 -20.03125 L 5.203125 -8.640625 C 5.203125 -6.316406 5.726562 -4.582031 6.78125 -3.4375 C 7.832031 -2.289062 9.347656 -1.71875 11.328125 -1.71875 C 13.328125 -1.71875 14.851562 -2.289062 15.90625 -3.4375 C 16.957031 -4.582031 17.484375 -6.316406 17.484375 -8.640625 L 17.484375 -20.03125 L 19.546875 -20.03125 L 19.546875 -8.546875 C 19.546875 -5.710938 18.820312 -3.550781 17.375 -2.0625 C 15.9375 -0.570312 13.921875 0.171875 11.328125 0.171875 Z M 11.328125 0.171875 "/></g></g></g><g fill="#ffffff" fill-opacity="1"><g transform="translate(516.671834, 676.631037)"><g><path d="M 17.359375 -10.015625 L 19.390625 -10.015625 L 19.390625 -2.375 C 18.460938 -1.550781 17.359375 -0.921875 16.078125 -0.484375 C 14.796875 -0.046875 13.453125 0.171875 12.046875 0.171875 C 10.046875 0.171875 8.242188 -0.265625 6.640625 -1.140625 C 5.035156 -2.015625 3.773438 -3.226562 2.859375 -4.78125 C 1.941406 -6.34375 1.484375 -8.085938 1.484375 -10.015625 C 1.484375 -11.941406 1.941406 -13.679688 2.859375 -15.234375 C 3.773438 -16.785156 5.035156 -18 6.640625 -18.875 C 8.242188 -19.757812 10.054688 -20.203125 12.078125 -20.203125 C 13.597656 -20.203125 15 -19.957031 16.28125 -19.46875 C 17.5625 -18.976562 18.640625 -18.257812 19.515625 -17.3125 L 18.203125 -15.96875 C 16.617188 -17.53125 14.601562 -18.3125 12.15625 -18.3125 C 10.539062 -18.3125 9.078125 -17.953125 7.765625 -17.234375 C 6.460938 -16.523438 5.4375 -15.535156 4.6875 -14.265625 C 3.945312 -12.992188 3.578125 -11.578125 3.578125 -10.015625 C 3.578125 -8.453125 3.945312 -7.039062 4.6875 -5.78125 C 5.4375 -4.519531 6.457031 -3.523438 7.75 -2.796875 C 9.050781 -2.078125 10.507812 -1.71875 12.125 -1.71875 C 14.1875 -1.71875 15.929688 -2.234375 17.359375 -3.265625 Z M 17.359375 -10.015625 "/></g></g></g><g fill="#ffffff" fill-opacity="1"><g transform="translate(553.796787, 676.631037)"><g><path d="M 15.828125 -5.34375 L 4.65625 -5.34375 L 2.265625 0 L 0.0625 0 L 9.21875 -20.03125 L 11.296875 -20.03125 L 20.453125 0 L 18.21875 0 Z M 15.046875 -7.0625 L 10.234375 -17.828125 L 5.4375 -7.0625 Z M 15.046875 -7.0625 "/></g></g></g><g fill="#ffffff" fill-opacity="1"><g transform="translate(589.320656, 676.631037)"><g><path d="M 16.9375 0 L 12.359375 -6.4375 C 11.847656 -6.375 11.3125 -6.34375 10.75 -6.34375 L 5.375 -6.34375 L 5.375 0 L 3.265625 0 L 3.265625 -20.03125 L 10.75 -20.03125 C 13.3125 -20.03125 15.316406 -19.414062 16.765625 -18.1875 C 18.210938 -16.96875 18.9375 -15.289062 18.9375 -13.15625 C 18.9375 -11.59375 18.539062 -10.269531 17.75 -9.1875 C 16.957031 -8.113281 15.828125 -7.335938 14.359375 -6.859375 L 19.25 0 Z M 10.703125 -8.15625 C 12.679688 -8.15625 14.195312 -8.59375 15.25 -9.46875 C 16.300781 -10.34375 16.828125 -11.570312 16.828125 -13.15625 C 16.828125 -14.78125 16.300781 -16.023438 15.25 -16.890625 C 14.195312 -17.765625 12.679688 -18.203125 10.703125 -18.203125 L 5.375 -18.203125 L 5.375 -8.15625 Z M 10.703125 -8.15625 "/></g></g></g><g fill="#ffffff" fill-opacity="1"><g transform="translate(625.016055, 676.631037)"><g><path d="M 17.421875 -1.828125 L 17.421875 0 L 3.265625 0 L 3.265625 -20.03125 L 17 -20.03125 L 17 -18.203125 L 5.375 -18.203125 L 5.375 -11.078125 L 15.734375 -11.078125 L 15.734375 -9.265625 L 5.375 -9.265625 L 5.375 -1.828125 Z M 17.421875 -1.828125 "/></g></g></g><g fill="#ffffff" fill-opacity="1"><g transform="translate(659.167579, 676.631037)"><g><path d="M 8.78125 0.171875 C 7.289062 0.171875 5.863281 -0.0664062 4.5 -0.546875 C 3.132812 -1.023438 2.082031 -1.65625 1.34375 -2.4375 L 2.171875 -4.0625 C 2.898438 -3.332031 3.863281 -2.742188 5.0625 -2.296875 C 6.257812 -1.847656 7.5 -1.625 8.78125 -1.625 C 10.570312 -1.625 11.914062 -1.953125 12.8125 -2.609375 C 13.707031 -3.273438 14.15625 -4.128906 14.15625 -5.171875 C 14.15625 -5.972656 13.910156 -6.613281 13.421875 -7.09375 C 12.941406 -7.570312 12.347656 -7.9375 11.640625 -8.1875 C 10.929688 -8.445312 9.953125 -8.734375 8.703125 -9.046875 C 7.191406 -9.421875 5.988281 -9.785156 5.09375 -10.140625 C 4.195312 -10.492188 3.425781 -11.03125 2.78125 -11.75 C 2.144531 -12.476562 1.828125 -13.460938 1.828125 -14.703125 C 1.828125 -15.710938 2.09375 -16.628906 2.625 -17.453125 C 3.164062 -18.285156 3.988281 -18.953125 5.09375 -19.453125 C 6.195312 -19.953125 7.570312 -20.203125 9.21875 -20.203125 C 10.351562 -20.203125 11.46875 -20.039062 12.5625 -19.71875 C 13.664062 -19.40625 14.617188 -18.972656 15.421875 -18.421875 L 14.703125 -16.734375 C 13.867188 -17.285156 12.972656 -17.695312 12.015625 -17.96875 C 11.054688 -18.25 10.125 -18.390625 9.21875 -18.390625 C 7.457031 -18.390625 6.132812 -18.050781 5.25 -17.375 C 4.363281 -16.695312 3.921875 -15.828125 3.921875 -14.765625 C 3.921875 -13.960938 4.160156 -13.316406 4.640625 -12.828125 C 5.128906 -12.347656 5.738281 -11.976562 6.46875 -11.71875 C 7.207031 -11.457031 8.195312 -11.175781 9.4375 -10.875 C 10.90625 -10.507812 12.09375 -10.148438 13 -9.796875 C 13.90625 -9.441406 14.671875 -8.90625 15.296875 -8.1875 C 15.929688 -7.476562 16.25 -6.515625 16.25 -5.296875 C 16.25 -4.285156 15.976562 -3.363281 15.4375 -2.53125 C 14.894531 -1.695312 14.0625 -1.035156 12.9375 -0.546875 C 11.8125 -0.0664062 10.425781 0.171875 8.78125 0.171875 Z M 8.78125 0.171875 "/></g></g></g><g fill="#ffffff" fill-opacity="1"><g transform="translate(691.775179, 676.631037)"><g><path d="M 2.515625 -20.03125 L 4.921875 -20.03125 L 4.484375 -6.015625 L 2.921875 -6.015625 Z M 3.71875 0.140625 C 3.300781 0.140625 2.941406 -0.00390625 2.640625 -0.296875 C 2.347656 -0.597656 2.203125 -0.945312 2.203125 -1.34375 C 2.203125 -1.757812 2.34375 -2.101562 2.625 -2.375 C 2.914062 -2.65625 3.28125 -2.796875 3.71875 -2.796875 C 4.132812 -2.796875 4.484375 -2.65625 4.765625 -2.375 C 5.054688 -2.101562 5.203125 -1.757812 5.203125 -1.34375 C 5.203125 -0.945312 5.054688 -0.597656 4.765625 -0.296875 C 4.484375 -0.00390625 4.132812 0.140625 3.71875 0.140625 Z M 3.71875 0.140625 "/></g></g></g></svg>