<svg xmlns="http://www.w3.org/2000/svg" xmlns:xlink="http://www.w3.org/1999/xlink" width="900" zoomAndPan="magnify" viewBox="0 0 675 149.999998" height="200" preserveAspectRatio="xMidYMid meet" version="1.0"><defs><g/><clipPath id="3dcdd3d387"><path d="M 59 0 L 77 0 L 77 18 L 59 18 Z M 59 0 " clip-rule="nonzero"/></clipPath><clipPath id="1a65857984"><path d="M 58.25 1.828125 L 75.1875 0 L 77.015625 16.941406 L 60.074219 18.765625 Z M 58.25 1.828125 " clip-rule="nonzero"/></clipPath><clipPath id="e7cb9fc962"><path d="M 66.71875 0.914062 C 62.039062 1.417969 58.65625 5.621094 59.164062 10.296875 C 59.667969 14.976562 63.867188 18.359375 68.546875 17.855469 C 73.222656 17.347656 76.605469 13.148438 76.101562 8.46875 C 75.597656 3.792969 71.398438 0.410156 66.71875 0.914062 Z M 66.71875 0.914062 " clip-rule="nonzero"/></clipPath><clipPath id="3de834a59b"><path d="M 131 58 L 149 58 L 149 76 L 131 76 Z M 131 58 " clip-rule="nonzero"/></clipPath><clipPath id="094d06f134"><path d="M 130.175781 59.914062 L 147.117188 58.085938 L 148.941406 75.027344 L 132.003906 76.855469 Z M 130.175781 59.914062 " clip-rule="nonzero"/></clipPath><clipPath id="5b9b61bb83"><path d="M 138.644531 59 C 133.96875 59.503906 130.585938 63.707031 131.089844 68.382812 C 131.59375 73.0625 135.792969 76.445312 140.472656 75.941406 C 145.152344 75.4375 148.535156 71.234375 148.027344 66.558594 C 147.523438 61.878906 143.324219 58.496094 138.644531 59 Z M 138.644531 59 " clip-rule="nonzero"/></clipPath><clipPath id="3d1113bd62"><path d="M 73 131 L 91 131 L 91 149 L 73 149 Z M 73 131 " clip-rule="nonzero"/></clipPath><clipPath id="249801b483"><path d="M 72.289062 132.003906 L 89.226562 130.175781 L 91.054688 147.117188 L 74.113281 148.941406 Z M 72.289062 132.003906 " clip-rule="nonzero"/></clipPath><clipPath id="e8c3714355"><path d="M 80.757812 131.089844 C 76.082031 131.59375 72.695312 135.792969 73.203125 140.472656 C 73.707031 145.152344 77.90625 148.535156 82.585938 148.027344 C 87.261719 147.523438 90.644531 143.324219 90.140625 138.644531 C 89.636719 133.96875 85.4375 130.585938 80.757812 131.089844 Z M 80.757812 131.089844 " clip-rule="nonzero"/></clipPath><clipPath id="cfa915ff71"><path d="M 0 72 L 18 72 L 18 91 L 0 91 Z M 0 72 " clip-rule="nonzero"/></clipPath><clipPath id="59113a016e"><path d="M 0 73.953125 L 16.941406 72.125 L 18.765625 89.066406 L 1.828125 90.894531 Z M 0 73.953125 " clip-rule="nonzero"/></clipPath><clipPath id="3101ce7429"><path d="M 8.46875 73.039062 C 3.792969 73.542969 0.410156 77.746094 0.914062 82.425781 C 1.417969 87.101562 5.621094 90.484375 10.296875 89.980469 C 14.976562 89.476562 18.359375 85.273438 17.855469 80.597656 C 17.347656 75.917969 13.148438 72.535156 8.46875 73.039062 Z M 8.46875 73.039062 " clip-rule="nonzero"/></clipPath><clipPath id="c5c308f786"><path d="M 79 1 L 97 1 L 97 19 L 79 19 Z M 79 1 " clip-rule="nonzero"/></clipPath><clipPath id="d60e7585c0"><path d="M 81.464844 0.1875 L 98.144531 3.683594 L 94.648438 20.359375 L 77.972656 16.863281 Z M 81.464844 0.1875 " clip-rule="nonzero"/></clipPath><clipPath id="03e77ff9cb"><path d="M 89.804688 1.9375 C 85.199219 0.972656 80.683594 3.921875 79.71875 8.527344 C 78.753906 13.132812 81.703125 17.648438 86.308594 18.613281 C 90.914062 19.578125 95.429688 16.625 96.394531 12.023438 C 97.359375 7.417969 94.410156 2.902344 89.804688 1.9375 Z M 89.804688 1.9375 " clip-rule="nonzero"/></clipPath><clipPath id="13013defc0"><path d="M 130 79 L 148 79 L 148 97 L 130 97 Z M 130 79 " clip-rule="nonzero"/></clipPath><clipPath id="57d81f741c"><path d="M 131.933594 77.652344 L 148.609375 81.148438 L 145.117188 97.824219 L 128.441406 94.328125 Z M 131.933594 77.652344 " clip-rule="nonzero"/></clipPath><clipPath id="b36d9af5ff"><path d="M 140.273438 79.398438 C 135.667969 78.433594 131.152344 81.386719 130.1875 85.992188 C 129.222656 90.59375 132.171875 95.109375 136.777344 96.074219 C 141.382812 97.039062 145.898438 94.089844 146.863281 89.484375 C 147.828125 84.878906 144.878906 80.363281 140.273438 79.398438 Z M 140.273438 79.398438 " clip-rule="nonzero"/></clipPath><clipPath id="e032a2727d"><path d="M 52 129 L 70 129 L 70 147 L 52 147 Z M 52 129 " clip-rule="nonzero"/></clipPath><clipPath id="aef4dbc064"><path d="M 54.613281 128.335938 L 71.289062 131.832031 L 67.792969 148.507812 L 51.117188 145.011719 Z M 54.613281 128.335938 " clip-rule="nonzero"/></clipPath><clipPath id="d0085383c5"><path d="M 62.949219 130.082031 C 58.34375 129.117188 53.828125 132.070312 52.863281 136.671875 C 51.898438 141.277344 54.851562 145.792969 59.453125 146.757812 C 64.058594 147.722656 68.574219 144.773438 69.539062 140.167969 C 70.503906 135.5625 67.554688 131.046875 62.949219 130.082031 Z M 62.949219 130.082031 " clip-rule="nonzero"/></clipPath><clipPath id="fca630b9ac"><path d="M 1 52 L 19 52 L 19 70 L 1 70 Z M 1 52 " clip-rule="nonzero"/></clipPath><clipPath id="dd48e5aeae"><path d="M 3.789062 50.796875 L 20.464844 54.292969 L 16.96875 70.96875 L 0.292969 67.472656 Z M 3.789062 50.796875 " clip-rule="nonzero"/></clipPath><clipPath id="efa51ff405"><path d="M 12.125 52.542969 C 7.519531 51.578125 3.003906 54.53125 2.039062 59.136719 C 1.074219 63.742188 4.027344 68.253906 8.632812 69.222656 C 13.234375 70.1875 17.75 67.234375 18.714844 62.628906 C 19.679688 58.023438 16.730469 53.507812 12.125 52.542969 Z M 12.125 52.542969 " clip-rule="nonzero"/></clipPath><clipPath id="b497d861fa"><path d="M 39 5 L 57 5 L 57 24 L 39 24 Z M 39 5 " clip-rule="nonzero"/></clipPath><clipPath id="ba1a5607a6"><path d="M 36.554688 10.222656 L 52.101562 3.25 L 59.074219 18.792969 L 43.53125 25.769531 Z M 36.554688 10.222656 " clip-rule="nonzero"/></clipPath><clipPath id="1fa4db2a69"><path d="M 44.328125 6.734375 C 40.035156 8.664062 38.117188 13.703125 40.042969 17.996094 C 41.96875 22.289062 47.011719 24.207031 51.304688 22.28125 C 55.597656 20.355469 57.515625 15.3125 55.585938 11.019531 C 53.660156 6.726562 48.621094 4.808594 44.328125 6.734375 Z M 44.328125 6.734375 " clip-rule="nonzero"/></clipPath><clipPath id="fa6e34e89f"><path d="M 125 38 L 143 38 L 143 57 L 125 57 Z M 125 38 " clip-rule="nonzero"/></clipPath><clipPath id="50738f120c"><path d="M 122.917969 43.222656 L 138.464844 36.246094 L 145.4375 51.792969 L 129.894531 58.769531 Z M 122.917969 43.222656 " clip-rule="nonzero"/></clipPath><clipPath id="f6535d263c"><path d="M 130.691406 39.734375 C 126.398438 41.660156 124.480469 46.703125 126.40625 50.996094 C 128.332031 55.289062 133.375 57.207031 137.667969 55.28125 C 141.960938 53.355469 143.878906 48.3125 141.953125 44.019531 C 140.023438 39.726562 134.984375 37.808594 130.691406 39.734375 Z M 130.691406 39.734375 " clip-rule="nonzero"/></clipPath><clipPath id="f2e73a0e34"><path d="M 92 125 L 110 125 L 110 143 L 92 143 Z M 92 125 " clip-rule="nonzero"/></clipPath><clipPath id="7279d7c10b"><path d="M 90.160156 129.679688 L 105.703125 122.703125 L 112.679688 138.246094 L 97.136719 145.222656 Z M 90.160156 129.679688 " clip-rule="nonzero"/></clipPath><clipPath id="9c1fa9daa5"><path d="M 97.933594 126.191406 C 93.640625 128.117188 91.722656 133.160156 93.648438 137.449219 C 95.574219 141.742188 100.617188 143.660156 104.90625 141.734375 C 109.199219 139.808594 111.117188 134.769531 109.191406 130.476562 C 107.265625 126.183594 102.226562 124.265625 97.933594 126.191406 Z M 97.933594 126.191406 " clip-rule="nonzero"/></clipPath><clipPath id="cbca73f70d"><path d="M 6 92 L 24 92 L 24 110 L 6 110 Z M 6 92 " clip-rule="nonzero"/></clipPath><clipPath id="32bc660964"><path d="M 3.464844 96.828125 L 19.007812 89.851562 L 25.984375 105.398438 L 10.441406 112.371094 Z M 3.464844 96.828125 " clip-rule="nonzero"/></clipPath><clipPath id="b36a387bb0"><path d="M 11.238281 93.339844 C 6.945312 95.265625 5.027344 100.308594 6.953125 104.601562 C 8.878906 108.894531 13.921875 110.8125 18.210938 108.886719 C 22.503906 106.957031 24.421875 101.917969 22.496094 97.625 C 20.570312 93.332031 15.53125 91.414062 11.238281 93.339844 Z M 11.238281 93.339844 " clip-rule="nonzero"/></clipPath><clipPath id="c07ca7bf9e"><path d="M 9 33 L 27 33 L 27 51 L 9 51 Z M 9 33 " clip-rule="nonzero"/></clipPath><clipPath id="4af9a6c7d3"><path d="M 5.921875 45.03125 L 14.378906 30.238281 L 29.171875 38.695312 L 20.714844 53.488281 Z M 5.921875 45.03125 " clip-rule="nonzero"/></clipPath><clipPath id="0f3ce8e4ec"><path d="M 10.148438 37.636719 C 7.816406 41.71875 9.234375 46.925781 13.320312 49.257812 C 17.402344 51.59375 22.609375 50.175781 24.941406 46.089844 C 27.277344 42.007812 25.859375 36.800781 21.773438 34.46875 C 17.691406 32.132812 12.484375 33.550781 10.148438 37.636719 Z M 10.148438 37.636719 " clip-rule="nonzero"/></clipPath><clipPath id="7ee5cf8518"><path d="M 98 9 L 116 9 L 116 27 L 98 27 Z M 98 9 " clip-rule="nonzero"/></clipPath><clipPath id="659643588c"><path d="M 95.15625 20.84375 L 103.613281 6.050781 L 118.402344 14.507812 L 109.949219 29.300781 Z M 95.15625 20.84375 " clip-rule="nonzero"/></clipPath><clipPath id="60287482ce"><path d="M 99.382812 13.449219 C 97.046875 17.53125 98.46875 22.738281 102.550781 25.070312 C 106.636719 27.40625 111.839844 25.988281 114.175781 21.902344 C 116.511719 17.820312 115.09375 12.613281 111.007812 10.28125 C 106.921875 7.945312 101.71875 9.363281 99.382812 13.449219 Z M 99.382812 13.449219 " clip-rule="nonzero"/></clipPath><clipPath id="0af21ca30a"><path d="M 122 98 L 140 98 L 140 116 L 122 116 Z M 122 98 " clip-rule="nonzero"/></clipPath><clipPath id="e0640da09c"><path d="M 119.589844 110.007812 L 128.046875 95.21875 L 142.839844 103.671875 L 134.382812 118.464844 Z M 119.589844 110.007812 " clip-rule="nonzero"/></clipPath><clipPath id="61f841cbe5"><path d="M 123.820312 102.613281 C 121.484375 106.699219 122.902344 111.902344 126.988281 114.238281 C 131.074219 116.574219 136.277344 115.152344 138.613281 111.070312 C 140.945312 106.984375 139.527344 101.78125 135.445312 99.445312 C 131.359375 97.109375 126.15625 98.527344 123.820312 102.613281 Z M 123.820312 102.613281 " clip-rule="nonzero"/></clipPath><clipPath id="7461c9fee3"><path d="M 33 122 L 51 122 L 51 140 L 33 140 Z M 33 122 " clip-rule="nonzero"/></clipPath><clipPath id="88877d28ee"><path d="M 30.179688 134.511719 L 38.632812 119.722656 L 53.425781 128.175781 L 44.96875 142.96875 Z M 30.179688 134.511719 " clip-rule="nonzero"/></clipPath><clipPath id="d8cd73a16e"><path d="M 34.40625 127.117188 C 32.070312 131.203125 33.488281 136.40625 37.574219 138.742188 C 41.660156 141.074219 46.863281 139.65625 49.199219 135.574219 C 51.53125 131.488281 50.113281 126.285156 46.03125 123.949219 C 41.945312 121.613281 36.742188 123.03125 34.40625 127.117188 Z M 34.40625 127.117188 " clip-rule="nonzero"/></clipPath><clipPath id="684dcbb0f1"><path d="M 21 17 L 39 17 L 39 35 L 21 35 Z M 21 17 " clip-rule="nonzero"/></clipPath><clipPath id="b91abc4114"><path d="M 18.210938 25.265625 L 30.824219 13.808594 L 42.28125 26.421875 L 29.667969 37.878906 Z M 18.210938 25.265625 " clip-rule="nonzero"/></clipPath><clipPath id="2e03f150d1"><path d="M 24.519531 19.539062 C 21.035156 22.699219 20.777344 28.089844 23.941406 31.570312 C 27.105469 35.054688 32.492188 35.3125 35.976562 32.148438 C 39.457031 28.984375 39.714844 23.597656 36.550781 20.113281 C 33.390625 16.632812 28 16.375 24.519531 19.539062 Z M 24.519531 19.539062 " clip-rule="nonzero"/></clipPath><clipPath id="f4554c3baa"><path d="M 114 21 L 132 21 L 132 39 L 114 39 Z M 114 21 " clip-rule="nonzero"/></clipPath><clipPath id="698cce2d75"><path d="M 110.554688 29.824219 L 123.164062 18.367188 L 134.621094 30.976562 L 122.011719 42.433594 Z M 110.554688 29.824219 " clip-rule="nonzero"/></clipPath><clipPath id="55315f45f8"><path d="M 116.859375 24.09375 C 113.378906 27.257812 113.117188 32.644531 116.28125 36.128906 C 119.445312 39.609375 124.835938 39.867188 128.316406 36.707031 C 131.800781 33.542969 132.058594 28.152344 128.894531 24.671875 C 125.730469 21.1875 120.34375 20.929688 116.859375 24.09375 Z M 116.859375 24.09375 " clip-rule="nonzero"/></clipPath><clipPath id="6594c0fa3c"><path d="M 109 114 L 127 114 L 127 132 L 109 132 Z M 109 114 " clip-rule="nonzero"/></clipPath><clipPath id="bdc17b36e4"><path d="M 106.253906 122.175781 L 118.863281 110.71875 L 130.324219 123.328125 L 117.710938 134.785156 Z M 106.253906 122.175781 " clip-rule="nonzero"/></clipPath><clipPath id="8e1f4d1f7a"><path d="M 112.558594 116.449219 C 109.078125 119.609375 108.820312 125 111.984375 128.480469 C 115.144531 131.964844 120.535156 132.222656 124.015625 129.058594 C 127.5 125.894531 127.757812 120.507812 124.59375 117.023438 C 121.429688 113.542969 116.042969 113.285156 112.558594 116.449219 Z M 112.558594 116.449219 " clip-rule="nonzero"/></clipPath><clipPath id="b6215c6ee7"><path d="M 17 109 L 35 109 L 35 127 L 17 127 Z M 17 109 " clip-rule="nonzero"/></clipPath><clipPath id="1b2da749cb"><path d="M 13.644531 117.863281 L 26.253906 106.40625 L 37.710938 119.019531 L 25.101562 130.476562 Z M 13.644531 117.863281 " clip-rule="nonzero"/></clipPath><clipPath id="63f4aac832"><path d="M 19.949219 112.136719 C 16.46875 115.300781 16.207031 120.6875 19.371094 124.167969 C 22.535156 127.652344 27.925781 127.910156 31.40625 124.746094 C 34.890625 121.582031 35.148438 116.195312 31.984375 112.710938 C 28.820312 109.230469 23.433594 108.972656 19.949219 112.136719 Z M 19.949219 112.136719 " clip-rule="nonzero"/></clipPath><clipPath id="719932d369"><path d="M 68.257812 19.34375 L 80.957031 19.34375 L 80.957031 32.042969 L 68.257812 32.042969 Z M 68.257812 19.34375 " clip-rule="nonzero"/></clipPath><clipPath id="ae29ccade4"><path d="M 74.605469 19.34375 C 71.101562 19.34375 68.257812 22.183594 68.257812 25.691406 C 68.257812 29.199219 71.101562 32.042969 74.605469 32.042969 C 78.113281 32.042969 80.957031 29.199219 80.957031 25.691406 C 80.957031 22.183594 78.113281 19.34375 74.605469 19.34375 Z M 74.605469 19.34375 " clip-rule="nonzero"/></clipPath><clipPath id="d5d2352f1a"><path d="M 116.917969 68.140625 L 129.621094 68.140625 L 129.621094 80.839844 L 116.917969 80.839844 Z M 116.917969 68.140625 " clip-rule="nonzero"/></clipPath><clipPath id="6c48948001"><path d="M 123.269531 68.140625 C 119.761719 68.140625 116.917969 70.984375 116.917969 74.492188 C 116.917969 77.996094 119.761719 80.839844 123.269531 80.839844 C 126.777344 80.839844 129.621094 77.996094 129.621094 74.492188 C 129.621094 70.984375 126.777344 68.140625 123.269531 68.140625 Z M 123.269531 68.140625 " clip-rule="nonzero"/></clipPath><clipPath id="d8c87857da"><path d="M 68.257812 116.9375 L 80.957031 116.9375 L 80.957031 129.640625 L 68.257812 129.640625 Z M 68.257812 116.9375 " clip-rule="nonzero"/></clipPath><clipPath id="9eb549dfa5"><path d="M 74.605469 116.9375 C 71.101562 116.9375 68.257812 119.78125 68.257812 123.289062 C 68.257812 126.796875 71.101562 129.640625 74.605469 129.640625 C 78.113281 129.640625 80.957031 126.796875 80.957031 123.289062 C 80.957031 119.78125 78.113281 116.9375 74.605469 116.9375 Z M 74.605469 116.9375 " clip-rule="nonzero"/></clipPath><clipPath id="8776e770d2"><path d="M 19.324219 68.140625 L 32.023438 68.140625 L 32.023438 80.839844 L 19.324219 80.839844 Z M 19.324219 68.140625 " clip-rule="nonzero"/></clipPath><clipPath id="a65507135a"><path d="M 25.671875 68.140625 C 22.164062 68.140625 19.324219 70.984375 19.324219 74.492188 C 19.324219 77.996094 22.164062 80.839844 25.671875 80.839844 C 29.179688 80.839844 32.023438 77.996094 32.023438 74.492188 C 32.023438 70.984375 29.179688 68.140625 25.671875 68.140625 Z M 25.671875 68.140625 " clip-rule="nonzero"/></clipPath><clipPath id="4124a5c52a"><path d="M 83 21 L 97 21 L 97 35 L 83 35 Z M 83 21 " clip-rule="nonzero"/></clipPath><clipPath id="4c087e949e"><path d="M 85.59375 19.984375 L 97.671875 23.90625 L 93.75 35.988281 L 81.671875 32.0625 Z M 85.59375 19.984375 " clip-rule="nonzero"/></clipPath><clipPath id="ead87dd381"><path d="M 91.632812 21.945312 C 88.296875 20.863281 84.714844 22.6875 83.632812 26.023438 C 82.550781 29.359375 84.375 32.941406 87.710938 34.023438 C 91.046875 35.109375 94.628906 33.28125 95.710938 29.945312 C 96.796875 26.609375 94.96875 23.027344 91.632812 21.945312 Z M 91.632812 21.945312 " clip-rule="nonzero"/></clipPath><clipPath id="3aecb50431"><path d="M 114 83 L 128 83 L 128 96 L 114 96 Z M 114 83 " clip-rule="nonzero"/></clipPath><clipPath id="1d93913890"><path d="M 116.804688 81.425781 L 128.882812 85.351562 L 124.960938 97.429688 L 112.882812 93.507812 Z M 116.804688 81.425781 " clip-rule="nonzero"/></clipPath><clipPath id="14648d9701"><path d="M 122.84375 83.386719 C 119.507812 82.304688 115.925781 84.132812 114.84375 87.464844 C 113.761719 90.800781 115.585938 94.382812 118.921875 95.46875 C 122.257812 96.550781 125.839844 94.726562 126.921875 91.390625 C 128.007812 88.054688 126.179688 84.472656 122.84375 83.386719 Z M 122.84375 83.386719 " clip-rule="nonzero"/></clipPath><clipPath id="44c109ef76"><path d="M 53 114 L 66 114 L 66 128 L 53 128 Z M 53 114 " clip-rule="nonzero"/></clipPath><clipPath id="5ba112ead9"><path d="M 55.449219 112.808594 L 67.527344 116.730469 L 63.605469 128.8125 L 51.527344 124.886719 Z M 55.449219 112.808594 " clip-rule="nonzero"/></clipPath><clipPath id="bc60769b78"><path d="M 61.488281 114.769531 C 58.152344 113.6875 54.570312 115.511719 53.488281 118.847656 C 52.402344 122.183594 54.230469 125.765625 57.566406 126.847656 C 60.902344 127.933594 64.484375 126.105469 65.566406 122.769531 C 66.652344 119.4375 64.824219 115.851562 61.488281 114.769531 Z M 61.488281 114.769531 " clip-rule="nonzero"/></clipPath><clipPath id="71e254b8b2"><path d="M 21 52 L 35 52 L 35 66 L 21 66 Z M 21 52 " clip-rule="nonzero"/></clipPath><clipPath id="dd5b331234"><path d="M 23.980469 51.28125 L 36.058594 55.203125 L 32.136719 67.285156 L 20.058594 63.363281 Z M 23.980469 51.28125 " clip-rule="nonzero"/></clipPath><clipPath id="3fe77e2e6d"><path d="M 30.019531 53.242188 C 26.683594 52.160156 23.101562 53.984375 22.019531 57.320312 C 20.9375 60.65625 22.761719 64.238281 26.097656 65.324219 C 29.433594 66.40625 33.015625 64.582031 34.097656 61.246094 C 35.183594 57.910156 33.355469 54.328125 30.019531 53.242188 Z M 30.019531 53.242188 " clip-rule="nonzero"/></clipPath><clipPath id="1bb1618bce"><path d="M 53 21 L 66 21 L 66 35 L 53 35 Z M 53 21 " clip-rule="nonzero"/></clipPath><clipPath id="e4ff7eda03"><path d="M 51.507812 23.832031 L 63.585938 19.902344 L 67.511719 31.980469 L 55.433594 35.910156 Z M 51.507812 23.832031 " clip-rule="nonzero"/></clipPath><clipPath id="e953522143"><path d="M 57.546875 21.867188 C 54.210938 22.953125 52.386719 26.535156 53.472656 29.871094 C 54.554688 33.207031 58.140625 35.03125 61.472656 33.945312 C 64.808594 32.859375 66.632812 29.277344 65.550781 25.941406 C 64.464844 22.609375 60.882812 20.78125 57.546875 21.867188 Z M 57.546875 21.867188 " clip-rule="nonzero"/></clipPath><clipPath id="e8036d0c04"><path d="M 114 52 L 128 52 L 128 66 L 114 66 Z M 114 52 " clip-rule="nonzero"/></clipPath><clipPath id="3172ee238e"><path d="M 112.875 55.191406 L 124.953125 51.261719 L 128.882812 63.339844 L 116.804688 67.269531 Z M 112.875 55.191406 " clip-rule="nonzero"/></clipPath><clipPath id="9242f7b295"><path d="M 118.914062 53.226562 C 115.578125 54.3125 113.753906 57.894531 114.839844 61.230469 C 115.921875 64.5625 119.507812 66.390625 122.84375 65.304688 C 126.175781 64.21875 128 60.636719 126.917969 57.300781 C 125.832031 53.964844 122.25 52.140625 118.914062 53.226562 Z M 118.914062 53.226562 " clip-rule="nonzero"/></clipPath><clipPath id="0d099c753d"><path d="M 83 114 L 97 114 L 97 128 L 83 128 Z M 83 114 " clip-rule="nonzero"/></clipPath><clipPath id="79086a3d7b"><path d="M 81.6875 116.644531 L 93.765625 112.71875 L 97.691406 124.796875 L 85.613281 128.722656 Z M 81.6875 116.644531 " clip-rule="nonzero"/></clipPath><clipPath id="554a54c23e"><path d="M 87.726562 114.679688 C 84.390625 115.765625 82.566406 119.347656 83.652344 122.683594 C 84.734375 126.019531 88.320312 127.84375 91.652344 126.757812 C 94.988281 125.675781 96.8125 122.089844 95.730469 118.757812 C 94.644531 115.421875 91.0625 113.597656 87.726562 114.679688 Z M 87.726562 114.679688 " clip-rule="nonzero"/></clipPath><clipPath id="de44a1fcb2"><path d="M 21 83 L 35 83 L 35 96 L 21 96 Z M 21 83 " clip-rule="nonzero"/></clipPath><clipPath id="afaafe3815"><path d="M 20.0625 85.371094 L 32.140625 81.441406 L 36.066406 93.519531 L 23.988281 97.449219 Z M 20.0625 85.371094 " clip-rule="nonzero"/></clipPath><clipPath id="89da74c5ec"><path d="M 26.101562 83.40625 C 22.765625 84.492188 20.941406 88.074219 22.027344 91.410156 C 23.109375 94.742188 26.691406 96.570312 30.027344 95.484375 C 33.363281 94.398438 35.1875 90.816406 34.105469 87.480469 C 33.019531 84.144531 29.4375 82.320312 26.101562 83.40625 Z M 26.101562 83.40625 " clip-rule="nonzero"/></clipPath><clipPath id="2cb26caf31"><path d="M 28 39 L 42 39 L 42 53 L 28 53 Z M 28 39 " clip-rule="nonzero"/></clipPath><clipPath id="cbebe183db"><path d="M 26.023438 47.179688 L 33.472656 36.890625 L 43.757812 44.339844 L 36.3125 54.628906 Z M 26.023438 47.179688 " clip-rule="nonzero"/></clipPath><clipPath id="8137484884"><path d="M 29.75 42.035156 C 27.691406 44.875 28.328125 48.847656 31.167969 50.902344 C 34.007812 52.960938 37.976562 52.324219 40.035156 49.484375 C 42.09375 46.644531 41.457031 42.671875 38.617188 40.617188 C 35.777344 38.558594 31.804688 39.195312 29.75 42.035156 Z M 29.75 42.035156 " clip-rule="nonzero"/></clipPath><clipPath id="32c03e9c11"><path d="M 96 28 L 110 28 L 110 42 L 96 42 Z M 96 28 " clip-rule="nonzero"/></clipPath><clipPath id="9f8519c849"><path d="M 94.089844 36.382812 L 101.539062 26.097656 L 111.824219 33.546875 L 104.375 43.832031 Z M 94.089844 36.382812 " clip-rule="nonzero"/></clipPath><clipPath id="a29e11f31a"><path d="M 97.8125 31.242188 C 95.757812 34.082031 96.390625 38.050781 99.230469 40.109375 C 102.074219 42.167969 106.042969 41.53125 108.101562 38.691406 C 110.15625 35.851562 109.523438 31.878906 106.679688 29.824219 C 103.839844 27.765625 99.871094 28.402344 97.8125 31.242188 Z M 97.8125 31.242188 " clip-rule="nonzero"/></clipPath><clipPath id="767c18b0de"><path d="M 107 96 L 121 96 L 121 110 L 107 110 Z M 107 96 " clip-rule="nonzero"/></clipPath><clipPath id="ec65a07400"><path d="M 105.070312 104.417969 L 112.519531 94.132812 L 122.808594 101.582031 L 115.359375 111.867188 Z M 105.070312 104.417969 " clip-rule="nonzero"/></clipPath><clipPath id="f92d081a5f"><path d="M 108.796875 99.277344 C 106.738281 102.117188 107.375 106.085938 110.214844 108.144531 C 113.054688 110.199219 117.027344 109.566406 119.082031 106.726562 C 121.140625 103.882812 120.503906 99.914062 117.664062 97.855469 C 114.824219 95.800781 110.851562 96.4375 108.796875 99.277344 Z M 108.796875 99.277344 " clip-rule="nonzero"/></clipPath><clipPath id="7cd971afe8"><path d="M 39 107 L 53 107 L 53 121 L 39 121 Z M 39 107 " clip-rule="nonzero"/></clipPath><clipPath id="1fae926def"><path d="M 36.847656 115.433594 L 44.296875 105.144531 L 54.582031 112.59375 L 47.132812 122.882812 Z M 36.847656 115.433594 " clip-rule="nonzero"/></clipPath><clipPath id="e9c974f871"><path d="M 40.574219 110.289062 C 38.515625 113.128906 39.152344 117.101562 41.992188 119.15625 C 44.832031 121.214844 48.800781 120.578125 50.859375 117.738281 C 52.917969 114.898438 52.28125 110.925781 49.441406 108.871094 C 46.597656 106.8125 42.628906 107.449219 40.574219 110.289062 Z M 40.574219 110.289062 " clip-rule="nonzero"/></clipPath><clipPath id="0b90f7731d"><path d="M 39 28 L 52 28 L 52 42 L 39 42 Z M 39 28 " clip-rule="nonzero"/></clipPath><clipPath id="b3974dbe14"><path d="M 36.710938 33.511719 L 46.972656 26.03125 L 54.457031 36.292969 L 44.195312 43.773438 Z M 36.710938 33.511719 " clip-rule="nonzero"/></clipPath><clipPath id="350ef2b51e"><path d="M 41.84375 29.769531 C 39.007812 31.835938 38.386719 35.808594 40.453125 38.644531 C 42.519531 41.476562 46.492188 42.097656 49.328125 40.03125 C 52.160156 37.964844 52.78125 33.996094 50.714844 31.160156 C 48.648438 28.328125 44.675781 27.703125 41.84375 29.769531 Z M 41.84375 29.769531 " clip-rule="nonzero"/></clipPath><clipPath id="5658445a49"><path d="M 107 39 L 121 39 L 121 53 L 107 53 Z M 107 39 " clip-rule="nonzero"/></clipPath><clipPath id="a30d0893df"><path d="M 104.78125 44.269531 L 115.046875 36.785156 L 122.527344 47.050781 L 112.265625 54.53125 Z M 104.78125 44.269531 " clip-rule="nonzero"/></clipPath><clipPath id="b9c7472c36"><path d="M 109.914062 40.527344 C 107.082031 42.59375 106.457031 46.566406 108.523438 49.402344 C 110.589844 52.234375 114.5625 52.855469 117.398438 50.789062 C 120.230469 48.722656 120.851562 44.75 118.785156 41.917969 C 116.71875 39.085938 112.746094 38.460938 109.914062 40.527344 Z M 109.914062 40.527344 " clip-rule="nonzero"/></clipPath><clipPath id="5f77a513f1"><path d="M 96 107 L 110 107 L 110 121 L 96 121 Z M 96 107 " clip-rule="nonzero"/></clipPath><clipPath id="311440dcd0"><path d="M 94.214844 112.371094 L 104.476562 104.886719 L 111.960938 115.148438 L 101.699219 122.632812 Z M 94.214844 112.371094 " clip-rule="nonzero"/></clipPath><clipPath id="12fb3bd270"><path d="M 99.347656 108.628906 C 96.511719 110.695312 95.890625 114.667969 97.957031 117.5 C 100.023438 120.335938 103.996094 120.957031 106.828125 118.890625 C 109.664062 116.824219 110.285156 112.851562 108.21875 110.019531 C 106.152344 107.183594 102.179688 106.5625 99.347656 108.628906 Z M 99.347656 108.628906 " clip-rule="nonzero"/></clipPath><clipPath id="c6a977b3f8"><path d="M 28 96 L 42 96 L 42 110 L 28 110 Z M 28 96 " clip-rule="nonzero"/></clipPath><clipPath id="2bb0b34005"><path d="M 25.925781 101.773438 L 36.1875 94.289062 L 43.671875 104.550781 L 33.40625 112.035156 Z M 25.925781 101.773438 " clip-rule="nonzero"/></clipPath><clipPath id="a1aa18c70d"><path d="M 31.054688 98.03125 C 28.222656 100.097656 27.601562 104.070312 29.667969 106.902344 C 31.734375 109.738281 35.707031 110.359375 38.539062 108.292969 C 41.371094 106.226562 41.996094 102.253906 39.929688 99.421875 C 37.863281 96.585938 33.890625 95.964844 31.054688 98.03125 Z M 31.054688 98.03125 " clip-rule="nonzero"/></clipPath><clipPath id="c326a53d5f"><path d="M 74 35 L 84 35 L 84 45 L 74 45 Z M 74 35 " clip-rule="nonzero"/></clipPath><clipPath id="763fed0a22"><path d="M 75.179688 34.972656 L 84.144531 36.148438 L 82.972656 45.117188 L 74.003906 43.941406 Z M 75.179688 34.972656 " clip-rule="nonzero"/></clipPath><clipPath id="511d1ddc40"><path d="M 79.664062 35.5625 C 77.1875 35.238281 74.914062 36.980469 74.589844 39.457031 C 74.265625 41.933594 76.011719 44.207031 78.488281 44.527344 C 80.964844 44.851562 83.234375 43.109375 83.558594 40.632812 C 83.882812 38.15625 82.140625 35.882812 79.664062 35.5625 Z M 79.664062 35.5625 " clip-rule="nonzero"/></clipPath><clipPath id="5a5727420c"><path d="M 104 74 L 114 74 L 114 84 L 104 84 Z M 104 74 " clip-rule="nonzero"/></clipPath><clipPath id="ae43e16ca8"><path d="M 105.03125 73.929688 L 114 75.101562 L 112.828125 84.070312 L 103.859375 82.898438 Z M 105.03125 73.929688 " clip-rule="nonzero"/></clipPath><clipPath id="d889f06711"><path d="M 109.515625 74.515625 C 107.039062 74.191406 104.769531 75.9375 104.445312 78.414062 C 104.121094 80.890625 105.867188 83.160156 108.34375 83.484375 C 110.820312 83.808594 113.089844 82.0625 113.414062 79.585938 C 113.738281 77.109375 111.992188 74.839844 109.515625 74.515625 Z M 109.515625 74.515625 " clip-rule="nonzero"/></clipPath><clipPath id="1b91e8cab9"><path d="M 65 104 L 75 104 L 75 114 L 65 114 Z M 65 104 " clip-rule="nonzero"/></clipPath><clipPath id="de3cec4330"><path d="M 66.160156 103.890625 L 75.128906 105.066406 L 73.957031 114.03125 L 64.988281 112.859375 Z M 66.160156 103.890625 " clip-rule="nonzero"/></clipPath><clipPath id="fc3abfbfd6"><path d="M 70.644531 104.476562 C 68.167969 104.152344 65.898438 105.898438 65.574219 108.375 C 65.25 110.851562 66.996094 113.121094 69.472656 113.445312 C 71.949219 113.769531 74.21875 112.023438 74.542969 109.546875 C 74.867188 107.070312 73.121094 104.800781 70.644531 104.476562 Z M 70.644531 104.476562 " clip-rule="nonzero"/></clipPath><clipPath id="f3a25c1afc"><path d="M 35 65 L 45 65 L 45 75 L 35 75 Z M 35 65 " clip-rule="nonzero"/></clipPath><clipPath id="c79d0759e3"><path d="M 36.113281 64.910156 L 45.082031 66.085938 L 43.910156 75.054688 L 34.941406 73.878906 Z M 36.113281 64.910156 " clip-rule="nonzero"/></clipPath><clipPath id="a166fbc121"><path d="M 40.597656 65.5 C 38.121094 65.175781 35.851562 66.917969 35.527344 69.394531 C 35.203125 71.871094 36.949219 74.144531 39.425781 74.464844 C 41.902344 74.789062 44.171875 73.046875 44.496094 70.570312 C 44.820312 68.09375 43.074219 65.820312 40.597656 65.5 Z M 40.597656 65.5 " clip-rule="nonzero"/></clipPath><clipPath id="a896edc202"><path d="M 84 38 L 95 38 L 95 48 L 84 48 Z M 84 38 " clip-rule="nonzero"/></clipPath><clipPath id="e7430ff79a"><path d="M 87.359375 37.027344 L 95.527344 40.914062 L 91.640625 49.082031 L 83.476562 45.195312 Z M 87.359375 37.027344 " clip-rule="nonzero"/></clipPath><clipPath id="350b56419d"><path d="M 91.445312 38.972656 C 89.191406 37.898438 86.492188 38.859375 85.417969 41.113281 C 84.34375 43.367188 85.304688 46.066406 87.558594 47.140625 C 89.8125 48.210938 92.511719 47.253906 93.585938 45 C 94.660156 42.742188 93.699219 40.046875 91.445312 38.972656 Z M 91.445312 38.972656 " clip-rule="nonzero"/></clipPath><clipPath id="658a405c85"><path d="M 101 84 L 111 84 L 111 94 L 101 94 Z M 101 84 " clip-rule="nonzero"/></clipPath><clipPath id="e9a156ada7"><path d="M 103.722656 83.300781 L 111.890625 87.1875 L 108.003906 95.355469 L 99.835938 91.46875 Z M 103.722656 83.300781 " clip-rule="nonzero"/></clipPath><clipPath id="bc09255ad4"><path d="M 107.808594 85.242188 C 105.550781 84.171875 102.855469 85.128906 101.78125 87.382812 C 100.707031 89.640625 101.664062 92.335938 103.921875 93.410156 C 106.175781 94.484375 108.875 93.527344 109.949219 91.269531 C 111.019531 89.015625 110.0625 86.316406 107.808594 85.242188 Z M 107.808594 85.242188 " clip-rule="nonzero"/></clipPath><clipPath id="0ee3c65297"><path d="M 55 101 L 65 101 L 65 111 L 55 111 Z M 55 101 " clip-rule="nonzero"/></clipPath><clipPath id="a643ca346a"><path d="M 57.5 99.792969 L 65.664062 103.675781 L 61.78125 111.84375 L 53.613281 107.957031 Z M 57.5 99.792969 " clip-rule="nonzero"/></clipPath><clipPath id="5e951e36dd"><path d="M 61.582031 101.734375 C 59.328125 100.660156 56.628906 101.621094 55.554688 103.875 C 54.480469 106.128906 55.441406 108.828125 57.695312 109.902344 C 59.953125 110.976562 62.648438 110.015625 63.722656 107.761719 C 64.796875 105.503906 63.835938 102.808594 61.582031 101.734375 Z M 61.582031 101.734375 " clip-rule="nonzero"/></clipPath><clipPath id="abdb7c6a1a"><path d="M 38 54 L 48 54 L 48 64 L 38 64 Z M 38 54 " clip-rule="nonzero"/></clipPath><clipPath id="b3dd8752c6"><path d="M 40.960938 53.4375 L 49.128906 57.324219 L 45.242188 65.492188 L 37.074219 61.605469 Z M 40.960938 53.4375 " clip-rule="nonzero"/></clipPath><clipPath id="b7b7e9c550"><path d="M 45.046875 55.378906 C 42.789062 54.308594 40.089844 55.265625 39.019531 57.519531 C 37.945312 59.777344 38.902344 62.476562 41.160156 63.546875 C 43.414062 64.621094 46.113281 63.664062 47.1875 61.40625 C 48.257812 59.152344 47.300781 56.453125 45.046875 55.378906 Z M 45.046875 55.378906 " clip-rule="nonzero"/></clipPath><clipPath id="5dcff5665e"><path d="M 63 35 L 73 35 L 73 45 L 63 45 Z M 63 35 " clip-rule="nonzero"/></clipPath><clipPath id="0ec92b0188"><path d="M 62.9375 36.597656 L 71.828125 34.9375 L 73.484375 43.832031 L 64.59375 45.488281 Z M 62.9375 36.597656 " clip-rule="nonzero"/></clipPath><clipPath id="b452724c81"><path d="M 67.382812 35.769531 C 64.925781 36.226562 63.308594 38.585938 63.765625 41.042969 C 64.222656 43.496094 66.585938 45.117188 69.039062 44.660156 C 71.496094 44.203125 73.113281 41.839844 72.65625 39.386719 C 72.199219 36.929688 69.835938 35.308594 67.382812 35.769531 Z M 67.382812 35.769531 " clip-rule="nonzero"/></clipPath><clipPath id="f80d045aea"><path d="M 104 63 L 114 63 L 114 73 L 104 73 Z M 104 63 " clip-rule="nonzero"/></clipPath><clipPath id="4b55d22eeb"><path d="M 103.375 64.410156 L 112.265625 62.753906 L 113.921875 71.644531 L 105.03125 73.300781 Z M 103.375 64.410156 " clip-rule="nonzero"/></clipPath><clipPath id="45bb7f54ef"><path d="M 107.820312 63.582031 C 105.363281 64.039062 103.746094 66.402344 104.203125 68.855469 C 104.660156 71.3125 107.019531 72.929688 109.476562 72.472656 C 111.933594 72.015625 113.550781 69.652344 113.09375 67.199219 C 112.636719 64.742188 110.273438 63.125 107.820312 63.582031 Z M 107.820312 63.582031 " clip-rule="nonzero"/></clipPath><clipPath id="27f47325a7"><path d="M 76 104 L 86 104 L 86 114 L 76 114 Z M 76 104 " clip-rule="nonzero"/></clipPath><clipPath id="0ed098bf0b"><path d="M 75.671875 104.925781 L 84.5625 103.265625 L 86.222656 112.160156 L 77.328125 113.816406 Z M 75.671875 104.925781 " clip-rule="nonzero"/></clipPath><clipPath id="c1951ba9ed"><path d="M 80.117188 104.09375 C 77.664062 104.554688 76.042969 106.914062 76.5 109.371094 C 76.957031 111.824219 79.320312 113.445312 81.777344 112.988281 C 84.230469 112.53125 85.851562 110.167969 85.394531 107.710938 C 84.933594 105.257812 82.574219 103.636719 80.117188 104.09375 Z M 80.117188 104.09375 " clip-rule="nonzero"/></clipPath><clipPath id="55cae5b282"><path d="M 35 76 L 45 76 L 45 86 L 35 86 Z M 35 76 " clip-rule="nonzero"/></clipPath><clipPath id="a6b35af6cb"><path d="M 35.046875 77.144531 L 43.9375 75.488281 L 45.59375 84.378906 L 36.703125 86.039062 Z M 35.046875 77.144531 " clip-rule="nonzero"/></clipPath><clipPath id="c87d931172"><path d="M 39.492188 76.316406 C 37.035156 76.773438 35.417969 79.136719 35.875 81.589844 C 36.332031 84.046875 38.695312 85.667969 41.148438 85.207031 C 43.605469 84.75 45.222656 82.390625 44.765625 79.933594 C 44.308594 77.480469 41.945312 75.859375 39.492188 76.316406 Z M 39.492188 76.316406 " clip-rule="nonzero"/></clipPath><clipPath id="9d14cb534b"><path d="M 44 46 L 54 46 L 54 56 L 44 56 Z M 44 46 " clip-rule="nonzero"/></clipPath><clipPath id="7f7e5dd89e"><path d="M 42.785156 50.726562 L 48.996094 44.152344 L 55.570312 50.363281 L 49.359375 56.9375 Z M 42.785156 50.726562 " clip-rule="nonzero"/></clipPath><clipPath id="bc9a79b9a4"><path d="M 45.890625 47.441406 C 44.175781 49.253906 44.257812 52.117188 46.070312 53.832031 C 47.886719 55.546875 50.75 55.464844 52.464844 53.652344 C 54.179688 51.835938 54.097656 48.972656 52.28125 47.257812 C 50.464844 45.542969 47.605469 45.625 45.890625 47.441406 Z M 45.890625 47.441406 " clip-rule="nonzero"/></clipPath><clipPath id="781f053942"><path d="M 93 44 L 103 44 L 103 54 L 93 54 Z M 93 44 " clip-rule="nonzero"/></clipPath><clipPath id="3a31df0067"><path d="M 91.84375 49.394531 L 98.054688 42.820312 L 104.632812 49.027344 L 98.421875 55.605469 Z M 91.84375 49.394531 " clip-rule="nonzero"/></clipPath><clipPath id="b1fec34092"><path d="M 94.949219 46.105469 C 93.234375 47.921875 93.316406 50.785156 95.132812 52.5 C 96.949219 54.214844 99.8125 54.132812 101.527344 52.316406 C 103.242188 50.5 103.160156 47.640625 101.34375 45.925781 C 99.527344 44.210938 96.664062 44.289062 94.949219 46.105469 Z M 94.949219 46.105469 " clip-rule="nonzero"/></clipPath><clipPath id="b78faab889"><path d="M 95 93 L 105 93 L 105 103 L 95 103 Z M 95 93 " clip-rule="nonzero"/></clipPath><clipPath id="82d501d8f7"><path d="M 93.316406 98.453125 L 99.523438 91.875 L 106.101562 98.085938 L 99.890625 104.660156 Z M 93.316406 98.453125 " clip-rule="nonzero"/></clipPath><clipPath id="2177ed74ee"><path d="M 96.417969 95.164062 C 94.703125 96.980469 94.785156 99.84375 96.601562 101.558594 C 98.417969 103.273438 101.28125 103.191406 102.996094 101.375 C 104.710938 99.558594 104.628906 96.695312 102.8125 94.980469 C 100.996094 93.265625 98.136719 93.347656 96.417969 95.164062 Z M 96.417969 95.164062 " clip-rule="nonzero"/></clipPath><clipPath id="ce90c262f2"><path d="M 45 95 L 56 95 L 56 105 L 45 105 Z M 45 95 " clip-rule="nonzero"/></clipPath><clipPath id="0672e0f889"><path d="M 44.121094 99.925781 L 50.332031 93.347656 L 56.90625 99.558594 L 50.695312 106.136719 Z M 44.121094 99.925781 " clip-rule="nonzero"/></clipPath><clipPath id="ce47e2c63f"><path d="M 47.226562 96.636719 C 45.511719 98.453125 45.59375 101.316406 47.410156 103.03125 C 49.226562 104.746094 52.085938 104.664062 53.800781 102.847656 C 55.515625 101.03125 55.433594 98.167969 53.621094 96.453125 C 51.804688 94.738281 48.941406 94.820312 47.226562 96.636719 Z M 47.226562 96.636719 " clip-rule="nonzero"/></clipPath><clipPath id="cbf4966159"><path d="M 53 39 L 63 39 L 63 49 L 53 49 Z M 53 39 " clip-rule="nonzero"/></clipPath><clipPath id="1d7abc16d9"><path d="M 51.59375 42.066406 L 59.53125 37.730469 L 63.867188 45.667969 L 55.929688 50.003906 Z M 51.59375 42.066406 " clip-rule="nonzero"/></clipPath><clipPath id="07e8a07f8b"><path d="M 55.5625 39.898438 C 53.371094 41.09375 52.566406 43.84375 53.761719 46.035156 C 54.960938 48.226562 57.707031 49.03125 59.898438 47.835938 C 62.089844 46.636719 62.898438 43.890625 61.699219 41.699219 C 60.503906 39.507812 57.753906 38.699219 55.5625 39.898438 Z M 55.5625 39.898438 " clip-rule="nonzero"/></clipPath><clipPath id="cca58b9ce4"><path d="M 100 53 L 110 53 L 110 63 L 100 63 Z M 100 53 " clip-rule="nonzero"/></clipPath><clipPath id="b31e221ff1"><path d="M 98.667969 55.949219 L 106.605469 51.613281 L 110.941406 59.554688 L 103.003906 63.890625 Z M 98.667969 55.949219 " clip-rule="nonzero"/></clipPath><clipPath id="0859a1067f"><path d="M 102.636719 53.78125 C 100.445312 54.980469 99.640625 57.726562 100.835938 59.917969 C 102.035156 62.113281 104.78125 62.917969 106.972656 61.722656 C 109.164062 60.523438 109.972656 57.777344 108.773438 55.582031 C 107.578125 53.390625 104.828125 52.585938 102.636719 53.78125 Z M 102.636719 53.78125 " clip-rule="nonzero"/></clipPath><clipPath id="f686bca54a"><path d="M 86 100 L 96 100 L 96 110 L 86 110 Z M 86 100 " clip-rule="nonzero"/></clipPath><clipPath id="9eaceef73f"><path d="M 84.914062 103.0625 L 92.851562 98.726562 L 97.1875 106.664062 L 89.25 111 Z M 84.914062 103.0625 " clip-rule="nonzero"/></clipPath><clipPath id="2c5bf93787"><path d="M 88.882812 100.894531 C 86.691406 102.09375 85.882812 104.839844 87.082031 107.03125 C 88.277344 109.222656 91.027344 110.03125 93.21875 108.832031 C 95.410156 107.636719 96.214844 104.886719 95.019531 102.695312 C 93.820312 100.503906 91.074219 99.699219 88.882812 100.894531 Z M 88.882812 100.894531 " clip-rule="nonzero"/></clipPath><clipPath id="9411b5320a"><path d="M 39 86 L 49 86 L 49 96 L 39 96 Z M 39 86 " clip-rule="nonzero"/></clipPath><clipPath id="feb6b4595f"><path d="M 37.671875 89.269531 L 45.609375 84.933594 L 49.945312 92.871094 L 42.007812 97.207031 Z M 37.671875 89.269531 " clip-rule="nonzero"/></clipPath><clipPath id="8ee96e2c1d"><path d="M 41.640625 87.101562 C 39.449219 88.300781 38.640625 91.046875 39.839844 93.238281 C 41.035156 95.429688 43.78125 96.238281 45.976562 95.039062 C 48.167969 93.84375 48.972656 91.09375 47.777344 88.902344 C 46.578125 86.710938 43.832031 85.90625 41.640625 87.101562 Z M 41.640625 87.101562 " clip-rule="nonzero"/></clipPath></defs><g clip-path="url(#3dcdd3d387)"><g clip-path="url(#1a65857984)"><g clip-path="url(#e7cb9fc962)"><path fill="#ffffff" d="M 58.25 1.828125 L 75.1875 0 L 77.015625 16.941406 L 60.074219 18.765625 Z M 58.25 1.828125 " fill-opacity="1" fill-rule="nonzero"/></g></g></g><g clip-path="url(#3de834a59b)"><g clip-path="url(#094d06f134)"><g clip-path="url(#5b9b61bb83)"><path fill="#ffffff" d="M 130.175781 59.914062 L 147.117188 58.085938 L 148.941406 75.027344 L 132.003906 76.855469 Z M 130.175781 59.914062 " fill-opacity="1" fill-rule="nonzero"/></g></g></g><g clip-path="url(#3d1113bd62)"><g clip-path="url(#249801b483)"><g clip-path="url(#e8c3714355)"><path fill="#ffffff" d="M 72.289062 132.003906 L 89.226562 130.175781 L 91.054688 147.117188 L 74.113281 148.941406 Z M 72.289062 132.003906 " fill-opacity="1" fill-rule="nonzero"/></g></g></g><g clip-path="url(#cfa915ff71)"><g clip-path="url(#59113a016e)"><g clip-path="url(#3101ce7429)"><path fill="#ffffff" d="M 0 73.953125 L 16.941406 72.125 L 18.765625 89.066406 L 1.828125 90.894531 Z M 0 73.953125 " fill-opacity="1" fill-rule="nonzero"/></g></g></g><g clip-path="url(#c5c308f786)"><g clip-path="url(#d60e7585c0)"><g clip-path="url(#03e77ff9cb)"><path fill="#ffffff" d="M 81.464844 0.1875 L 98.144531 3.683594 L 94.648438 20.359375 L 77.972656 16.863281 Z M 81.464844 0.1875 " fill-opacity="1" fill-rule="nonzero"/></g></g></g><g clip-path="url(#13013defc0)"><g clip-path="url(#57d81f741c)"><g clip-path="url(#b36d9af5ff)"><path fill="#ffffff" d="M 131.933594 77.652344 L 148.609375 81.148438 L 145.117188 97.824219 L 128.441406 94.328125 Z M 131.933594 77.652344 " fill-opacity="1" fill-rule="nonzero"/></g></g></g><g clip-path="url(#e032a2727d)"><g clip-path="url(#aef4dbc064)"><g clip-path="url(#d0085383c5)"><path fill="#ffffff" d="M 54.613281 128.335938 L 71.289062 131.832031 L 67.792969 148.507812 L 51.117188 145.011719 Z M 54.613281 128.335938 " fill-opacity="1" fill-rule="nonzero"/></g></g></g><g clip-path="url(#fca630b9ac)"><g clip-path="url(#dd48e5aeae)"><g clip-path="url(#efa51ff405)"><path fill="#ffffff" d="M 3.789062 50.796875 L 20.464844 54.292969 L 16.96875 70.96875 L 0.292969 67.472656 Z M 3.789062 50.796875 " fill-opacity="1" fill-rule="nonzero"/></g></g></g><g clip-path="url(#b497d861fa)"><g clip-path="url(#ba1a5607a6)"><g clip-path="url(#1fa4db2a69)"><path fill="#ffffff" d="M 36.554688 10.222656 L 52.101562 3.25 L 59.074219 18.792969 L 43.53125 25.769531 Z M 36.554688 10.222656 " fill-opacity="1" fill-rule="nonzero"/></g></g></g><g clip-path="url(#fa6e34e89f)"><g clip-path="url(#50738f120c)"><g clip-path="url(#f6535d263c)"><path fill="#ffffff" d="M 122.917969 43.222656 L 138.464844 36.246094 L 145.4375 51.792969 L 129.894531 58.769531 Z M 122.917969 43.222656 " fill-opacity="1" fill-rule="nonzero"/></g></g></g><g clip-path="url(#f2e73a0e34)"><g clip-path="url(#7279d7c10b)"><g clip-path="url(#9c1fa9daa5)"><path fill="#ffffff" d="M 90.160156 129.679688 L 105.703125 122.703125 L 112.679688 138.246094 L 97.136719 145.222656 Z M 90.160156 129.679688 " fill-opacity="1" fill-rule="nonzero"/></g></g></g><g clip-path="url(#cbca73f70d)"><g clip-path="url(#32bc660964)"><g clip-path="url(#b36a387bb0)"><path fill="#ffffff" d="M 3.464844 96.828125 L 19.007812 89.851562 L 25.984375 105.398438 L 10.441406 112.371094 Z M 3.464844 96.828125 " fill-opacity="1" fill-rule="nonzero"/></g></g></g><g clip-path="url(#c07ca7bf9e)"><g clip-path="url(#4af9a6c7d3)"><g clip-path="url(#0f3ce8e4ec)"><path fill="#ffffff" d="M 5.921875 45.03125 L 14.378906 30.238281 L 29.171875 38.695312 L 20.714844 53.488281 Z M 5.921875 45.03125 " fill-opacity="1" fill-rule="nonzero"/></g></g></g><g clip-path="url(#7ee5cf8518)"><g clip-path="url(#659643588c)"><g clip-path="url(#60287482ce)"><path fill="#ffffff" d="M 95.15625 20.84375 L 103.613281 6.050781 L 118.402344 14.507812 L 109.949219 29.300781 Z M 95.15625 20.84375 " fill-opacity="1" fill-rule="nonzero"/></g></g></g><g clip-path="url(#0af21ca30a)"><g clip-path="url(#e0640da09c)"><g clip-path="url(#61f841cbe5)"><path fill="#ffffff" d="M 119.589844 110.007812 L 128.046875 95.21875 L 142.839844 103.671875 L 134.382812 118.464844 Z M 119.589844 110.007812 " fill-opacity="1" fill-rule="nonzero"/></g></g></g><g clip-path="url(#7461c9fee3)"><g clip-path="url(#88877d28ee)"><g clip-path="url(#d8cd73a16e)"><path fill="#ffffff" d="M 30.179688 134.511719 L 38.632812 119.722656 L 53.425781 128.175781 L 44.96875 142.96875 Z M 30.179688 134.511719 " fill-opacity="1" fill-rule="nonzero"/></g></g></g><g clip-path="url(#684dcbb0f1)"><g clip-path="url(#b91abc4114)"><g clip-path="url(#2e03f150d1)"><path fill="#ffffff" d="M 18.210938 25.265625 L 30.824219 13.808594 L 42.28125 26.421875 L 29.667969 37.878906 Z M 18.210938 25.265625 " fill-opacity="1" fill-rule="nonzero"/></g></g></g><g clip-path="url(#f4554c3baa)"><g clip-path="url(#698cce2d75)"><g clip-path="url(#55315f45f8)"><path fill="#ffffff" d="M 110.554688 29.824219 L 123.164062 18.367188 L 134.621094 30.976562 L 122.011719 42.433594 Z M 110.554688 29.824219 " fill-opacity="1" fill-rule="nonzero"/></g></g></g><g clip-path="url(#6594c0fa3c)"><g clip-path="url(#bdc17b36e4)"><g clip-path="url(#8e1f4d1f7a)"><path fill="#ffffff" d="M 106.253906 122.175781 L 118.863281 110.71875 L 130.324219 123.328125 L 117.710938 134.785156 Z M 106.253906 122.175781 " fill-opacity="1" fill-rule="nonzero"/></g></g></g><g clip-path="url(#b6215c6ee7)"><g clip-path="url(#1b2da749cb)"><g clip-path="url(#63f4aac832)"><path fill="#ffffff" d="M 13.644531 117.863281 L 26.253906 106.40625 L 37.710938 119.019531 L 25.101562 130.476562 Z M 13.644531 117.863281 " fill-opacity="1" fill-rule="nonzero"/></g></g></g><g clip-path="url(#719932d369)"><g clip-path="url(#ae29ccade4)"><path fill="#ffffff" d="M 68.257812 19.34375 L 80.957031 19.34375 L 80.957031 32.042969 L 68.257812 32.042969 Z M 68.257812 19.34375 " fill-opacity="1" fill-rule="nonzero"/></g></g><g clip-path="url(#d5d2352f1a)"><g clip-path="url(#6c48948001)"><path fill="#ffffff" d="M 116.917969 68.140625 L 129.621094 68.140625 L 129.621094 80.839844 L 116.917969 80.839844 Z M 116.917969 68.140625 " fill-opacity="1" fill-rule="nonzero"/></g></g><g clip-path="url(#d8c87857da)"><g clip-path="url(#9eb549dfa5)"><path fill="#ffffff" d="M 68.257812 116.9375 L 80.957031 116.9375 L 80.957031 129.640625 L 68.257812 129.640625 Z M 68.257812 116.9375 " fill-opacity="1" fill-rule="nonzero"/></g></g><g clip-path="url(#8776e770d2)"><g clip-path="url(#a65507135a)"><path fill="#ffffff" d="M 19.324219 68.140625 L 32.023438 68.140625 L 32.023438 80.839844 L 19.324219 80.839844 Z M 19.324219 68.140625 " fill-opacity="1" fill-rule="nonzero"/></g></g><g clip-path="url(#4124a5c52a)"><g clip-path="url(#4c087e949e)"><g clip-path="url(#ead87dd381)"><path fill="#ffffff" d="M 85.59375 19.984375 L 97.671875 23.90625 L 93.75 35.988281 L 81.671875 32.0625 Z M 85.59375 19.984375 " fill-opacity="1" fill-rule="nonzero"/></g></g></g><g clip-path="url(#3aecb50431)"><g clip-path="url(#1d93913890)"><g clip-path="url(#14648d9701)"><path fill="#ffffff" d="M 116.804688 81.425781 L 128.882812 85.351562 L 124.960938 97.429688 L 112.882812 93.507812 Z M 116.804688 81.425781 " fill-opacity="1" fill-rule="nonzero"/></g></g></g><g clip-path="url(#44c109ef76)"><g clip-path="url(#5ba112ead9)"><g clip-path="url(#bc60769b78)"><path fill="#ffffff" d="M 55.449219 112.808594 L 67.527344 116.730469 L 63.605469 128.8125 L 51.527344 124.886719 Z M 55.449219 112.808594 " fill-opacity="1" fill-rule="nonzero"/></g></g></g><g clip-path="url(#71e254b8b2)"><g clip-path="url(#dd5b331234)"><g clip-path="url(#3fe77e2e6d)"><path fill="#ffffff" d="M 23.980469 51.28125 L 36.058594 55.203125 L 32.136719 67.285156 L 20.058594 63.363281 Z M 23.980469 51.28125 " fill-opacity="1" fill-rule="nonzero"/></g></g></g><g clip-path="url(#1bb1618bce)"><g clip-path="url(#e4ff7eda03)"><g clip-path="url(#e953522143)"><path fill="#ffffff" d="M 51.507812 23.832031 L 63.585938 19.902344 L 67.511719 31.980469 L 55.433594 35.910156 Z M 51.507812 23.832031 " fill-opacity="1" fill-rule="nonzero"/></g></g></g><g clip-path="url(#e8036d0c04)"><g clip-path="url(#3172ee238e)"><g clip-path="url(#9242f7b295)"><path fill="#ffffff" d="M 112.875 55.191406 L 124.953125 51.261719 L 128.882812 63.339844 L 116.804688 67.269531 Z M 112.875 55.191406 " fill-opacity="1" fill-rule="nonzero"/></g></g></g><g clip-path="url(#0d099c753d)"><g clip-path="url(#79086a3d7b)"><g clip-path="url(#554a54c23e)"><path fill="#ffffff" d="M 81.6875 116.644531 L 93.765625 112.71875 L 97.691406 124.796875 L 85.613281 128.722656 Z M 81.6875 116.644531 " fill-opacity="1" fill-rule="nonzero"/></g></g></g><g clip-path="url(#de44a1fcb2)"><g clip-path="url(#afaafe3815)"><g clip-path="url(#89da74c5ec)"><path fill="#ffffff" d="M 20.0625 85.371094 L 32.140625 81.441406 L 36.066406 93.519531 L 23.988281 97.449219 Z M 20.0625 85.371094 " fill-opacity="1" fill-rule="nonzero"/></g></g></g><g clip-path="url(#2cb26caf31)"><g clip-path="url(#cbebe183db)"><g clip-path="url(#8137484884)"><path fill="#ffffff" d="M 26.023438 47.179688 L 33.472656 36.890625 L 43.757812 44.339844 L 36.3125 54.628906 Z M 26.023438 47.179688 " fill-opacity="1" fill-rule="nonzero"/></g></g></g><g clip-path="url(#32c03e9c11)"><g clip-path="url(#9f8519c849)"><g clip-path="url(#a29e11f31a)"><path fill="#ffffff" d="M 94.089844 36.382812 L 101.539062 26.097656 L 111.824219 33.546875 L 104.375 43.832031 Z M 94.089844 36.382812 " fill-opacity="1" fill-rule="nonzero"/></g></g></g><g clip-path="url(#767c18b0de)"><g clip-path="url(#ec65a07400)"><g clip-path="url(#f92d081a5f)"><path fill="#ffffff" d="M 105.070312 104.417969 L 112.519531 94.132812 L 122.808594 101.582031 L 115.359375 111.867188 Z M 105.070312 104.417969 " fill-opacity="1" fill-rule="nonzero"/></g></g></g><g clip-path="url(#7cd971afe8)"><g clip-path="url(#1fae926def)"><g clip-path="url(#e9c974f871)"><path fill="#ffffff" d="M 36.847656 115.433594 L 44.296875 105.144531 L 54.582031 112.59375 L 47.132812 122.882812 Z M 36.847656 115.433594 " fill-opacity="1" fill-rule="nonzero"/></g></g></g><g clip-path="url(#0b90f7731d)"><g clip-path="url(#b3974dbe14)"><g clip-path="url(#350ef2b51e)"><path fill="#ffffff" d="M 36.710938 33.511719 L 46.972656 26.03125 L 54.457031 36.292969 L 44.195312 43.773438 Z M 36.710938 33.511719 " fill-opacity="1" fill-rule="nonzero"/></g></g></g><g clip-path="url(#5658445a49)"><g clip-path="url(#a30d0893df)"><g clip-path="url(#b9c7472c36)"><path fill="#ffffff" d="M 104.78125 44.269531 L 115.046875 36.785156 L 122.527344 47.050781 L 112.265625 54.53125 Z M 104.78125 44.269531 " fill-opacity="1" fill-rule="nonzero"/></g></g></g><g clip-path="url(#5f77a513f1)"><g clip-path="url(#311440dcd0)"><g clip-path="url(#12fb3bd270)"><path fill="#ffffff" d="M 94.214844 112.371094 L 104.476562 104.886719 L 111.960938 115.148438 L 101.699219 122.632812 Z M 94.214844 112.371094 " fill-opacity="1" fill-rule="nonzero"/></g></g></g><g clip-path="url(#c6a977b3f8)"><g clip-path="url(#2bb0b34005)"><g clip-path="url(#a1aa18c70d)"><path fill="#ffffff" d="M 25.925781 101.773438 L 36.1875 94.289062 L 43.671875 104.550781 L 33.40625 112.035156 Z M 25.925781 101.773438 " fill-opacity="1" fill-rule="nonzero"/></g></g></g><g clip-path="url(#c326a53d5f)"><g clip-path="url(#763fed0a22)"><g clip-path="url(#511d1ddc40)"><path fill="#ffffff" d="M 75.179688 34.972656 L 84.144531 36.148438 L 82.972656 45.117188 L 74.003906 43.941406 Z M 75.179688 34.972656 " fill-opacity="1" fill-rule="nonzero"/></g></g></g><g clip-path="url(#5a5727420c)"><g clip-path="url(#ae43e16ca8)"><g clip-path="url(#d889f06711)"><path fill="#ffffff" d="M 105.03125 73.929688 L 114 75.101562 L 112.828125 84.070312 L 103.859375 82.898438 Z M 105.03125 73.929688 " fill-opacity="1" fill-rule="nonzero"/></g></g></g><g clip-path="url(#1b91e8cab9)"><g clip-path="url(#de3cec4330)"><g clip-path="url(#fc3abfbfd6)"><path fill="#ffffff" d="M 66.160156 103.890625 L 75.128906 105.066406 L 73.957031 114.03125 L 64.988281 112.859375 Z M 66.160156 103.890625 " fill-opacity="1" fill-rule="nonzero"/></g></g></g><g clip-path="url(#f3a25c1afc)"><g clip-path="url(#c79d0759e3)"><g clip-path="url(#a166fbc121)"><path fill="#ffffff" d="M 36.113281 64.910156 L 45.082031 66.085938 L 43.910156 75.054688 L 34.941406 73.878906 Z M 36.113281 64.910156 " fill-opacity="1" fill-rule="nonzero"/></g></g></g><g clip-path="url(#a896edc202)"><g clip-path="url(#e7430ff79a)"><g clip-path="url(#350b56419d)"><path fill="#ffffff" d="M 87.359375 37.027344 L 95.527344 40.914062 L 91.640625 49.082031 L 83.476562 45.195312 Z M 87.359375 37.027344 " fill-opacity="1" fill-rule="nonzero"/></g></g></g><g clip-path="url(#658a405c85)"><g clip-path="url(#e9a156ada7)"><g clip-path="url(#bc09255ad4)"><path fill="#ffffff" d="M 103.722656 83.300781 L 111.890625 87.1875 L 108.003906 95.355469 L 99.835938 91.46875 Z M 103.722656 83.300781 " fill-opacity="1" fill-rule="nonzero"/></g></g></g><g clip-path="url(#0ee3c65297)"><g clip-path="url(#a643ca346a)"><g clip-path="url(#5e951e36dd)"><path fill="#ffffff" d="M 57.5 99.792969 L 65.664062 103.675781 L 61.78125 111.84375 L 53.613281 107.957031 Z M 57.5 99.792969 " fill-opacity="1" fill-rule="nonzero"/></g></g></g><g clip-path="url(#abdb7c6a1a)"><g clip-path="url(#b3dd8752c6)"><g clip-path="url(#b7b7e9c550)"><path fill="#ffffff" d="M 40.960938 53.4375 L 49.128906 57.324219 L 45.242188 65.492188 L 37.074219 61.605469 Z M 40.960938 53.4375 " fill-opacity="1" fill-rule="nonzero"/></g></g></g><g clip-path="url(#5dcff5665e)"><g clip-path="url(#0ec92b0188)"><g clip-path="url(#b452724c81)"><path fill="#ffffff" d="M 62.9375 36.597656 L 71.828125 34.9375 L 73.484375 43.832031 L 64.59375 45.488281 Z M 62.9375 36.597656 " fill-opacity="1" fill-rule="nonzero"/></g></g></g><g clip-path="url(#f80d045aea)"><g clip-path="url(#4b55d22eeb)"><g clip-path="url(#45bb7f54ef)"><path fill="#ffffff" d="M 103.375 64.410156 L 112.265625 62.753906 L 113.921875 71.644531 L 105.03125 73.300781 Z M 103.375 64.410156 " fill-opacity="1" fill-rule="nonzero"/></g></g></g><g clip-path="url(#27f47325a7)"><g clip-path="url(#0ed098bf0b)"><g clip-path="url(#c1951ba9ed)"><path fill="#ffffff" d="M 75.671875 104.925781 L 84.5625 103.265625 L 86.222656 112.160156 L 77.328125 113.816406 Z M 75.671875 104.925781 " fill-opacity="1" fill-rule="nonzero"/></g></g></g><g clip-path="url(#55cae5b282)"><g clip-path="url(#a6b35af6cb)"><g clip-path="url(#c87d931172)"><path fill="#ffffff" d="M 35.046875 77.144531 L 43.9375 75.488281 L 45.59375 84.378906 L 36.703125 86.039062 Z M 35.046875 77.144531 " fill-opacity="1" fill-rule="nonzero"/></g></g></g><g clip-path="url(#9d14cb534b)"><g clip-path="url(#7f7e5dd89e)"><g clip-path="url(#bc9a79b9a4)"><path fill="#ffffff" d="M 42.785156 50.726562 L 48.996094 44.152344 L 55.570312 50.363281 L 49.359375 56.9375 Z M 42.785156 50.726562 " fill-opacity="1" fill-rule="nonzero"/></g></g></g><g clip-path="url(#781f053942)"><g clip-path="url(#3a31df0067)"><g clip-path="url(#b1fec34092)"><path fill="#ffffff" d="M 91.84375 49.394531 L 98.054688 42.820312 L 104.632812 49.027344 L 98.421875 55.605469 Z M 91.84375 49.394531 " fill-opacity="1" fill-rule="nonzero"/></g></g></g><g clip-path="url(#b78faab889)"><g clip-path="url(#82d501d8f7)"><g clip-path="url(#2177ed74ee)"><path fill="#ffffff" d="M 93.316406 98.453125 L 99.523438 91.875 L 106.101562 98.085938 L 99.890625 104.660156 Z M 93.316406 98.453125 " fill-opacity="1" fill-rule="nonzero"/></g></g></g><g clip-path="url(#ce90c262f2)"><g clip-path="url(#0672e0f889)"><g clip-path="url(#ce47e2c63f)"><path fill="#ffffff" d="M 44.121094 99.925781 L 50.332031 93.347656 L 56.90625 99.558594 L 50.695312 106.136719 Z M 44.121094 99.925781 " fill-opacity="1" fill-rule="nonzero"/></g></g></g><g clip-path="url(#cbf4966159)"><g clip-path="url(#1d7abc16d9)"><g clip-path="url(#07e8a07f8b)"><path fill="#ffffff" d="M 51.59375 42.066406 L 59.53125 37.730469 L 63.867188 45.667969 L 55.929688 50.003906 Z M 51.59375 42.066406 " fill-opacity="1" fill-rule="nonzero"/></g></g></g><g clip-path="url(#cca58b9ce4)"><g clip-path="url(#b31e221ff1)"><g clip-path="url(#0859a1067f)"><path fill="#ffffff" d="M 98.667969 55.949219 L 106.605469 51.613281 L 110.941406 59.554688 L 103.003906 63.890625 Z M 98.667969 55.949219 " fill-opacity="1" fill-rule="nonzero"/></g></g></g><g clip-path="url(#f686bca54a)"><g clip-path="url(#9eaceef73f)"><g clip-path="url(#2c5bf93787)"><path fill="#ffffff" d="M 84.914062 103.0625 L 92.851562 98.726562 L 97.1875 106.664062 L 89.25 111 Z M 84.914062 103.0625 " fill-opacity="1" fill-rule="nonzero"/></g></g></g><g clip-path="url(#9411b5320a)"><g clip-path="url(#feb6b4595f)"><g clip-path="url(#8ee96e2c1d)"><path fill="#ffffff" d="M 37.671875 89.269531 L 45.609375 84.933594 L 49.945312 92.871094 L 42.007812 97.207031 Z M 37.671875 89.269531 " fill-opacity="1" fill-rule="nonzero"/></g></g></g><g fill="#ffffff" fill-opacity="1"><g transform="translate(170.150041, 88.614719)"><g><path d="M 38.21875 0 L 33.875 0 L 33.875 -8.6875 L 9.59375 -8.6875 L 9.59375 -13.03125 L 33.875 -13.03125 L 33.875 -26.046875 L 18.28125 -26.046875 C 16.3125 -26.046875 14.5 -25.5625 12.84375 -24.59375 C 11.195312 -23.625 9.890625 -22.3125 8.921875 -20.65625 C 7.953125 -19.007812 7.46875 -17.191406 7.46875 -15.203125 L 7.46875 0 L 3.125 0 L 3.125 -15.203125 C 3.125 -17.285156 3.515625 -19.242188 4.296875 -21.078125 C 5.078125 -22.921875 6.160156 -24.539062 7.546875 -25.9375 C 8.941406 -27.34375 10.554688 -28.4375 12.390625 -29.21875 C 14.234375 -30 16.195312 -30.390625 18.28125 -30.390625 L 38.21875 -30.390625 Z M 38.21875 0 "/></g></g></g><g fill="#ffffff" fill-opacity="1"><g transform="translate(212.876827, 88.614719)"><g><path d="M 32.703125 0 L 3.640625 0 L 3.640625 -30.390625 L 7.984375 -30.390625 L 7.984375 -4.34375 L 32.703125 -4.34375 Z M 32.703125 0 "/></g></g></g><g fill="#ffffff" fill-opacity="1"><g transform="translate(246.875909, 88.614719)"><g><path d="M 32.703125 0 L 3.640625 0 L 3.640625 -30.390625 L 7.984375 -30.390625 L 7.984375 -4.34375 L 32.703125 -4.34375 Z M 32.703125 0 "/></g></g></g><g fill="#ffffff" fill-opacity="1"><g transform="translate(280.874998, 88.614719)"><g/></g></g><g fill="#ffffff" fill-opacity="1"><g transform="translate(298.026566, 88.614719)"><g><path d="M 35.46875 0 L 15.890625 0 C 13.773438 0 11.863281 -0.390625 10.15625 -1.171875 C 8.445312 -1.953125 6.976562 -3.035156 5.75 -4.421875 C 4.519531 -5.816406 3.570312 -7.429688 2.90625 -9.265625 C 2.238281 -11.109375 1.90625 -13.085938 1.90625 -15.203125 C 1.90625 -17.285156 2.238281 -19.242188 2.90625 -21.078125 C 3.570312 -22.921875 4.519531 -24.539062 5.75 -25.9375 C 6.976562 -27.34375 8.445312 -28.4375 10.15625 -29.21875 C 11.863281 -30 13.773438 -30.390625 15.890625 -30.390625 L 35.46875 -30.390625 L 35.46875 -26.046875 L 15.890625 -26.046875 C 13.890625 -26.046875 12.171875 -25.5625 10.734375 -24.59375 C 9.304688 -23.625 8.203125 -22.3125 7.421875 -20.65625 C 6.640625 -19.007812 6.25 -17.191406 6.25 -15.203125 C 6.25 -13.203125 6.640625 -11.382812 7.421875 -9.75 C 8.203125 -8.113281 9.304688 -6.800781 10.734375 -5.8125 C 12.171875 -4.832031 13.890625 -4.34375 15.890625 -4.34375 L 35.46875 -4.34375 Z M 35.46875 0 "/></g></g></g><g fill="#ffffff" fill-opacity="1"><g transform="translate(335.976988, 88.614719)"><g><path d="M 39.953125 -15.203125 C 39.953125 -13.085938 39.617188 -11.109375 38.953125 -9.265625 C 38.285156 -7.429688 37.335938 -5.816406 36.109375 -4.421875 C 34.878906 -3.035156 33.410156 -1.953125 31.703125 -1.171875 C 29.992188 -0.390625 28.097656 0 26.015625 0 L 15.890625 0 C 13.773438 0 11.863281 -0.390625 10.15625 -1.171875 C 8.445312 -1.953125 6.976562 -3.035156 5.75 -4.421875 C 4.519531 -5.816406 3.570312 -7.429688 2.90625 -9.265625 C 2.238281 -11.109375 1.90625 -13.085938 1.90625 -15.203125 C 1.90625 -17.285156 2.238281 -19.242188 2.90625 -21.078125 C 3.570312 -22.921875 4.519531 -24.539062 5.75 -25.9375 C 6.976562 -27.34375 8.445312 -28.4375 10.15625 -29.21875 C 11.863281 -30 13.773438 -30.390625 15.890625 -30.390625 L 26.015625 -30.390625 C 28.097656 -30.390625 29.992188 -30 31.703125 -29.21875 C 33.410156 -28.4375 34.878906 -27.34375 36.109375 -25.9375 C 37.335938 -24.539062 38.285156 -22.921875 38.953125 -21.078125 C 39.617188 -19.242188 39.953125 -17.285156 39.953125 -15.203125 Z M 35.609375 -15.203125 C 35.609375 -17.191406 35.222656 -19.007812 34.453125 -20.65625 C 33.679688 -22.3125 32.578125 -23.625 31.140625 -24.59375 C 29.710938 -25.5625 28.003906 -26.046875 26.015625 -26.046875 L 15.890625 -26.046875 C 13.890625 -26.046875 12.171875 -25.5625 10.734375 -24.59375 C 9.304688 -23.625 8.203125 -22.3125 7.421875 -20.65625 C 6.640625 -19.007812 6.25 -17.191406 6.25 -15.203125 C 6.25 -13.203125 6.640625 -11.382812 7.421875 -9.75 C 8.203125 -8.113281 9.304688 -6.800781 10.734375 -5.8125 C 12.171875 -4.832031 13.890625 -4.34375 15.890625 -4.34375 L 26.015625 -4.34375 C 28.003906 -4.34375 29.710938 -4.832031 31.140625 -5.8125 C 32.578125 -6.800781 33.679688 -8.113281 34.453125 -9.75 C 35.222656 -11.382812 35.609375 -13.203125 35.609375 -15.203125 Z M 35.609375 -15.203125 "/></g></g></g><g fill="#ffffff" fill-opacity="1"><g transform="translate(378.703768, 88.614719)"><g><path d="M 7.984375 0 L 3.640625 0 L 3.640625 -30.390625 L 5.8125 -30.390625 C 7.925781 -30.390625 10.21875 -29.984375 12.6875 -29.171875 C 15.164062 -28.367188 17.648438 -27.226562 20.140625 -25.75 C 22.628906 -24.269531 24.984375 -22.507812 27.203125 -20.46875 C 29.421875 -18.425781 31.320312 -16.160156 32.90625 -13.671875 L 32.90625 -30.390625 L 37.25 -30.390625 L 37.25 0 L 32.90625 0 C 32.90625 -2.664062 32.363281 -5.21875 31.28125 -7.65625 C 30.195312 -10.101562 28.753906 -12.363281 26.953125 -14.4375 C 25.160156 -16.507812 23.171875 -18.347656 20.984375 -19.953125 C 18.804688 -21.554688 16.585938 -22.867188 14.328125 -23.890625 C 12.066406 -24.921875 9.953125 -25.582031 7.984375 -25.875 Z M 7.984375 0 "/></g></g></g><g fill="#ffffff" fill-opacity="1"><g transform="translate(420.47529, 88.614719)"><g><path d="M 7.984375 0 L 3.640625 0 L 3.640625 -30.390625 L 5.8125 -30.390625 C 7.925781 -30.390625 10.21875 -29.984375 12.6875 -29.171875 C 15.164062 -28.367188 17.648438 -27.226562 20.140625 -25.75 C 22.628906 -24.269531 24.984375 -22.507812 27.203125 -20.46875 C 29.421875 -18.425781 31.320312 -16.160156 32.90625 -13.671875 L 32.90625 -30.390625 L 37.25 -30.390625 L 37.25 0 L 32.90625 0 C 32.90625 -2.664062 32.363281 -5.21875 31.28125 -7.65625 C 30.195312 -10.101562 28.753906 -12.363281 26.953125 -14.4375 C 25.160156 -16.507812 23.171875 -18.347656 20.984375 -19.953125 C 18.804688 -21.554688 16.585938 -22.867188 14.328125 -23.890625 C 12.066406 -24.921875 9.953125 -25.582031 7.984375 -25.875 Z M 7.984375 0 "/></g></g></g><g fill="#ffffff" fill-opacity="1"><g transform="translate(462.246813, 88.614719)"><g><path d="M 35.078125 0 L 3.640625 0 L 3.640625 -30.390625 L 35.078125 -30.390625 L 35.078125 -26.046875 L 7.984375 -26.046875 L 7.984375 -4.34375 L 35.078125 -4.34375 Z M 31.390625 -13.03125 L 10.15625 -13.03125 L 10.15625 -17.375 L 31.390625 -17.375 Z M 31.390625 -13.03125 "/></g></g></g><g fill="#ffffff" fill-opacity="1"><g transform="translate(499.936722, 88.614719)"><g><path d="M 35.46875 0 L 15.890625 0 C 13.773438 0 11.863281 -0.390625 10.15625 -1.171875 C 8.445312 -1.953125 6.976562 -3.035156 5.75 -4.421875 C 4.519531 -5.816406 3.570312 -7.429688 2.90625 -9.265625 C 2.238281 -11.109375 1.90625 -13.085938 1.90625 -15.203125 C 1.90625 -17.285156 2.238281 -19.242188 2.90625 -21.078125 C 3.570312 -22.921875 4.519531 -24.539062 5.75 -25.9375 C 6.976562 -27.34375 8.445312 -28.4375 10.15625 -29.21875 C 11.863281 -30 13.773438 -30.390625 15.890625 -30.390625 L 35.46875 -30.390625 L 35.46875 -26.046875 L 15.890625 -26.046875 C 13.890625 -26.046875 12.171875 -25.5625 10.734375 -24.59375 C 9.304688 -23.625 8.203125 -22.3125 7.421875 -20.65625 C 6.640625 -19.007812 6.25 -17.191406 6.25 -15.203125 C 6.25 -13.203125 6.640625 -11.382812 7.421875 -9.75 C 8.203125 -8.113281 9.304688 -6.800781 10.734375 -5.8125 C 12.171875 -4.832031 13.890625 -4.34375 15.890625 -4.34375 L 35.46875 -4.34375 Z M 35.46875 0 "/></g></g></g><g fill="#ffffff" fill-opacity="1"><g transform="translate(537.887144, 88.614719)"><g><path d="M 20.140625 0 L 15.8125 0 L 15.8125 -26.046875 L 0.4375 -26.046875 L 0.4375 -30.390625 L 35.515625 -30.390625 L 35.515625 -26.046875 L 20.140625 -26.046875 Z M 20.140625 0 "/></g></g></g><g fill="#ffffff" fill-opacity="1"><g transform="translate(574.708633, 88.614719)"><g><path d="M 35.078125 0 L 3.640625 0 L 3.640625 -30.390625 L 35.078125 -30.390625 L 35.078125 -26.046875 L 7.984375 -26.046875 L 7.984375 -4.34375 L 35.078125 -4.34375 Z M 31.390625 -13.03125 L 10.15625 -13.03125 L 10.15625 -17.375 L 31.390625 -17.375 Z M 31.390625 -13.03125 "/></g></g></g><g fill="#ffffff" fill-opacity="1"><g transform="translate(612.39852, 88.614719)"><g><path d="M 39.46875 -15.203125 C 39.46875 -13.085938 39.132812 -11.109375 38.46875 -9.265625 C 37.800781 -7.429688 36.851562 -5.816406 35.625 -4.421875 C 34.394531 -3.035156 32.914062 -1.953125 31.1875 -1.171875 C 29.46875 -0.390625 27.566406 0 25.484375 0 L 10.15625 0 L 10.15625 -4.34375 L 25.484375 -4.34375 C 27.484375 -4.34375 29.207031 -4.832031 30.65625 -5.8125 C 32.101562 -6.800781 33.207031 -8.113281 33.96875 -9.75 C 34.738281 -11.382812 35.125 -13.203125 35.125 -15.203125 C 35.125 -17.191406 34.738281 -19.007812 33.96875 -20.65625 C 33.207031 -22.3125 32.101562 -23.625 30.65625 -24.59375 C 29.207031 -25.5625 27.484375 -26.046875 25.484375 -26.046875 L 7.984375 -26.046875 L 7.984375 0 L 3.640625 0 L 3.640625 -30.390625 L 25.484375 -30.390625 C 27.566406 -30.390625 29.46875 -30 31.1875 -29.21875 C 32.914062 -28.4375 34.394531 -27.34375 35.625 -25.9375 C 36.851562 -24.539062 37.800781 -22.921875 38.46875 -21.078125 C 39.132812 -19.242188 39.46875 -17.285156 39.46875 -15.203125 Z M 39.46875 -15.203125 "/></g></g></g></svg>