<svg xmlns="http://www.w3.org/2000/svg" xmlns:xlink="http://www.w3.org/1999/xlink" width="1300" zoomAndPan="magnify" viewBox="0 0 974.88 749.999995" height="1000" preserveAspectRatio="xMidYMid meet" version="1.0"><defs><g/><clipPath id="a41e5be272"><path d="M 444 3 L 510 3 L 510 70 L 444 70 Z M 444 3 " clip-rule="nonzero"/></clipPath><clipPath id="7a97930922"><path d="M 440.667969 7.105469 L 506.109375 0.046875 L 513.167969 65.488281 L 447.726562 72.546875 Z M 440.667969 7.105469 " clip-rule="nonzero"/></clipPath><clipPath id="fb92c992a2"><path d="M 473.386719 3.574219 C 455.316406 5.523438 442.246094 21.753906 444.195312 39.824219 C 446.144531 57.898438 462.375 70.96875 480.445312 69.019531 C 498.519531 67.070312 511.589844 50.839844 509.640625 32.765625 C 507.691406 14.695312 491.460938 1.625 473.386719 3.574219 Z M 473.386719 3.574219 " clip-rule="nonzero"/></clipPath><clipPath id="065a3f1780"><path d="M 721 227 L 788 227 L 788 294 L 721 294 Z M 721 227 " clip-rule="nonzero"/></clipPath><clipPath id="a4773d5281"><path d="M 718.53125 231.507812 L 783.976562 224.449219 L 791.035156 289.890625 L 725.589844 296.949219 Z M 718.53125 231.507812 " clip-rule="nonzero"/></clipPath><clipPath id="b15fa33a99"><path d="M 751.253906 227.976562 C 733.183594 229.925781 720.113281 246.15625 722.0625 264.226562 C 724.011719 282.300781 740.242188 295.371094 758.3125 293.421875 C 776.382812 291.472656 789.453125 275.242188 787.503906 257.171875 C 785.554688 239.097656 769.324219 226.027344 751.253906 227.976562 Z M 751.253906 227.976562 " clip-rule="nonzero"/></clipPath><clipPath id="e74cdb94c7"><path d="M 498 506 L 565 506 L 565 573 L 498 573 Z M 498 506 " clip-rule="nonzero"/></clipPath><clipPath id="57bfc432bb"><path d="M 494.902344 509.996094 L 560.347656 502.9375 L 567.402344 568.378906 L 501.960938 575.4375 Z M 494.902344 509.996094 " clip-rule="nonzero"/></clipPath><clipPath id="f9b6cda4b4"><path d="M 527.625 506.464844 C 509.554688 508.414062 496.484375 524.644531 498.433594 542.714844 C 500.382812 560.789062 516.609375 573.859375 534.683594 571.910156 C 552.753906 569.960938 565.824219 553.730469 563.875 535.65625 C 561.925781 517.585938 545.695312 504.515625 527.625 506.464844 Z M 527.625 506.464844 " clip-rule="nonzero"/></clipPath><clipPath id="2475c5088d"><path d="M 218 282 L 285 282 L 285 348 L 218 348 Z M 218 282 " clip-rule="nonzero"/></clipPath><clipPath id="a2125b0f92"><path d="M 215.640625 285.742188 L 281.085938 278.683594 L 288.144531 344.128906 L 222.699219 351.183594 Z M 215.640625 285.742188 " clip-rule="nonzero"/></clipPath><clipPath id="17075d26aa"><path d="M 248.363281 282.214844 C 230.292969 284.164062 217.222656 300.390625 219.171875 318.464844 C 221.121094 336.535156 237.351562 349.605469 255.421875 347.65625 C 273.492188 345.707031 286.5625 329.476562 284.613281 311.40625 C 282.664062 293.335938 266.433594 280.265625 248.363281 282.214844 Z M 248.363281 282.214844 " clip-rule="nonzero"/></clipPath><clipPath id="370424d6e8"><path d="M 522 6 L 589 6 L 589 73 L 522 73 Z M 522 6 " clip-rule="nonzero"/></clipPath><clipPath id="b83beab5e0"><path d="M 530.359375 0.773438 L 594.785156 14.277344 L 581.28125 78.699219 L 516.859375 65.199219 Z M 530.359375 0.773438 " clip-rule="nonzero"/></clipPath><clipPath id="f97c4114dd"><path d="M 562.574219 7.527344 C 544.78125 3.796875 527.339844 15.195312 523.609375 32.988281 C 519.882812 50.777344 531.28125 68.21875 549.070312 71.949219 C 566.863281 75.675781 584.304688 64.277344 588.035156 46.488281 C 591.761719 28.699219 580.363281 11.253906 562.574219 7.527344 Z M 562.574219 7.527344 " clip-rule="nonzero"/></clipPath><clipPath id="964438c95b"><path d="M 717 306 L 784 306 L 784 372 L 717 372 Z M 717 306 " clip-rule="nonzero"/></clipPath><clipPath id="2be428d592"><path d="M 725.328125 300.03125 L 789.75 313.53125 L 776.25 377.953125 L 711.828125 364.453125 Z M 725.328125 300.03125 " clip-rule="nonzero"/></clipPath><clipPath id="2c1b09866e"><path d="M 757.539062 306.78125 C 739.75 303.050781 722.304688 314.453125 718.578125 332.242188 C 714.847656 350.03125 726.25 367.476562 744.039062 371.203125 C 761.828125 374.933594 779.273438 363.53125 783 345.742188 C 786.730469 327.953125 775.328125 310.507812 757.539062 306.78125 Z M 757.539062 306.78125 " clip-rule="nonzero"/></clipPath><clipPath id="6cdac6d8d1"><path d="M 419 501 L 485 501 L 485 568 L 419 568 Z M 419 501 " clip-rule="nonzero"/></clipPath><clipPath id="1ab76e1496"><path d="M 426.617188 495.828125 L 491.039062 509.328125 L 477.539062 573.75 L 413.113281 560.25 Z M 426.617188 495.828125 " clip-rule="nonzero"/></clipPath><clipPath id="95612b2933"><path d="M 458.828125 502.578125 C 441.035156 498.851562 423.59375 510.25 419.863281 528.039062 C 416.136719 545.828125 427.535156 563.273438 445.328125 567 C 463.117188 570.730469 480.558594 559.332031 484.289062 541.539062 C 488.015625 523.75 476.617188 506.304688 458.828125 502.578125 Z M 458.828125 502.578125 " clip-rule="nonzero"/></clipPath><clipPath id="5b633ad403"><path d="M 222 202 L 289 202 L 289 269 L 222 269 Z M 222 202 " clip-rule="nonzero"/></clipPath><clipPath id="a5929485e7"><path d="M 230.273438 196.285156 L 294.699219 209.785156 L 281.195312 274.207031 L 216.773438 260.707031 Z M 230.273438 196.285156 " clip-rule="nonzero"/></clipPath><clipPath id="e08ac25e67"><path d="M 262.488281 203.035156 C 244.695312 199.308594 227.253906 210.707031 223.523438 228.496094 C 219.796875 246.285156 231.195312 263.730469 248.984375 267.457031 C 266.777344 271.1875 284.21875 259.785156 287.949219 241.996094 C 291.675781 224.207031 280.277344 206.761719 262.488281 203.035156 Z M 262.488281 203.035156 " clip-rule="nonzero"/></clipPath><clipPath id="998e9ef27e"><path d="M 367 23 L 434 23 L 434 90 L 367 90 Z M 367 23 " clip-rule="nonzero"/></clipPath><clipPath id="7cf5921a7b"><path d="M 356.859375 39.542969 L 416.914062 12.59375 L 443.863281 72.648438 L 383.808594 99.597656 Z M 356.859375 39.542969 " clip-rule="nonzero"/></clipPath><clipPath id="1740003e6a"><path d="M 386.886719 26.070312 C 370.304688 33.511719 362.894531 52.988281 370.335938 69.570312 C 377.777344 86.152344 397.253906 93.5625 413.835938 86.121094 C 430.417969 78.679688 437.828125 59.203125 430.386719 42.621094 C 422.945312 26.039062 403.46875 18.628906 386.886719 26.070312 Z M 386.886719 26.070312 " clip-rule="nonzero"/></clipPath><clipPath id="5e6d129701"><path d="M 701 150 L 767 150 L 767 217 L 701 217 Z M 701 150 " clip-rule="nonzero"/></clipPath><clipPath id="28c4965392"><path d="M 690.5 167.023438 L 750.550781 140.078125 L 777.5 200.128906 L 717.445312 227.078125 Z M 690.5 167.023438 " clip-rule="nonzero"/></clipPath><clipPath id="eb18509a6e"><path d="M 720.523438 153.550781 C 703.941406 160.992188 696.53125 180.46875 703.972656 197.050781 C 711.414062 213.632812 730.890625 221.046875 747.472656 213.605469 C 764.054688 206.160156 771.46875 186.6875 764.023438 170.101562 C 756.582031 153.519531 737.109375 146.109375 720.523438 153.550781 Z M 720.523438 153.550781 " clip-rule="nonzero"/></clipPath><clipPath id="52a799fd9a"><path d="M 574 484 L 641 484 L 641 551 L 574 551 Z M 574 484 " clip-rule="nonzero"/></clipPath><clipPath id="ee6a78ac90"><path d="M 563.945312 501.015625 L 623.996094 474.066406 L 650.945312 534.121094 L 590.894531 561.070312 Z M 563.945312 501.015625 " clip-rule="nonzero"/></clipPath><clipPath id="fbcda4ab3f"><path d="M 593.96875 487.542969 C 577.386719 494.984375 569.976562 514.460938 577.417969 531.042969 C 584.859375 547.625 604.335938 555.035156 620.917969 547.59375 C 637.503906 540.152344 644.914062 520.675781 637.472656 504.09375 C 630.03125 487.511719 610.554688 480.101562 593.96875 487.542969 Z M 593.96875 487.542969 " clip-rule="nonzero"/></clipPath><clipPath id="1f01800484"><path d="M 239 357 L 306 357 L 306 424 L 239 424 Z M 239 357 " clip-rule="nonzero"/></clipPath><clipPath id="42d638a103"><path d="M 229.027344 374.109375 L 289.078125 347.160156 L 316.027344 407.214844 L 255.972656 434.160156 Z M 229.027344 374.109375 " clip-rule="nonzero"/></clipPath><clipPath id="576bc227b2"><path d="M 259.050781 360.636719 C 242.46875 368.078125 235.058594 387.550781 242.5 404.136719 C 249.941406 420.71875 269.417969 428.128906 286 420.6875 C 302.582031 413.246094 309.996094 393.769531 302.554688 377.1875 C 295.113281 360.605469 275.636719 353.191406 259.050781 360.636719 Z M 259.050781 360.636719 " clip-rule="nonzero"/></clipPath><clipPath id="558c61d387"><path d="M 250 128 L 317 128 L 317 195 L 250 195 Z M 250 128 " clip-rule="nonzero"/></clipPath><clipPath id="f78b27f9da"><path d="M 238.523438 174.011719 L 271.1875 116.867188 L 328.332031 149.535156 L 295.667969 206.679688 Z M 238.523438 174.011719 " clip-rule="nonzero"/></clipPath><clipPath id="89be5dffc2"><path d="M 254.855469 145.4375 C 245.835938 161.21875 251.3125 181.324219 267.09375 190.34375 C 282.875 199.363281 302.980469 193.886719 312 178.105469 C 321.019531 162.324219 315.539062 142.21875 299.761719 133.199219 C 283.980469 124.179688 263.875 129.660156 254.855469 145.4375 Z M 254.855469 145.4375 " clip-rule="nonzero"/></clipPath><clipPath id="6d7502bd36"><path d="M 595 35 L 662 35 L 662 102 L 595 102 Z M 595 35 " clip-rule="nonzero"/></clipPath><clipPath id="6d150b98bd"><path d="M 583.246094 80.570312 L 615.910156 23.425781 L 673.054688 56.089844 L 640.390625 113.234375 Z M 583.246094 80.570312 " clip-rule="nonzero"/></clipPath><clipPath id="ed249d2e10"><path d="M 599.578125 51.996094 C 590.558594 67.777344 596.039062 87.882812 611.816406 96.902344 C 627.597656 105.921875 647.703125 100.441406 656.722656 84.664062 C 665.742188 68.882812 660.261719 48.777344 644.484375 39.757812 C 628.703125 30.738281 608.597656 36.21875 599.578125 51.996094 Z M 599.578125 51.996094 " clip-rule="nonzero"/></clipPath><clipPath id="deaae01c43"><path d="M 689 379 L 756 379 L 756 446 L 689 446 Z M 689 379 " clip-rule="nonzero"/></clipPath><clipPath id="50a16eb379"><path d="M 677.644531 425.03125 L 710.3125 367.886719 L 767.457031 400.554688 L 734.789062 457.699219 Z M 677.644531 425.03125 " clip-rule="nonzero"/></clipPath><clipPath id="f5a0a2829f"><path d="M 693.976562 396.460938 C 684.957031 412.238281 690.4375 432.34375 706.21875 441.363281 C 721.996094 450.386719 742.101562 444.90625 751.121094 429.125 C 760.144531 413.347656 754.664062 393.242188 738.882812 384.21875 C 723.101562 375.199219 703 380.679688 693.976562 396.460938 Z M 693.976562 396.460938 " clip-rule="nonzero"/></clipPath><clipPath id="8b70554bcf"><path d="M 344 474 L 411 474 L 411 541 L 344 541 Z M 344 474 " clip-rule="nonzero"/></clipPath><clipPath id="62f87d0e59"><path d="M 332.226562 519.691406 L 364.890625 462.546875 L 422.035156 495.214844 L 389.371094 552.359375 Z M 332.226562 519.691406 " clip-rule="nonzero"/></clipPath><clipPath id="3153743288"><path d="M 348.558594 491.121094 C 339.539062 506.902344 345.015625 527.003906 360.796875 536.027344 C 376.578125 545.046875 396.683594 539.566406 405.703125 523.785156 C 414.722656 508.007812 409.242188 487.902344 393.464844 478.882812 C 377.683594 469.859375 357.578125 475.339844 348.558594 491.121094 Z M 348.558594 491.121094 " clip-rule="nonzero"/></clipPath><clipPath id="b65d51a32c"><path d="M 299 66 L 366 66 L 366 133 L 299 133 Z M 299 66 " clip-rule="nonzero"/></clipPath><clipPath id="16b6a4ad6c"><path d="M 286 97.652344 L 334.71875 53.390625 L 378.980469 102.109375 L 330.261719 146.371094 Z M 286 97.652344 " clip-rule="nonzero"/></clipPath><clipPath id="44aacdfddc"><path d="M 310.359375 75.523438 C 296.90625 87.746094 295.910156 108.558594 308.132812 122.011719 C 320.355469 135.464844 341.167969 136.464844 354.621094 124.242188 C 368.074219 112.019531 369.074219 91.207031 356.851562 77.75 C 344.628906 64.296875 323.816406 63.300781 310.359375 75.523438 Z M 310.359375 75.523438 " clip-rule="nonzero"/></clipPath><clipPath id="2c6a1221e0"><path d="M 656 84 L 723 84 L 723 151 L 656 151 Z M 656 84 " clip-rule="nonzero"/></clipPath><clipPath id="ad5410e89a"><path d="M 642.730469 115.253906 L 691.449219 70.996094 L 735.710938 119.714844 L 686.992188 163.972656 Z M 642.730469 115.253906 " clip-rule="nonzero"/></clipPath><clipPath id="9ade1020ab"><path d="M 667.089844 93.125 C 653.636719 105.347656 652.640625 126.160156 664.863281 139.613281 C 677.082031 153.070312 697.898438 154.066406 711.351562 141.84375 C 724.804688 129.621094 725.804688 108.808594 713.582031 95.355469 C 701.359375 81.902344 680.542969 80.902344 667.089844 93.125 Z M 667.089844 93.125 " clip-rule="nonzero"/></clipPath><clipPath id="e1d8e565ca"><path d="M 639 441 L 706 441 L 706 508 L 639 508 Z M 639 441 " clip-rule="nonzero"/></clipPath><clipPath id="8190026f7a"><path d="M 626.121094 472.03125 L 674.839844 427.773438 L 719.097656 476.492188 L 670.378906 520.75 Z M 626.121094 472.03125 " clip-rule="nonzero"/></clipPath><clipPath id="431b8df53d"><path d="M 650.480469 449.902344 C 637.027344 462.125 636.027344 482.9375 648.25 496.390625 C 660.472656 509.84375 681.285156 510.84375 694.738281 498.621094 C 708.191406 486.398438 709.191406 465.585938 696.96875 452.132812 C 684.746094 438.679688 663.933594 437.679688 650.480469 449.902344 Z M 650.480469 449.902344 " clip-rule="nonzero"/></clipPath><clipPath id="b8c30a5964"><path d="M 281 424 L 348 424 L 348 491 L 281 491 Z M 281 424 " clip-rule="nonzero"/></clipPath><clipPath id="2b97ff2748"><path d="M 268.351562 455.375 L 317.070312 411.113281 L 361.332031 459.832031 L 312.613281 504.09375 Z M 268.351562 455.375 " clip-rule="nonzero"/></clipPath><clipPath id="0c0890901e"><path d="M 292.710938 433.242188 C 279.257812 445.464844 278.257812 466.28125 290.480469 479.734375 C 302.703125 493.1875 323.519531 494.183594 336.972656 481.960938 C 350.425781 469.738281 351.421875 448.925781 339.199219 435.472656 C 326.980469 422.019531 306.164062 421.019531 292.710938 433.242188 Z M 292.710938 433.242188 " clip-rule="nonzero"/></clipPath><clipPath id="1032bb1012"><path d="M 479.328125 74.769531 L 528.394531 74.769531 L 528.394531 123.832031 L 479.328125 123.832031 Z M 479.328125 74.769531 " clip-rule="nonzero"/></clipPath><clipPath id="dcd5bd2e1e"><path d="M 503.859375 74.769531 C 490.3125 74.769531 479.328125 85.75 479.328125 99.300781 C 479.328125 112.847656 490.3125 123.832031 503.859375 123.832031 C 517.410156 123.832031 528.394531 112.847656 528.394531 99.300781 C 528.394531 85.75 517.410156 74.769531 503.859375 74.769531 Z M 503.859375 74.769531 " clip-rule="nonzero"/></clipPath><clipPath id="f51ac16088"><path d="M 667.320312 263.285156 L 716.386719 263.285156 L 716.386719 312.347656 L 667.320312 312.347656 Z M 667.320312 263.285156 " clip-rule="nonzero"/></clipPath><clipPath id="5b293b1bef"><path d="M 691.855469 263.285156 C 678.304688 263.285156 667.320312 274.269531 667.320312 287.816406 C 667.320312 301.367188 678.304688 312.347656 691.855469 312.347656 C 705.402344 312.347656 716.386719 301.367188 716.386719 287.816406 C 716.386719 274.269531 705.402344 263.285156 691.855469 263.285156 Z M 691.855469 263.285156 " clip-rule="nonzero"/></clipPath><clipPath id="710224b948"><path d="M 479.328125 451.800781 L 528.394531 451.800781 L 528.394531 500.867188 L 479.328125 500.867188 Z M 479.328125 451.800781 " clip-rule="nonzero"/></clipPath><clipPath id="0d16eef1d6"><path d="M 503.859375 451.800781 C 490.3125 451.800781 479.328125 462.785156 479.328125 476.332031 C 479.328125 489.882812 490.3125 500.867188 503.859375 500.867188 C 517.410156 500.867188 528.394531 489.882812 528.394531 476.332031 C 528.394531 462.785156 517.410156 451.800781 503.859375 451.800781 Z M 503.859375 451.800781 " clip-rule="nonzero"/></clipPath><clipPath id="37ffa53900"><path d="M 290.289062 263.285156 L 339.351562 263.285156 L 339.351562 312.347656 L 290.289062 312.347656 Z M 290.289062 263.285156 " clip-rule="nonzero"/></clipPath><clipPath id="522183f632"><path d="M 314.820312 263.285156 C 301.273438 263.285156 290.289062 274.269531 290.289062 287.816406 C 290.289062 301.367188 301.273438 312.347656 314.820312 312.347656 C 328.371094 312.347656 339.351562 301.367188 339.351562 287.816406 C 339.351562 274.269531 328.371094 263.285156 314.820312 263.285156 Z M 314.820312 263.285156 " clip-rule="nonzero"/></clipPath><clipPath id="8bfda5bf83"><path d="M 537 83 L 587 83 L 587 133 L 537 133 Z M 537 83 " clip-rule="nonzero"/></clipPath><clipPath id="d156de48e9"><path d="M 546.304688 77.246094 L 592.972656 92.402344 L 577.816406 139.066406 L 531.152344 123.914062 Z M 546.304688 77.246094 " clip-rule="nonzero"/></clipPath><clipPath id="0ba0c5a999"><path d="M 569.640625 84.824219 C 556.753906 80.640625 542.914062 87.695312 538.730469 100.582031 C 534.542969 113.464844 541.597656 127.304688 554.484375 131.492188 C 567.371094 135.675781 581.210938 128.621094 585.394531 115.734375 C 589.578125 102.847656 582.527344 89.007812 569.640625 84.824219 Z M 569.640625 84.824219 " clip-rule="nonzero"/></clipPath><clipPath id="e1ac7a4cf3"><path d="M 658 320 L 708 320 L 708 371 L 658 371 Z M 658 320 " clip-rule="nonzero"/></clipPath><clipPath id="421446d62c"><path d="M 666.878906 314.613281 L 713.546875 329.765625 L 698.390625 376.433594 L 651.726562 361.277344 Z M 666.878906 314.613281 " clip-rule="nonzero"/></clipPath><clipPath id="9ebec524c0"><path d="M 690.214844 322.191406 C 677.328125 318.003906 663.488281 325.058594 659.304688 337.945312 C 655.117188 350.832031 662.171875 364.671875 675.058594 368.855469 C 687.945312 373.039062 701.785156 365.984375 705.96875 353.101562 C 710.152344 340.214844 703.097656 326.375 690.214844 322.191406 Z M 690.214844 322.191406 " clip-rule="nonzero"/></clipPath><clipPath id="987da120d0"><path d="M 421 442 L 471 442 L 471 492 L 421 492 Z M 421 442 " clip-rule="nonzero"/></clipPath><clipPath id="aa76f043fa"><path d="M 429.851562 435.84375 L 476.515625 451 L 461.363281 497.664062 L 414.695312 482.511719 Z M 429.851562 435.84375 " clip-rule="nonzero"/></clipPath><clipPath id="150a1d41e2"><path d="M 453.183594 443.421875 C 440.296875 439.238281 426.457031 446.292969 422.273438 459.179688 C 418.089844 472.0625 425.144531 485.902344 438.027344 490.089844 C 450.914062 494.273438 464.753906 487.21875 468.9375 474.332031 C 473.125 461.445312 466.070312 447.605469 453.183594 443.421875 Z M 453.183594 443.421875 " clip-rule="nonzero"/></clipPath><clipPath id="4fa8d30a24"><path d="M 299 204 L 349 204 L 349 254 L 299 254 Z M 299 204 " clip-rule="nonzero"/></clipPath><clipPath id="ffd9477c04"><path d="M 308.28125 198.15625 L 354.949219 213.3125 L 339.792969 259.976562 L 293.128906 244.824219 Z M 308.28125 198.15625 " clip-rule="nonzero"/></clipPath><clipPath id="6aa642458b"><path d="M 331.617188 205.734375 C 318.730469 201.550781 304.890625 208.601562 300.707031 221.488281 C 296.519531 234.375 303.574219 248.214844 316.460938 252.398438 C 329.347656 256.585938 343.1875 249.53125 347.371094 236.644531 C 351.554688 223.757812 344.5 209.917969 331.617188 205.734375 Z M 331.617188 205.734375 " clip-rule="nonzero"/></clipPath><clipPath id="3afb0243bb"><path d="M 421 83 L 471 83 L 471 133 L 421 133 Z M 421 83 " clip-rule="nonzero"/></clipPath><clipPath id="6daf3e45b4"><path d="M 414.625 92.109375 L 461.285156 76.9375 L 476.457031 123.597656 L 429.796875 138.769531 Z M 414.625 92.109375 " clip-rule="nonzero"/></clipPath><clipPath id="9fa23effd8"><path d="M 437.957031 84.523438 C 425.070312 88.714844 418.023438 102.554688 422.210938 115.441406 C 426.402344 128.324219 440.242188 135.375 453.128906 131.183594 C 466.011719 126.996094 473.0625 113.152344 468.871094 100.269531 C 464.683594 87.382812 450.839844 80.335938 437.957031 84.523438 Z M 437.957031 84.523438 " clip-rule="nonzero"/></clipPath><clipPath id="c5f302526a"><path d="M 658 204 L 708 204 L 708 254 L 658 254 Z M 658 204 " clip-rule="nonzero"/></clipPath><clipPath id="2512dca2fa"><path d="M 651.699219 213.253906 L 698.359375 198.082031 L 713.53125 244.742188 L 666.871094 259.914062 Z M 651.699219 213.253906 " clip-rule="nonzero"/></clipPath><clipPath id="ccf1cf3ebc"><path d="M 675.03125 205.667969 C 662.144531 209.859375 655.097656 223.699219 659.285156 236.585938 C 663.476562 249.46875 677.316406 256.519531 690.203125 252.328125 C 703.085938 248.140625 710.136719 234.296875 705.945312 221.414062 C 701.757812 208.527344 687.914062 201.480469 675.03125 205.667969 Z M 675.03125 205.667969 " clip-rule="nonzero"/></clipPath><clipPath id="117529a99f"><path d="M 537 441 L 587 441 L 587 491 L 537 491 Z M 537 441 " clip-rule="nonzero"/></clipPath><clipPath id="b4d08ac734"><path d="M 531.214844 450.664062 L 577.875 435.492188 L 593.046875 482.152344 L 546.386719 497.324219 Z M 531.214844 450.664062 " clip-rule="nonzero"/></clipPath><clipPath id="a235dff6b4"><path d="M 554.542969 443.078125 C 541.660156 447.269531 534.609375 461.109375 538.800781 473.996094 C 542.988281 486.878906 556.832031 493.929688 569.714844 489.738281 C 582.601562 485.546875 589.648438 471.707031 585.460938 458.824219 C 581.269531 445.9375 567.429688 438.890625 554.542969 443.078125 Z M 554.542969 443.078125 " clip-rule="nonzero"/></clipPath><clipPath id="73dd2a12f1"><path d="M 299 321 L 349 321 L 349 371 L 299 371 Z M 299 321 " clip-rule="nonzero"/></clipPath><clipPath id="06ae4fdf9c"><path d="M 293.144531 329.84375 L 339.804688 314.671875 L 354.976562 361.332031 L 308.316406 376.503906 Z M 293.144531 329.84375 " clip-rule="nonzero"/></clipPath><clipPath id="e8c2a22a4c"><path d="M 316.476562 322.257812 C 303.589844 326.445312 296.542969 340.289062 300.730469 353.171875 C 304.921875 366.058594 318.761719 373.105469 331.648438 368.917969 C 344.53125 364.726562 351.582031 350.886719 347.390625 338 C 343.203125 325.117188 329.359375 318.066406 316.476562 322.257812 Z M 316.476562 322.257812 " clip-rule="nonzero"/></clipPath><clipPath id="17b83bad25"><path d="M 325 152 L 375 152 L 375 202 L 325 202 Z M 325 152 " clip-rule="nonzero"/></clipPath><clipPath id="66f54351d3"><path d="M 316.175781 182.304688 L 344.953125 142.566406 L 384.691406 171.34375 L 355.917969 211.082031 Z M 316.175781 182.304688 " clip-rule="nonzero"/></clipPath><clipPath id="00bd246689"><path d="M 330.566406 162.433594 C 322.617188 173.410156 325.074219 188.746094 336.046875 196.691406 C 347.019531 204.640625 362.359375 202.183594 370.304688 191.210938 C 378.25 180.238281 375.796875 164.898438 364.824219 156.953125 C 353.847656 149.007812 338.511719 151.460938 330.566406 162.433594 Z M 330.566406 162.433594 " clip-rule="nonzero"/></clipPath><clipPath id="e9934ec17a"><path d="M 588 110 L 638 110 L 638 160 L 588 160 Z M 588 110 " clip-rule="nonzero"/></clipPath><clipPath id="82e9ec7fbd"><path d="M 579.125 140.605469 L 607.902344 100.867188 L 647.640625 129.644531 L 618.863281 169.382812 Z M 579.125 140.605469 " clip-rule="nonzero"/></clipPath><clipPath id="b5a2b64a59"><path d="M 593.511719 120.738281 C 585.566406 131.710938 588.019531 147.046875 598.992188 154.996094 C 609.96875 162.941406 625.304688 160.488281 633.25 149.511719 C 641.199219 138.539062 638.746094 123.203125 627.769531 115.253906 C 616.796875 107.308594 601.457031 109.761719 593.511719 120.738281 Z M 593.511719 120.738281 " clip-rule="nonzero"/></clipPath><clipPath id="7f76a31c92"><path d="M 631 373 L 681 373 L 681 423 L 631 423 Z M 631 373 " clip-rule="nonzero"/></clipPath><clipPath id="f748c74291"><path d="M 621.554688 403.4375 L 650.328125 363.699219 L 690.070312 392.472656 L 661.292969 432.214844 Z M 621.554688 403.4375 " clip-rule="nonzero"/></clipPath><clipPath id="658cb1232a"><path d="M 635.941406 383.566406 C 627.996094 394.542969 630.449219 409.878906 641.421875 417.824219 C 652.394531 425.773438 667.734375 423.316406 675.679688 412.34375 C 683.628906 401.371094 681.171875 386.03125 670.199219 378.085938 C 659.226562 370.140625 643.886719 372.59375 635.941406 383.566406 Z M 635.941406 383.566406 " clip-rule="nonzero"/></clipPath><clipPath id="28ab23a57d"><path d="M 367 415 L 417 415 L 417 466 L 367 466 Z M 367 415 " clip-rule="nonzero"/></clipPath><clipPath id="b7215ec804"><path d="M 357.992188 445.984375 L 386.769531 406.242188 L 426.507812 435.019531 L 397.730469 474.757812 Z M 357.992188 445.984375 " clip-rule="nonzero"/></clipPath><clipPath id="4a477bcb2d"><path d="M 372.378906 426.113281 C 364.433594 437.085938 366.886719 452.425781 377.863281 460.371094 C 388.835938 468.316406 404.171875 465.863281 412.121094 454.890625 C 420.066406 443.914062 417.613281 428.578125 406.636719 420.632812 C 395.664062 412.683594 380.328125 415.140625 372.378906 426.113281 Z M 372.378906 426.113281 " clip-rule="nonzero"/></clipPath><clipPath id="f6f58dae1a"><path d="M 367 110 L 417 110 L 417 160 L 367 160 Z M 367 110 " clip-rule="nonzero"/></clipPath><clipPath id="985bc6b520"><path d="M 357.46875 129.511719 L 397.113281 100.601562 L 426.019531 140.246094 L 386.375 169.15625 Z M 357.46875 129.511719 " clip-rule="nonzero"/></clipPath><clipPath id="251eb7c289"><path d="M 377.289062 115.054688 C 366.34375 123.039062 363.9375 138.386719 371.921875 149.332031 C 379.90625 160.28125 395.25 162.683594 406.199219 154.699219 C 417.144531 146.71875 419.546875 131.371094 411.566406 120.425781 C 403.582031 109.476562 388.238281 107.074219 377.289062 115.054688 Z M 377.289062 115.054688 " clip-rule="nonzero"/></clipPath><clipPath id="fe843f8e17"><path d="M 630 151 L 680 151 L 680 201 L 630 201 Z M 630 151 " clip-rule="nonzero"/></clipPath><clipPath id="507930a2f9"><path d="M 620.4375 171.070312 L 660.082031 142.160156 L 688.988281 181.804688 L 649.34375 210.710938 Z M 620.4375 171.070312 " clip-rule="nonzero"/></clipPath><clipPath id="52a0130cf3"><path d="M 640.257812 156.613281 C 629.3125 164.597656 626.910156 179.941406 634.890625 190.890625 C 642.875 201.839844 658.21875 204.242188 669.167969 196.257812 C 680.113281 188.277344 682.519531 172.929688 674.535156 161.984375 C 666.550781 151.035156 651.207031 148.632812 640.257812 156.613281 Z M 640.257812 156.613281 " clip-rule="nonzero"/></clipPath><clipPath id="8a5d092b90"><path d="M 589 414 L 639 414 L 639 465 L 589 465 Z M 589 414 " clip-rule="nonzero"/></clipPath><clipPath id="c95d3c63b7"><path d="M 579.609375 434.152344 L 619.253906 405.246094 L 648.164062 444.886719 L 608.519531 473.796875 Z M 579.609375 434.152344 " clip-rule="nonzero"/></clipPath><clipPath id="e6ee50ad9e"><path d="M 599.433594 419.699219 C 588.484375 427.679688 586.082031 443.027344 594.0625 453.976562 C 602.046875 464.921875 617.394531 467.324219 628.339844 459.34375 C 639.289062 451.359375 641.691406 436.015625 633.707031 425.066406 C 625.726562 414.121094 610.378906 411.714844 599.433594 419.699219 Z M 599.433594 419.699219 " clip-rule="nonzero"/></clipPath><clipPath id="5edc772ca9"><path d="M 325 374 L 375 374 L 375 424 L 325 424 Z M 325 374 " clip-rule="nonzero"/></clipPath><clipPath id="bd70c759a4"><path d="M 315.796875 393.210938 L 355.4375 364.304688 L 384.347656 403.945312 L 344.703125 432.855469 Z M 315.796875 393.210938 " clip-rule="nonzero"/></clipPath><clipPath id="8e8f4d521d"><path d="M 335.617188 378.757812 C 324.667969 386.738281 322.265625 402.085938 330.25 413.03125 C 338.230469 423.980469 353.578125 426.382812 364.523438 418.402344 C 375.472656 410.417969 377.875 395.074219 369.894531 384.125 C 361.910156 373.175781 346.566406 370.773438 335.617188 378.757812 Z M 335.617188 378.757812 " clip-rule="nonzero"/></clipPath><clipPath id="3a5e7ffb22"><path d="M 503 137 L 539 137 L 539 173 L 503 173 Z M 503 137 " clip-rule="nonzero"/></clipPath><clipPath id="10946a88bf"><path d="M 506.066406 135.15625 L 540.714844 139.691406 L 536.179688 174.335938 L 501.535156 169.804688 Z M 506.066406 135.15625 " clip-rule="nonzero"/></clipPath><clipPath id="82e978aacf"><path d="M 523.390625 137.421875 C 513.824219 136.171875 505.050781 142.914062 503.800781 152.480469 C 502.550781 162.046875 509.289062 170.816406 518.855469 172.070312 C 528.425781 173.320312 537.195312 166.582031 538.445312 157.011719 C 539.699219 147.445312 532.957031 138.675781 523.390625 137.421875 Z M 523.390625 137.421875 " clip-rule="nonzero"/></clipPath><clipPath id="616f95c4e7"><path d="M 618 287 L 654 287 L 654 323 L 618 323 Z M 618 287 " clip-rule="nonzero"/></clipPath><clipPath id="514e74c06c"><path d="M 621.398438 285.644531 L 656.046875 290.179688 L 651.511719 324.824219 L 616.867188 320.292969 Z M 621.398438 285.644531 " clip-rule="nonzero"/></clipPath><clipPath id="699e46c00a"><path d="M 638.722656 287.910156 C 629.15625 286.660156 620.386719 293.402344 619.132812 302.96875 C 617.882812 312.535156 624.621094 321.304688 634.191406 322.558594 C 643.757812 323.808594 652.527344 317.070312 653.78125 307.5 C 655.03125 297.933594 648.289062 289.164062 638.722656 287.910156 Z M 638.722656 287.910156 " clip-rule="nonzero"/></clipPath><clipPath id="a9176bca02"><path d="M 468 403 L 504 403 L 504 439 L 468 439 Z M 468 403 " clip-rule="nonzero"/></clipPath><clipPath id="71ce7675d5"><path d="M 471.234375 401.394531 L 505.878906 405.929688 L 501.347656 440.574219 L 466.699219 436.042969 Z M 471.234375 401.394531 " clip-rule="nonzero"/></clipPath><clipPath id="ba26e2dd35"><path d="M 488.554688 403.660156 C 478.988281 402.410156 470.21875 409.152344 468.964844 418.71875 C 467.714844 428.285156 474.457031 437.058594 484.023438 438.308594 C 493.589844 439.558594 502.359375 432.820312 503.613281 423.25 C 504.863281 413.683594 498.125 404.914062 488.554688 403.660156 Z M 488.554688 403.660156 " clip-rule="nonzero"/></clipPath><clipPath id="af5aa94f5d"><path d="M 352 252 L 388 252 L 388 288 L 352 288 Z M 352 252 " clip-rule="nonzero"/></clipPath><clipPath id="b544dddd9d"><path d="M 355.160156 250.808594 L 389.808594 255.34375 L 385.273438 289.988281 L 350.628906 285.457031 Z M 355.160156 250.808594 " clip-rule="nonzero"/></clipPath><clipPath id="135e031de1"><path d="M 372.484375 253.078125 C 362.917969 251.824219 354.144531 258.566406 352.894531 268.132812 C 351.644531 277.699219 358.382812 286.472656 367.953125 287.722656 C 377.519531 288.976562 386.289062 282.234375 387.542969 272.667969 C 388.792969 263.097656 382.050781 254.328125 372.484375 253.078125 Z M 372.484375 253.078125 " clip-rule="nonzero"/></clipPath><clipPath id="2dbc2dfdb1"><path d="M 543 148 L 579 148 L 579 184 L 543 184 Z M 543 148 " clip-rule="nonzero"/></clipPath><clipPath id="5dfcf652b8"><path d="M 553.132812 143.097656 L 584.683594 158.109375 L 569.671875 189.660156 L 538.121094 174.648438 Z M 553.132812 143.097656 " clip-rule="nonzero"/></clipPath><clipPath id="69be5ead28"><path d="M 568.910156 150.601562 C 560.195312 146.457031 549.773438 150.160156 545.625 158.871094 C 541.480469 167.585938 545.183594 178.007812 553.898438 182.15625 C 562.609375 186.300781 573.035156 182.597656 577.179688 173.886719 C 581.324219 165.171875 577.621094 154.75 568.910156 150.601562 Z M 568.910156 150.601562 " clip-rule="nonzero"/></clipPath><clipPath id="15cd91dca4"><path d="M 607 327 L 643 327 L 643 363 L 607 363 Z M 607 327 " clip-rule="nonzero"/></clipPath><clipPath id="24479d474d"><path d="M 616.34375 321.847656 L 647.898438 336.863281 L 632.882812 368.414062 L 601.332031 353.402344 Z M 616.34375 321.847656 " clip-rule="nonzero"/></clipPath><clipPath id="1c4e8e5028"><path d="M 632.121094 329.355469 C 623.40625 325.210938 612.984375 328.914062 608.839844 337.625 C 604.691406 346.339844 608.394531 356.761719 617.109375 360.90625 C 625.820312 365.054688 636.246094 361.351562 640.390625 352.636719 C 644.535156 343.925781 640.832031 333.5 632.121094 329.355469 Z M 632.121094 329.355469 " clip-rule="nonzero"/></clipPath><clipPath id="fba4b7050c"><path d="M 428 391 L 464 391 L 464 427 L 428 427 Z M 428 391 " clip-rule="nonzero"/></clipPath><clipPath id="dd32f1e2d5"><path d="M 437.769531 385.558594 L 469.320312 400.570312 L 454.308594 432.121094 L 422.753906 417.109375 Z M 437.769531 385.558594 " clip-rule="nonzero"/></clipPath><clipPath id="b6320d7992"><path d="M 453.542969 393.0625 C 444.832031 388.917969 434.40625 392.621094 430.261719 401.332031 C 426.117188 410.046875 429.816406 420.46875 438.53125 424.617188 C 447.242188 428.761719 457.667969 425.058594 461.8125 416.347656 C 465.960938 407.632812 462.257812 397.210938 453.542969 393.0625 Z M 453.542969 393.0625 " clip-rule="nonzero"/></clipPath><clipPath id="126dc1d68e"><path d="M 364 212 L 400 212 L 400 248 L 364 248 Z M 364 212 " clip-rule="nonzero"/></clipPath><clipPath id="34750fc861"><path d="M 373.882812 206.484375 L 405.4375 221.496094 L 390.421875 253.050781 L 358.871094 238.035156 Z M 373.882812 206.484375 " clip-rule="nonzero"/></clipPath><clipPath id="35dd91c429"><path d="M 389.660156 213.992188 C 380.945312 209.84375 370.523438 213.546875 366.378906 222.261719 C 362.230469 230.972656 365.933594 241.398438 374.648438 245.542969 C 383.359375 249.6875 393.785156 245.984375 397.929688 237.273438 C 402.074219 228.558594 398.371094 218.136719 389.660156 213.992188 Z M 389.660156 213.992188 " clip-rule="nonzero"/></clipPath><clipPath id="7aae37993d"><path d="M 461 137 L 497 137 L 497 173 L 461 173 Z M 461 137 " clip-rule="nonzero"/></clipPath><clipPath id="92cbb6ec8e"><path d="M 458.777344 141.421875 L 493.125 135.019531 L 499.53125 169.371094 L 465.179688 175.773438 Z M 458.777344 141.421875 " clip-rule="nonzero"/></clipPath><clipPath id="5bb0533345"><path d="M 475.953125 138.222656 C 466.464844 139.992188 460.210938 149.113281 461.976562 158.597656 C 463.746094 168.085938 472.867188 174.339844 482.355469 172.574219 C 491.839844 170.804688 498.097656 161.683594 496.328125 152.195312 C 494.558594 142.710938 485.4375 136.453125 475.953125 138.222656 Z M 475.953125 138.222656 " clip-rule="nonzero"/></clipPath><clipPath id="d8becb0342"><path d="M 617 245 L 653 245 L 653 281 L 617 281 Z M 617 245 " clip-rule="nonzero"/></clipPath><clipPath id="dd9d92e68d"><path d="M 614.992188 248.871094 L 649.339844 242.46875 L 655.746094 276.820312 L 621.394531 283.222656 Z M 614.992188 248.871094 " clip-rule="nonzero"/></clipPath><clipPath id="ede500e209"><path d="M 632.167969 245.671875 C 622.679688 247.441406 616.425781 256.5625 618.191406 266.046875 C 619.960938 275.535156 629.082031 281.789062 638.570312 280.023438 C 648.054688 278.253906 654.3125 269.132812 652.542969 259.644531 C 650.773438 250.160156 641.652344 243.902344 632.167969 245.671875 Z M 632.167969 245.671875 " clip-rule="nonzero"/></clipPath><clipPath id="421f63f44a"><path d="M 510 401 L 546 401 L 546 437 L 510 437 Z M 510 401 " clip-rule="nonzero"/></clipPath><clipPath id="a0f318b9b9"><path d="M 507.976562 405.386719 L 542.328125 398.984375 L 548.730469 433.332031 L 514.378906 439.734375 Z M 507.976562 405.386719 " clip-rule="nonzero"/></clipPath><clipPath id="0bf13bc8e3"><path d="M 525.152344 402.183594 C 515.667969 403.953125 509.410156 413.074219 511.179688 422.5625 C 512.945312 432.046875 522.070312 438.300781 531.554688 436.535156 C 541.039062 434.765625 547.296875 425.644531 545.527344 416.160156 C 543.761719 406.671875 534.636719 400.417969 525.152344 402.183594 Z M 525.152344 402.183594 " clip-rule="nonzero"/></clipPath><clipPath id="276910085f"><path d="M 353 294 L 389 294 L 389 330 L 353 330 Z M 353 294 " clip-rule="nonzero"/></clipPath><clipPath id="b38f662caa"><path d="M 351.03125 298.074219 L 385.378906 291.671875 L 391.78125 326.019531 L 357.433594 332.421875 Z M 351.03125 298.074219 " clip-rule="nonzero"/></clipPath><clipPath id="1feae5c62f"><path d="M 368.203125 294.871094 C 358.71875 296.640625 352.460938 305.761719 354.230469 315.25 C 356 324.734375 365.121094 330.988281 374.605469 329.222656 C 384.09375 327.453125 390.347656 318.332031 388.582031 308.84375 C 386.8125 299.359375 377.691406 293.105469 368.203125 294.871094 Z M 368.203125 294.871094 " clip-rule="nonzero"/></clipPath><clipPath id="d241cb577e"><path d="M 388 177 L 424 177 L 424 213 L 388 213 Z M 388 177 " clip-rule="nonzero"/></clipPath><clipPath id="7dcec0159b"><path d="M 380.925781 196.015625 L 404.917969 170.613281 L 430.320312 194.605469 L 406.328125 220.007812 Z M 380.925781 196.015625 " clip-rule="nonzero"/></clipPath><clipPath id="b26dd2889c"><path d="M 392.921875 183.316406 C 386.296875 190.328125 386.609375 201.386719 393.625 208.011719 C 400.640625 214.636719 411.699219 214.320312 418.324219 207.308594 C 424.949219 200.292969 424.632812 189.234375 417.617188 182.609375 C 410.601562 175.984375 399.546875 176.300781 392.921875 183.316406 Z M 392.921875 183.316406 " clip-rule="nonzero"/></clipPath><clipPath id="3039168c1c"><path d="M 577 172 L 613 172 L 613 208 L 577 208 Z M 577 172 " clip-rule="nonzero"/></clipPath><clipPath id="684b58bed9"><path d="M 570.457031 190.867188 L 594.449219 165.460938 L 619.851562 189.453125 L 595.859375 214.859375 Z M 570.457031 190.867188 " clip-rule="nonzero"/></clipPath><clipPath id="1c48e14c95"><path d="M 582.453125 178.164062 C 575.824219 185.179688 576.140625 196.238281 583.15625 202.863281 C 590.171875 209.488281 601.230469 209.171875 607.855469 202.15625 C 614.480469 195.140625 614.164062 184.082031 607.148438 177.457031 C 600.132812 170.832031 589.078125 171.148438 582.453125 178.164062 Z M 582.453125 178.164062 " clip-rule="nonzero"/></clipPath><clipPath id="1fb9bfacb6"><path d="M 583 362 L 619 362 L 619 398 L 583 398 Z M 583 362 " clip-rule="nonzero"/></clipPath><clipPath id="f36b624d72"><path d="M 576.132812 380.382812 L 600.125 354.976562 L 625.527344 378.96875 L 601.535156 404.375 Z M 576.132812 380.382812 " clip-rule="nonzero"/></clipPath><clipPath id="b402e6fbb4"><path d="M 588.128906 367.679688 C 581.503906 374.695312 581.820312 385.753906 588.835938 392.378906 C 595.847656 399.003906 606.90625 398.6875 613.53125 391.671875 C 620.15625 384.65625 619.839844 373.597656 612.824219 366.972656 C 605.8125 360.347656 594.753906 360.664062 588.128906 367.679688 Z M 588.128906 367.679688 " clip-rule="nonzero"/></clipPath><clipPath id="879a9f23b3"><path d="M 393 367 L 429 367 L 429 403 L 393 403 Z M 393 367 " clip-rule="nonzero"/></clipPath><clipPath id="e812320406"><path d="M 386.089844 386.074219 L 410.082031 360.671875 L 435.484375 384.664062 L 411.492188 410.066406 Z M 386.089844 386.074219 " clip-rule="nonzero"/></clipPath><clipPath id="f531f9b8f1"><path d="M 398.085938 373.371094 C 391.460938 380.386719 391.777344 391.445312 398.792969 398.070312 C 405.808594 404.695312 416.863281 404.378906 423.488281 397.363281 C 430.113281 390.347656 429.796875 379.292969 422.785156 372.667969 C 415.769531 366.042969 404.710938 366.355469 398.085938 373.371094 Z M 398.085938 373.371094 " clip-rule="nonzero"/></clipPath><clipPath id="a24a998c57"><path d="M 421 152 L 457 152 L 457 187 L 421 187 Z M 421 152 " clip-rule="nonzero"/></clipPath><clipPath id="72f0344186"><path d="M 414.960938 162.550781 L 445.625 145.800781 L 462.375 176.46875 L 431.710938 193.21875 Z M 414.960938 162.550781 " clip-rule="nonzero"/></clipPath><clipPath id="d07c579cef"><path d="M 430.292969 154.175781 C 421.824219 158.800781 418.710938 169.417969 423.335938 177.882812 C 427.960938 186.351562 438.574219 189.46875 447.042969 184.84375 C 455.511719 180.214844 458.625 169.601562 454 161.132812 C 449.375 152.667969 438.761719 149.550781 430.292969 154.175781 Z M 430.292969 154.175781 " clip-rule="nonzero"/></clipPath><clipPath id="179941df8b"><path d="M 603 205 L 638 205 L 638 241 L 603 241 Z M 603 205 " clip-rule="nonzero"/></clipPath><clipPath id="994373e2fe"><path d="M 596.8125 216.195312 L 627.480469 199.445312 L 644.230469 230.109375 L 613.5625 246.859375 Z M 596.8125 216.195312 " clip-rule="nonzero"/></clipPath><clipPath id="e4998e40da"><path d="M 612.144531 207.820312 C 603.679688 212.445312 600.5625 223.058594 605.1875 231.527344 C 609.8125 239.996094 620.429688 243.109375 628.898438 238.484375 C 637.363281 233.859375 640.480469 223.246094 635.855469 214.777344 C 631.230469 206.308594 620.613281 203.195312 612.144531 207.820312 Z M 612.144531 207.820312 " clip-rule="nonzero"/></clipPath><clipPath id="3bb235625c"><path d="M 549 387 L 585 387 L 585 423 L 549 423 Z M 549 387 " clip-rule="nonzero"/></clipPath><clipPath id="ac09210bfc"><path d="M 543.675781 398.195312 L 574.34375 381.445312 L 591.09375 412.113281 L 560.425781 428.863281 Z M 543.675781 398.195312 " clip-rule="nonzero"/></clipPath><clipPath id="e4ae6ffd3e"><path d="M 559.007812 389.820312 C 550.542969 394.445312 547.425781 405.0625 552.050781 413.527344 C 556.679688 421.996094 567.292969 425.113281 575.761719 420.488281 C 584.226562 415.859375 587.34375 405.246094 582.71875 396.777344 C 578.09375 388.3125 567.476562 385.195312 559.007812 389.820312 Z M 559.007812 389.820312 " clip-rule="nonzero"/></clipPath><clipPath id="1ac79ff418"><path d="M 367 334 L 403 334 L 403 370 L 367 370 Z M 367 334 " clip-rule="nonzero"/></clipPath><clipPath id="d9bdcb8597"><path d="M 361.167969 344.910156 L 391.835938 328.160156 L 408.585938 358.828125 L 377.917969 375.578125 Z M 361.167969 344.910156 " clip-rule="nonzero"/></clipPath><clipPath id="3bad1f0371"><path d="M 376.5 336.535156 C 368.035156 341.160156 364.917969 351.777344 369.542969 360.246094 C 374.167969 368.710938 384.785156 371.828125 393.253906 367.203125 C 401.71875 362.578125 404.835938 351.960938 400.210938 343.492188 C 395.585938 335.027344 384.96875 331.910156 376.5 336.535156 Z M 376.5 336.535156 " clip-rule="nonzero"/></clipPath></defs><g clip-path="url(#a41e5be272)"><g clip-path="url(#7a97930922)"><g clip-path="url(#fb92c992a2)"><path fill="#4777b6" d="M 440.667969 7.105469 L 506.109375 0.046875 L 513.167969 65.488281 L 447.726562 72.546875 Z M 440.667969 7.105469 " fill-opacity="1" fill-rule="nonzero"/></g></g></g><g clip-path="url(#065a3f1780)"><g clip-path="url(#a4773d5281)"><g clip-path="url(#b15fa33a99)"><path fill="#4777b6" d="M 718.53125 231.507812 L 783.976562 224.449219 L 791.035156 289.890625 L 725.589844 296.949219 Z M 718.53125 231.507812 " fill-opacity="1" fill-rule="nonzero"/></g></g></g><g clip-path="url(#e74cdb94c7)"><g clip-path="url(#57bfc432bb)"><g clip-path="url(#f9b6cda4b4)"><path fill="#4777b6" d="M 494.902344 509.996094 L 560.347656 502.9375 L 567.402344 568.378906 L 501.960938 575.4375 Z M 494.902344 509.996094 " fill-opacity="1" fill-rule="nonzero"/></g></g></g><g clip-path="url(#2475c5088d)"><g clip-path="url(#a2125b0f92)"><g clip-path="url(#17075d26aa)"><path fill="#4777b6" d="M 215.640625 285.742188 L 281.085938 278.683594 L 288.144531 344.128906 L 222.699219 351.183594 Z M 215.640625 285.742188 " fill-opacity="1" fill-rule="nonzero"/></g></g></g><g clip-path="url(#370424d6e8)"><g clip-path="url(#b83beab5e0)"><g clip-path="url(#f97c4114dd)"><path fill="#4777b6" d="M 530.359375 0.773438 L 594.785156 14.277344 L 581.28125 78.699219 L 516.859375 65.199219 Z M 530.359375 0.773438 " fill-opacity="1" fill-rule="nonzero"/></g></g></g><g clip-path="url(#964438c95b)"><g clip-path="url(#2be428d592)"><g clip-path="url(#2c1b09866e)"><path fill="#4777b6" d="M 725.328125 300.03125 L 789.75 313.53125 L 776.25 377.953125 L 711.828125 364.453125 Z M 725.328125 300.03125 " fill-opacity="1" fill-rule="nonzero"/></g></g></g><g clip-path="url(#6cdac6d8d1)"><g clip-path="url(#1ab76e1496)"><g clip-path="url(#95612b2933)"><path fill="#4777b6" d="M 426.617188 495.828125 L 491.039062 509.328125 L 477.539062 573.75 L 413.113281 560.25 Z M 426.617188 495.828125 " fill-opacity="1" fill-rule="nonzero"/></g></g></g><g clip-path="url(#5b633ad403)"><g clip-path="url(#a5929485e7)"><g clip-path="url(#e08ac25e67)"><path fill="#4777b6" d="M 230.273438 196.285156 L 294.699219 209.785156 L 281.195312 274.207031 L 216.773438 260.707031 Z M 230.273438 196.285156 " fill-opacity="1" fill-rule="nonzero"/></g></g></g><g clip-path="url(#998e9ef27e)"><g clip-path="url(#7cf5921a7b)"><g clip-path="url(#1740003e6a)"><path fill="#4777b6" d="M 356.859375 39.542969 L 416.914062 12.59375 L 443.863281 72.648438 L 383.808594 99.597656 Z M 356.859375 39.542969 " fill-opacity="1" fill-rule="nonzero"/></g></g></g><g clip-path="url(#5e6d129701)"><g clip-path="url(#28c4965392)"><g clip-path="url(#eb18509a6e)"><path fill="#4777b6" d="M 690.5 167.023438 L 750.550781 140.078125 L 777.5 200.128906 L 717.445312 227.078125 Z M 690.5 167.023438 " fill-opacity="1" fill-rule="nonzero"/></g></g></g><g clip-path="url(#52a799fd9a)"><g clip-path="url(#ee6a78ac90)"><g clip-path="url(#fbcda4ab3f)"><path fill="#4777b6" d="M 563.945312 501.015625 L 623.996094 474.066406 L 650.945312 534.121094 L 590.894531 561.070312 Z M 563.945312 501.015625 " fill-opacity="1" fill-rule="nonzero"/></g></g></g><g clip-path="url(#1f01800484)"><g clip-path="url(#42d638a103)"><g clip-path="url(#576bc227b2)"><path fill="#4777b6" d="M 229.027344 374.109375 L 289.078125 347.160156 L 316.027344 407.214844 L 255.972656 434.160156 Z M 229.027344 374.109375 " fill-opacity="1" fill-rule="nonzero"/></g></g></g><g clip-path="url(#558c61d387)"><g clip-path="url(#f78b27f9da)"><g clip-path="url(#89be5dffc2)"><path fill="#4777b6" d="M 238.523438 174.011719 L 271.1875 116.867188 L 328.332031 149.535156 L 295.667969 206.679688 Z M 238.523438 174.011719 " fill-opacity="1" fill-rule="nonzero"/></g></g></g><g clip-path="url(#6d7502bd36)"><g clip-path="url(#6d150b98bd)"><g clip-path="url(#ed249d2e10)"><path fill="#4777b6" d="M 583.246094 80.570312 L 615.910156 23.425781 L 673.054688 56.089844 L 640.390625 113.234375 Z M 583.246094 80.570312 " fill-opacity="1" fill-rule="nonzero"/></g></g></g><g clip-path="url(#deaae01c43)"><g clip-path="url(#50a16eb379)"><g clip-path="url(#f5a0a2829f)"><path fill="#4777b6" d="M 677.644531 425.03125 L 710.3125 367.886719 L 767.457031 400.554688 L 734.789062 457.699219 Z M 677.644531 425.03125 " fill-opacity="1" fill-rule="nonzero"/></g></g></g><g clip-path="url(#8b70554bcf)"><g clip-path="url(#62f87d0e59)"><g clip-path="url(#3153743288)"><path fill="#4777b6" d="M 332.226562 519.691406 L 364.890625 462.546875 L 422.035156 495.214844 L 389.371094 552.359375 Z M 332.226562 519.691406 " fill-opacity="1" fill-rule="nonzero"/></g></g></g><g clip-path="url(#b65d51a32c)"><g clip-path="url(#16b6a4ad6c)"><g clip-path="url(#44aacdfddc)"><path fill="#4777b6" d="M 286 97.652344 L 334.71875 53.390625 L 378.980469 102.109375 L 330.261719 146.371094 Z M 286 97.652344 " fill-opacity="1" fill-rule="nonzero"/></g></g></g><g clip-path="url(#2c6a1221e0)"><g clip-path="url(#ad5410e89a)"><g clip-path="url(#9ade1020ab)"><path fill="#4777b6" d="M 642.730469 115.253906 L 691.449219 70.996094 L 735.710938 119.714844 L 686.992188 163.972656 Z M 642.730469 115.253906 " fill-opacity="1" fill-rule="nonzero"/></g></g></g><g clip-path="url(#e1d8e565ca)"><g clip-path="url(#8190026f7a)"><g clip-path="url(#431b8df53d)"><path fill="#4777b6" d="M 626.121094 472.03125 L 674.839844 427.773438 L 719.097656 476.492188 L 670.378906 520.75 Z M 626.121094 472.03125 " fill-opacity="1" fill-rule="nonzero"/></g></g></g><g clip-path="url(#b8c30a5964)"><g clip-path="url(#2b97ff2748)"><g clip-path="url(#0c0890901e)"><path fill="#4777b6" d="M 268.351562 455.375 L 317.070312 411.113281 L 361.332031 459.832031 L 312.613281 504.09375 Z M 268.351562 455.375 " fill-opacity="1" fill-rule="nonzero"/></g></g></g><g clip-path="url(#1032bb1012)"><g clip-path="url(#dcd5bd2e1e)"><path fill="#4777b6" d="M 479.328125 74.769531 L 528.394531 74.769531 L 528.394531 123.832031 L 479.328125 123.832031 Z M 479.328125 74.769531 " fill-opacity="1" fill-rule="nonzero"/></g></g><g clip-path="url(#f51ac16088)"><g clip-path="url(#5b293b1bef)"><path fill="#4777b6" d="M 667.320312 263.285156 L 716.386719 263.285156 L 716.386719 312.347656 L 667.320312 312.347656 Z M 667.320312 263.285156 " fill-opacity="1" fill-rule="nonzero"/></g></g><g clip-path="url(#710224b948)"><g clip-path="url(#0d16eef1d6)"><path fill="#4777b6" d="M 479.328125 451.800781 L 528.394531 451.800781 L 528.394531 500.867188 L 479.328125 500.867188 Z M 479.328125 451.800781 " fill-opacity="1" fill-rule="nonzero"/></g></g><g clip-path="url(#37ffa53900)"><g clip-path="url(#522183f632)"><path fill="#4777b6" d="M 290.289062 263.285156 L 339.351562 263.285156 L 339.351562 312.347656 L 290.289062 312.347656 Z M 290.289062 263.285156 " fill-opacity="1" fill-rule="nonzero"/></g></g><g clip-path="url(#8bfda5bf83)"><g clip-path="url(#d156de48e9)"><g clip-path="url(#0ba0c5a999)"><path fill="#4777b6" d="M 546.304688 77.246094 L 592.972656 92.402344 L 577.816406 139.066406 L 531.152344 123.914062 Z M 546.304688 77.246094 " fill-opacity="1" fill-rule="nonzero"/></g></g></g><g clip-path="url(#e1ac7a4cf3)"><g clip-path="url(#421446d62c)"><g clip-path="url(#9ebec524c0)"><path fill="#4777b6" d="M 666.878906 314.613281 L 713.546875 329.765625 L 698.390625 376.433594 L 651.726562 361.277344 Z M 666.878906 314.613281 " fill-opacity="1" fill-rule="nonzero"/></g></g></g><g clip-path="url(#987da120d0)"><g clip-path="url(#aa76f043fa)"><g clip-path="url(#150a1d41e2)"><path fill="#4777b6" d="M 429.851562 435.84375 L 476.515625 451 L 461.363281 497.664062 L 414.695312 482.511719 Z M 429.851562 435.84375 " fill-opacity="1" fill-rule="nonzero"/></g></g></g><g clip-path="url(#4fa8d30a24)"><g clip-path="url(#ffd9477c04)"><g clip-path="url(#6aa642458b)"><path fill="#4777b6" d="M 308.28125 198.15625 L 354.949219 213.3125 L 339.792969 259.976562 L 293.128906 244.824219 Z M 308.28125 198.15625 " fill-opacity="1" fill-rule="nonzero"/></g></g></g><g clip-path="url(#3afb0243bb)"><g clip-path="url(#6daf3e45b4)"><g clip-path="url(#9fa23effd8)"><path fill="#4777b6" d="M 414.625 92.109375 L 461.285156 76.9375 L 476.457031 123.597656 L 429.796875 138.769531 Z M 414.625 92.109375 " fill-opacity="1" fill-rule="nonzero"/></g></g></g><g clip-path="url(#c5f302526a)"><g clip-path="url(#2512dca2fa)"><g clip-path="url(#ccf1cf3ebc)"><path fill="#4777b6" d="M 651.699219 213.253906 L 698.359375 198.082031 L 713.53125 244.742188 L 666.871094 259.914062 Z M 651.699219 213.253906 " fill-opacity="1" fill-rule="nonzero"/></g></g></g><g clip-path="url(#117529a99f)"><g clip-path="url(#b4d08ac734)"><g clip-path="url(#a235dff6b4)"><path fill="#4777b6" d="M 531.214844 450.664062 L 577.875 435.492188 L 593.046875 482.152344 L 546.386719 497.324219 Z M 531.214844 450.664062 " fill-opacity="1" fill-rule="nonzero"/></g></g></g><g clip-path="url(#73dd2a12f1)"><g clip-path="url(#06ae4fdf9c)"><g clip-path="url(#e8c2a22a4c)"><path fill="#4777b6" d="M 293.144531 329.84375 L 339.804688 314.671875 L 354.976562 361.332031 L 308.316406 376.503906 Z M 293.144531 329.84375 " fill-opacity="1" fill-rule="nonzero"/></g></g></g><g clip-path="url(#17b83bad25)"><g clip-path="url(#66f54351d3)"><g clip-path="url(#00bd246689)"><path fill="#4777b6" d="M 316.175781 182.304688 L 344.953125 142.566406 L 384.691406 171.34375 L 355.917969 211.082031 Z M 316.175781 182.304688 " fill-opacity="1" fill-rule="nonzero"/></g></g></g><g clip-path="url(#e9934ec17a)"><g clip-path="url(#82e9ec7fbd)"><g clip-path="url(#b5a2b64a59)"><path fill="#4777b6" d="M 579.125 140.605469 L 607.902344 100.867188 L 647.640625 129.644531 L 618.863281 169.382812 Z M 579.125 140.605469 " fill-opacity="1" fill-rule="nonzero"/></g></g></g><g clip-path="url(#7f76a31c92)"><g clip-path="url(#f748c74291)"><g clip-path="url(#658cb1232a)"><path fill="#4777b6" d="M 621.554688 403.4375 L 650.328125 363.699219 L 690.070312 392.472656 L 661.292969 432.214844 Z M 621.554688 403.4375 " fill-opacity="1" fill-rule="nonzero"/></g></g></g><g clip-path="url(#28ab23a57d)"><g clip-path="url(#b7215ec804)"><g clip-path="url(#4a477bcb2d)"><path fill="#4777b6" d="M 357.992188 445.984375 L 386.769531 406.242188 L 426.507812 435.019531 L 397.730469 474.757812 Z M 357.992188 445.984375 " fill-opacity="1" fill-rule="nonzero"/></g></g></g><g clip-path="url(#f6f58dae1a)"><g clip-path="url(#985bc6b520)"><g clip-path="url(#251eb7c289)"><path fill="#4777b6" d="M 357.46875 129.511719 L 397.113281 100.601562 L 426.019531 140.246094 L 386.375 169.15625 Z M 357.46875 129.511719 " fill-opacity="1" fill-rule="nonzero"/></g></g></g><g clip-path="url(#fe843f8e17)"><g clip-path="url(#507930a2f9)"><g clip-path="url(#52a0130cf3)"><path fill="#4777b6" d="M 620.4375 171.070312 L 660.082031 142.160156 L 688.988281 181.804688 L 649.34375 210.710938 Z M 620.4375 171.070312 " fill-opacity="1" fill-rule="nonzero"/></g></g></g><g clip-path="url(#8a5d092b90)"><g clip-path="url(#c95d3c63b7)"><g clip-path="url(#e6ee50ad9e)"><path fill="#4777b6" d="M 579.609375 434.152344 L 619.253906 405.246094 L 648.164062 444.890625 L 608.519531 473.796875 Z M 579.609375 434.152344 " fill-opacity="1" fill-rule="nonzero"/></g></g></g><g clip-path="url(#5edc772ca9)"><g clip-path="url(#bd70c759a4)"><g clip-path="url(#8e8f4d521d)"><path fill="#4777b6" d="M 315.796875 393.210938 L 355.4375 364.304688 L 384.347656 403.945312 L 344.703125 432.855469 Z M 315.796875 393.210938 " fill-opacity="1" fill-rule="nonzero"/></g></g></g><g clip-path="url(#3a5e7ffb22)"><g clip-path="url(#10946a88bf)"><g clip-path="url(#82e978aacf)"><path fill="#4777b6" d="M 506.066406 135.15625 L 540.714844 139.691406 L 536.179688 174.335938 L 501.535156 169.804688 Z M 506.066406 135.15625 " fill-opacity="1" fill-rule="nonzero"/></g></g></g><g clip-path="url(#616f95c4e7)"><g clip-path="url(#514e74c06c)"><g clip-path="url(#699e46c00a)"><path fill="#4777b6" d="M 621.398438 285.644531 L 656.046875 290.179688 L 651.511719 324.824219 L 616.867188 320.292969 Z M 621.398438 285.644531 " fill-opacity="1" fill-rule="nonzero"/></g></g></g><g clip-path="url(#a9176bca02)"><g clip-path="url(#71ce7675d5)"><g clip-path="url(#ba26e2dd35)"><path fill="#4777b6" d="M 471.234375 401.394531 L 505.878906 405.929688 L 501.347656 440.574219 L 466.699219 436.042969 Z M 471.234375 401.394531 " fill-opacity="1" fill-rule="nonzero"/></g></g></g><g clip-path="url(#af5aa94f5d)"><g clip-path="url(#b544dddd9d)"><g clip-path="url(#135e031de1)"><path fill="#4777b6" d="M 355.160156 250.808594 L 389.808594 255.34375 L 385.273438 289.988281 L 350.628906 285.457031 Z M 355.160156 250.808594 " fill-opacity="1" fill-rule="nonzero"/></g></g></g><g clip-path="url(#2dbc2dfdb1)"><g clip-path="url(#5dfcf652b8)"><g clip-path="url(#69be5ead28)"><path fill="#4777b6" d="M 553.132812 143.097656 L 584.6875 158.109375 L 569.671875 189.660156 L 538.121094 174.648438 Z M 553.132812 143.097656 " fill-opacity="1" fill-rule="nonzero"/></g></g></g><g clip-path="url(#15cd91dca4)"><g clip-path="url(#24479d474d)"><g clip-path="url(#1c4e8e5028)"><path fill="#4777b6" d="M 616.34375 321.847656 L 647.898438 336.863281 L 632.882812 368.414062 L 601.332031 353.402344 Z M 616.34375 321.847656 " fill-opacity="1" fill-rule="nonzero"/></g></g></g><g clip-path="url(#fba4b7050c)"><g clip-path="url(#dd32f1e2d5)"><g clip-path="url(#b6320d7992)"><path fill="#4777b6" d="M 437.769531 385.558594 L 469.320312 400.570312 L 454.308594 432.121094 L 422.753906 417.109375 Z M 437.769531 385.558594 " fill-opacity="1" fill-rule="nonzero"/></g></g></g><g clip-path="url(#126dc1d68e)"><g clip-path="url(#34750fc861)"><g clip-path="url(#35dd91c429)"><path fill="#4777b6" d="M 373.882812 206.484375 L 405.4375 221.496094 L 390.421875 253.050781 L 358.871094 238.035156 Z M 373.882812 206.484375 " fill-opacity="1" fill-rule="nonzero"/></g></g></g><g clip-path="url(#7aae37993d)"><g clip-path="url(#92cbb6ec8e)"><g clip-path="url(#5bb0533345)"><path fill="#4777b6" d="M 458.777344 141.421875 L 493.125 135.019531 L 499.53125 169.371094 L 465.179688 175.773438 Z M 458.777344 141.421875 " fill-opacity="1" fill-rule="nonzero"/></g></g></g><g clip-path="url(#d8becb0342)"><g clip-path="url(#dd9d92e68d)"><g clip-path="url(#ede500e209)"><path fill="#4777b6" d="M 614.992188 248.871094 L 649.339844 242.46875 L 655.746094 276.820312 L 621.394531 283.222656 Z M 614.992188 248.871094 " fill-opacity="1" fill-rule="nonzero"/></g></g></g><g clip-path="url(#421f63f44a)"><g clip-path="url(#a0f318b9b9)"><g clip-path="url(#0bf13bc8e3)"><path fill="#4777b6" d="M 507.976562 405.386719 L 542.328125 398.984375 L 548.730469 433.332031 L 514.378906 439.734375 Z M 507.976562 405.386719 " fill-opacity="1" fill-rule="nonzero"/></g></g></g><g clip-path="url(#276910085f)"><g clip-path="url(#b38f662caa)"><g clip-path="url(#1feae5c62f)"><path fill="#4777b6" d="M 351.03125 298.074219 L 385.378906 291.671875 L 391.78125 326.019531 L 357.433594 332.421875 Z M 351.03125 298.074219 " fill-opacity="1" fill-rule="nonzero"/></g></g></g><g clip-path="url(#d241cb577e)"><g clip-path="url(#7dcec0159b)"><g clip-path="url(#b26dd2889c)"><path fill="#4777b6" d="M 380.925781 196.015625 L 404.917969 170.613281 L 430.320312 194.605469 L 406.328125 220.007812 Z M 380.925781 196.015625 " fill-opacity="1" fill-rule="nonzero"/></g></g></g><g clip-path="url(#3039168c1c)"><g clip-path="url(#684b58bed9)"><g clip-path="url(#1c48e14c95)"><path fill="#4777b6" d="M 570.457031 190.867188 L 594.449219 165.460938 L 619.851562 189.453125 L 595.859375 214.859375 Z M 570.457031 190.867188 " fill-opacity="1" fill-rule="nonzero"/></g></g></g><g clip-path="url(#1fb9bfacb6)"><g clip-path="url(#f36b624d72)"><g clip-path="url(#b402e6fbb4)"><path fill="#4777b6" d="M 576.132812 380.382812 L 600.125 354.976562 L 625.527344 378.96875 L 601.535156 404.375 Z M 576.132812 380.382812 " fill-opacity="1" fill-rule="nonzero"/></g></g></g><g clip-path="url(#879a9f23b3)"><g clip-path="url(#e812320406)"><g clip-path="url(#f531f9b8f1)"><path fill="#4777b6" d="M 386.089844 386.074219 L 410.082031 360.671875 L 435.484375 384.664062 L 411.492188 410.066406 Z M 386.089844 386.074219 " fill-opacity="1" fill-rule="nonzero"/></g></g></g><g clip-path="url(#a24a998c57)"><g clip-path="url(#72f0344186)"><g clip-path="url(#d07c579cef)"><path fill="#4777b6" d="M 414.960938 162.550781 L 445.625 145.800781 L 462.375 176.46875 L 431.710938 193.21875 Z M 414.960938 162.550781 " fill-opacity="1" fill-rule="nonzero"/></g></g></g><g clip-path="url(#179941df8b)"><g clip-path="url(#994373e2fe)"><g clip-path="url(#e4998e40da)"><path fill="#4777b6" d="M 596.8125 216.195312 L 627.480469 199.445312 L 644.230469 230.109375 L 613.5625 246.859375 Z M 596.8125 216.195312 " fill-opacity="1" fill-rule="nonzero"/></g></g></g><g clip-path="url(#3bb235625c)"><g clip-path="url(#ac09210bfc)"><g clip-path="url(#e4ae6ffd3e)"><path fill="#4777b6" d="M 543.675781 398.195312 L 574.34375 381.445312 L 591.09375 412.113281 L 560.425781 428.863281 Z M 543.675781 398.195312 " fill-opacity="1" fill-rule="nonzero"/></g></g></g><g clip-path="url(#1ac79ff418)"><g clip-path="url(#d9bdcb8597)"><g clip-path="url(#3bad1f0371)"><path fill="#4777b6" d="M 361.167969 344.910156 L 391.835938 328.160156 L 408.585938 358.828125 L 377.917969 375.578125 Z M 361.167969 344.910156 " fill-opacity="1" fill-rule="nonzero"/></g></g></g><g fill="#4777b6" fill-opacity="1"><g transform="translate(27.650173, 681.163868)"><g><path d="M 72.984375 0 L 64.6875 0 L 64.6875 -16.59375 L 18.328125 -16.59375 L 18.328125 -24.875 L 64.6875 -24.875 L 64.6875 -49.765625 L 34.921875 -49.765625 C 31.160156 -49.765625 27.703125 -48.835938 24.546875 -46.984375 C 21.398438 -45.128906 18.898438 -42.625 17.046875 -39.46875 C 15.191406 -36.320312 14.265625 -32.84375 14.265625 -29.03125 L 14.265625 0 L 5.96875 0 L 5.96875 -29.03125 C 5.96875 -33.007812 6.710938 -36.753906 8.203125 -40.265625 C 9.703125 -43.773438 11.773438 -46.867188 14.421875 -49.546875 C 17.078125 -52.234375 20.160156 -54.320312 23.671875 -55.8125 C 27.179688 -57.3125 30.929688 -58.0625 34.921875 -58.0625 L 72.984375 -58.0625 Z M 72.984375 0 "/></g></g></g><g fill="#4777b6" fill-opacity="1"><g transform="translate(109.244188, 681.163868)"><g><path d="M 62.453125 0 L 6.96875 0 L 6.96875 -58.0625 L 15.265625 -58.0625 L 15.265625 -8.296875 L 62.453125 -8.296875 Z M 62.453125 0 "/></g></g></g><g fill="#4777b6" fill-opacity="1"><g transform="translate(174.171271, 681.163868)"><g><path d="M 62.453125 0 L 6.96875 0 L 6.96875 -58.0625 L 15.265625 -58.0625 L 15.265625 -8.296875 L 62.453125 -8.296875 Z M 62.453125 0 "/></g></g></g><g fill="#4777b6" fill-opacity="1"><g transform="translate(239.098355, 681.163868)"><g/></g></g><g fill="#4777b6" fill-opacity="1"><g transform="translate(271.852517, 681.163868)"><g><path d="M 67.765625 0 L 30.359375 0 C 26.316406 0 22.664062 -0.742188 19.40625 -2.234375 C 16.144531 -3.734375 13.335938 -5.804688 10.984375 -8.453125 C 8.640625 -11.109375 6.832031 -14.191406 5.5625 -17.703125 C 4.289062 -21.210938 3.65625 -24.988281 3.65625 -29.03125 C 3.65625 -33.007812 4.289062 -36.753906 5.5625 -40.265625 C 6.832031 -43.773438 8.640625 -46.867188 10.984375 -49.546875 C 13.335938 -52.234375 16.144531 -54.320312 19.40625 -55.8125 C 22.664062 -57.3125 26.316406 -58.0625 30.359375 -58.0625 L 67.765625 -58.0625 L 67.765625 -49.765625 L 30.359375 -49.765625 C 26.535156 -49.765625 23.253906 -48.835938 20.515625 -46.984375 C 17.785156 -45.128906 15.671875 -42.625 14.171875 -39.46875 C 12.679688 -36.320312 11.9375 -32.84375 11.9375 -29.03125 C 11.9375 -25.21875 12.679688 -21.75 14.171875 -18.625 C 15.671875 -15.5 17.785156 -12.992188 20.515625 -11.109375 C 23.253906 -9.234375 26.535156 -8.296875 30.359375 -8.296875 L 67.765625 -8.296875 Z M 67.765625 0 "/></g></g></g><g fill="#4777b6" fill-opacity="1"><g transform="translate(344.325323, 681.163868)"><g><path d="M 76.296875 -29.03125 C 76.296875 -24.988281 75.660156 -21.210938 74.390625 -17.703125 C 73.117188 -14.191406 71.304688 -11.109375 68.953125 -8.453125 C 66.609375 -5.804688 63.804688 -3.734375 60.546875 -2.234375 C 57.285156 -0.742188 53.660156 0 49.671875 0 L 30.359375 0 C 26.316406 0 22.664062 -0.742188 19.40625 -2.234375 C 16.144531 -3.734375 13.335938 -5.804688 10.984375 -8.453125 C 8.640625 -11.109375 6.832031 -14.191406 5.5625 -17.703125 C 4.289062 -21.210938 3.65625 -24.988281 3.65625 -29.03125 C 3.65625 -33.007812 4.289062 -36.753906 5.5625 -40.265625 C 6.832031 -43.773438 8.640625 -46.867188 10.984375 -49.546875 C 13.335938 -52.234375 16.144531 -54.320312 19.40625 -55.8125 C 22.664062 -57.3125 26.316406 -58.0625 30.359375 -58.0625 L 49.671875 -58.0625 C 53.660156 -58.0625 57.285156 -57.3125 60.546875 -55.8125 C 63.804688 -54.320312 66.609375 -52.234375 68.953125 -49.546875 C 71.304688 -46.867188 73.117188 -43.773438 74.390625 -40.265625 C 75.660156 -36.753906 76.296875 -33.007812 76.296875 -29.03125 Z M 68.015625 -29.03125 C 68.015625 -32.84375 67.28125 -36.320312 65.8125 -39.46875 C 64.34375 -42.625 62.238281 -45.128906 59.5 -46.984375 C 56.769531 -48.835938 53.492188 -49.765625 49.671875 -49.765625 L 30.359375 -49.765625 C 26.535156 -49.765625 23.253906 -48.835938 20.515625 -46.984375 C 17.785156 -45.128906 15.671875 -42.625 14.171875 -39.46875 C 12.679688 -36.320312 11.9375 -32.84375 11.9375 -29.03125 C 11.9375 -25.21875 12.679688 -21.75 14.171875 -18.625 C 15.671875 -15.5 17.785156 -12.992188 20.515625 -11.109375 C 23.253906 -9.234375 26.535156 -8.296875 30.359375 -8.296875 L 49.671875 -8.296875 C 53.492188 -8.296875 56.769531 -9.234375 59.5 -11.109375 C 62.238281 -12.992188 64.34375 -15.5 65.8125 -18.625 C 67.28125 -21.75 68.015625 -25.21875 68.015625 -29.03125 Z M 68.015625 -29.03125 "/></g></g></g><g fill="#4777b6" fill-opacity="1"><g transform="translate(425.919338, 681.163868)"><g><path d="M 15.265625 0 L 6.96875 0 L 6.96875 -58.0625 L 11.109375 -58.0625 C 15.148438 -58.0625 19.53125 -57.285156 24.25 -55.734375 C 28.976562 -54.179688 33.71875 -51.992188 38.46875 -49.171875 C 43.226562 -46.359375 47.722656 -43.003906 51.953125 -39.109375 C 56.191406 -35.210938 59.828125 -30.882812 62.859375 -26.125 L 62.859375 -58.0625 L 71.15625 -58.0625 L 71.15625 0 L 62.859375 0 C 62.859375 -5.082031 61.820312 -9.957031 59.75 -14.625 C 57.675781 -19.300781 54.925781 -23.613281 51.5 -27.5625 C 48.070312 -31.519531 44.269531 -35.035156 40.09375 -38.109375 C 35.925781 -41.179688 31.6875 -43.695312 27.375 -45.65625 C 23.0625 -47.613281 19.023438 -48.875 15.265625 -49.4375 Z M 15.265625 0 "/></g></g></g><g fill="#4777b6" fill-opacity="1"><g transform="translate(505.689086, 681.163868)"><g><path d="M 15.265625 0 L 6.96875 0 L 6.96875 -58.0625 L 11.109375 -58.0625 C 15.148438 -58.0625 19.53125 -57.285156 24.25 -55.734375 C 28.976562 -54.179688 33.71875 -51.992188 38.46875 -49.171875 C 43.226562 -46.359375 47.722656 -43.003906 51.953125 -39.109375 C 56.191406 -35.210938 59.828125 -30.882812 62.859375 -26.125 L 62.859375 -58.0625 L 71.15625 -58.0625 L 71.15625 0 L 62.859375 0 C 62.859375 -5.082031 61.820312 -9.957031 59.75 -14.625 C 57.675781 -19.300781 54.925781 -23.613281 51.5 -27.5625 C 48.070312 -31.519531 44.269531 -35.035156 40.09375 -38.109375 C 35.925781 -41.179688 31.6875 -43.695312 27.375 -45.65625 C 23.0625 -47.613281 19.023438 -48.875 15.265625 -49.4375 Z M 15.265625 0 "/></g></g></g><g fill="#4777b6" fill-opacity="1"><g transform="translate(585.458804, 681.163868)"><g><path d="M 67.015625 0 L 6.96875 0 L 6.96875 -58.0625 L 67.015625 -58.0625 L 67.015625 -49.765625 L 15.265625 -49.765625 L 15.265625 -8.296875 L 67.015625 -8.296875 Z M 59.96875 -24.875 L 19.40625 -24.875 L 19.40625 -33.171875 L 59.96875 -33.171875 Z M 59.96875 -24.875 "/></g></g></g><g fill="#4777b6" fill-opacity="1"><g transform="translate(657.434116, 681.163868)"><g><path d="M 67.765625 0 L 30.359375 0 C 26.316406 0 22.664062 -0.742188 19.40625 -2.234375 C 16.144531 -3.734375 13.335938 -5.804688 10.984375 -8.453125 C 8.640625 -11.109375 6.832031 -14.191406 5.5625 -17.703125 C 4.289062 -21.210938 3.65625 -24.988281 3.65625 -29.03125 C 3.65625 -33.007812 4.289062 -36.753906 5.5625 -40.265625 C 6.832031 -43.773438 8.640625 -46.867188 10.984375 -49.546875 C 13.335938 -52.234375 16.144531 -54.320312 19.40625 -55.8125 C 22.664062 -57.3125 26.316406 -58.0625 30.359375 -58.0625 L 67.765625 -58.0625 L 67.765625 -49.765625 L 30.359375 -49.765625 C 26.535156 -49.765625 23.253906 -48.835938 20.515625 -46.984375 C 17.785156 -45.128906 15.671875 -42.625 14.171875 -39.46875 C 12.679688 -36.320312 11.9375 -32.84375 11.9375 -29.03125 C 11.9375 -25.21875 12.679688 -21.75 14.171875 -18.625 C 15.671875 -15.5 17.785156 -12.992188 20.515625 -11.109375 C 23.253906 -9.234375 26.535156 -8.296875 30.359375 -8.296875 L 67.765625 -8.296875 Z M 67.765625 0 "/></g></g></g><g fill="#4777b6" fill-opacity="1"><g transform="translate(729.906922, 681.163868)"><g><path d="M 38.484375 0 L 30.1875 0 L 30.1875 -49.765625 L 0.828125 -49.765625 L 0.828125 -58.0625 L 67.84375 -58.0625 L 67.84375 -49.765625 L 38.484375 -49.765625 Z M 38.484375 0 "/></g></g></g><g fill="#4777b6" fill-opacity="1"><g transform="translate(800.223798, 681.163868)"><g><path d="M 67.015625 0 L 6.96875 0 L 6.96875 -58.0625 L 67.015625 -58.0625 L 67.015625 -49.765625 L 15.265625 -49.765625 L 15.265625 -8.296875 L 67.015625 -8.296875 Z M 59.96875 -24.875 L 19.40625 -24.875 L 19.40625 -33.171875 L 59.96875 -33.171875 Z M 59.96875 -24.875 "/></g></g></g><g fill="#4777b6" fill-opacity="1"><g transform="translate(872.199111, 681.163868)"><g><path d="M 75.390625 -29.03125 C 75.390625 -24.988281 74.753906 -21.210938 73.484375 -17.703125 C 72.210938 -14.191406 70.398438 -11.109375 68.046875 -8.453125 C 65.703125 -5.804688 62.882812 -3.734375 59.59375 -2.234375 C 56.300781 -0.742188 52.664062 0 48.6875 0 L 19.40625 0 L 19.40625 -8.296875 L 48.6875 -8.296875 C 52.5 -8.296875 55.785156 -9.234375 58.546875 -11.109375 C 61.316406 -12.992188 63.429688 -15.5 64.890625 -18.625 C 66.359375 -21.75 67.09375 -25.21875 67.09375 -29.03125 C 67.09375 -32.84375 66.359375 -36.320312 64.890625 -39.46875 C 63.429688 -42.625 61.316406 -45.128906 58.546875 -46.984375 C 55.785156 -48.835938 52.5 -49.765625 48.6875 -49.765625 L 15.265625 -49.765625 L 15.265625 0 L 6.96875 0 L 6.96875 -58.0625 L 48.6875 -58.0625 C 52.664062 -58.0625 56.300781 -57.3125 59.59375 -55.8125 C 62.882812 -54.320312 65.703125 -52.234375 68.046875 -49.546875 C 70.398438 -46.867188 72.210938 -43.773438 73.484375 -40.265625 C 74.753906 -36.753906 75.390625 -33.007812 75.390625 -29.03125 Z M 75.390625 -29.03125 "/></g></g></g><g fill="#4777b6" fill-opacity="1"><g transform="translate(66.286515, 737.114869)"><g><path d="M 22.734375 -2.390625 L 22.734375 0 L 4.25 0 L 4.25 -26.125 L 22.171875 -26.125 L 22.171875 -23.734375 L 7.015625 -23.734375 L 7.015625 -14.453125 L 20.53125 -14.453125 L 20.53125 -12.09375 L 7.015625 -12.09375 L 7.015625 -2.390625 Z M 22.734375 -2.390625 "/></g></g></g><g fill="#4777b6" fill-opacity="1"><g transform="translate(110.860197, 737.114869)"><g><path d="M 31.390625 -26.125 L 31.390625 0 L 28.75 0 L 28.75 -20.90625 L 18.484375 -3.328125 L 17.171875 -3.328125 L 6.90625 -20.796875 L 6.90625 0 L 4.25 0 L 4.25 -26.125 L 6.53125 -26.125 L 17.875 -6.75 L 29.109375 -26.125 Z M 31.390625 -26.125 "/></g></g></g><g fill="#4777b6" fill-opacity="1"><g transform="translate(166.106202, 737.114869)"><g/></g></g><g fill="#4777b6" fill-opacity="1"><g transform="translate(195.492379, 737.114869)"><g><path d="M 9.328125 -23.734375 L 0.15625 -23.734375 L 0.15625 -26.125 L 21.28125 -26.125 L 21.28125 -23.734375 L 12.09375 -23.734375 L 12.09375 0 L 9.328125 0 Z M 9.328125 -23.734375 "/></g></g></g><g fill="#4777b6" fill-opacity="1"><g transform="translate(236.521067, 737.114869)"><g><path d="M 15.671875 0.21875 C 13.085938 0.21875 10.742188 -0.359375 8.640625 -1.515625 C 6.535156 -2.671875 4.890625 -4.253906 3.703125 -6.265625 C 2.523438 -8.285156 1.9375 -10.550781 1.9375 -13.0625 C 1.9375 -15.570312 2.523438 -17.832031 3.703125 -19.84375 C 4.890625 -21.863281 6.535156 -23.453125 8.640625 -24.609375 C 10.742188 -25.773438 13.085938 -26.359375 15.671875 -26.359375 C 18.265625 -26.359375 20.597656 -25.785156 22.671875 -24.640625 C 24.753906 -23.492188 26.390625 -21.90625 27.578125 -19.875 C 28.773438 -17.84375 29.375 -15.570312 29.375 -13.0625 C 29.375 -10.550781 28.773438 -8.28125 27.578125 -6.25 C 26.390625 -4.21875 24.753906 -2.628906 22.671875 -1.484375 C 20.597656 -0.347656 18.265625 0.21875 15.671875 0.21875 Z M 15.671875 -2.234375 C 17.742188 -2.234375 19.613281 -2.703125 21.28125 -3.640625 C 22.945312 -4.578125 24.25 -5.867188 25.1875 -7.515625 C 26.132812 -9.171875 26.609375 -11.019531 26.609375 -13.0625 C 26.609375 -15.101562 26.132812 -16.953125 25.1875 -18.609375 C 24.25 -20.265625 22.945312 -21.554688 21.28125 -22.484375 C 19.613281 -23.421875 17.742188 -23.890625 15.671875 -23.890625 C 13.609375 -23.890625 11.738281 -23.421875 10.0625 -22.484375 C 8.382812 -21.554688 7.066406 -20.265625 6.109375 -18.609375 C 5.148438 -16.953125 4.671875 -15.101562 4.671875 -13.0625 C 4.671875 -11.019531 5.148438 -9.171875 6.109375 -7.515625 C 7.066406 -5.867188 8.382812 -4.578125 10.0625 -3.640625 C 11.738281 -2.703125 13.609375 -2.234375 15.671875 -2.234375 Z M 15.671875 -2.234375 "/></g></g></g><g fill="#4777b6" fill-opacity="1"><g transform="translate(287.438443, 737.114869)"><g><path d="M 4.25 -26.125 L 14.890625 -26.125 C 17.648438 -26.125 20.085938 -25.570312 22.203125 -24.46875 C 24.328125 -23.363281 25.972656 -21.820312 27.140625 -19.84375 C 28.304688 -17.863281 28.890625 -15.601562 28.890625 -13.0625 C 28.890625 -10.519531 28.304688 -8.257812 27.140625 -6.28125 C 25.972656 -4.3125 24.328125 -2.769531 22.203125 -1.65625 C 20.085938 -0.550781 17.648438 0 14.890625 0 L 4.25 0 Z M 14.75 -2.390625 C 17.03125 -2.390625 19.03125 -2.84375 20.75 -3.75 C 22.46875 -4.65625 23.800781 -5.910156 24.75 -7.515625 C 25.695312 -9.117188 26.171875 -10.96875 26.171875 -13.0625 C 26.171875 -15.15625 25.695312 -17.003906 24.75 -18.609375 C 23.800781 -20.210938 22.46875 -21.46875 20.75 -22.375 C 19.03125 -23.28125 17.03125 -23.734375 14.75 -23.734375 L 7.015625 -23.734375 L 7.015625 -2.390625 Z M 14.75 -2.390625 "/></g></g></g><g fill="#4777b6" fill-opacity="1"><g transform="translate(337.870682, 737.114869)"><g><path d="M 15.671875 0.21875 C 13.085938 0.21875 10.742188 -0.359375 8.640625 -1.515625 C 6.535156 -2.671875 4.890625 -4.253906 3.703125 -6.265625 C 2.523438 -8.285156 1.9375 -10.550781 1.9375 -13.0625 C 1.9375 -15.570312 2.523438 -17.832031 3.703125 -19.84375 C 4.890625 -21.863281 6.535156 -23.453125 8.640625 -24.609375 C 10.742188 -25.773438 13.085938 -26.359375 15.671875 -26.359375 C 18.265625 -26.359375 20.597656 -25.785156 22.671875 -24.640625 C 24.753906 -23.492188 26.390625 -21.90625 27.578125 -19.875 C 28.773438 -17.84375 29.375 -15.570312 29.375 -13.0625 C 29.375 -10.550781 28.773438 -8.28125 27.578125 -6.25 C 26.390625 -4.21875 24.753906 -2.628906 22.671875 -1.484375 C 20.597656 -0.347656 18.265625 0.21875 15.671875 0.21875 Z M 15.671875 -2.234375 C 17.742188 -2.234375 19.613281 -2.703125 21.28125 -3.640625 C 22.945312 -4.578125 24.25 -5.867188 25.1875 -7.515625 C 26.132812 -9.171875 26.609375 -11.019531 26.609375 -13.0625 C 26.609375 -15.101562 26.132812 -16.953125 25.1875 -18.609375 C 24.25 -20.265625 22.945312 -21.554688 21.28125 -22.484375 C 19.613281 -23.421875 17.742188 -23.890625 15.671875 -23.890625 C 13.609375 -23.890625 11.738281 -23.421875 10.0625 -22.484375 C 8.382812 -21.554688 7.066406 -20.265625 6.109375 -18.609375 C 5.148438 -16.953125 4.671875 -15.101562 4.671875 -13.0625 C 4.671875 -11.019531 5.148438 -9.171875 6.109375 -7.515625 C 7.066406 -5.867188 8.382812 -4.578125 10.0625 -3.640625 C 11.738281 -2.703125 13.609375 -2.234375 15.671875 -2.234375 Z M 15.671875 -2.234375 "/></g></g></g><g fill="#4777b6" fill-opacity="1"><g transform="translate(388.788042, 737.114869)"><g><path d="M 11.453125 0.21875 C 9.515625 0.21875 7.65625 -0.0859375 5.875 -0.703125 C 4.09375 -1.328125 2.71875 -2.148438 1.75 -3.171875 L 2.84375 -5.296875 C 3.78125 -4.347656 5.03125 -3.582031 6.59375 -3 C 8.164062 -2.414062 9.785156 -2.125 11.453125 -2.125 C 13.796875 -2.125 15.550781 -2.550781 16.71875 -3.40625 C 17.894531 -4.269531 18.484375 -5.382812 18.484375 -6.75 C 18.484375 -7.800781 18.164062 -8.632812 17.53125 -9.25 C 16.894531 -9.875 16.113281 -10.351562 15.1875 -10.6875 C 14.269531 -11.03125 12.988281 -11.398438 11.34375 -11.796875 C 9.382812 -12.296875 7.816406 -12.773438 6.640625 -13.234375 C 5.472656 -13.691406 4.472656 -14.394531 3.640625 -15.34375 C 2.804688 -16.289062 2.390625 -17.570312 2.390625 -19.1875 C 2.390625 -20.507812 2.738281 -21.707031 3.4375 -22.78125 C 4.132812 -23.863281 5.203125 -24.726562 6.640625 -25.375 C 8.085938 -26.03125 9.878906 -26.359375 12.015625 -26.359375 C 13.515625 -26.359375 14.976562 -26.148438 16.40625 -25.734375 C 17.832031 -25.328125 19.070312 -24.765625 20.125 -24.046875 L 19.1875 -21.84375 C 18.09375 -22.5625 16.921875 -23.097656 15.671875 -23.453125 C 14.429688 -23.816406 13.210938 -24 12.015625 -24 C 9.722656 -24 8 -23.554688 6.84375 -22.671875 C 5.6875 -21.796875 5.109375 -20.660156 5.109375 -19.265625 C 5.109375 -18.210938 5.425781 -17.367188 6.0625 -16.734375 C 6.695312 -16.109375 7.492188 -15.625 8.453125 -15.28125 C 9.410156 -14.945312 10.695312 -14.582031 12.3125 -14.1875 C 14.226562 -13.707031 15.773438 -13.238281 16.953125 -12.78125 C 18.140625 -12.320312 19.144531 -11.625 19.96875 -10.6875 C 20.789062 -9.757812 21.203125 -8.5 21.203125 -6.90625 C 21.203125 -5.582031 20.847656 -4.378906 20.140625 -3.296875 C 19.429688 -2.222656 18.34375 -1.367188 16.875 -0.734375 C 15.40625 -0.0976562 13.597656 0.21875 11.453125 0.21875 Z M 11.453125 0.21875 "/></g></g></g><g fill="#4777b6" fill-opacity="1"><g transform="translate(431.346653, 737.114869)"><g/></g></g><g fill="#4777b6" fill-opacity="1"><g transform="translate(460.732822, 737.114869)"><g><path d="M 15.671875 0.21875 C 13.085938 0.21875 10.742188 -0.359375 8.640625 -1.515625 C 6.535156 -2.671875 4.890625 -4.253906 3.703125 -6.265625 C 2.523438 -8.285156 1.9375 -10.550781 1.9375 -13.0625 C 1.9375 -15.570312 2.523438 -17.832031 3.703125 -19.84375 C 4.890625 -21.863281 6.535156 -23.453125 8.640625 -24.609375 C 10.742188 -25.773438 13.085938 -26.359375 15.671875 -26.359375 C 18.265625 -26.359375 20.597656 -25.785156 22.671875 -24.640625 C 24.753906 -23.492188 26.390625 -21.90625 27.578125 -19.875 C 28.773438 -17.84375 29.375 -15.570312 29.375 -13.0625 C 29.375 -10.550781 28.773438 -8.28125 27.578125 -6.25 C 26.390625 -4.21875 24.753906 -2.628906 22.671875 -1.484375 C 20.597656 -0.347656 18.265625 0.21875 15.671875 0.21875 Z M 15.671875 -2.234375 C 17.742188 -2.234375 19.613281 -2.703125 21.28125 -3.640625 C 22.945312 -4.578125 24.25 -5.867188 25.1875 -7.515625 C 26.132812 -9.171875 26.609375 -11.019531 26.609375 -13.0625 C 26.609375 -15.101562 26.132812 -16.953125 25.1875 -18.609375 C 24.25 -20.265625 22.945312 -21.554688 21.28125 -22.484375 C 19.613281 -23.421875 17.742188 -23.890625 15.671875 -23.890625 C 13.609375 -23.890625 11.738281 -23.421875 10.0625 -22.484375 C 8.382812 -21.554688 7.066406 -20.265625 6.109375 -18.609375 C 5.148438 -16.953125 4.671875 -15.101562 4.671875 -13.0625 C 4.671875 -11.019531 5.148438 -9.171875 6.109375 -7.515625 C 7.066406 -5.867188 8.382812 -4.578125 10.0625 -3.640625 C 11.738281 -2.703125 13.609375 -2.234375 15.671875 -2.234375 Z M 15.671875 -2.234375 "/></g></g></g><g fill="#4777b6" fill-opacity="1"><g transform="translate(511.650182, 737.114869)"><g><path d="M 11.453125 0.21875 C 9.515625 0.21875 7.65625 -0.0859375 5.875 -0.703125 C 4.09375 -1.328125 2.71875 -2.148438 1.75 -3.171875 L 2.84375 -5.296875 C 3.78125 -4.347656 5.03125 -3.582031 6.59375 -3 C 8.164062 -2.414062 9.785156 -2.125 11.453125 -2.125 C 13.796875 -2.125 15.550781 -2.550781 16.71875 -3.40625 C 17.894531 -4.269531 18.484375 -5.382812 18.484375 -6.75 C 18.484375 -7.800781 18.164062 -8.632812 17.53125 -9.25 C 16.894531 -9.875 16.113281 -10.351562 15.1875 -10.6875 C 14.269531 -11.03125 12.988281 -11.398438 11.34375 -11.796875 C 9.382812 -12.296875 7.816406 -12.773438 6.640625 -13.234375 C 5.472656 -13.691406 4.472656 -14.394531 3.640625 -15.34375 C 2.804688 -16.289062 2.390625 -17.570312 2.390625 -19.1875 C 2.390625 -20.507812 2.738281 -21.707031 3.4375 -22.78125 C 4.132812 -23.863281 5.203125 -24.726562 6.640625 -25.375 C 8.085938 -26.03125 9.878906 -26.359375 12.015625 -26.359375 C 13.515625 -26.359375 14.976562 -26.148438 16.40625 -25.734375 C 17.832031 -25.328125 19.070312 -24.765625 20.125 -24.046875 L 19.1875 -21.84375 C 18.09375 -22.5625 16.921875 -23.097656 15.671875 -23.453125 C 14.429688 -23.816406 13.210938 -24 12.015625 -24 C 9.722656 -24 8 -23.554688 6.84375 -22.671875 C 5.6875 -21.796875 5.109375 -20.660156 5.109375 -19.265625 C 5.109375 -18.210938 5.425781 -17.367188 6.0625 -16.734375 C 6.695312 -16.109375 7.492188 -15.625 8.453125 -15.28125 C 9.410156 -14.945312 10.695312 -14.582031 12.3125 -14.1875 C 14.226562 -13.707031 15.773438 -13.238281 16.953125 -12.78125 C 18.140625 -12.320312 19.144531 -11.625 19.96875 -10.6875 C 20.789062 -9.757812 21.203125 -8.5 21.203125 -6.90625 C 21.203125 -5.582031 20.847656 -4.378906 20.140625 -3.296875 C 19.429688 -2.222656 18.34375 -1.367188 16.875 -0.734375 C 15.40625 -0.0976562 13.597656 0.21875 11.453125 0.21875 Z M 11.453125 0.21875 "/></g></g></g><g fill="#4777b6" fill-opacity="1"><g transform="translate(554.208793, 737.114869)"><g/></g></g><g fill="#4777b6" fill-opacity="1"><g transform="translate(583.594962, 737.114869)"><g><path d="M 4.25 -26.125 L 7.015625 -26.125 L 7.015625 -2.390625 L 21.65625 -2.390625 L 21.65625 0 L 4.25 0 Z M 4.25 -26.125 "/></g></g></g><g fill="#4777b6" fill-opacity="1"><g transform="translate(625.183392, 737.114869)"><g><path d="M 14.78125 0.21875 C 11.394531 0.21875 8.753906 -0.75 6.859375 -2.6875 C 4.972656 -4.625 4.03125 -7.445312 4.03125 -11.15625 L 4.03125 -26.125 L 6.796875 -26.125 L 6.796875 -11.265625 C 6.796875 -8.234375 7.476562 -5.96875 8.84375 -4.46875 C 10.21875 -2.976562 12.195312 -2.234375 14.78125 -2.234375 C 17.394531 -2.234375 19.382812 -2.976562 20.75 -4.46875 C 22.125 -5.96875 22.8125 -8.234375 22.8125 -11.265625 L 22.8125 -26.125 L 25.5 -26.125 L 25.5 -11.15625 C 25.5 -7.445312 24.554688 -4.625 22.671875 -2.6875 C 20.796875 -0.75 18.164062 0.21875 14.78125 0.21875 Z M 14.78125 0.21875 "/></g></g></g><g fill="#4777b6" fill-opacity="1"><g transform="translate(674.346937, 737.114869)"><g><path d="M 22.65625 -13.0625 L 25.3125 -13.0625 L 25.3125 -3.09375 C 24.09375 -2.03125 22.648438 -1.210938 20.984375 -0.640625 C 19.316406 -0.0664062 17.5625 0.21875 15.71875 0.21875 C 13.101562 0.21875 10.75 -0.347656 8.65625 -1.484375 C 6.570312 -2.628906 4.929688 -4.21875 3.734375 -6.25 C 2.535156 -8.28125 1.9375 -10.550781 1.9375 -13.0625 C 1.9375 -15.570312 2.535156 -17.84375 3.734375 -19.875 C 4.929688 -21.90625 6.570312 -23.492188 8.65625 -24.640625 C 10.75 -25.785156 13.113281 -26.359375 15.75 -26.359375 C 17.738281 -26.359375 19.566406 -26.039062 21.234375 -25.40625 C 22.898438 -24.769531 24.304688 -23.828125 25.453125 -22.578125 L 23.734375 -20.828125 C 21.671875 -22.867188 19.046875 -23.890625 15.859375 -23.890625 C 13.742188 -23.890625 11.832031 -23.421875 10.125 -22.484375 C 8.425781 -21.554688 7.09375 -20.265625 6.125 -18.609375 C 5.15625 -16.953125 4.671875 -15.101562 4.671875 -13.0625 C 4.671875 -11.019531 5.15625 -9.175781 6.125 -7.53125 C 7.09375 -5.894531 8.421875 -4.601562 10.109375 -3.65625 C 11.804688 -2.707031 13.710938 -2.234375 15.828125 -2.234375 C 18.515625 -2.234375 20.789062 -2.90625 22.65625 -4.25 Z M 22.65625 -13.0625 "/></g></g></g><g fill="#4777b6" fill-opacity="1"><g transform="translate(722.801481, 737.114869)"><g><path d="M 20.640625 -6.984375 L 6.078125 -6.984375 L 2.953125 0 L 0.078125 0 L 12.015625 -26.125 L 14.75 -26.125 L 26.6875 0 L 23.78125 0 Z M 19.640625 -9.21875 L 13.359375 -23.25 L 7.09375 -9.21875 Z M 19.640625 -9.21875 "/></g></g></g><g fill="#4777b6" fill-opacity="1"><g transform="translate(769.166332, 737.114869)"><g><path d="M 22.09375 0 L 16.125 -8.40625 C 15.457031 -8.320312 14.757812 -8.28125 14.03125 -8.28125 L 7.015625 -8.28125 L 7.015625 0 L 4.25 0 L 4.25 -26.125 L 14.03125 -26.125 C 17.363281 -26.125 19.976562 -25.328125 21.875 -23.734375 C 23.769531 -22.148438 24.71875 -19.960938 24.71875 -17.171875 C 24.71875 -15.128906 24.195312 -13.40625 23.15625 -12 C 22.125 -10.59375 20.648438 -9.578125 18.734375 -8.953125 L 25.125 0 Z M 13.953125 -10.640625 C 16.546875 -10.640625 18.523438 -11.210938 19.890625 -12.359375 C 21.265625 -13.503906 21.953125 -15.109375 21.953125 -17.171875 C 21.953125 -19.285156 21.265625 -20.90625 19.890625 -22.03125 C 18.523438 -23.164062 16.546875 -23.734375 13.953125 -23.734375 L 7.015625 -23.734375 L 7.015625 -10.640625 Z M 13.953125 -10.640625 "/></g></g></g><g fill="#4777b6" fill-opacity="1"><g transform="translate(815.75506, 737.114869)"><g><path d="M 22.734375 -2.390625 L 22.734375 0 L 4.25 0 L 4.25 -26.125 L 22.171875 -26.125 L 22.171875 -23.734375 L 7.015625 -23.734375 L 7.015625 -14.453125 L 20.53125 -14.453125 L 20.53125 -12.09375 L 7.015625 -12.09375 L 7.015625 -2.390625 Z M 22.734375 -2.390625 "/></g></g></g><g fill="#4777b6" fill-opacity="1"><g transform="translate(860.32876, 737.114869)"><g><path d="M 11.453125 0.21875 C 9.515625 0.21875 7.65625 -0.0859375 5.875 -0.703125 C 4.09375 -1.328125 2.71875 -2.148438 1.75 -3.171875 L 2.84375 -5.296875 C 3.78125 -4.347656 5.03125 -3.582031 6.59375 -3 C 8.164062 -2.414062 9.785156 -2.125 11.453125 -2.125 C 13.796875 -2.125 15.550781 -2.550781 16.71875 -3.40625 C 17.894531 -4.269531 18.484375 -5.382812 18.484375 -6.75 C 18.484375 -7.800781 18.164062 -8.632812 17.53125 -9.25 C 16.894531 -9.875 16.113281 -10.351562 15.1875 -10.6875 C 14.269531 -11.03125 12.988281 -11.398438 11.34375 -11.796875 C 9.382812 -12.296875 7.816406 -12.773438 6.640625 -13.234375 C 5.472656 -13.691406 4.472656 -14.394531 3.640625 -15.34375 C 2.804688 -16.289062 2.390625 -17.570312 2.390625 -19.1875 C 2.390625 -20.507812 2.738281 -21.707031 3.4375 -22.78125 C 4.132812 -23.863281 5.203125 -24.726562 6.640625 -25.375 C 8.085938 -26.03125 9.878906 -26.359375 12.015625 -26.359375 C 13.515625 -26.359375 14.976562 -26.148438 16.40625 -25.734375 C 17.832031 -25.328125 19.070312 -24.765625 20.125 -24.046875 L 19.1875 -21.84375 C 18.09375 -22.5625 16.921875 -23.097656 15.671875 -23.453125 C 14.429688 -23.816406 13.210938 -24 12.015625 -24 C 9.722656 -24 8 -23.554688 6.84375 -22.671875 C 5.6875 -21.796875 5.109375 -20.660156 5.109375 -19.265625 C 5.109375 -18.210938 5.425781 -17.367188 6.0625 -16.734375 C 6.695312 -16.109375 7.492188 -15.625 8.453125 -15.28125 C 9.410156 -14.945312 10.695312 -14.582031 12.3125 -14.1875 C 14.226562 -13.707031 15.773438 -13.238281 16.953125 -12.78125 C 18.140625 -12.320312 19.144531 -11.625 19.96875 -10.6875 C 20.789062 -9.757812 21.203125 -8.5 21.203125 -6.90625 C 21.203125 -5.582031 20.847656 -4.378906 20.140625 -3.296875 C 19.429688 -2.222656 18.34375 -1.367188 16.875 -0.734375 C 15.40625 -0.0976562 13.597656 0.21875 11.453125 0.21875 Z M 11.453125 0.21875 "/></g></g></g><g fill="#4777b6" fill-opacity="1"><g transform="translate(902.887372, 737.114869)"><g><path d="M 3.28125 -26.125 L 6.421875 -26.125 L 5.859375 -7.84375 L 3.8125 -7.84375 Z M 4.859375 0.1875 C 4.304688 0.1875 3.835938 -0.00390625 3.453125 -0.390625 C 3.066406 -0.773438 2.875 -1.226562 2.875 -1.75 C 2.875 -2.300781 3.0625 -2.753906 3.4375 -3.109375 C 3.8125 -3.472656 4.285156 -3.65625 4.859375 -3.65625 C 5.398438 -3.65625 5.859375 -3.472656 6.234375 -3.109375 C 6.609375 -2.753906 6.796875 -2.300781 6.796875 -1.75 C 6.796875 -1.226562 6.609375 -0.773438 6.234375 -0.390625 C 5.859375 -0.00390625 5.398438 0.1875 4.859375 0.1875 Z M 4.859375 0.1875 "/></g></g></g></svg>