<svg xmlns="http://www.w3.org/2000/svg" xmlns:xlink="http://www.w3.org/1999/xlink" width="1000" zoomAndPan="magnify" viewBox="0 0 750 749.999995" height="1000" preserveAspectRatio="xMidYMid meet" version="1.0"><defs><g/><clipPath id="3c54227441"><path d="M 336 112 L 380 112 L 380 156 L 336 156 Z M 336 112 " clip-rule="nonzero"/></clipPath><clipPath id="68af23b4b2"><path d="M 333.828125 114.574219 L 376.820312 109.9375 L 381.457031 152.929688 L 338.464844 157.566406 Z M 333.828125 114.574219 " clip-rule="nonzero"/></clipPath><clipPath id="4f30bfebd1"><path d="M 355.324219 112.253906 C 343.453125 113.535156 334.867188 124.199219 336.144531 136.070312 C 337.425781 147.941406 348.089844 156.527344 359.960938 155.25 C 371.832031 153.96875 380.421875 143.304688 379.140625 131.433594 C 377.859375 119.5625 367.195312 110.972656 355.324219 112.253906 Z M 355.324219 112.253906 " clip-rule="nonzero"/></clipPath><clipPath id="1918312d2e"><path d="M 518 259 L 562 259 L 562 303 L 518 303 Z M 518 259 " clip-rule="nonzero"/></clipPath><clipPath id="6838777780"><path d="M 516.375 261.996094 L 559.367188 257.359375 L 564.007812 300.355469 L 521.011719 304.992188 Z M 516.375 261.996094 " clip-rule="nonzero"/></clipPath><clipPath id="271208fb79"><path d="M 537.871094 259.679688 C 526 260.960938 517.414062 271.621094 518.695312 283.496094 C 519.972656 295.367188 530.636719 303.953125 542.507812 302.671875 C 554.382812 301.390625 562.96875 290.730469 561.6875 278.859375 C 560.40625 266.984375 549.746094 258.398438 537.871094 259.679688 Z M 537.871094 259.679688 " clip-rule="nonzero"/></clipPath><clipPath id="3741810f99"><path d="M 371 442 L 415 442 L 415 486 L 371 486 Z M 371 442 " clip-rule="nonzero"/></clipPath><clipPath id="a16739ded6"><path d="M 369.457031 444.953125 L 412.453125 440.316406 L 417.089844 483.3125 L 374.09375 487.949219 Z M 369.457031 444.953125 " clip-rule="nonzero"/></clipPath><clipPath id="d5ddd840a1"><path d="M 390.957031 442.636719 C 379.082031 443.917969 370.496094 454.578125 371.777344 466.449219 C 373.058594 478.324219 383.71875 486.910156 395.59375 485.628906 C 407.464844 484.347656 416.050781 473.6875 414.769531 461.8125 C 413.492188 449.941406 402.828125 441.355469 390.957031 442.636719 Z M 390.957031 442.636719 " clip-rule="nonzero"/></clipPath><clipPath id="1eefa8fb7b"><path d="M 188 295 L 232 295 L 232 339 L 188 339 Z M 188 295 " clip-rule="nonzero"/></clipPath><clipPath id="131e6a6787"><path d="M 185.996094 297.628906 L 228.988281 292.992188 L 233.625 335.984375 L 190.632812 340.621094 Z M 185.996094 297.628906 " clip-rule="nonzero"/></clipPath><clipPath id="829ff388ee"><path d="M 207.492188 295.308594 C 195.617188 296.589844 187.03125 307.253906 188.3125 319.125 C 189.59375 330.996094 200.253906 339.585938 212.128906 338.304688 C 224 337.023438 232.585938 326.359375 231.304688 314.488281 C 230.027344 302.617188 219.363281 294.03125 207.492188 295.308594 Z M 207.492188 295.308594 " clip-rule="nonzero"/></clipPath><clipPath id="fe20376e91"><path d="M 387 114 L 432 114 L 432 158 L 387 158 Z M 387 114 " clip-rule="nonzero"/></clipPath><clipPath id="131335f174"><path d="M 392.753906 110.414062 L 435.078125 119.285156 L 426.207031 161.609375 L 383.882812 152.738281 Z M 392.753906 110.414062 " clip-rule="nonzero"/></clipPath><clipPath id="2188248638"><path d="M 413.914062 114.851562 C 402.226562 112.402344 390.769531 119.890625 388.320312 131.578125 C 385.871094 143.265625 393.359375 154.722656 405.046875 157.171875 C 416.734375 159.621094 428.191406 152.132812 430.640625 140.445312 C 433.089844 128.757812 425.601562 117.300781 413.914062 114.851562 Z M 413.914062 114.851562 " clip-rule="nonzero"/></clipPath><clipPath id="d64c490c4d"><path d="M 515 310 L 560 310 L 560 355 L 515 355 Z M 515 310 " clip-rule="nonzero"/></clipPath><clipPath id="b8f7c090a4"><path d="M 520.839844 307.015625 L 563.164062 315.882812 L 554.292969 358.207031 L 511.96875 349.339844 Z M 520.839844 307.015625 " clip-rule="nonzero"/></clipPath><clipPath id="86559fe297"><path d="M 542 311.449219 C 530.3125 309 518.855469 316.488281 516.40625 328.175781 C 513.957031 339.863281 521.445312 351.324219 533.132812 353.773438 C 544.820312 356.222656 556.277344 348.734375 558.726562 337.046875 C 561.175781 325.359375 553.6875 313.898438 542 311.449219 Z M 542 311.449219 " clip-rule="nonzero"/></clipPath><clipPath id="c2ae5f29e0"><path d="M 319 439 L 363 439 L 363 483 L 319 483 Z M 319 439 " clip-rule="nonzero"/></clipPath><clipPath id="9a105ac8fa"><path d="M 324.597656 435.648438 L 366.917969 444.515625 L 358.050781 486.839844 L 315.726562 477.972656 Z M 324.597656 435.648438 " clip-rule="nonzero"/></clipPath><clipPath id="cba9249afb"><path d="M 345.757812 440.082031 C 334.070312 437.632812 322.609375 445.121094 320.160156 456.808594 C 317.710938 468.496094 325.199219 479.957031 336.886719 482.40625 C 348.574219 484.855469 360.035156 477.367188 362.484375 465.679688 C 364.933594 453.992188 357.445312 442.53125 345.757812 440.082031 Z M 345.757812 440.082031 " clip-rule="nonzero"/></clipPath><clipPath id="0026627baf"><path d="M 190 242 L 234 242 L 234 287 L 190 287 Z M 190 242 " clip-rule="nonzero"/></clipPath><clipPath id="a57bc0891f"><path d="M 195.605469 238.859375 L 237.929688 247.726562 L 229.0625 290.050781 L 186.738281 281.179688 Z M 195.605469 238.859375 " clip-rule="nonzero"/></clipPath><clipPath id="5b64d4d9fc"><path d="M 216.769531 243.292969 C 205.082031 240.84375 193.621094 248.332031 191.171875 260.019531 C 188.722656 271.707031 196.210938 283.167969 207.898438 285.617188 C 219.585938 288.066406 231.046875 280.578125 233.496094 268.890625 C 235.945312 257.203125 228.457031 245.742188 216.769531 243.292969 Z M 216.769531 243.292969 " clip-rule="nonzero"/></clipPath><clipPath id="11f3a94cae"><path d="M 285 125 L 329 125 L 329 169 L 285 169 Z M 285 125 " clip-rule="nonzero"/></clipPath><clipPath id="6b00f5f27c"><path d="M 278.769531 135.882812 L 318.222656 118.179688 L 335.925781 157.632812 L 296.472656 175.335938 Z M 278.769531 135.882812 " clip-rule="nonzero"/></clipPath><clipPath id="7a7ba78e4b"><path d="M 298.496094 127.03125 C 287.601562 131.921875 282.734375 144.714844 287.621094 155.609375 C 292.511719 166.503906 305.304688 171.375 316.199219 166.484375 C 327.09375 161.597656 331.964844 148.800781 327.074219 137.90625 C 322.183594 127.011719 309.390625 122.144531 298.496094 127.03125 Z M 298.496094 127.03125 " clip-rule="nonzero"/></clipPath><clipPath id="e7dd3224aa"><path d="M 504 208 L 549 208 L 549 253 L 504 253 Z M 504 208 " clip-rule="nonzero"/></clipPath><clipPath id="67f2bbe339"><path d="M 497.957031 219.636719 L 537.410156 201.929688 L 555.113281 241.382812 L 515.660156 259.089844 Z M 497.957031 219.636719 " clip-rule="nonzero"/></clipPath><clipPath id="9a9db0b696"><path d="M 517.683594 210.785156 C 506.789062 215.671875 501.921875 228.46875 506.808594 239.363281 C 511.699219 250.257812 524.492188 255.125 535.386719 250.234375 C 546.28125 245.347656 551.152344 232.550781 546.261719 221.65625 C 541.375 210.761719 528.578125 205.894531 517.683594 210.785156 Z M 517.683594 210.785156 " clip-rule="nonzero"/></clipPath><clipPath id="88157d61a7"><path d="M 421 428 L 466 428 L 466 472 L 421 472 Z M 421 428 " clip-rule="nonzero"/></clipPath><clipPath id="6f7abc8d51"><path d="M 414.816406 439.054688 L 454.269531 421.351562 L 471.972656 460.804688 L 432.519531 478.507812 Z M 414.816406 439.054688 " clip-rule="nonzero"/></clipPath><clipPath id="3feda6eb74"><path d="M 434.542969 430.203125 C 423.648438 435.09375 418.78125 447.886719 423.667969 458.78125 C 428.558594 469.675781 441.351562 474.542969 452.246094 469.65625 C 463.140625 464.765625 468.011719 451.972656 463.121094 441.078125 C 458.230469 430.183594 445.4375 425.316406 434.542969 430.203125 Z M 434.542969 430.203125 " clip-rule="nonzero"/></clipPath><clipPath id="1bcb05f62c"><path d="M 201 344 L 245 344 L 245 389 L 201 389 Z M 201 344 " clip-rule="nonzero"/></clipPath><clipPath id="2359696ea9"><path d="M 194.785156 355.683594 L 234.238281 337.976562 L 251.945312 377.429688 L 212.492188 395.136719 Z M 194.785156 355.683594 " clip-rule="nonzero"/></clipPath><clipPath id="66cdc44404"><path d="M 214.511719 346.832031 C 203.617188 351.71875 198.75 364.515625 203.640625 375.410156 C 208.527344 386.304688 221.324219 391.171875 232.21875 386.28125 C 243.113281 381.394531 247.980469 368.597656 243.089844 357.703125 C 238.203125 346.808594 225.40625 341.941406 214.511719 346.832031 Z M 214.511719 346.832031 " clip-rule="nonzero"/></clipPath><clipPath id="9fc6bb34b6"><path d="M 208 194 L 253 194 L 253 238 L 208 238 Z M 208 194 " clip-rule="nonzero"/></clipPath><clipPath id="ded4d5e7b7"><path d="M 201.023438 224.226562 L 222.484375 186.683594 L 260.027344 208.144531 L 238.566406 245.6875 Z M 201.023438 224.226562 " clip-rule="nonzero"/></clipPath><clipPath id="d8f1313d8c"><path d="M 211.753906 205.453125 C 205.828125 215.820312 209.429688 229.03125 219.796875 234.957031 C 230.164062 240.882812 243.371094 237.28125 249.296875 226.914062 C 255.222656 216.546875 251.625 203.339844 241.257812 197.414062 C 230.890625 191.488281 217.679688 195.085938 211.753906 205.453125 Z M 211.753906 205.453125 " clip-rule="nonzero"/></clipPath><clipPath id="252ae0c8ce"><path d="M 435 133 L 479 133 L 479 177 L 435 177 Z M 435 133 " clip-rule="nonzero"/></clipPath><clipPath id="d179ac83b4"><path d="M 427.496094 162.835938 L 448.957031 125.296875 L 486.5 146.753906 L 465.039062 184.296875 Z M 427.496094 162.835938 " clip-rule="nonzero"/></clipPath><clipPath id="9103c17a48"><path d="M 438.226562 144.066406 C 432.300781 154.433594 435.898438 167.640625 446.265625 173.566406 C 456.632812 179.492188 469.84375 175.894531 475.769531 165.527344 C 481.695312 155.160156 478.09375 141.953125 467.726562 136.023438 C 457.359375 130.097656 444.152344 133.699219 438.226562 144.066406 Z M 438.226562 144.066406 " clip-rule="nonzero"/></clipPath><clipPath id="896625ec7c"><path d="M 497 359 L 541 359 L 541 403 L 497 403 Z M 497 359 " clip-rule="nonzero"/></clipPath><clipPath id="ffbdaa201a"><path d="M 489.511719 389.136719 L 510.972656 351.59375 L 548.515625 373.054688 L 527.054688 410.597656 Z M 489.511719 389.136719 " clip-rule="nonzero"/></clipPath><clipPath id="0750c5ed94"><path d="M 500.242188 370.367188 C 494.316406 380.734375 497.917969 393.941406 508.285156 399.867188 C 518.652344 405.792969 531.859375 402.191406 537.785156 391.828125 C 543.710938 381.460938 540.113281 368.25 529.746094 362.324219 C 519.378906 356.398438 506.171875 360 500.242188 370.367188 Z M 500.242188 370.367188 " clip-rule="nonzero"/></clipPath><clipPath id="84e25eba35"><path d="M 270 421 L 314 421 L 314 465 L 270 465 Z M 270 421 " clip-rule="nonzero"/></clipPath><clipPath id="983ccd5011"><path d="M 262.585938 451.324219 L 284.046875 413.785156 L 321.585938 435.242188 L 300.125 472.785156 Z M 262.585938 451.324219 " clip-rule="nonzero"/></clipPath><clipPath id="6129efaa57"><path d="M 273.316406 432.554688 C 267.390625 442.921875 270.988281 456.128906 281.355469 462.054688 C 291.722656 467.980469 304.929688 464.382812 310.855469 454.015625 C 316.78125 443.648438 313.183594 430.441406 302.816406 424.515625 C 292.449219 418.585938 279.242188 422.1875 273.316406 432.554688 Z M 273.316406 432.554688 " clip-rule="nonzero"/></clipPath><clipPath id="5606d18849"><path d="M 241 153 L 285 153 L 285 198 L 241 198 Z M 241 153 " clip-rule="nonzero"/></clipPath><clipPath id="0cd0800a4f"><path d="M 232.21875 174.058594 L 264.222656 144.984375 L 293.300781 176.988281 L 261.296875 206.066406 Z M 232.21875 174.058594 " clip-rule="nonzero"/></clipPath><clipPath id="e34c9794be"><path d="M 248.222656 159.519531 C 239.382812 167.550781 238.726562 181.226562 246.757812 190.0625 C 254.785156 198.902344 268.460938 199.558594 277.296875 191.527344 C 286.136719 183.5 286.792969 169.824219 278.761719 160.984375 C 270.734375 152.148438 257.058594 151.492188 248.222656 159.519531 Z M 248.222656 159.519531 " clip-rule="nonzero"/></clipPath><clipPath id="5fdaffca1b"><path d="M 475 165 L 519 165 L 519 209 L 475 209 Z M 475 165 " clip-rule="nonzero"/></clipPath><clipPath id="966b34e376"><path d="M 466.578125 185.625 L 498.582031 156.546875 L 527.660156 188.554688 L 495.652344 217.632812 Z M 466.578125 185.625 " clip-rule="nonzero"/></clipPath><clipPath id="d798c12304"><path d="M 482.578125 171.085938 C 473.742188 179.117188 473.085938 192.789062 481.113281 201.628906 C 489.144531 210.464844 502.820312 211.121094 511.65625 203.09375 C 520.496094 195.0625 521.152344 181.386719 513.121094 172.550781 C 505.09375 163.710938 491.417969 163.054688 482.578125 171.085938 Z M 482.578125 171.085938 " clip-rule="nonzero"/></clipPath><clipPath id="22769c0547"><path d="M 464 399 L 508 399 L 508 444 L 464 444 Z M 464 399 " clip-rule="nonzero"/></clipPath><clipPath id="a5cd304d07"><path d="M 455.664062 420.015625 L 487.671875 390.9375 L 516.746094 422.945312 L 484.742188 452.019531 Z M 455.664062 420.015625 " clip-rule="nonzero"/></clipPath><clipPath id="624e3141f2"><path d="M 471.667969 405.476562 C 462.828125 413.503906 462.171875 427.179688 470.203125 436.019531 C 478.230469 444.855469 491.90625 445.511719 500.746094 437.480469 C 509.582031 429.453125 510.238281 415.777344 502.207031 406.941406 C 494.179688 398.101562 480.503906 397.445312 471.667969 405.476562 Z M 471.667969 405.476562 " clip-rule="nonzero"/></clipPath><clipPath id="72bd133b02"><path d="M 229 388 L 273 388 L 273 433 L 229 433 Z M 229 388 " clip-rule="nonzero"/></clipPath><clipPath id="05b2def762"><path d="M 220.621094 409.070312 L 252.628906 379.992188 L 281.707031 412 L 249.699219 441.078125 Z M 220.621094 409.070312 " clip-rule="nonzero"/></clipPath><clipPath id="95307265da"><path d="M 236.625 394.53125 C 227.785156 402.5625 227.132812 416.234375 235.160156 425.074219 C 243.191406 433.910156 256.863281 434.566406 265.703125 426.539062 C 274.542969 418.507812 275.199219 404.835938 267.167969 395.996094 C 259.136719 387.15625 245.464844 386.5 236.625 394.53125 Z M 236.625 394.53125 " clip-rule="nonzero"/></clipPath><clipPath id="0f4013eb80"><path d="M 359.226562 159.027344 L 391.460938 159.027344 L 391.460938 191.257812 L 359.226562 191.257812 Z M 359.226562 159.027344 " clip-rule="nonzero"/></clipPath><clipPath id="04deef4b02"><path d="M 375.34375 159.027344 C 366.441406 159.027344 359.226562 166.242188 359.226562 175.144531 C 359.226562 184.042969 366.441406 191.257812 375.34375 191.257812 C 384.246094 191.257812 391.460938 184.042969 391.460938 175.144531 C 391.460938 166.242188 384.246094 159.027344 375.34375 159.027344 Z M 375.34375 159.027344 " clip-rule="nonzero"/></clipPath><clipPath id="b2e909ddf0"><path d="M 482.730469 282.875 L 514.964844 282.875 L 514.964844 315.109375 L 482.730469 315.109375 Z M 482.730469 282.875 " clip-rule="nonzero"/></clipPath><clipPath id="2fbc348ec5"><path d="M 498.847656 282.875 C 489.949219 282.875 482.730469 290.089844 482.730469 298.992188 C 482.730469 307.890625 489.949219 315.109375 498.847656 315.109375 C 507.75 315.109375 514.964844 307.890625 514.964844 298.992188 C 514.964844 290.089844 507.75 282.875 498.847656 282.875 Z M 498.847656 282.875 " clip-rule="nonzero"/></clipPath><clipPath id="ed76c67775"><path d="M 359.226562 406.722656 L 391.460938 406.722656 L 391.460938 438.957031 L 359.226562 438.957031 Z M 359.226562 406.722656 " clip-rule="nonzero"/></clipPath><clipPath id="a64a59d03e"><path d="M 375.34375 406.722656 C 366.441406 406.722656 359.226562 413.9375 359.226562 422.839844 C 359.226562 431.742188 366.441406 438.957031 375.34375 438.957031 C 384.246094 438.957031 391.460938 431.742188 391.460938 422.839844 C 391.460938 413.9375 384.246094 406.722656 375.34375 406.722656 Z M 375.34375 406.722656 " clip-rule="nonzero"/></clipPath><clipPath id="1542538348"><path d="M 235.035156 282.875 L 267.269531 282.875 L 267.269531 315.109375 L 235.035156 315.109375 Z M 235.035156 282.875 " clip-rule="nonzero"/></clipPath><clipPath id="c08deba441"><path d="M 251.152344 282.875 C 242.25 282.875 235.035156 290.089844 235.035156 298.992188 C 235.035156 307.890625 242.25 315.109375 251.152344 315.109375 C 260.050781 315.109375 267.269531 307.890625 267.269531 298.992188 C 267.269531 290.089844 260.050781 282.875 251.152344 282.875 Z M 251.152344 282.875 " clip-rule="nonzero"/></clipPath><clipPath id="ae7c251330"><path d="M 397 164 L 430 164 L 430 198 L 397 198 Z M 397 164 " clip-rule="nonzero"/></clipPath><clipPath id="68187da738"><path d="M 403.230469 160.65625 L 433.886719 170.609375 L 423.929688 201.269531 L 393.273438 191.3125 Z M 403.230469 160.65625 " clip-rule="nonzero"/></clipPath><clipPath id="5b81a405a4"><path d="M 418.558594 165.632812 C 410.09375 162.882812 401 167.519531 398.25 175.984375 C 395.5 184.449219 400.136719 193.539062 408.601562 196.289062 C 417.066406 199.039062 426.160156 194.40625 428.910156 185.941406 C 431.65625 177.472656 427.023438 168.382812 418.558594 165.632812 Z M 418.558594 165.632812 " clip-rule="nonzero"/></clipPath><clipPath id="fcbb0ed4e0"><path d="M 476 320 L 509 320 L 509 354 L 476 354 Z M 476 320 " clip-rule="nonzero"/></clipPath><clipPath id="4254e9d9e1"><path d="M 482.441406 316.59375 L 513.097656 326.550781 L 503.144531 357.207031 L 472.484375 347.253906 Z M 482.441406 316.59375 " clip-rule="nonzero"/></clipPath><clipPath id="ffe5471a2e"><path d="M 497.769531 321.574219 C 489.304688 318.824219 480.210938 323.457031 477.464844 331.925781 C 474.714844 340.390625 479.347656 349.480469 487.8125 352.230469 C 496.28125 354.980469 505.371094 350.347656 508.121094 341.878906 C 510.871094 333.414062 506.234375 324.324219 497.769531 321.574219 Z M 497.769531 321.574219 " clip-rule="nonzero"/></clipPath><clipPath id="07c66b50e3"><path d="M 320 400 L 354 400 L 354 433 L 320 433 Z M 320 400 " clip-rule="nonzero"/></clipPath><clipPath id="1fb5bf5903"><path d="M 326.722656 396.242188 L 357.378906 406.195312 L 347.421875 436.855469 L 316.765625 426.898438 Z M 326.722656 396.242188 " clip-rule="nonzero"/></clipPath><clipPath id="842bb272ed"><path d="M 342.050781 401.21875 C 333.585938 398.46875 324.492188 403.101562 321.742188 411.570312 C 318.996094 420.035156 323.628906 429.125 332.09375 431.875 C 340.558594 434.625 349.652344 429.992188 352.402344 421.527344 C 355.152344 413.058594 350.515625 403.96875 342.050781 401.21875 Z M 342.050781 401.21875 " clip-rule="nonzero"/></clipPath><clipPath id="600ebc0554"><path d="M 241 244 L 274 244 L 274 277 L 241 277 Z M 241 244 " clip-rule="nonzero"/></clipPath><clipPath id="efc4bf09d9"><path d="M 246.855469 240.089844 L 277.511719 250.042969 L 267.558594 280.703125 L 236.898438 270.746094 Z M 246.855469 240.089844 " clip-rule="nonzero"/></clipPath><clipPath id="25cf309a58"><path d="M 262.183594 245.066406 C 253.71875 242.316406 244.625 246.949219 241.878906 255.417969 C 239.128906 263.882812 243.761719 272.972656 252.226562 275.722656 C 260.695312 278.472656 269.785156 273.839844 272.535156 265.371094 C 275.285156 256.90625 270.648438 247.816406 262.183594 245.066406 Z M 262.183594 245.066406 " clip-rule="nonzero"/></clipPath><clipPath id="b6122b055e"><path d="M 320 164 L 354 164 L 354 197 L 320 197 Z M 320 164 " clip-rule="nonzero"/></clipPath><clipPath id="a1ed454dd7"><path d="M 316.71875 170.417969 L 347.375 160.453125 L 357.339844 191.105469 L 326.6875 201.074219 Z M 316.71875 170.417969 " clip-rule="nonzero"/></clipPath><clipPath id="6ae79e39d5"><path d="M 332.046875 165.433594 C 323.582031 168.1875 318.949219 177.28125 321.703125 185.746094 C 324.457031 194.210938 333.550781 198.839844 342.015625 196.089844 C 350.480469 193.335938 355.109375 184.242188 352.355469 175.777344 C 349.605469 167.3125 340.511719 162.683594 332.046875 165.433594 Z M 332.046875 165.433594 " clip-rule="nonzero"/></clipPath><clipPath id="d2d1fe6e73"><path d="M 476 244 L 509 244 L 509 277 L 476 277 Z M 476 244 " clip-rule="nonzero"/></clipPath><clipPath id="b257f88aef"><path d="M 472.46875 250.007812 L 503.121094 240.039062 L 513.089844 270.691406 L 482.4375 280.660156 Z M 472.46875 250.007812 " clip-rule="nonzero"/></clipPath><clipPath id="a399afea90"><path d="M 487.796875 245.023438 C 479.332031 247.777344 474.699219 256.867188 477.453125 265.332031 C 480.203125 273.796875 489.296875 278.429688 497.761719 275.675781 C 506.226562 272.925781 510.859375 263.832031 508.105469 255.367188 C 505.355469 246.902344 496.261719 242.269531 487.796875 245.023438 Z M 487.796875 245.023438 " clip-rule="nonzero"/></clipPath><clipPath id="9900b60810"><path d="M 397 400 L 430 400 L 430 433 L 397 433 Z M 397 400 " clip-rule="nonzero"/></clipPath><clipPath id="c240255066"><path d="M 393.3125 405.976562 L 423.96875 396.007812 L 433.933594 426.664062 L 403.28125 436.628906 Z M 393.3125 405.976562 " clip-rule="nonzero"/></clipPath><clipPath id="1052506d97"><path d="M 408.640625 400.992188 C 400.175781 403.746094 395.546875 412.839844 398.296875 421.304688 C 401.050781 429.769531 410.144531 434.398438 418.609375 431.648438 C 427.074219 428.894531 431.703125 419.800781 428.953125 411.335938 C 426.199219 402.871094 417.105469 398.238281 408.640625 400.992188 Z M 408.640625 400.992188 " clip-rule="nonzero"/></clipPath><clipPath id="871fdec796"><path d="M 241 320 L 274 320 L 274 354 L 241 354 Z M 241 320 " clip-rule="nonzero"/></clipPath><clipPath id="9cdae82431"><path d="M 236.910156 326.601562 L 267.566406 316.632812 L 277.53125 347.289062 L 246.878906 357.253906 Z M 236.910156 326.601562 " clip-rule="nonzero"/></clipPath><clipPath id="e73203d4df"><path d="M 252.238281 321.617188 C 243.773438 324.371094 239.140625 333.464844 241.894531 341.929688 C 244.648438 350.394531 253.742188 355.023438 262.207031 352.269531 C 270.671875 349.519531 275.300781 340.425781 272.546875 331.960938 C 269.796875 323.496094 260.703125 318.863281 252.238281 321.617188 Z M 252.238281 321.617188 " clip-rule="nonzero"/></clipPath><clipPath id="00f8e63a79"><path d="M 258 209 L 291 209 L 291 243 L 258 243 Z M 258 209 " clip-rule="nonzero"/></clipPath><clipPath id="aba6346595"><path d="M 252.042969 229.671875 L 270.945312 203.566406 L 297.054688 222.472656 L 278.148438 248.578125 Z M 252.042969 229.671875 " clip-rule="nonzero"/></clipPath><clipPath id="6bc15d45b0"><path d="M 261.496094 216.621094 C 256.273438 223.828125 257.886719 233.90625 265.09375 239.125 C 272.304688 244.347656 282.382812 242.734375 287.601562 235.523438 C 292.824219 228.316406 291.210938 218.238281 284 213.019531 C 276.792969 207.796875 266.714844 209.410156 261.496094 216.621094 Z M 261.496094 216.621094 " clip-rule="nonzero"/></clipPath><clipPath id="b4c9151ca7"><path d="M 431 182 L 464 182 L 464 215 L 431 215 Z M 431 182 " clip-rule="nonzero"/></clipPath><clipPath id="5aaca477b4"><path d="M 424.789062 202.28125 L 443.695312 176.171875 L 469.800781 195.078125 L 450.894531 221.183594 Z M 424.789062 202.28125 " clip-rule="nonzero"/></clipPath><clipPath id="b86b565cff"><path d="M 434.242188 189.226562 C 429.019531 196.433594 430.632812 206.511719 437.84375 211.730469 C 445.050781 216.953125 455.128906 215.339844 460.347656 208.132812 C 465.570312 200.921875 463.957031 190.84375 456.746094 185.625 C 449.539062 180.402344 439.460938 182.015625 434.242188 189.226562 Z M 434.242188 189.226562 " clip-rule="nonzero"/></clipPath><clipPath id="5e9c605fb3"><path d="M 459 355 L 492 355 L 492 388 L 459 388 Z M 459 355 " clip-rule="nonzero"/></clipPath><clipPath id="85bcd9f628"><path d="M 452.664062 374.949219 L 471.566406 348.84375 L 497.675781 367.746094 L 478.769531 393.855469 Z M 452.664062 374.949219 " clip-rule="nonzero"/></clipPath><clipPath id="deb06f23a8"><path d="M 462.117188 361.894531 C 456.894531 369.105469 458.507812 379.183594 465.714844 384.402344 C 472.925781 389.621094 483.003906 388.011719 488.222656 380.800781 C 493.445312 373.59375 491.832031 363.515625 484.621094 358.292969 C 477.414062 353.074219 467.335938 354.6875 462.117188 361.894531 Z M 462.117188 361.894531 " clip-rule="nonzero"/></clipPath><clipPath id="881d990fb7"><path d="M 285 383 L 319 383 L 319 416 L 285 416 Z M 285 383 " clip-rule="nonzero"/></clipPath><clipPath id="62d0986e15"><path d="M 279.511719 402.902344 L 298.417969 376.792969 L 324.527344 395.699219 L 305.621094 421.804688 Z M 279.511719 402.902344 " clip-rule="nonzero"/></clipPath><clipPath id="71b0988e58"><path d="M 288.964844 389.847656 C 283.746094 397.054688 285.355469 407.132812 292.566406 412.351562 C 299.777344 417.574219 309.851562 415.960938 315.074219 408.753906 C 320.292969 401.542969 318.679688 391.464844 311.472656 386.246094 C 304.261719 381.023438 294.1875 382.636719 288.964844 389.847656 Z M 288.964844 389.847656 " clip-rule="nonzero"/></clipPath><clipPath id="6391fcf6af"><path d="M 285 182 L 318 182 L 318 215 L 285 215 Z M 285 182 " clip-rule="nonzero"/></clipPath><clipPath id="1132f38162"><path d="M 279.167969 194.988281 L 305.214844 176 L 324.203125 202.042969 L 298.160156 221.035156 Z M 279.167969 194.988281 " clip-rule="nonzero"/></clipPath><clipPath id="1cf4ff726c"><path d="M 292.191406 185.492188 C 285 190.738281 283.417969 200.820312 288.664062 208.011719 C 293.910156 215.203125 303.992188 216.78125 311.183594 211.539062 C 318.375 206.292969 319.953125 196.210938 314.710938 189.019531 C 309.464844 181.828125 299.382812 180.25 292.191406 185.492188 Z M 292.191406 185.492188 " clip-rule="nonzero"/></clipPath><clipPath id="aac4682ec3"><path d="M 458 209 L 491 209 L 491 242 L 458 242 Z M 458 209 " clip-rule="nonzero"/></clipPath><clipPath id="bd2c09ace6"><path d="M 451.929688 222.292969 L 477.976562 203.300781 L 496.964844 229.34375 L 470.921875 248.335938 Z M 451.929688 222.292969 " clip-rule="nonzero"/></clipPath><clipPath id="df463028c1"><path d="M 464.953125 212.796875 C 457.761719 218.039062 456.183594 228.121094 461.425781 235.3125 C 466.671875 242.507812 476.753906 244.085938 483.945312 238.839844 C 491.136719 233.597656 492.714844 223.515625 487.472656 216.324219 C 482.226562 209.128906 472.144531 207.550781 464.953125 212.796875 Z M 464.953125 212.796875 " clip-rule="nonzero"/></clipPath><clipPath id="dff2f2f4b6"><path d="M 431 382 L 464 382 L 464 415 L 431 415 Z M 431 382 " clip-rule="nonzero"/></clipPath><clipPath id="569e47094c"><path d="M 425.109375 395.128906 L 451.152344 376.136719 L 470.144531 402.183594 L 444.101562 421.171875 Z M 425.109375 395.128906 " clip-rule="nonzero"/></clipPath><clipPath id="42aa8a477c"><path d="M 438.128906 385.632812 C 430.9375 390.878906 429.359375 400.960938 434.605469 408.152344 C 439.847656 415.34375 449.929688 416.921875 457.121094 411.679688 C 464.3125 406.433594 465.894531 396.351562 460.648438 389.160156 C 455.40625 381.96875 445.324219 380.386719 438.128906 385.632812 Z M 438.128906 385.632812 " clip-rule="nonzero"/></clipPath><clipPath id="0e2c7f354b"><path d="M 258 355 L 291 355 L 291 388 L 258 388 Z M 258 355 " clip-rule="nonzero"/></clipPath><clipPath id="96dd17dc68"><path d="M 251.792969 368.230469 L 277.835938 349.238281 L 296.828125 375.285156 L 270.78125 394.277344 Z M 251.792969 368.230469 " clip-rule="nonzero"/></clipPath><clipPath id="398ed58fb6"><path d="M 264.8125 358.734375 C 257.621094 363.980469 256.042969 374.0625 261.285156 381.253906 C 266.53125 388.445312 276.613281 390.023438 283.804688 384.78125 C 290.996094 379.535156 292.574219 369.453125 287.332031 362.261719 C 282.085938 355.070312 272.003906 353.492188 264.8125 358.734375 Z M 264.8125 358.734375 " clip-rule="nonzero"/></clipPath><clipPath id="1a65df979a"><path d="M 375 200 L 399 200 L 399 224 L 375 224 Z M 375 200 " clip-rule="nonzero"/></clipPath><clipPath id="97f9345310"><path d="M 376.792969 198.699219 L 399.554688 201.675781 L 396.578125 224.4375 L 373.816406 221.460938 Z M 376.792969 198.699219 " clip-rule="nonzero"/></clipPath><clipPath id="037488d63b"><path d="M 388.175781 200.1875 C 381.886719 199.367188 376.125 203.792969 375.304688 210.078125 C 374.480469 216.363281 378.910156 222.128906 385.195312 222.949219 C 391.480469 223.773438 397.242188 219.34375 398.066406 213.058594 C 398.886719 206.773438 394.460938 201.011719 388.175781 200.1875 Z M 388.175781 200.1875 " clip-rule="nonzero"/></clipPath><clipPath id="62d6c4f600"><path d="M 450 298 L 474 298 L 474 322 L 450 322 Z M 450 298 " clip-rule="nonzero"/></clipPath><clipPath id="a6c5887f39"><path d="M 452.5625 297.566406 L 475.324219 300.542969 L 472.347656 323.304688 L 449.585938 320.324219 Z M 452.5625 297.566406 " clip-rule="nonzero"/></clipPath><clipPath id="c6d51475b2"><path d="M 463.945312 299.054688 C 457.65625 298.230469 451.894531 302.660156 451.074219 308.945312 C 450.25 315.230469 454.679688 320.992188 460.964844 321.816406 C 467.25 322.636719 473.011719 318.207031 473.835938 311.921875 C 474.65625 305.636719 470.230469 299.875 463.945312 299.054688 Z M 463.945312 299.054688 " clip-rule="nonzero"/></clipPath><clipPath id="fcba6be4c0"><path d="M 352 375 L 376 375 L 376 398 L 352 398 Z M 352 375 " clip-rule="nonzero"/></clipPath><clipPath id="8a45e0e3ba"><path d="M 353.90625 373.609375 L 376.667969 376.585938 L 373.691406 399.347656 L 350.929688 396.371094 Z M 353.90625 373.609375 " clip-rule="nonzero"/></clipPath><clipPath id="5d37325e37"><path d="M 365.289062 375.097656 C 359.003906 374.273438 353.242188 378.703125 352.417969 384.988281 C 351.597656 391.273438 356.023438 397.035156 362.3125 397.859375 C 368.597656 398.679688 374.359375 394.253906 375.179688 387.96875 C 376.003906 381.683594 371.574219 375.917969 365.289062 375.097656 Z M 365.289062 375.097656 " clip-rule="nonzero"/></clipPath><clipPath id="9e25f2c143"><path d="M 276 276 L 300 276 L 300 300 L 276 300 Z M 276 276 " clip-rule="nonzero"/></clipPath><clipPath id="c840e6c084"><path d="M 277.652344 274.679688 L 300.414062 277.65625 L 297.4375 300.417969 L 274.675781 297.441406 Z M 277.652344 274.679688 " clip-rule="nonzero"/></clipPath><clipPath id="00f8b164bb"><path d="M 289.035156 276.167969 C 282.75 275.347656 276.988281 279.773438 276.164062 286.058594 C 275.339844 292.34375 279.769531 298.109375 286.054688 298.929688 C 292.339844 299.753906 298.101562 295.324219 298.925781 289.039062 C 299.746094 282.753906 295.320312 276.992188 289.035156 276.167969 Z M 289.035156 276.167969 " clip-rule="nonzero"/></clipPath><clipPath id="c8a700a1e3"><path d="M 401 207 L 425 207 L 425 231 L 401 231 Z M 401 207 " clip-rule="nonzero"/></clipPath><clipPath id="0a58dd7be5"><path d="M 407.714844 203.914062 L 428.441406 213.777344 L 418.578125 234.507812 L 397.851562 224.644531 Z M 407.714844 203.914062 " clip-rule="nonzero"/></clipPath><clipPath id="0ddd110695"><path d="M 418.078125 208.847656 C 412.355469 206.121094 405.507812 208.554688 402.78125 214.277344 C 400.058594 220.003906 402.492188 226.851562 408.214844 229.574219 C 413.9375 232.296875 420.789062 229.867188 423.511719 224.140625 C 426.234375 218.417969 423.800781 211.570312 418.078125 208.847656 Z M 418.078125 208.847656 " clip-rule="nonzero"/></clipPath><clipPath id="b82d2b0b85"><path d="M 443 325 L 467 325 L 467 349 L 443 349 Z M 443 325 " clip-rule="nonzero"/></clipPath><clipPath id="0c23593b15"><path d="M 449.242188 321.347656 L 469.96875 331.210938 L 460.105469 351.941406 L 439.378906 342.078125 Z M 449.242188 321.347656 " clip-rule="nonzero"/></clipPath><clipPath id="e968663708"><path d="M 459.605469 326.28125 C 453.882812 323.558594 447.035156 325.988281 444.308594 331.714844 C 441.585938 337.4375 444.019531 344.285156 449.742188 347.007812 C 455.46875 349.734375 462.316406 347.300781 465.039062 341.578125 C 467.761719 335.851562 465.328125 329.003906 459.605469 326.28125 Z M 459.605469 326.28125 " clip-rule="nonzero"/></clipPath><clipPath id="0e83891044"><path d="M 325 367 L 349 367 L 349 390 L 325 390 Z M 325 367 " clip-rule="nonzero"/></clipPath><clipPath id="5cd522f2d0"><path d="M 331.921875 363.203125 L 352.652344 373.066406 L 342.789062 393.792969 L 322.058594 383.933594 Z M 331.921875 363.203125 " clip-rule="nonzero"/></clipPath><clipPath id="e3549e7ec8"><path d="M 342.289062 368.132812 C 336.5625 365.410156 329.714844 367.84375 326.992188 373.566406 C 324.269531 379.292969 326.699219 386.140625 332.425781 388.863281 C 338.148438 391.585938 344.996094 389.15625 347.71875 383.429688 C 350.445312 377.707031 348.011719 370.859375 342.289062 368.132812 Z M 342.289062 368.132812 " clip-rule="nonzero"/></clipPath><clipPath id="ce0cdc877e"><path d="M 283 249 L 307 249 L 307 273 L 283 273 Z M 283 249 " clip-rule="nonzero"/></clipPath><clipPath id="c8ec3e2315"><path d="M 289.953125 245.558594 L 310.683594 255.421875 L 300.820312 276.148438 L 280.089844 266.285156 Z M 289.953125 245.558594 " clip-rule="nonzero"/></clipPath><clipPath id="228c05172f"><path d="M 300.316406 250.488281 C 294.59375 247.765625 287.746094 250.199219 285.023438 255.921875 C 282.296875 261.648438 284.730469 268.496094 290.453125 271.21875 C 296.179688 273.941406 303.027344 271.507812 305.75 265.785156 C 308.472656 260.0625 306.042969 253.214844 300.316406 250.488281 Z M 300.316406 250.488281 " clip-rule="nonzero"/></clipPath><clipPath id="31cd90d38e"><path d="M 347 200 L 371 200 L 371 224 L 347 224 Z M 347 200 " clip-rule="nonzero"/></clipPath><clipPath id="03d0dfd644"><path d="M 345.726562 202.816406 L 368.292969 198.609375 L 372.496094 221.175781 L 349.929688 225.382812 Z M 345.726562 202.816406 " clip-rule="nonzero"/></clipPath><clipPath id="aca3d4d2a2"><path d="M 357.007812 200.714844 C 350.777344 201.875 346.667969 207.867188 347.828125 214.101562 C 348.988281 220.332031 354.984375 224.441406 361.214844 223.28125 C 367.445312 222.117188 371.554688 216.125 370.394531 209.894531 C 369.234375 203.660156 363.238281 199.550781 357.007812 200.714844 Z M 357.007812 200.714844 " clip-rule="nonzero"/></clipPath><clipPath id="dd03049f07"><path d="M 450 271 L 474 271 L 474 295 L 450 295 Z M 450 271 " clip-rule="nonzero"/></clipPath><clipPath id="766ada0580"><path d="M 448.351562 273.40625 L 470.917969 269.199219 L 475.125 291.765625 L 452.558594 295.972656 Z M 448.351562 273.40625 " clip-rule="nonzero"/></clipPath><clipPath id="1de484ff93"><path d="M 459.636719 271.304688 C 453.402344 272.464844 449.292969 278.457031 450.457031 284.691406 C 451.617188 290.921875 457.609375 295.03125 463.84375 293.871094 C 470.074219 292.707031 474.183594 286.714844 473.023438 280.484375 C 471.859375 274.253906 465.867188 270.140625 459.636719 271.304688 Z M 459.636719 271.304688 " clip-rule="nonzero"/></clipPath><clipPath id="0d90c5876c"><path d="M 379 373 L 403 373 L 403 397 L 379 397 Z M 379 373 " clip-rule="nonzero"/></clipPath><clipPath id="1837a1fabc"><path d="M 378.046875 376.230469 L 400.613281 372.023438 L 404.820312 394.589844 L 382.253906 398.796875 Z M 378.046875 376.230469 " clip-rule="nonzero"/></clipPath><clipPath id="c236a44fd4"><path d="M 389.332031 374.125 C 383.097656 375.289062 378.988281 381.28125 380.152344 387.511719 C 381.3125 393.746094 387.304688 397.855469 393.539062 396.695312 C 399.769531 395.53125 403.878906 389.539062 402.71875 383.308594 C 401.554688 377.074219 395.5625 372.964844 389.332031 374.125 Z M 389.332031 374.125 " clip-rule="nonzero"/></clipPath><clipPath id="399ff4f5d8"><path d="M 276 303 L 300 303 L 300 327 L 276 327 Z M 276 303 " clip-rule="nonzero"/></clipPath><clipPath id="5440f7bbc6"><path d="M 274.9375 305.730469 L 297.503906 301.523438 L 301.710938 324.089844 L 279.144531 328.296875 Z M 274.9375 305.730469 " clip-rule="nonzero"/></clipPath><clipPath id="4c687fa8b7"><path d="M 286.222656 303.625 C 279.992188 304.789062 275.878906 310.78125 277.042969 317.011719 C 278.203125 323.246094 284.195312 327.355469 290.429688 326.191406 C 296.660156 325.03125 300.769531 319.039062 299.609375 312.804688 C 298.449219 306.574219 292.453125 302.464844 286.222656 303.625 Z M 286.222656 303.625 " clip-rule="nonzero"/></clipPath><clipPath id="2ed0ca5b12"><path d="M 299 226 L 323 226 L 323 250 L 299 250 Z M 299 226 " clip-rule="nonzero"/></clipPath><clipPath id="ae0e4aa9d9"><path d="M 294.578125 238.683594 L 310.339844 221.992188 L 327.03125 237.753906 L 311.269531 254.445312 Z M 294.578125 238.683594 " clip-rule="nonzero"/></clipPath><clipPath id="a8ddcc6eb9"><path d="M 302.460938 230.335938 C 298.105469 234.945312 298.316406 242.210938 302.921875 246.5625 C 307.53125 250.914062 314.796875 250.707031 319.148438 246.097656 C 323.5 241.492188 323.292969 234.226562 318.683594 229.875 C 314.078125 225.519531 306.8125 225.730469 302.460938 230.335938 Z M 302.460938 230.335938 " clip-rule="nonzero"/></clipPath><clipPath id="566370f9da"><path d="M 423 223 L 447 223 L 447 247 L 423 247 Z M 423 223 " clip-rule="nonzero"/></clipPath><clipPath id="f760415355"><path d="M 419.09375 235.296875 L 434.855469 218.609375 L 451.542969 234.371094 L 435.78125 251.058594 Z M 419.09375 235.296875 " clip-rule="nonzero"/></clipPath><clipPath id="08a2ad58cd"><path d="M 426.976562 226.953125 C 422.621094 231.5625 422.828125 238.828125 427.4375 243.179688 C 432.046875 247.53125 439.3125 247.324219 443.664062 242.714844 C 448.015625 238.105469 447.808594 230.84375 443.199219 226.488281 C 438.589844 222.136719 431.328125 222.34375 426.976562 226.953125 Z M 426.976562 226.953125 " clip-rule="nonzero"/></clipPath><clipPath id="8ab227a4ae"><path d="M 427 347 L 451 347 L 451 371 L 427 371 Z M 427 347 " clip-rule="nonzero"/></clipPath><clipPath id="aea1db60bc"><path d="M 422.824219 359.804688 L 438.585938 343.113281 L 455.273438 358.875 L 439.511719 375.566406 Z M 422.824219 359.804688 " clip-rule="nonzero"/></clipPath><clipPath id="03e620eb12"><path d="M 430.703125 351.457031 C 426.351562 356.066406 426.558594 363.332031 431.167969 367.683594 C 435.777344 372.035156 443.039062 371.828125 447.394531 367.21875 C 451.746094 362.613281 451.539062 355.347656 446.929688 350.996094 C 442.320312 346.640625 435.058594 346.851562 430.703125 351.457031 Z M 430.703125 351.457031 " clip-rule="nonzero"/></clipPath><clipPath id="d89c70e0ef"><path d="M 302 351 L 326 351 L 326 375 L 302 375 Z M 302 351 " clip-rule="nonzero"/></clipPath><clipPath id="e6d03e76a3"><path d="M 297.972656 363.542969 L 313.734375 346.855469 L 330.421875 362.617188 L 314.660156 379.304688 Z M 297.972656 363.542969 " clip-rule="nonzero"/></clipPath><clipPath id="4559f73788"><path d="M 305.851562 355.199219 C 301.5 359.808594 301.707031 367.070312 306.316406 371.421875 C 310.925781 375.777344 318.191406 375.570312 322.542969 370.960938 C 326.894531 366.351562 326.6875 359.085938 322.078125 354.734375 C 317.46875 350.382812 310.207031 350.589844 305.851562 355.199219 Z M 305.851562 355.199219 " clip-rule="nonzero"/></clipPath><clipPath id="dc0bfaab23"><path d="M 321 209 L 344 209 L 344 233 L 321 233 Z M 321 209 " clip-rule="nonzero"/></clipPath><clipPath id="a7490d5402"><path d="M 316.9375 216.695312 L 337.085938 205.691406 L 348.089844 225.839844 L 327.941406 236.84375 Z M 316.9375 216.695312 " clip-rule="nonzero"/></clipPath><clipPath id="00f0fcc320"><path d="M 327.011719 211.195312 C 321.449219 214.234375 319.402344 221.207031 322.441406 226.769531 C 325.480469 232.332031 332.453125 234.378906 338.015625 231.339844 C 343.578125 228.300781 345.625 221.328125 342.585938 215.765625 C 339.546875 210.203125 332.574219 208.15625 327.011719 211.195312 Z M 327.011719 211.195312 " clip-rule="nonzero"/></clipPath><clipPath id="606d4a3176"><path d="M 440 245 L 464 245 L 464 268 L 440 268 Z M 440 245 " clip-rule="nonzero"/></clipPath><clipPath id="59a0680c10"><path d="M 436.410156 251.9375 L 456.554688 240.933594 L 467.5625 261.078125 L 447.414062 272.082031 Z M 436.410156 251.9375 " clip-rule="nonzero"/></clipPath><clipPath id="cd866241cc"><path d="M 446.484375 246.433594 C 440.921875 249.472656 438.875 256.449219 441.914062 262.011719 C 444.953125 267.574219 451.925781 269.621094 457.488281 266.582031 C 463.050781 263.542969 465.097656 256.570312 462.058594 251.007812 C 459.019531 245.441406 452.046875 243.398438 446.484375 246.433594 Z M 446.484375 246.433594 " clip-rule="nonzero"/></clipPath><clipPath id="9014a341c0"><path d="M 405 364 L 429 364 L 429 388 L 405 388 Z M 405 364 " clip-rule="nonzero"/></clipPath><clipPath id="f5a560e756"><path d="M 401.5 371.507812 L 421.648438 360.503906 L 432.652344 380.648438 L 412.507812 391.652344 Z M 401.5 371.507812 " clip-rule="nonzero"/></clipPath><clipPath id="d3ccb86383"><path d="M 411.574219 366.003906 C 406.011719 369.042969 403.964844 376.015625 407.003906 381.578125 C 410.042969 387.144531 417.015625 389.1875 422.578125 386.152344 C 428.140625 383.113281 430.1875 376.136719 427.148438 370.574219 C 424.109375 365.011719 417.136719 362.964844 411.574219 366.003906 Z M 411.574219 366.003906 " clip-rule="nonzero"/></clipPath><clipPath id="9d10a7f8d8"><path d="M 285 329 L 309 329 L 309 353 L 285 353 Z M 285 329 " clip-rule="nonzero"/></clipPath><clipPath id="37e8f6e9c0"><path d="M 281.601562 336.5 L 301.746094 325.496094 L 312.75 345.640625 L 292.605469 356.648438 Z M 281.601562 336.5 " clip-rule="nonzero"/></clipPath><clipPath id="680ff0b9d2"><path d="M 291.671875 331 C 286.109375 334.039062 284.0625 341.011719 287.101562 346.574219 C 290.140625 352.136719 297.113281 354.183594 302.675781 351.144531 C 308.242188 348.105469 310.285156 341.132812 307.25 335.570312 C 304.210938 330.007812 297.234375 327.960938 291.671875 331 Z M 291.671875 331 " clip-rule="nonzero"/></clipPath></defs><g clip-path="url(#3c54227441)"><g clip-path="url(#68af23b4b2)"><g clip-path="url(#4f30bfebd1)"><path fill="#ffffff" d="M 333.828125 114.574219 L 376.820312 109.9375 L 381.457031 152.929688 L 338.464844 157.566406 Z M 333.828125 114.574219 " fill-opacity="1" fill-rule="nonzero"/></g></g></g><g clip-path="url(#1918312d2e)"><g clip-path="url(#6838777780)"><g clip-path="url(#271208fb79)"><path fill="#ffffff" d="M 516.375 261.996094 L 559.367188 257.359375 L 564.007812 300.355469 L 521.011719 304.992188 Z M 516.375 261.996094 " fill-opacity="1" fill-rule="nonzero"/></g></g></g><g clip-path="url(#3741810f99)"><g clip-path="url(#a16739ded6)"><g clip-path="url(#d5ddd840a1)"><path fill="#ffffff" d="M 369.457031 444.953125 L 412.453125 440.316406 L 417.089844 483.3125 L 374.09375 487.949219 Z M 369.457031 444.953125 " fill-opacity="1" fill-rule="nonzero"/></g></g></g><g clip-path="url(#1eefa8fb7b)"><g clip-path="url(#131e6a6787)"><g clip-path="url(#829ff388ee)"><path fill="#ffffff" d="M 185.996094 297.628906 L 228.988281 292.992188 L 233.625 335.984375 L 190.632812 340.621094 Z M 185.996094 297.628906 " fill-opacity="1" fill-rule="nonzero"/></g></g></g><g clip-path="url(#fe20376e91)"><g clip-path="url(#131335f174)"><g clip-path="url(#2188248638)"><path fill="#ffffff" d="M 392.753906 110.414062 L 435.078125 119.285156 L 426.207031 161.609375 L 383.882812 152.738281 Z M 392.753906 110.414062 " fill-opacity="1" fill-rule="nonzero"/></g></g></g><g clip-path="url(#d64c490c4d)"><g clip-path="url(#b8f7c090a4)"><g clip-path="url(#86559fe297)"><path fill="#ffffff" d="M 520.839844 307.015625 L 563.164062 315.882812 L 554.292969 358.207031 L 511.96875 349.339844 Z M 520.839844 307.015625 " fill-opacity="1" fill-rule="nonzero"/></g></g></g><g clip-path="url(#c2ae5f29e0)"><g clip-path="url(#9a105ac8fa)"><g clip-path="url(#cba9249afb)"><path fill="#ffffff" d="M 324.597656 435.648438 L 366.917969 444.515625 L 358.050781 486.839844 L 315.726562 477.972656 Z M 324.597656 435.648438 " fill-opacity="1" fill-rule="nonzero"/></g></g></g><g clip-path="url(#0026627baf)"><g clip-path="url(#a57bc0891f)"><g clip-path="url(#5b64d4d9fc)"><path fill="#ffffff" d="M 195.605469 238.859375 L 237.929688 247.726562 L 229.0625 290.050781 L 186.738281 281.179688 Z M 195.605469 238.859375 " fill-opacity="1" fill-rule="nonzero"/></g></g></g><g clip-path="url(#11f3a94cae)"><g clip-path="url(#6b00f5f27c)"><g clip-path="url(#7a7ba78e4b)"><path fill="#ffffff" d="M 278.769531 135.882812 L 318.222656 118.179688 L 335.925781 157.632812 L 296.472656 175.335938 Z M 278.769531 135.882812 " fill-opacity="1" fill-rule="nonzero"/></g></g></g><g clip-path="url(#e7dd3224aa)"><g clip-path="url(#67f2bbe339)"><g clip-path="url(#9a9db0b696)"><path fill="#ffffff" d="M 497.957031 219.636719 L 537.410156 201.929688 L 555.113281 241.382812 L 515.660156 259.089844 Z M 497.957031 219.636719 " fill-opacity="1" fill-rule="nonzero"/></g></g></g><g clip-path="url(#88157d61a7)"><g clip-path="url(#6f7abc8d51)"><g clip-path="url(#3feda6eb74)"><path fill="#ffffff" d="M 414.816406 439.054688 L 454.269531 421.351562 L 471.972656 460.804688 L 432.519531 478.507812 Z M 414.816406 439.054688 " fill-opacity="1" fill-rule="nonzero"/></g></g></g><g clip-path="url(#1bcb05f62c)"><g clip-path="url(#2359696ea9)"><g clip-path="url(#66cdc44404)"><path fill="#ffffff" d="M 194.785156 355.683594 L 234.238281 337.976562 L 251.945312 377.429688 L 212.492188 395.136719 Z M 194.785156 355.683594 " fill-opacity="1" fill-rule="nonzero"/></g></g></g><g clip-path="url(#9fc6bb34b6)"><g clip-path="url(#ded4d5e7b7)"><g clip-path="url(#d8f1313d8c)"><path fill="#ffffff" d="M 201.023438 224.226562 L 222.484375 186.683594 L 260.027344 208.144531 L 238.566406 245.6875 Z M 201.023438 224.226562 " fill-opacity="1" fill-rule="nonzero"/></g></g></g><g clip-path="url(#252ae0c8ce)"><g clip-path="url(#d179ac83b4)"><g clip-path="url(#9103c17a48)"><path fill="#ffffff" d="M 427.496094 162.835938 L 448.957031 125.296875 L 486.5 146.753906 L 465.039062 184.296875 Z M 427.496094 162.835938 " fill-opacity="1" fill-rule="nonzero"/></g></g></g><g clip-path="url(#896625ec7c)"><g clip-path="url(#ffbdaa201a)"><g clip-path="url(#0750c5ed94)"><path fill="#ffffff" d="M 489.511719 389.136719 L 510.972656 351.59375 L 548.515625 373.054688 L 527.054688 410.597656 Z M 489.511719 389.136719 " fill-opacity="1" fill-rule="nonzero"/></g></g></g><g clip-path="url(#84e25eba35)"><g clip-path="url(#983ccd5011)"><g clip-path="url(#6129efaa57)"><path fill="#ffffff" d="M 262.585938 451.324219 L 284.046875 413.785156 L 321.585938 435.242188 L 300.125 472.785156 Z M 262.585938 451.324219 " fill-opacity="1" fill-rule="nonzero"/></g></g></g><g clip-path="url(#5606d18849)"><g clip-path="url(#0cd0800a4f)"><g clip-path="url(#e34c9794be)"><path fill="#ffffff" d="M 232.21875 174.058594 L 264.222656 144.984375 L 293.300781 176.988281 L 261.296875 206.066406 Z M 232.21875 174.058594 " fill-opacity="1" fill-rule="nonzero"/></g></g></g><g clip-path="url(#5fdaffca1b)"><g clip-path="url(#966b34e376)"><g clip-path="url(#d798c12304)"><path fill="#ffffff" d="M 466.578125 185.625 L 498.582031 156.546875 L 527.660156 188.554688 L 495.652344 217.632812 Z M 466.578125 185.625 " fill-opacity="1" fill-rule="nonzero"/></g></g></g><g clip-path="url(#22769c0547)"><g clip-path="url(#a5cd304d07)"><g clip-path="url(#624e3141f2)"><path fill="#ffffff" d="M 455.664062 420.015625 L 487.671875 390.9375 L 516.746094 422.945312 L 484.742188 452.019531 Z M 455.664062 420.015625 " fill-opacity="1" fill-rule="nonzero"/></g></g></g><g clip-path="url(#72bd133b02)"><g clip-path="url(#05b2def762)"><g clip-path="url(#95307265da)"><path fill="#ffffff" d="M 220.621094 409.070312 L 252.628906 379.992188 L 281.707031 412 L 249.699219 441.078125 Z M 220.621094 409.070312 " fill-opacity="1" fill-rule="nonzero"/></g></g></g><g clip-path="url(#0f4013eb80)"><g clip-path="url(#04deef4b02)"><path fill="#ffffff" d="M 359.226562 159.027344 L 391.460938 159.027344 L 391.460938 191.257812 L 359.226562 191.257812 Z M 359.226562 159.027344 " fill-opacity="1" fill-rule="nonzero"/></g></g><g clip-path="url(#b2e909ddf0)"><g clip-path="url(#2fbc348ec5)"><path fill="#ffffff" d="M 482.730469 282.875 L 514.964844 282.875 L 514.964844 315.109375 L 482.730469 315.109375 Z M 482.730469 282.875 " fill-opacity="1" fill-rule="nonzero"/></g></g><g clip-path="url(#ed76c67775)"><g clip-path="url(#a64a59d03e)"><path fill="#ffffff" d="M 359.226562 406.722656 L 391.460938 406.722656 L 391.460938 438.957031 L 359.226562 438.957031 Z M 359.226562 406.722656 " fill-opacity="1" fill-rule="nonzero"/></g></g><g clip-path="url(#1542538348)"><g clip-path="url(#c08deba441)"><path fill="#ffffff" d="M 235.035156 282.875 L 267.269531 282.875 L 267.269531 315.109375 L 235.035156 315.109375 Z M 235.035156 282.875 " fill-opacity="1" fill-rule="nonzero"/></g></g><g clip-path="url(#ae7c251330)"><g clip-path="url(#68187da738)"><g clip-path="url(#5b81a405a4)"><path fill="#ffffff" d="M 403.230469 160.65625 L 433.886719 170.609375 L 423.929688 201.269531 L 393.273438 191.3125 Z M 403.230469 160.65625 " fill-opacity="1" fill-rule="nonzero"/></g></g></g><g clip-path="url(#fcbb0ed4e0)"><g clip-path="url(#4254e9d9e1)"><g clip-path="url(#ffe5471a2e)"><path fill="#ffffff" d="M 482.441406 316.59375 L 513.097656 326.550781 L 503.144531 357.207031 L 472.484375 347.253906 Z M 482.441406 316.59375 " fill-opacity="1" fill-rule="nonzero"/></g></g></g><g clip-path="url(#07c66b50e3)"><g clip-path="url(#1fb5bf5903)"><g clip-path="url(#842bb272ed)"><path fill="#ffffff" d="M 326.722656 396.242188 L 357.378906 406.195312 L 347.421875 436.855469 L 316.765625 426.898438 Z M 326.722656 396.242188 " fill-opacity="1" fill-rule="nonzero"/></g></g></g><g clip-path="url(#600ebc0554)"><g clip-path="url(#efc4bf09d9)"><g clip-path="url(#25cf309a58)"><path fill="#ffffff" d="M 246.855469 240.089844 L 277.511719 250.042969 L 267.558594 280.703125 L 236.898438 270.746094 Z M 246.855469 240.089844 " fill-opacity="1" fill-rule="nonzero"/></g></g></g><g clip-path="url(#b6122b055e)"><g clip-path="url(#a1ed454dd7)"><g clip-path="url(#6ae79e39d5)"><path fill="#ffffff" d="M 316.71875 170.417969 L 347.375 160.453125 L 357.339844 191.105469 L 326.6875 201.074219 Z M 316.71875 170.417969 " fill-opacity="1" fill-rule="nonzero"/></g></g></g><g clip-path="url(#d2d1fe6e73)"><g clip-path="url(#b257f88aef)"><g clip-path="url(#a399afea90)"><path fill="#ffffff" d="M 472.46875 250.007812 L 503.121094 240.039062 L 513.089844 270.691406 L 482.4375 280.660156 Z M 472.46875 250.007812 " fill-opacity="1" fill-rule="nonzero"/></g></g></g><g clip-path="url(#9900b60810)"><g clip-path="url(#c240255066)"><g clip-path="url(#1052506d97)"><path fill="#ffffff" d="M 393.3125 405.976562 L 423.96875 396.007812 L 433.933594 426.664062 L 403.28125 436.628906 Z M 393.3125 405.976562 " fill-opacity="1" fill-rule="nonzero"/></g></g></g><g clip-path="url(#871fdec796)"><g clip-path="url(#9cdae82431)"><g clip-path="url(#e73203d4df)"><path fill="#ffffff" d="M 236.910156 326.601562 L 267.566406 316.632812 L 277.53125 347.289062 L 246.878906 357.253906 Z M 236.910156 326.601562 " fill-opacity="1" fill-rule="nonzero"/></g></g></g><g clip-path="url(#00f8e63a79)"><g clip-path="url(#aba6346595)"><g clip-path="url(#6bc15d45b0)"><path fill="#ffffff" d="M 252.042969 229.671875 L 270.945312 203.566406 L 297.054688 222.472656 L 278.148438 248.578125 Z M 252.042969 229.671875 " fill-opacity="1" fill-rule="nonzero"/></g></g></g><g clip-path="url(#b4c9151ca7)"><g clip-path="url(#5aaca477b4)"><g clip-path="url(#b86b565cff)"><path fill="#ffffff" d="M 424.789062 202.28125 L 443.695312 176.171875 L 469.800781 195.078125 L 450.894531 221.183594 Z M 424.789062 202.28125 " fill-opacity="1" fill-rule="nonzero"/></g></g></g><g clip-path="url(#5e9c605fb3)"><g clip-path="url(#85bcd9f628)"><g clip-path="url(#deb06f23a8)"><path fill="#ffffff" d="M 452.664062 374.949219 L 471.566406 348.84375 L 497.675781 367.746094 L 478.769531 393.855469 Z M 452.664062 374.949219 " fill-opacity="1" fill-rule="nonzero"/></g></g></g><g clip-path="url(#881d990fb7)"><g clip-path="url(#62d0986e15)"><g clip-path="url(#71b0988e58)"><path fill="#ffffff" d="M 279.511719 402.902344 L 298.417969 376.792969 L 324.527344 395.699219 L 305.621094 421.804688 Z M 279.511719 402.902344 " fill-opacity="1" fill-rule="nonzero"/></g></g></g><g clip-path="url(#6391fcf6af)"><g clip-path="url(#1132f38162)"><g clip-path="url(#1cf4ff726c)"><path fill="#ffffff" d="M 279.167969 194.988281 L 305.214844 176 L 324.203125 202.042969 L 298.160156 221.035156 Z M 279.167969 194.988281 " fill-opacity="1" fill-rule="nonzero"/></g></g></g><g clip-path="url(#aac4682ec3)"><g clip-path="url(#bd2c09ace6)"><g clip-path="url(#df463028c1)"><path fill="#ffffff" d="M 451.929688 222.292969 L 477.976562 203.300781 L 496.964844 229.34375 L 470.921875 248.335938 Z M 451.929688 222.292969 " fill-opacity="1" fill-rule="nonzero"/></g></g></g><g clip-path="url(#dff2f2f4b6)"><g clip-path="url(#569e47094c)"><g clip-path="url(#42aa8a477c)"><path fill="#ffffff" d="M 425.109375 395.128906 L 451.152344 376.136719 L 470.144531 402.183594 L 444.101562 421.171875 Z M 425.109375 395.128906 " fill-opacity="1" fill-rule="nonzero"/></g></g></g><g clip-path="url(#0e2c7f354b)"><g clip-path="url(#96dd17dc68)"><g clip-path="url(#398ed58fb6)"><path fill="#ffffff" d="M 251.792969 368.230469 L 277.835938 349.238281 L 296.828125 375.285156 L 270.78125 394.277344 Z M 251.792969 368.230469 " fill-opacity="1" fill-rule="nonzero"/></g></g></g><g clip-path="url(#1a65df979a)"><g clip-path="url(#97f9345310)"><g clip-path="url(#037488d63b)"><path fill="#ffffff" d="M 376.792969 198.699219 L 399.554688 201.675781 L 396.578125 224.4375 L 373.816406 221.460938 Z M 376.792969 198.699219 " fill-opacity="1" fill-rule="nonzero"/></g></g></g><g clip-path="url(#62d6c4f600)"><g clip-path="url(#a6c5887f39)"><g clip-path="url(#c6d51475b2)"><path fill="#ffffff" d="M 452.5625 297.566406 L 475.324219 300.542969 L 472.347656 323.304688 L 449.585938 320.324219 Z M 452.5625 297.566406 " fill-opacity="1" fill-rule="nonzero"/></g></g></g><g clip-path="url(#fcba6be4c0)"><g clip-path="url(#8a45e0e3ba)"><g clip-path="url(#5d37325e37)"><path fill="#ffffff" d="M 353.90625 373.609375 L 376.667969 376.585938 L 373.691406 399.347656 L 350.929688 396.371094 Z M 353.90625 373.609375 " fill-opacity="1" fill-rule="nonzero"/></g></g></g><g clip-path="url(#9e25f2c143)"><g clip-path="url(#c840e6c084)"><g clip-path="url(#00f8b164bb)"><path fill="#ffffff" d="M 277.652344 274.679688 L 300.414062 277.65625 L 297.4375 300.417969 L 274.675781 297.441406 Z M 277.652344 274.679688 " fill-opacity="1" fill-rule="nonzero"/></g></g></g><g clip-path="url(#c8a700a1e3)"><g clip-path="url(#0a58dd7be5)"><g clip-path="url(#0ddd110695)"><path fill="#ffffff" d="M 407.714844 203.914062 L 428.441406 213.777344 L 418.578125 234.507812 L 397.851562 224.644531 Z M 407.714844 203.914062 " fill-opacity="1" fill-rule="nonzero"/></g></g></g><g clip-path="url(#b82d2b0b85)"><g clip-path="url(#0c23593b15)"><g clip-path="url(#e968663708)"><path fill="#ffffff" d="M 449.242188 321.347656 L 469.96875 331.210938 L 460.105469 351.941406 L 439.378906 342.078125 Z M 449.242188 321.347656 " fill-opacity="1" fill-rule="nonzero"/></g></g></g><g clip-path="url(#0e83891044)"><g clip-path="url(#5cd522f2d0)"><g clip-path="url(#e3549e7ec8)"><path fill="#ffffff" d="M 331.921875 363.203125 L 352.652344 373.066406 L 342.789062 393.792969 L 322.058594 383.933594 Z M 331.921875 363.203125 " fill-opacity="1" fill-rule="nonzero"/></g></g></g><g clip-path="url(#ce0cdc877e)"><g clip-path="url(#c8ec3e2315)"><g clip-path="url(#228c05172f)"><path fill="#ffffff" d="M 289.953125 245.558594 L 310.683594 255.421875 L 300.820312 276.148438 L 280.089844 266.285156 Z M 289.953125 245.558594 " fill-opacity="1" fill-rule="nonzero"/></g></g></g><g clip-path="url(#31cd90d38e)"><g clip-path="url(#03d0dfd644)"><g clip-path="url(#aca3d4d2a2)"><path fill="#ffffff" d="M 345.726562 202.816406 L 368.292969 198.609375 L 372.496094 221.175781 L 349.929688 225.382812 Z M 345.726562 202.816406 " fill-opacity="1" fill-rule="nonzero"/></g></g></g><g clip-path="url(#dd03049f07)"><g clip-path="url(#766ada0580)"><g clip-path="url(#1de484ff93)"><path fill="#ffffff" d="M 448.351562 273.40625 L 470.917969 269.199219 L 475.125 291.765625 L 452.558594 295.972656 Z M 448.351562 273.40625 " fill-opacity="1" fill-rule="nonzero"/></g></g></g><g clip-path="url(#0d90c5876c)"><g clip-path="url(#1837a1fabc)"><g clip-path="url(#c236a44fd4)"><path fill="#ffffff" d="M 378.046875 376.230469 L 400.613281 372.023438 L 404.820312 394.589844 L 382.253906 398.796875 Z M 378.046875 376.230469 " fill-opacity="1" fill-rule="nonzero"/></g></g></g><g clip-path="url(#399ff4f5d8)"><g clip-path="url(#5440f7bbc6)"><g clip-path="url(#4c687fa8b7)"><path fill="#ffffff" d="M 274.9375 305.730469 L 297.503906 301.523438 L 301.710938 324.089844 L 279.144531 328.296875 Z M 274.9375 305.730469 " fill-opacity="1" fill-rule="nonzero"/></g></g></g><g clip-path="url(#2ed0ca5b12)"><g clip-path="url(#ae0e4aa9d9)"><g clip-path="url(#a8ddcc6eb9)"><path fill="#ffffff" d="M 294.578125 238.683594 L 310.339844 221.992188 L 327.03125 237.753906 L 311.269531 254.445312 Z M 294.578125 238.683594 " fill-opacity="1" fill-rule="nonzero"/></g></g></g><g clip-path="url(#566370f9da)"><g clip-path="url(#f760415355)"><g clip-path="url(#08a2ad58cd)"><path fill="#ffffff" d="M 419.09375 235.296875 L 434.855469 218.609375 L 451.542969 234.371094 L 435.78125 251.058594 Z M 419.09375 235.296875 " fill-opacity="1" fill-rule="nonzero"/></g></g></g><g clip-path="url(#8ab227a4ae)"><g clip-path="url(#aea1db60bc)"><g clip-path="url(#03e620eb12)"><path fill="#ffffff" d="M 422.824219 359.804688 L 438.585938 343.113281 L 455.273438 358.875 L 439.511719 375.566406 Z M 422.824219 359.804688 " fill-opacity="1" fill-rule="nonzero"/></g></g></g><g clip-path="url(#d89c70e0ef)"><g clip-path="url(#e6d03e76a3)"><g clip-path="url(#4559f73788)"><path fill="#ffffff" d="M 297.972656 363.542969 L 313.734375 346.855469 L 330.421875 362.617188 L 314.660156 379.304688 Z M 297.972656 363.542969 " fill-opacity="1" fill-rule="nonzero"/></g></g></g><g clip-path="url(#dc0bfaab23)"><g clip-path="url(#a7490d5402)"><g clip-path="url(#00f0fcc320)"><path fill="#ffffff" d="M 316.9375 216.695312 L 337.085938 205.691406 L 348.089844 225.839844 L 327.941406 236.84375 Z M 316.9375 216.695312 " fill-opacity="1" fill-rule="nonzero"/></g></g></g><g clip-path="url(#606d4a3176)"><g clip-path="url(#59a0680c10)"><g clip-path="url(#cd866241cc)"><path fill="#ffffff" d="M 436.410156 251.9375 L 456.554688 240.933594 L 467.5625 261.078125 L 447.414062 272.082031 Z M 436.410156 251.9375 " fill-opacity="1" fill-rule="nonzero"/></g></g></g><g clip-path="url(#9014a341c0)"><g clip-path="url(#f5a560e756)"><g clip-path="url(#d3ccb86383)"><path fill="#ffffff" d="M 401.5 371.507812 L 421.648438 360.503906 L 432.652344 380.648438 L 412.507812 391.652344 Z M 401.5 371.507812 " fill-opacity="1" fill-rule="nonzero"/></g></g></g><g clip-path="url(#9d10a7f8d8)"><g clip-path="url(#37e8f6e9c0)"><g clip-path="url(#680ff0b9d2)"><path fill="#ffffff" d="M 281.601562 336.5 L 301.746094 325.496094 L 312.75 345.640625 L 292.605469 356.648438 Z M 281.601562 336.5 " fill-opacity="1" fill-rule="nonzero"/></g></g></g><g fill="#ffffff" fill-opacity="1"><g transform="translate(71.620141, 596.876703)"><g><path d="M 47.953125 0 L 42.5 0 L 42.5 -10.890625 L 12.046875 -10.890625 L 12.046875 -16.34375 L 42.5 -16.34375 L 42.5 -32.6875 L 22.9375 -32.6875 C 20.46875 -32.6875 18.195312 -32.078125 16.125 -30.859375 C 14.050781 -29.648438 12.40625 -28.007812 11.1875 -25.9375 C 9.976562 -23.863281 9.375 -21.570312 9.375 -19.0625 L 9.375 0 L 3.921875 0 L 3.921875 -19.0625 C 3.921875 -21.6875 4.410156 -24.148438 5.390625 -26.453125 C 6.367188 -28.753906 7.726562 -30.785156 9.46875 -32.546875 C 11.21875 -34.316406 13.242188 -35.691406 15.546875 -36.671875 C 17.859375 -37.648438 20.320312 -38.140625 22.9375 -38.140625 L 47.953125 -38.140625 Z M 47.953125 0 "/></g></g></g><g fill="#ffffff" fill-opacity="1"><g transform="translate(125.224517, 596.876703)"><g><path d="M 41.03125 0 L 4.578125 0 L 4.578125 -38.140625 L 10.03125 -38.140625 L 10.03125 -5.453125 L 41.03125 -5.453125 Z M 41.03125 0 "/></g></g></g><g fill="#ffffff" fill-opacity="1"><g transform="translate(167.879309, 596.876703)"><g><path d="M 41.03125 0 L 4.578125 0 L 4.578125 -38.140625 L 10.03125 -38.140625 L 10.03125 -5.453125 L 41.03125 -5.453125 Z M 41.03125 0 "/></g></g></g><g fill="#ffffff" fill-opacity="1"><g transform="translate(210.534102, 596.876703)"><g/></g></g><g fill="#ffffff" fill-opacity="1"><g transform="translate(232.052426, 596.876703)"><g><path d="M 44.515625 0 L 19.9375 0 C 17.289062 0 14.894531 -0.488281 12.75 -1.46875 C 10.601562 -2.445312 8.757812 -3.804688 7.21875 -5.546875 C 5.675781 -7.296875 4.484375 -9.320312 3.640625 -11.625 C 2.804688 -13.9375 2.390625 -16.414062 2.390625 -19.0625 C 2.390625 -21.6875 2.804688 -24.148438 3.640625 -26.453125 C 4.484375 -28.753906 5.675781 -30.785156 7.21875 -32.546875 C 8.757812 -34.316406 10.601562 -35.691406 12.75 -36.671875 C 14.894531 -37.648438 17.289062 -38.140625 19.9375 -38.140625 L 44.515625 -38.140625 L 44.515625 -32.6875 L 19.9375 -32.6875 C 17.4375 -32.6875 15.285156 -32.078125 13.484375 -30.859375 C 11.679688 -29.648438 10.289062 -28.007812 9.3125 -25.9375 C 8.332031 -23.863281 7.84375 -21.570312 7.84375 -19.0625 C 7.84375 -16.5625 8.332031 -14.285156 9.3125 -12.234375 C 10.289062 -10.179688 11.679688 -8.535156 13.484375 -7.296875 C 15.285156 -6.066406 17.4375 -5.453125 19.9375 -5.453125 L 44.515625 -5.453125 Z M 44.515625 0 "/></g></g></g><g fill="#ffffff" fill-opacity="1"><g transform="translate(279.66449, 596.876703)"><g><path d="M 50.125 -19.0625 C 50.125 -16.414062 49.707031 -13.9375 48.875 -11.625 C 48.039062 -9.320312 46.847656 -7.296875 45.296875 -5.546875 C 43.753906 -3.804688 41.910156 -2.445312 39.765625 -1.46875 C 37.628906 -0.488281 35.253906 0 32.640625 0 L 19.9375 0 C 17.289062 0 14.894531 -0.488281 12.75 -1.46875 C 10.601562 -2.445312 8.757812 -3.804688 7.21875 -5.546875 C 5.675781 -7.296875 4.484375 -9.320312 3.640625 -11.625 C 2.804688 -13.9375 2.390625 -16.414062 2.390625 -19.0625 C 2.390625 -21.6875 2.804688 -24.148438 3.640625 -26.453125 C 4.484375 -28.753906 5.675781 -30.785156 7.21875 -32.546875 C 8.757812 -34.316406 10.601562 -35.691406 12.75 -36.671875 C 14.894531 -37.648438 17.289062 -38.140625 19.9375 -38.140625 L 32.640625 -38.140625 C 35.253906 -38.140625 37.628906 -37.648438 39.765625 -36.671875 C 41.910156 -35.691406 43.753906 -34.316406 45.296875 -32.546875 C 46.847656 -30.785156 48.039062 -28.753906 48.875 -26.453125 C 49.707031 -24.148438 50.125 -21.6875 50.125 -19.0625 Z M 44.671875 -19.0625 C 44.671875 -21.570312 44.191406 -23.863281 43.234375 -25.9375 C 42.273438 -28.007812 40.894531 -29.648438 39.09375 -30.859375 C 37.289062 -32.078125 35.140625 -32.6875 32.640625 -32.6875 L 19.9375 -32.6875 C 17.4375 -32.6875 15.285156 -32.078125 13.484375 -30.859375 C 11.679688 -29.648438 10.289062 -28.007812 9.3125 -25.9375 C 8.332031 -23.863281 7.84375 -21.570312 7.84375 -19.0625 C 7.84375 -16.5625 8.332031 -14.285156 9.3125 -12.234375 C 10.289062 -10.179688 11.679688 -8.535156 13.484375 -7.296875 C 15.285156 -6.066406 17.4375 -5.453125 19.9375 -5.453125 L 32.640625 -5.453125 C 35.140625 -5.453125 37.289062 -6.066406 39.09375 -7.296875 C 40.894531 -8.535156 42.273438 -10.179688 43.234375 -12.234375 C 44.191406 -14.285156 44.671875 -16.5625 44.671875 -19.0625 Z M 44.671875 -19.0625 "/></g></g></g><g fill="#ffffff" fill-opacity="1"><g transform="translate(333.268866, 596.876703)"><g><path d="M 10.03125 0 L 4.578125 0 L 4.578125 -38.140625 L 7.296875 -38.140625 C 9.953125 -38.140625 12.832031 -37.628906 15.9375 -36.609375 C 19.039062 -35.597656 22.15625 -34.164062 25.28125 -32.3125 C 28.40625 -30.457031 31.351562 -28.25 34.125 -25.6875 C 36.90625 -23.125 39.296875 -20.28125 41.296875 -17.15625 L 41.296875 -38.140625 L 46.75 -38.140625 L 46.75 0 L 41.296875 0 C 41.296875 -3.34375 40.613281 -6.546875 39.25 -9.609375 C 37.894531 -12.679688 36.085938 -15.515625 33.828125 -18.109375 C 31.578125 -20.710938 29.082031 -23.019531 26.34375 -25.03125 C 23.601562 -27.050781 20.816406 -28.703125 17.984375 -29.984375 C 15.148438 -31.273438 12.5 -32.101562 10.03125 -32.46875 Z M 10.03125 0 "/></g></g></g><g fill="#ffffff" fill-opacity="1"><g transform="translate(385.674763, 596.876703)"><g><path d="M 10.03125 0 L 4.578125 0 L 4.578125 -38.140625 L 7.296875 -38.140625 C 9.953125 -38.140625 12.832031 -37.628906 15.9375 -36.609375 C 19.039062 -35.597656 22.15625 -34.164062 25.28125 -32.3125 C 28.40625 -30.457031 31.351562 -28.25 34.125 -25.6875 C 36.90625 -23.125 39.296875 -20.28125 41.296875 -17.15625 L 41.296875 -38.140625 L 46.75 -38.140625 L 46.75 0 L 41.296875 0 C 41.296875 -3.34375 40.613281 -6.546875 39.25 -9.609375 C 37.894531 -12.679688 36.085938 -15.515625 33.828125 -18.109375 C 31.578125 -20.710938 29.082031 -23.019531 26.34375 -25.03125 C 23.601562 -27.050781 20.816406 -28.703125 17.984375 -29.984375 C 15.148438 -31.273438 12.5 -32.101562 10.03125 -32.46875 Z M 10.03125 0 "/></g></g></g><g fill="#ffffff" fill-opacity="1"><g transform="translate(438.080641, 596.876703)"><g><path d="M 44.015625 0 L 4.578125 0 L 4.578125 -38.140625 L 44.015625 -38.140625 L 44.015625 -32.6875 L 10.03125 -32.6875 L 10.03125 -5.453125 L 44.015625 -5.453125 Z M 39.390625 -16.34375 L 12.75 -16.34375 L 12.75 -21.796875 L 39.390625 -21.796875 Z M 39.390625 -16.34375 "/></g></g></g><g fill="#ffffff" fill-opacity="1"><g transform="translate(485.36587, 596.876703)"><g><path d="M 44.515625 0 L 19.9375 0 C 17.289062 0 14.894531 -0.488281 12.75 -1.46875 C 10.601562 -2.445312 8.757812 -3.804688 7.21875 -5.546875 C 5.675781 -7.296875 4.484375 -9.320312 3.640625 -11.625 C 2.804688 -13.9375 2.390625 -16.414062 2.390625 -19.0625 C 2.390625 -21.6875 2.804688 -24.148438 3.640625 -26.453125 C 4.484375 -28.753906 5.675781 -30.785156 7.21875 -32.546875 C 8.757812 -34.316406 10.601562 -35.691406 12.75 -36.671875 C 14.894531 -37.648438 17.289062 -38.140625 19.9375 -38.140625 L 44.515625 -38.140625 L 44.515625 -32.6875 L 19.9375 -32.6875 C 17.4375 -32.6875 15.285156 -32.078125 13.484375 -30.859375 C 11.679688 -29.648438 10.289062 -28.007812 9.3125 -25.9375 C 8.332031 -23.863281 7.84375 -21.570312 7.84375 -19.0625 C 7.84375 -16.5625 8.332031 -14.285156 9.3125 -12.234375 C 10.289062 -10.179688 11.679688 -8.535156 13.484375 -7.296875 C 15.285156 -6.066406 17.4375 -5.453125 19.9375 -5.453125 L 44.515625 -5.453125 Z M 44.515625 0 "/></g></g></g><g fill="#ffffff" fill-opacity="1"><g transform="translate(532.977934, 596.876703)"><g><path d="M 25.28125 0 L 19.828125 0 L 19.828125 -32.6875 L 0.546875 -32.6875 L 0.546875 -38.140625 L 44.5625 -38.140625 L 44.5625 -32.6875 L 25.28125 -32.6875 Z M 25.28125 0 "/></g></g></g><g fill="#ffffff" fill-opacity="1"><g transform="translate(579.17363, 596.876703)"><g><path d="M 44.015625 0 L 4.578125 0 L 4.578125 -38.140625 L 44.015625 -38.140625 L 44.015625 -32.6875 L 10.03125 -32.6875 L 10.03125 -5.453125 L 44.015625 -5.453125 Z M 39.390625 -16.34375 L 12.75 -16.34375 L 12.75 -21.796875 L 39.390625 -21.796875 Z M 39.390625 -16.34375 "/></g></g></g><g fill="#ffffff" fill-opacity="1"><g transform="translate(626.458859, 596.876703)"><g><path d="M 49.53125 -19.0625 C 49.53125 -16.414062 49.109375 -13.9375 48.265625 -11.625 C 47.429688 -9.320312 46.242188 -7.296875 44.703125 -5.546875 C 43.160156 -3.804688 41.304688 -2.445312 39.140625 -1.46875 C 36.984375 -0.488281 34.597656 0 31.984375 0 L 12.75 0 L 12.75 -5.453125 L 31.984375 -5.453125 C 34.484375 -5.453125 36.640625 -6.066406 38.453125 -7.296875 C 40.273438 -8.535156 41.664062 -10.179688 42.625 -12.234375 C 43.59375 -14.285156 44.078125 -16.5625 44.078125 -19.0625 C 44.078125 -21.570312 43.59375 -23.863281 42.625 -25.9375 C 41.664062 -28.007812 40.273438 -29.648438 38.453125 -30.859375 C 36.640625 -32.078125 34.484375 -32.6875 31.984375 -32.6875 L 10.03125 -32.6875 L 10.03125 0 L 4.578125 0 L 4.578125 -38.140625 L 31.984375 -38.140625 C 34.597656 -38.140625 36.984375 -37.648438 39.140625 -36.671875 C 41.304688 -35.691406 43.160156 -34.316406 44.703125 -32.546875 C 46.242188 -30.785156 47.429688 -28.753906 48.265625 -26.453125 C 49.109375 -24.148438 49.53125 -21.6875 49.53125 -19.0625 Z M 49.53125 -19.0625 "/></g></g></g><g fill="#ffffff" fill-opacity="1"><g transform="translate(97.002845, 633.634558)"><g><path d="M 14.9375 -1.5625 L 14.9375 0 L 2.796875 0 L 2.796875 -17.171875 L 14.578125 -17.171875 L 14.578125 -15.609375 L 4.609375 -15.609375 L 4.609375 -9.5 L 13.5 -9.5 L 13.5 -7.953125 L 4.609375 -7.953125 L 4.609375 -1.5625 Z M 14.9375 -1.5625 "/></g></g></g><g fill="#ffffff" fill-opacity="1"><g transform="translate(126.286174, 633.634558)"><g><path d="M 20.625 -17.171875 L 20.625 0 L 18.890625 0 L 18.890625 -13.734375 L 12.140625 -2.1875 L 11.28125 -2.1875 L 4.53125 -13.65625 L 4.53125 0 L 2.796875 0 L 2.796875 -17.171875 L 4.296875 -17.171875 L 11.75 -4.4375 L 19.140625 -17.171875 Z M 20.625 -17.171875 "/></g></g></g><g fill="#ffffff" fill-opacity="1"><g transform="translate(162.580841, 633.634558)"><g/></g></g><g fill="#ffffff" fill-opacity="1"><g transform="translate(181.886518, 633.634558)"><g><path d="M 6.140625 -15.609375 L 0.09375 -15.609375 L 0.09375 -17.171875 L 13.984375 -17.171875 L 13.984375 -15.609375 L 7.953125 -15.609375 L 7.953125 0 L 6.140625 0 Z M 6.140625 -15.609375 "/></g></g></g><g fill="#ffffff" fill-opacity="1"><g transform="translate(208.840911, 633.634558)"><g><path d="M 10.296875 0.140625 C 8.597656 0.140625 7.054688 -0.238281 5.671875 -1 C 4.296875 -1.757812 3.21875 -2.800781 2.4375 -4.125 C 1.664062 -5.445312 1.28125 -6.9375 1.28125 -8.59375 C 1.28125 -10.238281 1.664062 -11.722656 2.4375 -13.046875 C 3.21875 -14.367188 4.296875 -15.410156 5.671875 -16.171875 C 7.054688 -16.929688 8.597656 -17.3125 10.296875 -17.3125 C 12.003906 -17.3125 13.539062 -16.9375 14.90625 -16.1875 C 16.269531 -15.4375 17.34375 -14.394531 18.125 -13.0625 C 18.914062 -11.726562 19.3125 -10.238281 19.3125 -8.59375 C 19.3125 -6.9375 18.914062 -5.441406 18.125 -4.109375 C 17.34375 -2.773438 16.269531 -1.734375 14.90625 -0.984375 C 13.539062 -0.234375 12.003906 0.140625 10.296875 0.140625 Z M 10.296875 -1.46875 C 11.660156 -1.46875 12.890625 -1.773438 13.984375 -2.390625 C 15.078125 -3.003906 15.929688 -3.851562 16.546875 -4.9375 C 17.171875 -6.03125 17.484375 -7.25 17.484375 -8.59375 C 17.484375 -9.925781 17.171875 -11.132812 16.546875 -12.21875 C 15.929688 -13.3125 15.078125 -14.164062 13.984375 -14.78125 C 12.890625 -15.394531 11.660156 -15.703125 10.296875 -15.703125 C 8.941406 -15.703125 7.710938 -15.394531 6.609375 -14.78125 C 5.503906 -14.164062 4.632812 -13.3125 4 -12.21875 C 3.375 -11.132812 3.0625 -9.925781 3.0625 -8.59375 C 3.0625 -7.25 3.375 -6.03125 4 -4.9375 C 4.632812 -3.851562 5.503906 -3.003906 6.609375 -2.390625 C 7.710938 -1.773438 8.941406 -1.46875 10.296875 -1.46875 Z M 10.296875 -1.46875 "/></g></g></g><g fill="#ffffff" fill-opacity="1"><g transform="translate(242.291823, 633.634558)"><g><path d="M 2.796875 -17.171875 L 9.78125 -17.171875 C 11.601562 -17.171875 13.207031 -16.804688 14.59375 -16.078125 C 15.988281 -15.347656 17.066406 -14.332031 17.828125 -13.03125 C 18.597656 -11.738281 18.984375 -10.257812 18.984375 -8.59375 C 18.984375 -6.914062 18.597656 -5.425781 17.828125 -4.125 C 17.066406 -2.832031 15.988281 -1.820312 14.59375 -1.09375 C 13.207031 -0.363281 11.601562 0 9.78125 0 L 2.796875 0 Z M 9.6875 -1.5625 C 11.195312 -1.5625 12.515625 -1.859375 13.640625 -2.453125 C 14.765625 -3.054688 15.640625 -3.882812 16.265625 -4.9375 C 16.890625 -6 17.203125 -7.21875 17.203125 -8.59375 C 17.203125 -9.957031 16.890625 -11.164062 16.265625 -12.21875 C 15.640625 -13.28125 14.765625 -14.109375 13.640625 -14.703125 C 12.515625 -15.304688 11.195312 -15.609375 9.6875 -15.609375 L 4.609375 -15.609375 L 4.609375 -1.5625 Z M 9.6875 -1.5625 "/></g></g></g><g fill="#ffffff" fill-opacity="1"><g transform="translate(275.424016, 633.634558)"><g><path d="M 10.296875 0.140625 C 8.597656 0.140625 7.054688 -0.238281 5.671875 -1 C 4.296875 -1.757812 3.21875 -2.800781 2.4375 -4.125 C 1.664062 -5.445312 1.28125 -6.9375 1.28125 -8.59375 C 1.28125 -10.238281 1.664062 -11.722656 2.4375 -13.046875 C 3.21875 -14.367188 4.296875 -15.410156 5.671875 -16.171875 C 7.054688 -16.929688 8.597656 -17.3125 10.296875 -17.3125 C 12.003906 -17.3125 13.539062 -16.9375 14.90625 -16.1875 C 16.269531 -15.4375 17.34375 -14.394531 18.125 -13.0625 C 18.914062 -11.726562 19.3125 -10.238281 19.3125 -8.59375 C 19.3125 -6.9375 18.914062 -5.441406 18.125 -4.109375 C 17.34375 -2.773438 16.269531 -1.734375 14.90625 -0.984375 C 13.539062 -0.234375 12.003906 0.140625 10.296875 0.140625 Z M 10.296875 -1.46875 C 11.660156 -1.46875 12.890625 -1.773438 13.984375 -2.390625 C 15.078125 -3.003906 15.929688 -3.851562 16.546875 -4.9375 C 17.171875 -6.03125 17.484375 -7.25 17.484375 -8.59375 C 17.484375 -9.925781 17.171875 -11.132812 16.546875 -12.21875 C 15.929688 -13.3125 15.078125 -14.164062 13.984375 -14.78125 C 12.890625 -15.394531 11.660156 -15.703125 10.296875 -15.703125 C 8.941406 -15.703125 7.710938 -15.394531 6.609375 -14.78125 C 5.503906 -14.164062 4.632812 -13.3125 4 -12.21875 C 3.375 -11.132812 3.0625 -9.925781 3.0625 -8.59375 C 3.0625 -7.25 3.375 -6.03125 4 -4.9375 C 4.632812 -3.851562 5.503906 -3.003906 6.609375 -2.390625 C 7.710938 -1.773438 8.941406 -1.46875 10.296875 -1.46875 Z M 10.296875 -1.46875 "/></g></g></g><g fill="#ffffff" fill-opacity="1"><g transform="translate(308.874917, 633.634558)"><g><path d="M 7.53125 0.140625 C 6.257812 0.140625 5.035156 -0.0625 3.859375 -0.46875 C 2.691406 -0.875 1.789062 -1.410156 1.15625 -2.078125 L 1.859375 -3.484375 C 2.484375 -2.859375 3.3125 -2.351562 4.34375 -1.96875 C 5.375 -1.582031 6.4375 -1.390625 7.53125 -1.390625 C 9.070312 -1.390625 10.222656 -1.671875 10.984375 -2.234375 C 11.753906 -2.804688 12.140625 -3.539062 12.140625 -4.4375 C 12.140625 -5.125 11.929688 -5.671875 11.515625 -6.078125 C 11.097656 -6.492188 10.585938 -6.8125 9.984375 -7.03125 C 9.378906 -7.25 8.535156 -7.488281 7.453125 -7.75 C 6.160156 -8.082031 5.128906 -8.398438 4.359375 -8.703125 C 3.597656 -9.003906 2.941406 -9.460938 2.390625 -10.078125 C 1.835938 -10.703125 1.5625 -11.546875 1.5625 -12.609375 C 1.5625 -13.472656 1.789062 -14.257812 2.25 -14.96875 C 2.707031 -15.6875 3.410156 -16.253906 4.359375 -16.671875 C 5.316406 -17.097656 6.5 -17.3125 7.90625 -17.3125 C 8.882812 -17.3125 9.84375 -17.175781 10.78125 -16.90625 C 11.71875 -16.644531 12.53125 -16.273438 13.21875 -15.796875 L 12.609375 -14.34375 C 11.890625 -14.820312 11.117188 -15.179688 10.296875 -15.421875 C 9.484375 -15.660156 8.6875 -15.78125 7.90625 -15.78125 C 6.394531 -15.78125 5.257812 -15.488281 4.5 -14.90625 C 3.738281 -14.320312 3.359375 -13.570312 3.359375 -12.65625 C 3.359375 -11.96875 3.566406 -11.414062 3.984375 -11 C 4.398438 -10.582031 4.921875 -10.265625 5.546875 -10.046875 C 6.179688 -9.828125 7.03125 -9.585938 8.09375 -9.328125 C 9.351562 -9.015625 10.367188 -8.707031 11.140625 -8.40625 C 11.921875 -8.101562 12.582031 -7.644531 13.125 -7.03125 C 13.664062 -6.414062 13.9375 -5.582031 13.9375 -4.53125 C 13.9375 -3.664062 13.703125 -2.878906 13.234375 -2.171875 C 12.765625 -1.460938 12.046875 -0.898438 11.078125 -0.484375 C 10.117188 -0.0664062 8.9375 0.140625 7.53125 0.140625 Z M 7.53125 0.140625 "/></g></g></g><g fill="#ffffff" fill-opacity="1"><g transform="translate(336.834416, 633.634558)"><g/></g></g><g fill="#ffffff" fill-opacity="1"><g transform="translate(356.140087, 633.634558)"><g><path d="M 10.296875 0.140625 C 8.597656 0.140625 7.054688 -0.238281 5.671875 -1 C 4.296875 -1.757812 3.21875 -2.800781 2.4375 -4.125 C 1.664062 -5.445312 1.28125 -6.9375 1.28125 -8.59375 C 1.28125 -10.238281 1.664062 -11.722656 2.4375 -13.046875 C 3.21875 -14.367188 4.296875 -15.410156 5.671875 -16.171875 C 7.054688 -16.929688 8.597656 -17.3125 10.296875 -17.3125 C 12.003906 -17.3125 13.539062 -16.9375 14.90625 -16.1875 C 16.269531 -15.4375 17.34375 -14.394531 18.125 -13.0625 C 18.914062 -11.726562 19.3125 -10.238281 19.3125 -8.59375 C 19.3125 -6.9375 18.914062 -5.441406 18.125 -4.109375 C 17.34375 -2.773438 16.269531 -1.734375 14.90625 -0.984375 C 13.539062 -0.234375 12.003906 0.140625 10.296875 0.140625 Z M 10.296875 -1.46875 C 11.660156 -1.46875 12.890625 -1.773438 13.984375 -2.390625 C 15.078125 -3.003906 15.929688 -3.851562 16.546875 -4.9375 C 17.171875 -6.03125 17.484375 -7.25 17.484375 -8.59375 C 17.484375 -9.925781 17.171875 -11.132812 16.546875 -12.21875 C 15.929688 -13.3125 15.078125 -14.164062 13.984375 -14.78125 C 12.890625 -15.394531 11.660156 -15.703125 10.296875 -15.703125 C 8.941406 -15.703125 7.710938 -15.394531 6.609375 -14.78125 C 5.503906 -14.164062 4.632812 -13.3125 4 -12.21875 C 3.375 -11.132812 3.0625 -9.925781 3.0625 -8.59375 C 3.0625 -7.25 3.375 -6.03125 4 -4.9375 C 4.632812 -3.851562 5.503906 -3.003906 6.609375 -2.390625 C 7.710938 -1.773438 8.941406 -1.46875 10.296875 -1.46875 Z M 10.296875 -1.46875 "/></g></g></g><g fill="#ffffff" fill-opacity="1"><g transform="translate(389.590988, 633.634558)"><g><path d="M 7.53125 0.140625 C 6.257812 0.140625 5.035156 -0.0625 3.859375 -0.46875 C 2.691406 -0.875 1.789062 -1.410156 1.15625 -2.078125 L 1.859375 -3.484375 C 2.484375 -2.859375 3.3125 -2.351562 4.34375 -1.96875 C 5.375 -1.582031 6.4375 -1.390625 7.53125 -1.390625 C 9.070312 -1.390625 10.222656 -1.671875 10.984375 -2.234375 C 11.753906 -2.804688 12.140625 -3.539062 12.140625 -4.4375 C 12.140625 -5.125 11.929688 -5.671875 11.515625 -6.078125 C 11.097656 -6.492188 10.585938 -6.8125 9.984375 -7.03125 C 9.378906 -7.25 8.535156 -7.488281 7.453125 -7.75 C 6.160156 -8.082031 5.128906 -8.398438 4.359375 -8.703125 C 3.597656 -9.003906 2.941406 -9.460938 2.390625 -10.078125 C 1.835938 -10.703125 1.5625 -11.546875 1.5625 -12.609375 C 1.5625 -13.472656 1.789062 -14.257812 2.25 -14.96875 C 2.707031 -15.6875 3.410156 -16.253906 4.359375 -16.671875 C 5.316406 -17.097656 6.5 -17.3125 7.90625 -17.3125 C 8.882812 -17.3125 9.84375 -17.175781 10.78125 -16.90625 C 11.71875 -16.644531 12.53125 -16.273438 13.21875 -15.796875 L 12.609375 -14.34375 C 11.890625 -14.820312 11.117188 -15.179688 10.296875 -15.421875 C 9.484375 -15.660156 8.6875 -15.78125 7.90625 -15.78125 C 6.394531 -15.78125 5.257812 -15.488281 4.5 -14.90625 C 3.738281 -14.320312 3.359375 -13.570312 3.359375 -12.65625 C 3.359375 -11.96875 3.566406 -11.414062 3.984375 -11 C 4.398438 -10.582031 4.921875 -10.265625 5.546875 -10.046875 C 6.179688 -9.828125 7.03125 -9.585938 8.09375 -9.328125 C 9.351562 -9.015625 10.367188 -8.707031 11.140625 -8.40625 C 11.921875 -8.101562 12.582031 -7.644531 13.125 -7.03125 C 13.664062 -6.414062 13.9375 -5.582031 13.9375 -4.53125 C 13.9375 -3.664062 13.703125 -2.878906 13.234375 -2.171875 C 12.765625 -1.460938 12.046875 -0.898438 11.078125 -0.484375 C 10.117188 -0.0664062 8.9375 0.140625 7.53125 0.140625 Z M 7.53125 0.140625 "/></g></g></g><g fill="#ffffff" fill-opacity="1"><g transform="translate(417.550487, 633.634558)"><g/></g></g><g fill="#ffffff" fill-opacity="1"><g transform="translate(436.856159, 633.634558)"><g><path d="M 2.796875 -17.171875 L 4.609375 -17.171875 L 4.609375 -1.5625 L 14.234375 -1.5625 L 14.234375 0 L 2.796875 0 Z M 2.796875 -17.171875 "/></g></g></g><g fill="#ffffff" fill-opacity="1"><g transform="translate(464.178283, 633.634558)"><g><path d="M 9.71875 0.140625 C 7.488281 0.140625 5.753906 -0.492188 4.515625 -1.765625 C 3.273438 -3.046875 2.65625 -4.898438 2.65625 -7.328125 L 2.65625 -17.171875 L 4.46875 -17.171875 L 4.46875 -7.40625 C 4.46875 -5.414062 4.914062 -3.925781 5.8125 -2.9375 C 6.707031 -1.957031 8.007812 -1.46875 9.71875 -1.46875 C 11.4375 -1.46875 12.742188 -1.957031 13.640625 -2.9375 C 14.535156 -3.925781 14.984375 -5.414062 14.984375 -7.40625 L 14.984375 -17.171875 L 16.75 -17.171875 L 16.75 -7.328125 C 16.75 -4.898438 16.128906 -3.046875 14.890625 -1.765625 C 13.660156 -0.492188 11.9375 0.140625 9.71875 0.140625 Z M 9.71875 0.140625 "/></g></g></g><g fill="#ffffff" fill-opacity="1"><g transform="translate(496.47699, 633.634558)"><g><path d="M 14.890625 -8.59375 L 16.625 -8.59375 L 16.625 -2.03125 C 15.832031 -1.332031 14.882812 -0.796875 13.78125 -0.421875 C 12.6875 -0.046875 11.535156 0.140625 10.328125 0.140625 C 8.609375 0.140625 7.0625 -0.234375 5.6875 -0.984375 C 4.3125 -1.734375 3.234375 -2.773438 2.453125 -4.109375 C 1.671875 -5.441406 1.28125 -6.9375 1.28125 -8.59375 C 1.28125 -10.238281 1.671875 -11.726562 2.453125 -13.0625 C 3.234375 -14.394531 4.3125 -15.4375 5.6875 -16.1875 C 7.0625 -16.9375 8.617188 -17.3125 10.359375 -17.3125 C 11.660156 -17.3125 12.859375 -17.101562 13.953125 -16.6875 C 15.054688 -16.269531 15.984375 -15.65625 16.734375 -14.84375 L 15.609375 -13.6875 C 14.242188 -15.03125 12.515625 -15.703125 10.421875 -15.703125 C 9.035156 -15.703125 7.78125 -15.394531 6.65625 -14.78125 C 5.539062 -14.164062 4.660156 -13.3125 4.015625 -12.21875 C 3.378906 -11.132812 3.0625 -9.925781 3.0625 -8.59375 C 3.0625 -7.25 3.378906 -6.035156 4.015625 -4.953125 C 4.660156 -3.878906 5.535156 -3.03125 6.640625 -2.40625 C 7.753906 -1.78125 9.007812 -1.46875 10.40625 -1.46875 C 12.164062 -1.46875 13.660156 -1.910156 14.890625 -2.796875 Z M 14.890625 -8.59375 "/></g></g></g><g fill="#ffffff" fill-opacity="1"><g transform="translate(528.309908, 633.634558)"><g><path d="M 13.5625 -4.59375 L 4 -4.59375 L 1.9375 0 L 0.046875 0 L 7.90625 -17.171875 L 9.6875 -17.171875 L 17.546875 0 L 15.625 0 Z M 12.90625 -6.0625 L 8.78125 -15.28125 L 4.65625 -6.0625 Z M 12.90625 -6.0625 "/></g></g></g><g fill="#ffffff" fill-opacity="1"><g transform="translate(558.769971, 633.634558)"><g><path d="M 14.515625 0 L 10.59375 -5.515625 C 10.15625 -5.472656 9.695312 -5.453125 9.21875 -5.453125 L 4.609375 -5.453125 L 4.609375 0 L 2.796875 0 L 2.796875 -17.171875 L 9.21875 -17.171875 C 11.414062 -17.171875 13.132812 -16.644531 14.375 -15.59375 C 15.613281 -14.550781 16.234375 -13.113281 16.234375 -11.28125 C 16.234375 -9.9375 15.894531 -8.800781 15.21875 -7.875 C 14.539062 -6.957031 13.570312 -6.296875 12.3125 -5.890625 L 16.515625 0 Z M 9.171875 -6.984375 C 10.867188 -6.984375 12.164062 -7.359375 13.0625 -8.109375 C 13.96875 -8.867188 14.421875 -9.925781 14.421875 -11.28125 C 14.421875 -12.675781 13.96875 -13.742188 13.0625 -14.484375 C 12.164062 -15.234375 10.867188 -15.609375 9.171875 -15.609375 L 4.609375 -15.609375 L 4.609375 -6.984375 Z M 9.171875 -6.984375 "/></g></g></g><g fill="#ffffff" fill-opacity="1"><g transform="translate(589.377115, 633.634558)"><g><path d="M 14.9375 -1.5625 L 14.9375 0 L 2.796875 0 L 2.796875 -17.171875 L 14.578125 -17.171875 L 14.578125 -15.609375 L 4.609375 -15.609375 L 4.609375 -9.5 L 13.5 -9.5 L 13.5 -7.953125 L 4.609375 -7.953125 L 4.609375 -1.5625 Z M 14.9375 -1.5625 "/></g></g></g><g fill="#ffffff" fill-opacity="1"><g transform="translate(618.660456, 633.634558)"><g><path d="M 7.53125 0.140625 C 6.257812 0.140625 5.035156 -0.0625 3.859375 -0.46875 C 2.691406 -0.875 1.789062 -1.410156 1.15625 -2.078125 L 1.859375 -3.484375 C 2.484375 -2.859375 3.3125 -2.351562 4.34375 -1.96875 C 5.375 -1.582031 6.4375 -1.390625 7.53125 -1.390625 C 9.070312 -1.390625 10.222656 -1.671875 10.984375 -2.234375 C 11.753906 -2.804688 12.140625 -3.539062 12.140625 -4.4375 C 12.140625 -5.125 11.929688 -5.671875 11.515625 -6.078125 C 11.097656 -6.492188 10.585938 -6.8125 9.984375 -7.03125 C 9.378906 -7.25 8.535156 -7.488281 7.453125 -7.75 C 6.160156 -8.082031 5.128906 -8.398438 4.359375 -8.703125 C 3.597656 -9.003906 2.941406 -9.460938 2.390625 -10.078125 C 1.835938 -10.703125 1.5625 -11.546875 1.5625 -12.609375 C 1.5625 -13.472656 1.789062 -14.257812 2.25 -14.96875 C 2.707031 -15.6875 3.410156 -16.253906 4.359375 -16.671875 C 5.316406 -17.097656 6.5 -17.3125 7.90625 -17.3125 C 8.882812 -17.3125 9.84375 -17.175781 10.78125 -16.90625 C 11.71875 -16.644531 12.53125 -16.273438 13.21875 -15.796875 L 12.609375 -14.34375 C 11.890625 -14.820312 11.117188 -15.179688 10.296875 -15.421875 C 9.484375 -15.660156 8.6875 -15.78125 7.90625 -15.78125 C 6.394531 -15.78125 5.257812 -15.488281 4.5 -14.90625 C 3.738281 -14.320312 3.359375 -13.570312 3.359375 -12.65625 C 3.359375 -11.96875 3.566406 -11.414062 3.984375 -11 C 4.398438 -10.582031 4.921875 -10.265625 5.546875 -10.046875 C 6.179688 -9.828125 7.03125 -9.585938 8.09375 -9.328125 C 9.351562 -9.015625 10.367188 -8.707031 11.140625 -8.40625 C 11.921875 -8.101562 12.582031 -7.644531 13.125 -7.03125 C 13.664062 -6.414062 13.9375 -5.582031 13.9375 -4.53125 C 13.9375 -3.664062 13.703125 -2.878906 13.234375 -2.171875 C 12.765625 -1.460938 12.046875 -0.898438 11.078125 -0.484375 C 10.117188 -0.0664062 8.9375 0.140625 7.53125 0.140625 Z M 7.53125 0.140625 "/></g></g></g><g fill="#ffffff" fill-opacity="1"><g transform="translate(646.619955, 633.634558)"><g><path d="M 2.15625 -17.171875 L 4.21875 -17.171875 L 3.84375 -5.15625 L 2.5 -5.15625 Z M 3.1875 0.125 C 2.832031 0.125 2.523438 0 2.265625 -0.25 C 2.015625 -0.507812 1.890625 -0.8125 1.890625 -1.15625 C 1.890625 -1.507812 2.007812 -1.804688 2.25 -2.046875 C 2.5 -2.285156 2.8125 -2.40625 3.1875 -2.40625 C 3.550781 -2.40625 3.851562 -2.285156 4.09375 -2.046875 C 4.34375 -1.804688 4.46875 -1.507812 4.46875 -1.15625 C 4.46875 -0.8125 4.34375 -0.507812 4.09375 -0.25 C 3.851562 0 3.550781 0.125 3.1875 0.125 Z M 3.1875 0.125 "/></g></g></g></svg>