<svg xmlns="http://www.w3.org/2000/svg" xmlns:xlink="http://www.w3.org/1999/xlink" width="1000" zoomAndPan="magnify" viewBox="0 0 750 749.999995" height="1000" preserveAspectRatio="xMidYMid meet" version="1.0"><defs><clipPath id="82093f67fb"><path d="M 297 4 L 384 4 L 384 91 L 297 91 Z M 297 4 " clip-rule="nonzero"/></clipPath><clipPath id="804a001f25"><path d="M 293.3125 9.199219 L 378.613281 0 L 387.8125 85.300781 L 302.511719 94.5 Z M 293.3125 9.199219 " clip-rule="nonzero"/></clipPath><clipPath id="25a7f1e654"><path d="M 335.960938 4.601562 C 312.40625 7.140625 295.371094 28.296875 297.910156 51.851562 C 300.453125 75.40625 321.605469 92.441406 345.160156 89.902344 C 368.71875 87.363281 385.753906 66.207031 383.214844 42.652344 C 380.671875 19.09375 359.519531 2.058594 335.960938 4.601562 Z M 335.960938 4.601562 " clip-rule="nonzero"/></clipPath><clipPath id="bb42dce761"><path d="M 659 296 L 746 296 L 746 383 L 659 383 Z M 659 296 " clip-rule="nonzero"/></clipPath><clipPath id="91c2a533fd"><path d="M 655.5 301.699219 L 740.800781 292.5 L 750 377.800781 L 664.699219 387 Z M 655.5 301.699219 " clip-rule="nonzero"/></clipPath><clipPath id="b3e8820c52"><path d="M 698.148438 297.101562 C 674.59375 299.640625 657.558594 320.796875 660.097656 344.351562 C 662.636719 367.90625 683.792969 384.941406 707.347656 382.402344 C 730.90625 379.863281 747.941406 358.707031 745.398438 335.152344 C 742.859375 311.59375 721.703125 294.558594 698.148438 297.101562 Z M 698.148438 297.101562 " clip-rule="nonzero"/></clipPath><clipPath id="fa4dda7ecc"><path d="M 368 659 L 455 659 L 455 746 L 368 746 Z M 368 659 " clip-rule="nonzero"/></clipPath><clipPath id="1ee348a5cd"><path d="M 364.003906 664.699219 L 449.308594 655.5 L 458.507812 740.800781 L 373.207031 750 Z M 364.003906 664.699219 " clip-rule="nonzero"/></clipPath><clipPath id="f9e9707229"><path d="M 406.65625 660.097656 C 383.101562 662.636719 366.066406 683.792969 368.605469 707.347656 C 371.144531 730.90625 392.300781 747.941406 415.855469 745.398438 C 439.410156 742.859375 456.449219 721.703125 453.90625 698.148438 C 451.367188 674.59375 430.210938 657.558594 406.65625 660.097656 Z M 406.65625 660.097656 " clip-rule="nonzero"/></clipPath><clipPath id="b2bc313ff2"><path d="M 4 367 L 91 367 L 91 454 L 4 454 Z M 4 367 " clip-rule="nonzero"/></clipPath><clipPath id="c2b2d97ffb"><path d="M 0 372.394531 L 85.300781 363.195312 L 94.5 448.496094 L 9.199219 457.695312 Z M 0 372.394531 " clip-rule="nonzero"/></clipPath><clipPath id="9ad37797f5"><path d="M 42.652344 367.792969 C 19.09375 370.335938 2.058594 391.488281 4.601562 415.046875 C 7.140625 438.601562 28.296875 455.636719 51.851562 453.097656 C 75.40625 450.554688 92.441406 429.402344 89.902344 405.84375 C 87.363281 382.289062 66.207031 365.253906 42.652344 367.792969 Z M 42.652344 367.792969 " clip-rule="nonzero"/></clipPath><clipPath id="2767549b0c"><path d="M 400 8 L 487 8 L 487 95 L 400 95 Z M 400 8 " clip-rule="nonzero"/></clipPath><clipPath id="4c337ddd63"><path d="M 410.222656 0.949219 L 494.195312 18.546875 L 476.597656 102.519531 L 392.625 84.921875 Z M 410.222656 0.949219 " clip-rule="nonzero"/></clipPath><clipPath id="82d788e556"><path d="M 452.210938 9.75 C 429.023438 4.890625 406.285156 19.75 401.425781 42.9375 C 396.566406 66.125 411.425781 88.863281 434.613281 93.722656 C 457.800781 98.582031 480.539062 83.722656 485.398438 60.535156 C 490.257812 37.347656 475.398438 14.609375 452.210938 9.75 Z M 452.210938 9.75 " clip-rule="nonzero"/></clipPath><clipPath id="6227d34e9e"><path d="M 654 398 L 741 398 L 741 485 L 654 485 Z M 654 398 " clip-rule="nonzero"/></clipPath><clipPath id="8d946a443d"><path d="M 664.355469 391.019531 L 748.328125 408.617188 L 730.730469 492.589844 L 646.757812 474.992188 Z M 664.355469 391.019531 " clip-rule="nonzero"/></clipPath><clipPath id="7db92c877d"><path d="M 706.339844 399.816406 C 683.152344 394.957031 660.417969 409.816406 655.554688 433.003906 C 650.695312 456.191406 665.554688 478.929688 688.742188 483.789062 C 711.933594 488.648438 734.667969 473.789062 739.527344 450.601562 C 744.386719 427.414062 729.53125 404.675781 706.339844 399.816406 Z M 706.339844 399.816406 " clip-rule="nonzero"/></clipPath><clipPath id="fad1c1fe9f"><path d="M 265 654 L 352 654 L 352 740 L 265 740 Z M 265 654 " clip-rule="nonzero"/></clipPath><clipPath id="3dee91610f"><path d="M 274.996094 646.230469 L 358.96875 663.828125 L 341.371094 747.800781 L 257.398438 730.203125 Z M 274.996094 646.230469 " clip-rule="nonzero"/></clipPath><clipPath id="61d76c94ff"><path d="M 316.980469 655.03125 C 293.792969 650.171875 271.054688 665.03125 266.195312 688.21875 C 261.335938 711.40625 276.195312 734.144531 299.382812 739.003906 C 322.574219 743.863281 345.308594 729.003906 350.167969 705.816406 C 355.027344 682.628906 340.171875 659.890625 316.980469 655.03125 Z M 316.980469 655.03125 " clip-rule="nonzero"/></clipPath><clipPath id="fa5cd94753"><path d="M 9 263 L 96 263 L 96 350 L 9 350 Z M 9 263 " clip-rule="nonzero"/></clipPath><clipPath id="94f6ae01c7"><path d="M 19.074219 255.789062 L 103.046875 273.386719 L 85.449219 357.359375 L 1.476562 339.761719 Z M 19.074219 255.789062 " clip-rule="nonzero"/></clipPath><clipPath id="1174065624"><path d="M 61.058594 264.589844 C 37.871094 259.730469 15.132812 274.585938 10.273438 297.777344 C 5.414062 320.964844 20.273438 343.703125 43.460938 348.5625 C 66.648438 353.421875 89.386719 338.5625 94.246094 315.375 C 99.105469 292.183594 84.246094 269.449219 61.058594 264.589844 Z M 61.058594 264.589844 " clip-rule="nonzero"/></clipPath><clipPath id="e570f4e182"><path d="M 197 30 L 284 30 L 284 116 L 197 116 Z M 197 30 " clip-rule="nonzero"/></clipPath><clipPath id="c89336c5b6"><path d="M 184.070312 51.484375 L 262.347656 16.355469 L 297.476562 94.632812 L 219.199219 129.761719 Z M 184.070312 51.484375 " clip-rule="nonzero"/></clipPath><clipPath id="1d66d6e91c"><path d="M 223.210938 33.921875 C 201.59375 43.621094 191.933594 69.007812 201.636719 90.621094 C 211.335938 112.238281 236.722656 121.898438 258.335938 112.195312 C 279.953125 102.496094 289.613281 77.109375 279.910156 55.496094 C 270.210938 33.878906 244.824219 24.21875 223.210938 33.921875 Z M 223.210938 33.921875 " clip-rule="nonzero"/></clipPath><clipPath id="b91601c5d3"><path d="M 632 196 L 719 196 L 719 283 L 632 283 Z M 632 196 " clip-rule="nonzero"/></clipPath><clipPath id="abd1f86a9f"><path d="M 618.957031 217.648438 L 697.234375 182.523438 L 732.359375 260.800781 L 654.082031 295.925781 Z M 618.957031 217.648438 " clip-rule="nonzero"/></clipPath><clipPath id="4051885502"><path d="M 658.09375 200.085938 C 636.480469 209.785156 626.820312 235.171875 636.519531 256.789062 C 646.21875 278.402344 671.605469 288.0625 693.222656 278.363281 C 714.835938 268.664062 724.496094 243.277344 714.796875 221.664062 C 705.097656 200.046875 679.710938 190.386719 658.09375 200.085938 Z M 658.09375 200.085938 " clip-rule="nonzero"/></clipPath><clipPath id="b8d1b15ec2"><path d="M 467 631 L 554 631 L 554 718 L 467 718 Z M 467 631 " clip-rule="nonzero"/></clipPath><clipPath id="a0dd7490f8"><path d="M 454 652.996094 L 532.273438 617.867188 L 567.402344 696.144531 L 489.125 731.269531 Z M 454 652.996094 " clip-rule="nonzero"/></clipPath><clipPath id="7f95611778"><path d="M 493.136719 635.429688 C 471.519531 645.132812 461.863281 670.515625 471.5625 692.132812 C 481.261719 713.75 506.648438 723.40625 528.261719 713.707031 C 549.878906 704.007812 559.539062 678.621094 549.835938 657.007812 C 540.136719 635.390625 514.75 625.730469 493.136719 635.429688 Z M 493.136719 635.429688 " clip-rule="nonzero"/></clipPath><clipPath id="51f4a61b17"><path d="M 31 466 L 118 466 L 118 553 L 31 553 Z M 31 466 " clip-rule="nonzero"/></clipPath><clipPath id="9f6bfe9c9a"><path d="M 17.445312 487.578125 L 95.722656 452.449219 L 130.847656 530.726562 L 52.570312 565.851562 Z M 17.445312 487.578125 " clip-rule="nonzero"/></clipPath><clipPath id="6e0a8e0e40"><path d="M 56.582031 470.011719 C 34.96875 479.714844 25.308594 505.097656 35.007812 526.714844 C 44.707031 548.332031 70.09375 557.988281 91.710938 548.289062 C 113.324219 538.589844 122.984375 513.203125 113.285156 491.589844 C 103.585938 469.972656 78.199219 460.3125 56.582031 470.011719 Z M 56.582031 470.011719 " clip-rule="nonzero"/></clipPath><clipPath id="3080c0ad4e"><path d="M 45 167 L 132 167 L 132 254 L 45 254 Z M 45 167 " clip-rule="nonzero"/></clipPath><clipPath id="82ede1d8b7"><path d="M 29.824219 226.757812 L 72.402344 152.273438 L 146.886719 194.851562 L 104.308594 269.335938 Z M 29.824219 226.757812 " clip-rule="nonzero"/></clipPath><clipPath id="80110c9f57"><path d="M 51.113281 189.515625 C 39.355469 210.082031 46.496094 236.289062 67.066406 248.046875 C 87.632812 259.804688 113.839844 252.660156 125.597656 232.09375 C 137.355469 211.523438 130.210938 185.320312 109.644531 173.5625 C 89.074219 161.804688 62.871094 168.945312 51.113281 189.515625 Z M 51.113281 189.515625 " clip-rule="nonzero"/></clipPath><clipPath id="c222e78dd4"><path d="M 494 46 L 581 46 L 581 132 L 494 132 Z M 494 46 " clip-rule="nonzero"/></clipPath><clipPath id="4500a22a47"><path d="M 479.15625 104.957031 L 521.734375 30.472656 L 596.21875 73.050781 L 553.640625 147.539062 Z M 479.15625 104.957031 " clip-rule="nonzero"/></clipPath><clipPath id="c8e6b097a8"><path d="M 500.445312 67.714844 C 488.6875 88.285156 495.832031 114.492188 516.398438 126.25 C 536.96875 138.007812 563.171875 130.863281 574.929688 110.296875 C 586.6875 89.726562 579.546875 63.519531 558.976562 51.761719 C 538.410156 40.003906 512.203125 47.148438 500.445312 67.714844 Z M 500.445312 67.714844 " clip-rule="nonzero"/></clipPath><clipPath id="2c55e9fbf0"><path d="M 617 495 L 704 495 L 704 581 L 617 581 Z M 617 495 " clip-rule="nonzero"/></clipPath><clipPath id="5cb02c7e3f"><path d="M 602.203125 553.953125 L 644.78125 479.464844 L 719.265625 522.046875 L 676.6875 596.53125 Z M 602.203125 553.953125 " clip-rule="nonzero"/></clipPath><clipPath id="bfbba2228e"><path d="M 623.492188 516.710938 C 611.734375 537.277344 618.875 563.484375 639.445312 575.242188 C 660.015625 587 686.21875 579.855469 697.976562 559.289062 C 709.734375 538.71875 702.59375 512.515625 682.023438 500.757812 C 661.457031 489 635.25 496.140625 623.492188 516.710938 Z M 623.492188 516.710938 " clip-rule="nonzero"/></clipPath><clipPath id="d8188393be"><path d="M 167 618 L 254 618 L 254 705 L 167 705 Z M 167 618 " clip-rule="nonzero"/></clipPath><clipPath id="ce15846606"><path d="M 151.960938 677.339844 L 194.539062 602.851562 L 269.027344 645.433594 L 226.445312 719.917969 Z M 151.960938 677.339844 " clip-rule="nonzero"/></clipPath><clipPath id="dc18557ca0"><path d="M 173.25 640.097656 C 161.492188 660.664062 168.636719 686.871094 189.203125 698.628906 C 209.773438 710.386719 235.976562 703.242188 247.734375 682.675781 C 259.492188 662.105469 252.351562 635.902344 231.78125 624.144531 C 211.214844 612.386719 185.007812 619.527344 173.25 640.097656 Z M 173.25 640.097656 " clip-rule="nonzero"/></clipPath><clipPath id="db942610d7"><path d="M 109 87 L 196 87 L 196 174 L 109 174 Z M 109 87 " clip-rule="nonzero"/></clipPath><clipPath id="0a8e1ae8b4"><path d="M 91.710938 127.226562 L 155.214844 69.535156 L 212.90625 133.039062 L 149.402344 190.730469 Z M 91.710938 127.226562 " clip-rule="nonzero"/></clipPath><clipPath id="0d4b83d965"><path d="M 123.460938 98.378906 C 105.925781 114.3125 104.625 141.441406 120.554688 158.976562 C 136.488281 176.515625 163.617188 177.816406 181.15625 161.882812 C 198.691406 145.953125 199.992188 118.820312 184.058594 101.285156 C 168.128906 83.75 141 82.449219 123.460938 98.378906 Z M 123.460938 98.378906 " clip-rule="nonzero"/></clipPath><clipPath id="56f7f5fddf"><path d="M 574 110 L 661 110 L 661 196 L 574 196 Z M 574 110 " clip-rule="nonzero"/></clipPath><clipPath id="33ac2e6384"><path d="M 556.695312 150.171875 L 620.195312 92.480469 L 677.890625 155.980469 L 614.386719 213.675781 Z M 556.695312 150.171875 " clip-rule="nonzero"/></clipPath><clipPath id="ea4f308d3f"><path d="M 588.445312 121.324219 C 570.910156 137.253906 569.609375 164.386719 585.539062 181.921875 C 601.46875 199.457031 628.601562 200.757812 646.136719 184.828125 C 663.671875 168.898438 664.972656 141.765625 649.042969 124.230469 C 633.113281 106.695312 605.980469 105.394531 588.445312 121.324219 Z M 588.445312 121.324219 " clip-rule="nonzero"/></clipPath><clipPath id="d21c84eebf"><path d="M 552 575 L 639 575 L 639 662 L 552 662 Z M 552 575 " clip-rule="nonzero"/></clipPath><clipPath id="8d8fb833ae"><path d="M 535.042969 615.214844 L 598.542969 557.523438 L 656.238281 621.027344 L 592.734375 678.71875 Z M 535.042969 615.214844 " clip-rule="nonzero"/></clipPath><clipPath id="205de6faf9"><path d="M 566.792969 586.371094 C 549.257812 602.300781 547.957031 629.429688 563.886719 646.96875 C 579.820312 664.503906 606.949219 665.804688 624.484375 649.875 C 642.019531 633.941406 643.320312 606.8125 627.390625 589.277344 C 611.460938 571.738281 584.328125 570.4375 566.792969 586.371094 Z M 566.792969 586.371094 " clip-rule="nonzero"/></clipPath><clipPath id="84a66329e7"><path d="M 86 553 L 173 553 L 173 640 L 86 640 Z M 86 553 " clip-rule="nonzero"/></clipPath><clipPath id="78f0945b00"><path d="M 68.703125 593.5 L 132.207031 535.808594 L 189.898438 599.3125 L 126.394531 657.003906 Z M 68.703125 593.5 " clip-rule="nonzero"/></clipPath><clipPath id="7493499212"><path d="M 100.457031 564.65625 C 82.921875 580.585938 81.617188 607.71875 97.550781 625.253906 C 113.480469 642.789062 140.613281 644.089844 158.148438 628.160156 C 175.683594 612.226562 176.984375 585.097656 161.054688 567.5625 C 145.121094 550.023438 117.992188 548.722656 100.457031 564.65625 Z M 100.457031 564.65625 " clip-rule="nonzero"/></clipPath><clipPath id="7a822a7fa3"><path d="M 343.703125 97.398438 L 407.660156 97.398438 L 407.660156 161.351562 L 343.703125 161.351562 Z M 343.703125 97.398438 " clip-rule="nonzero"/></clipPath><clipPath id="88224edc09"><path d="M 375.683594 97.398438 C 358.019531 97.398438 343.703125 111.714844 343.703125 129.375 C 343.703125 147.035156 358.019531 161.351562 375.683594 161.351562 C 393.34375 161.351562 407.660156 147.035156 407.660156 129.375 C 407.660156 111.714844 393.34375 97.398438 375.683594 97.398438 Z M 375.683594 97.398438 " clip-rule="nonzero"/></clipPath><clipPath id="580d97898c"><path d="M 588.746094 343.121094 L 652.699219 343.121094 L 652.699219 407.074219 L 588.746094 407.074219 Z M 588.746094 343.121094 " clip-rule="nonzero"/></clipPath><clipPath id="51d5090706"><path d="M 620.722656 343.121094 C 603.0625 343.121094 588.746094 357.4375 588.746094 375.097656 C 588.746094 392.757812 603.0625 407.074219 620.722656 407.074219 C 638.382812 407.074219 652.699219 392.757812 652.699219 375.097656 C 652.699219 357.4375 638.382812 343.121094 620.722656 343.121094 Z M 620.722656 343.121094 " clip-rule="nonzero"/></clipPath><clipPath id="cf3c3eafae"><path d="M 343.703125 588.84375 L 407.660156 588.84375 L 407.660156 652.800781 L 343.703125 652.800781 Z M 343.703125 588.84375 " clip-rule="nonzero"/></clipPath><clipPath id="b972803da8"><path d="M 375.683594 588.84375 C 358.019531 588.84375 343.703125 603.160156 343.703125 620.820312 C 343.703125 638.484375 358.019531 652.800781 375.683594 652.800781 C 393.34375 652.800781 407.660156 638.484375 407.660156 620.820312 C 407.660156 603.160156 393.34375 588.84375 375.683594 588.84375 Z M 375.683594 588.84375 " clip-rule="nonzero"/></clipPath><clipPath id="eb2fb946af"><path d="M 97.300781 343.121094 L 161.253906 343.121094 L 161.253906 407.074219 L 97.300781 407.074219 Z M 97.300781 343.121094 " clip-rule="nonzero"/></clipPath><clipPath id="c684aad785"><path d="M 129.277344 343.121094 C 111.617188 343.121094 97.300781 357.4375 97.300781 375.097656 C 97.300781 392.757812 111.617188 407.074219 129.277344 407.074219 C 146.9375 407.074219 161.253906 392.757812 161.253906 375.097656 C 161.253906 357.4375 146.9375 343.121094 129.277344 343.121094 Z M 129.277344 343.121094 " clip-rule="nonzero"/></clipPath><clipPath id="67ad492bb9"><path d="M 419 108 L 484 108 L 484 173 L 419 173 Z M 419 108 " clip-rule="nonzero"/></clipPath><clipPath id="fcc70a6bfc"><path d="M 431.007812 100.628906 L 491.835938 120.382812 L 472.082031 181.210938 L 411.253906 161.457031 Z M 431.007812 100.628906 " clip-rule="nonzero"/></clipPath><clipPath id="e2658ff6dc"><path d="M 461.421875 110.503906 C 444.625 105.050781 426.585938 114.246094 421.132812 131.042969 C 415.675781 147.839844 424.871094 165.878906 441.667969 171.332031 C 458.464844 176.789062 476.503906 167.59375 481.957031 150.796875 C 487.414062 134 478.21875 115.960938 461.421875 110.503906 Z M 461.421875 110.503906 " clip-rule="nonzero"/></clipPath><clipPath id="9400efec8b"><path d="M 576 418 L 641 418 L 641 483 L 576 483 Z M 576 418 " clip-rule="nonzero"/></clipPath><clipPath id="29ec03cd4e"><path d="M 588.171875 410.023438 L 648.996094 429.777344 L 629.242188 490.605469 L 568.417969 470.851562 Z M 588.171875 410.023438 " clip-rule="nonzero"/></clipPath><clipPath id="58c624a13b"><path d="M 618.585938 419.902344 C 601.789062 414.445312 583.75 423.640625 578.292969 440.4375 C 572.839844 457.234375 582.035156 475.273438 598.832031 480.726562 C 615.628906 486.183594 633.664062 476.988281 639.121094 460.191406 C 644.574219 443.394531 635.382812 425.355469 618.585938 419.902344 Z M 618.585938 419.902344 " clip-rule="nonzero"/></clipPath><clipPath id="15b8d1bc5d"><path d="M 267 576 L 332 576 L 332 641 L 267 641 Z M 267 576 " clip-rule="nonzero"/></clipPath><clipPath id="1c25ce398a"><path d="M 279.214844 568.046875 L 340.039062 587.800781 L 320.285156 648.628906 L 259.460938 628.875 Z M 279.214844 568.046875 " clip-rule="nonzero"/></clipPath><clipPath id="e275c2a854"><path d="M 309.625 577.921875 C 292.828125 572.46875 274.789062 581.664062 269.335938 598.460938 C 263.882812 615.257812 273.074219 633.296875 289.871094 638.75 C 306.667969 644.203125 324.707031 635.011719 330.164062 618.214844 C 335.617188 601.417969 326.421875 583.378906 309.625 577.921875 Z M 309.625 577.921875 " clip-rule="nonzero"/></clipPath><clipPath id="4e81d053a7"><path d="M 109 266 L 174 266 L 174 331 L 109 331 Z M 109 266 " clip-rule="nonzero"/></clipPath><clipPath id="b0db425c8e"><path d="M 120.753906 258.230469 L 181.578125 277.984375 L 161.824219 338.808594 L 101 319.054688 Z M 120.753906 258.230469 " clip-rule="nonzero"/></clipPath><clipPath id="74ff690974"><path d="M 151.167969 268.105469 C 134.371094 262.652344 116.332031 271.847656 110.875 288.644531 C 105.421875 305.441406 114.617188 323.476562 131.414062 328.933594 C 148.210938 334.386719 166.25 325.191406 171.703125 308.398438 C 177.15625 291.601562 167.964844 273.5625 151.167969 268.105469 Z M 151.167969 268.105469 " clip-rule="nonzero"/></clipPath><clipPath id="53748b8370"><path d="M 267 108 L 332 108 L 332 173 L 267 173 Z M 267 108 " clip-rule="nonzero"/></clipPath><clipPath id="8af812c3e1"><path d="M 259.367188 120 L 320.1875 100.226562 L 339.964844 161.042969 L 279.144531 180.820312 Z M 259.367188 120 " clip-rule="nonzero"/></clipPath><clipPath id="83e3eca9a2"><path d="M 289.777344 110.113281 C 272.984375 115.574219 263.792969 133.617188 269.253906 150.410156 C 274.71875 167.207031 292.757812 176.394531 309.554688 170.933594 C 326.347656 165.472656 335.535156 147.429688 330.074219 130.636719 C 324.613281 113.839844 306.570312 104.652344 289.777344 110.113281 Z M 289.777344 110.113281 " clip-rule="nonzero"/></clipPath><clipPath id="b958095e95"><path d="M 576 266 L 641 266 L 641 331 L 576 331 Z M 576 266 " clip-rule="nonzero"/></clipPath><clipPath id="09d79ce499"><path d="M 568.382812 277.910156 L 629.203125 258.132812 L 648.980469 318.953125 L 588.160156 338.726562 Z M 568.382812 277.910156 " clip-rule="nonzero"/></clipPath><clipPath id="687cfcca38"><path d="M 598.792969 268.019531 C 582 273.480469 572.8125 291.523438 578.273438 308.320312 C 583.734375 325.113281 601.773438 334.300781 618.570312 328.839844 C 635.363281 323.378906 644.550781 305.335938 639.089844 288.542969 C 633.628906 271.746094 615.589844 262.558594 598.792969 268.019531 Z M 598.792969 268.019531 " clip-rule="nonzero"/></clipPath><clipPath id="e6f8888284"><path d="M 419 575 L 484 575 L 484 640 L 419 640 Z M 419 575 " clip-rule="nonzero"/></clipPath><clipPath id="86f176c95a"><path d="M 411.335938 587.363281 L 472.15625 567.585938 L 491.929688 628.40625 L 431.113281 648.183594 Z M 411.335938 587.363281 " clip-rule="nonzero"/></clipPath><clipPath id="b9d01c3218"><path d="M 441.746094 577.476562 C 424.949219 582.9375 415.761719 600.976562 421.222656 617.773438 C 426.683594 634.566406 444.726562 643.753906 461.523438 638.292969 C 478.316406 632.832031 487.503906 614.792969 482.042969 597.996094 C 476.582031 581.203125 458.539062 572.015625 441.746094 577.476562 Z M 441.746094 577.476562 " clip-rule="nonzero"/></clipPath><clipPath id="0f5f8c9969"><path d="M 109 418 L 174 418 L 174 483 L 109 483 Z M 109 418 " clip-rule="nonzero"/></clipPath><clipPath id="77d175a001"><path d="M 101.023438 429.878906 L 161.84375 410.101562 L 181.617188 470.921875 L 120.796875 490.695312 Z M 101.023438 429.878906 " clip-rule="nonzero"/></clipPath><clipPath id="6a89ee80a6"><path d="M 131.433594 419.988281 C 114.636719 425.449219 105.449219 443.492188 110.910156 460.285156 C 116.371094 477.082031 134.414062 486.269531 151.207031 480.808594 C 168.003906 475.347656 177.191406 457.304688 171.730469 440.511719 C 166.269531 423.714844 148.226562 414.527344 131.433594 419.988281 Z M 131.433594 419.988281 " clip-rule="nonzero"/></clipPath><clipPath id="3ee822765b"><path d="M 143 198 L 208 198 L 208 263 L 143 263 Z M 143 198 " clip-rule="nonzero"/></clipPath><clipPath id="32698ec670"><path d="M 131.042969 237.566406 L 168.550781 185.769531 L 220.351562 223.277344 L 182.839844 275.078125 Z M 131.042969 237.566406 " clip-rule="nonzero"/></clipPath><clipPath id="5639979e2e"><path d="M 149.796875 211.667969 C 139.4375 225.972656 142.636719 245.964844 156.941406 256.320312 C 171.246094 266.679688 191.238281 263.480469 201.597656 249.175781 C 211.953125 234.871094 208.753906 214.878906 194.453125 204.523438 C 180.148438 194.164062 160.15625 197.363281 149.796875 211.667969 Z M 149.796875 211.667969 " clip-rule="nonzero"/></clipPath><clipPath id="9fed0af140"><path d="M 486 144 L 551 144 L 551 209 L 486 209 Z M 486 144 " clip-rule="nonzero"/></clipPath><clipPath id="9aa7ac368b"><path d="M 473.785156 183.214844 L 511.292969 131.417969 L 563.09375 168.925781 L 525.582031 220.722656 Z M 473.785156 183.214844 " clip-rule="nonzero"/></clipPath><clipPath id="336b631aee"><path d="M 492.539062 157.316406 C 482.179688 171.621094 485.378906 191.613281 499.683594 201.96875 C 513.988281 212.328125 533.980469 209.128906 544.339844 194.824219 C 554.695312 180.519531 551.496094 160.527344 537.191406 150.171875 C 522.890625 139.8125 502.898438 143.011719 492.539062 157.316406 Z M 492.539062 157.316406 " clip-rule="nonzero"/></clipPath><clipPath id="2a27755f8a"><path d="M 541 486 L 606 486 L 606 551 L 541 551 Z M 541 486 " clip-rule="nonzero"/></clipPath><clipPath id="3348e99c92"><path d="M 529.089844 525.804688 L 566.597656 474.003906 L 618.398438 511.515625 L 580.886719 563.3125 Z M 529.089844 525.804688 " clip-rule="nonzero"/></clipPath><clipPath id="10a4d07e38"><path d="M 547.84375 499.90625 C 537.484375 514.207031 540.683594 534.199219 554.988281 544.558594 C 569.292969 554.917969 589.285156 551.71875 599.640625 537.414062 C 610 523.109375 606.800781 503.117188 592.496094 492.761719 C 578.191406 482.402344 558.199219 485.601562 547.84375 499.90625 Z M 547.84375 499.90625 " clip-rule="nonzero"/></clipPath><clipPath id="e73bd00750"><path d="M 198 542 L 263 542 L 263 607 L 198 607 Z M 198 542 " clip-rule="nonzero"/></clipPath><clipPath id="e802a084a2"><path d="M 185.546875 581.261719 L 223.054688 529.460938 L 274.855469 566.972656 L 237.347656 618.769531 Z M 185.546875 581.261719 " clip-rule="nonzero"/></clipPath><clipPath id="d6c5f3267f"><path d="M 204.300781 555.363281 C 193.945312 569.664062 197.144531 589.65625 211.445312 600.015625 C 225.75 610.375 245.742188 607.175781 256.101562 592.871094 C 266.457031 578.566406 263.257812 558.574219 248.957031 548.214844 C 234.652344 537.859375 214.660156 541.058594 204.300781 555.363281 Z M 204.300781 555.363281 " clip-rule="nonzero"/></clipPath><clipPath id="84064472ef"><path d="M 197 143 L 262 143 L 262 208 L 197 208 Z M 197 143 " clip-rule="nonzero"/></clipPath><clipPath id="82a0338c17"><path d="M 184.863281 168.75 L 236.539062 131.070312 L 274.21875 182.746094 L 222.542969 220.425781 Z M 184.863281 168.75 " clip-rule="nonzero"/></clipPath><clipPath id="4cad24caba"><path d="M 210.703125 149.910156 C 196.433594 160.316406 193.300781 180.320312 203.703125 194.589844 C 214.109375 208.859375 234.113281 211.992188 248.382812 201.585938 C 262.652344 191.179688 265.785156 171.179688 255.378906 156.910156 C 244.972656 142.640625 224.972656 139.507812 210.703125 149.910156 Z M 210.703125 149.910156 " clip-rule="nonzero"/></clipPath><clipPath id="5c074a10d5"><path d="M 540 197 L 605 197 L 605 262 L 540 262 Z M 540 197 " clip-rule="nonzero"/></clipPath><clipPath id="a2eff04f6e"><path d="M 527.632812 222.921875 L 579.308594 185.242188 L 616.988281 236.914062 L 565.316406 274.59375 Z M 527.632812 222.921875 " clip-rule="nonzero"/></clipPath><clipPath id="8fd2ef621e"><path d="M 553.472656 204.082031 C 539.203125 214.484375 536.070312 234.488281 546.476562 248.757812 C 556.878906 263.027344 576.882812 266.160156 591.152344 255.753906 C 605.421875 245.351562 608.554688 225.347656 598.148438 211.078125 C 587.746094 196.808594 567.742188 193.675781 553.472656 204.082031 Z M 553.472656 204.082031 " clip-rule="nonzero"/></clipPath><clipPath id="abd6469031"><path d="M 487 540 L 552 540 L 552 605 L 487 605 Z M 487 540 " clip-rule="nonzero"/></clipPath><clipPath id="977a94bc20"><path d="M 474.417969 565.839844 L 526.09375 528.160156 L 563.773438 579.835938 L 512.097656 617.515625 Z M 474.417969 565.839844 " clip-rule="nonzero"/></clipPath><clipPath id="44eb2603fb"><path d="M 500.253906 547 C 485.984375 557.40625 482.851562 577.410156 493.257812 591.679688 C 503.664062 605.949219 523.667969 609.082031 537.9375 598.675781 C 552.207031 588.269531 555.335938 568.265625 544.933594 553.996094 C 534.527344 539.726562 514.523438 536.59375 500.253906 547 Z M 500.253906 547 " clip-rule="nonzero"/></clipPath><clipPath id="78301ed68d"><path d="M 143 487 L 208 487 L 208 552 L 143 552 Z M 143 487 " clip-rule="nonzero"/></clipPath><clipPath id="cdd594711a"><path d="M 130.546875 512.476562 L 182.21875 474.792969 L 219.902344 526.46875 L 168.226562 564.148438 Z M 130.546875 512.476562 " clip-rule="nonzero"/></clipPath><clipPath id="7b0f45374f"><path d="M 156.382812 493.632812 C 142.113281 504.039062 138.980469 524.042969 149.386719 538.3125 C 159.792969 552.582031 179.792969 555.714844 194.0625 545.308594 C 208.332031 534.902344 211.464844 514.902344 201.058594 500.632812 C 190.65625 486.363281 170.652344 483.230469 156.382812 493.632812 Z M 156.382812 493.632812 " clip-rule="nonzero"/></clipPath><clipPath id="67da840988"><path d="M 375 178 L 421 178 L 421 225 L 375 225 Z M 375 178 " clip-rule="nonzero"/></clipPath><clipPath id="05049eb8ab"><path d="M 378.558594 176.109375 L 423.71875 182.019531 L 417.808594 227.179688 L 372.648438 221.273438 Z M 378.558594 176.109375 " clip-rule="nonzero"/></clipPath><clipPath id="675bbc0f3d"><path d="M 401.136719 179.066406 C 388.667969 177.433594 377.234375 186.222656 375.601562 198.691406 C 373.972656 211.160156 382.757812 222.59375 395.230469 224.226562 C 407.699219 225.859375 419.132812 217.070312 420.765625 204.601562 C 422.394531 192.128906 413.609375 180.699219 401.136719 179.066406 Z M 401.136719 179.066406 " clip-rule="nonzero"/></clipPath><clipPath id="1bbe395ff7"><path d="M 525 375 L 572 375 L 572 421 L 525 421 Z M 525 375 " clip-rule="nonzero"/></clipPath><clipPath id="37ccf30ba6"><path d="M 528.890625 372.265625 L 574.050781 378.175781 L 568.140625 423.335938 L 522.980469 417.425781 Z M 528.890625 372.265625 " clip-rule="nonzero"/></clipPath><clipPath id="42de4821e3"><path d="M 551.46875 375.222656 C 539 373.589844 527.566406 382.375 525.933594 394.847656 C 524.304688 407.316406 533.089844 418.75 545.5625 420.382812 C 558.03125 422.011719 569.464844 413.226562 571.09375 400.757812 C 572.726562 388.285156 563.941406 376.851562 551.46875 375.222656 Z M 551.46875 375.222656 " clip-rule="nonzero"/></clipPath><clipPath id="bc55af43d9"><path d="M 330 525 L 376 525 L 376 572 L 330 572 Z M 330 525 " clip-rule="nonzero"/></clipPath><clipPath id="2ccf771f42"><path d="M 333.152344 523.144531 L 378.3125 529.050781 L 372.402344 574.210938 L 327.242188 568.304688 Z M 333.152344 523.144531 " clip-rule="nonzero"/></clipPath><clipPath id="9834517627"><path d="M 355.730469 526.097656 C 343.261719 524.464844 331.828125 533.253906 330.199219 545.722656 C 328.566406 558.195312 337.351562 569.625 349.824219 571.257812 C 362.292969 572.890625 373.726562 564.101562 375.359375 551.632812 C 376.988281 539.160156 368.203125 527.730469 355.730469 526.097656 Z M 355.730469 526.097656 " clip-rule="nonzero"/></clipPath><clipPath id="7393bff062"><path d="M 178 329 L 225 329 L 225 376 L 178 376 Z M 178 329 " clip-rule="nonzero"/></clipPath><clipPath id="f3952537fb"><path d="M 181.859375 326.863281 L 227.019531 332.769531 L 221.109375 377.929688 L 175.949219 372.023438 Z M 181.859375 326.863281 " clip-rule="nonzero"/></clipPath><clipPath id="968059600e"><path d="M 204.4375 329.816406 C 191.96875 328.183594 180.535156 336.972656 178.902344 349.441406 C 177.269531 361.914062 186.058594 373.34375 198.527344 374.976562 C 211 376.609375 222.433594 367.820312 224.0625 355.351562 C 225.695312 342.878906 216.910156 331.449219 204.4375 329.816406 Z M 204.4375 329.816406 " clip-rule="nonzero"/></clipPath><clipPath id="46f14fbb8b"><path d="M 427 194 L 474 194 L 474 240 L 427 240 Z M 427 194 " clip-rule="nonzero"/></clipPath><clipPath id="c5f730737b"><path d="M 439.90625 186.460938 L 481.035156 206.027344 L 461.464844 247.15625 L 420.335938 227.585938 Z M 439.90625 186.460938 " clip-rule="nonzero"/></clipPath><clipPath id="339e646fc2"><path d="M 460.46875 196.246094 C 449.113281 190.839844 435.527344 195.667969 430.121094 207.023438 C 424.71875 218.378906 429.542969 231.96875 440.902344 237.371094 C 452.257812 242.773438 465.84375 237.949219 471.25 226.59375 C 476.652344 215.234375 471.828125 201.648438 460.46875 196.246094 Z M 460.46875 196.246094 " clip-rule="nonzero"/></clipPath><clipPath id="b15dd24c00"><path d="M 510 427 L 556 427 L 556 473 L 510 473 Z M 510 427 " clip-rule="nonzero"/></clipPath><clipPath id="1e2a608d33"><path d="M 522.300781 419.457031 L 563.425781 439.027344 L 543.859375 480.152344 L 502.730469 460.585938 Z M 522.300781 419.457031 " clip-rule="nonzero"/></clipPath><clipPath id="5ed20cfc8a"><path d="M 542.863281 429.242188 C 531.507812 423.839844 517.917969 428.664062 512.515625 440.019531 C 507.113281 451.378906 511.9375 464.964844 523.292969 470.371094 C 534.652344 475.773438 548.238281 470.945312 553.644531 459.589844 C 559.046875 448.234375 554.21875 434.644531 542.863281 429.242188 Z M 542.863281 429.242188 " clip-rule="nonzero"/></clipPath><clipPath id="975503cb23"><path d="M 277 510 L 324 510 L 324 556 L 277 556 Z M 277 510 " clip-rule="nonzero"/></clipPath><clipPath id="d18182a141"><path d="M 289.53125 502.5 L 330.660156 522.066406 L 311.089844 563.195312 L 269.964844 543.625 Z M 289.53125 502.5 " clip-rule="nonzero"/></clipPath><clipPath id="3f060ba553"><path d="M 310.09375 512.28125 C 298.738281 506.878906 285.152344 511.707031 279.746094 523.0625 C 274.34375 534.417969 279.171875 548.007812 290.527344 553.410156 C 301.882812 558.8125 315.472656 553.988281 320.875 542.628906 C 326.277344 531.273438 321.453125 517.6875 310.09375 512.28125 Z M 310.09375 512.28125 " clip-rule="nonzero"/></clipPath><clipPath id="fd6796a1a0"><path d="M 194 276 L 240 276 L 240 323 L 194 323 Z M 194 276 " clip-rule="nonzero"/></clipPath><clipPath id="a15deb8952"><path d="M 206.261719 269.082031 L 247.386719 288.652344 L 227.820312 329.777344 L 186.691406 310.210938 Z M 206.261719 269.082031 " clip-rule="nonzero"/></clipPath><clipPath id="c315a86ade"><path d="M 226.824219 278.867188 C 215.46875 273.464844 201.882812 278.289062 196.476562 289.648438 C 191.074219 301.003906 195.898438 314.589844 207.257812 319.996094 C 218.613281 325.398438 232.199219 320.574219 237.605469 309.214844 C 243.007812 297.859375 238.183594 284.273438 226.824219 278.867188 Z M 226.824219 278.867188 " clip-rule="nonzero"/></clipPath><clipPath id="25d900aa03"><path d="M 320 179 L 367 179 L 367 226 L 320 226 Z M 320 179 " clip-rule="nonzero"/></clipPath><clipPath id="4dc7f38ee5"><path d="M 316.917969 184.28125 L 361.691406 175.933594 L 370.035156 220.707031 L 325.261719 229.054688 Z M 316.917969 184.28125 " clip-rule="nonzero"/></clipPath><clipPath id="637cb78829"><path d="M 339.304688 180.105469 C 326.9375 182.410156 318.785156 194.304688 321.089844 206.667969 C 323.394531 219.03125 335.285156 227.1875 347.648438 224.882812 C 360.011719 222.578125 368.167969 210.6875 365.863281 198.320312 C 363.558594 185.957031 351.667969 177.804688 339.304688 180.105469 Z M 339.304688 180.105469 " clip-rule="nonzero"/></clipPath><clipPath id="b9979e1c9e"><path d="M 524 319 L 570 319 L 570 366 L 524 366 Z M 524 319 " clip-rule="nonzero"/></clipPath><clipPath id="857c735944"><path d="M 520.535156 324.335938 L 565.308594 315.992188 L 573.65625 360.765625 L 528.882812 369.109375 Z M 520.535156 324.335938 " clip-rule="nonzero"/></clipPath><clipPath id="c5867deedb"><path d="M 542.921875 320.164062 C 530.558594 322.46875 522.40625 334.359375 524.707031 346.722656 C 527.011719 359.085938 538.90625 367.242188 551.269531 364.9375 C 563.632812 362.632812 571.789062 350.742188 569.484375 338.378906 C 567.179688 326.011719 555.289062 317.859375 542.921875 320.164062 Z M 542.921875 320.164062 " clip-rule="nonzero"/></clipPath><clipPath id="6165910016"><path d="M 384 523 L 431 523 L 431 570 L 384 570 Z M 384 523 " clip-rule="nonzero"/></clipPath><clipPath id="975622f5b8"><path d="M 381.046875 528.34375 L 425.820312 520 L 434.167969 564.773438 L 389.390625 573.117188 Z M 381.046875 528.34375 " clip-rule="nonzero"/></clipPath><clipPath id="93b294b4ba"><path d="M 403.433594 524.171875 C 391.070312 526.476562 382.914062 538.367188 385.21875 550.730469 C 387.523438 563.09375 399.414062 571.25 411.78125 568.945312 C 424.144531 566.640625 432.296875 554.75 429.992188 542.386719 C 427.6875 530.023438 415.796875 521.867188 403.433594 524.171875 Z M 403.433594 524.171875 " clip-rule="nonzero"/></clipPath><clipPath id="a3808bf626"><path d="M 180 383 L 226 383 L 226 430 L 180 430 Z M 180 383 " clip-rule="nonzero"/></clipPath><clipPath id="b5e72e0ded"><path d="M 176.472656 388.464844 L 221.246094 380.121094 L 229.589844 424.894531 L 184.816406 433.242188 Z M 176.472656 388.464844 " clip-rule="nonzero"/></clipPath><clipPath id="41084a4883"><path d="M 198.859375 384.292969 C 186.496094 386.597656 178.339844 398.488281 180.644531 410.855469 C 182.949219 423.21875 194.839844 431.371094 207.203125 429.066406 C 219.570312 426.761719 227.722656 414.871094 225.417969 402.507812 C 223.113281 390.144531 211.222656 381.988281 198.859375 384.292969 Z M 198.859375 384.292969 " clip-rule="nonzero"/></clipPath><clipPath id="05f6371695"><path d="M 224 231 L 271 231 L 271 278 L 224 278 Z M 224 231 " clip-rule="nonzero"/></clipPath><clipPath id="213aba02d4"><path d="M 215.4375 255.441406 L 246.710938 222.328125 L 279.824219 253.601562 L 248.550781 286.710938 Z M 215.4375 255.441406 " clip-rule="nonzero"/></clipPath><clipPath id="533111606f"><path d="M 231.074219 238.882812 C 222.441406 248.027344 222.851562 262.441406 231.996094 271.074219 C 241.136719 279.710938 255.550781 279.300781 264.1875 270.15625 C 272.824219 261.011719 272.410156 246.601562 263.269531 237.964844 C 254.125 229.328125 239.710938 229.738281 231.074219 238.882812 Z M 231.074219 238.882812 " clip-rule="nonzero"/></clipPath><clipPath id="6c66942ea6"><path d="M 471 225 L 518 225 L 518 271 L 471 271 Z M 471 225 " clip-rule="nonzero"/></clipPath><clipPath id="5ad412e011"><path d="M 462.484375 248.726562 L 493.757812 215.613281 L 526.871094 246.886719 L 495.597656 280 Z M 462.484375 248.726562 " clip-rule="nonzero"/></clipPath><clipPath id="30c350b320"><path d="M 478.121094 232.167969 C 469.484375 241.3125 469.898438 255.726562 479.039062 264.363281 C 488.183594 272.996094 502.597656 272.585938 511.234375 263.441406 C 519.867188 254.300781 519.457031 239.886719 510.3125 231.25 C 501.167969 222.613281 486.757812 223.027344 478.121094 232.167969 Z M 478.121094 232.167969 " clip-rule="nonzero"/></clipPath><clipPath id="9f44185d08"><path d="M 479 472 L 525 472 L 525 518 L 479 518 Z M 479 472 " clip-rule="nonzero"/></clipPath><clipPath id="74664057cd"><path d="M 469.886719 495.753906 L 501.15625 462.640625 L 534.269531 493.914062 L 502.996094 527.023438 Z M 469.886719 495.753906 " clip-rule="nonzero"/></clipPath><clipPath id="771aedf89c"><path d="M 485.519531 479.195312 C 476.886719 488.339844 477.296875 502.753906 486.441406 511.386719 C 495.585938 520.023438 509.996094 519.613281 518.632812 510.46875 C 527.269531 501.324219 526.855469 486.914062 517.714844 478.277344 C 508.570312 469.640625 494.15625 470.050781 485.519531 479.195312 Z M 485.519531 479.195312 " clip-rule="nonzero"/></clipPath><clipPath id="760dcc26e3"><path d="M 231 479 L 278 479 L 278 526 L 231 526 Z M 231 479 " clip-rule="nonzero"/></clipPath><clipPath id="503f579643"><path d="M 222.171875 503.171875 L 253.445312 470.058594 L 286.558594 501.332031 L 255.285156 534.445312 Z M 222.171875 503.171875 " clip-rule="nonzero"/></clipPath><clipPath id="ad1e981252"><path d="M 237.808594 486.617188 C 229.171875 495.757812 229.585938 510.171875 238.726562 518.808594 C 247.871094 527.445312 262.285156 527.03125 270.921875 517.886719 C 279.554688 508.746094 279.144531 494.332031 270 485.695312 C 260.855469 477.058594 246.445312 477.472656 237.808594 486.617188 Z M 237.808594 486.617188 " clip-rule="nonzero"/></clipPath><clipPath id="220d4cee25"><path d="M 267 198 L 314 198 L 314 244 L 267 244 Z M 267 198 " clip-rule="nonzero"/></clipPath><clipPath id="e1c1089592"><path d="M 259.800781 211.820312 L 299.773438 189.988281 L 321.605469 229.957031 L 281.636719 251.789062 Z M 259.800781 211.820312 " clip-rule="nonzero"/></clipPath><clipPath id="f1b258a026"><path d="M 279.789062 200.902344 C 268.75 206.933594 264.691406 220.769531 270.71875 231.804688 C 276.75 242.84375 290.582031 246.902344 301.621094 240.875 C 312.660156 234.84375 316.71875 221.007812 310.691406 209.972656 C 304.660156 198.933594 290.824219 194.875 279.789062 200.902344 Z M 279.789062 200.902344 " clip-rule="nonzero"/></clipPath><clipPath id="c16edd5d78"><path d="M 504 268 L 551 268 L 551 314 L 504 314 Z M 504 268 " clip-rule="nonzero"/></clipPath><clipPath id="83ccf26715"><path d="M 496.84375 281.742188 L 536.8125 259.90625 L 558.648438 299.878906 L 518.675781 321.710938 Z M 496.84375 281.742188 " clip-rule="nonzero"/></clipPath><clipPath id="c987e640c5"><path d="M 516.828125 270.824219 C 505.789062 276.851562 501.730469 290.6875 507.757812 301.726562 C 513.789062 312.761719 527.625 316.824219 538.660156 310.792969 C 549.699219 304.765625 553.757812 290.929688 547.730469 279.890625 C 541.699219 268.855469 527.867188 264.792969 516.828125 270.824219 Z M 516.828125 270.824219 " clip-rule="nonzero"/></clipPath><clipPath id="e6e30f6acb"><path d="M 435 505 L 482 505 L 482 551 L 435 551 Z M 435 505 " clip-rule="nonzero"/></clipPath><clipPath id="8324c10f3c"><path d="M 427.582031 518.972656 L 467.550781 497.140625 L 489.386719 537.109375 L 449.414062 558.945312 Z M 427.582031 518.972656 " clip-rule="nonzero"/></clipPath><clipPath id="3e39902203"><path d="M 447.566406 508.058594 C 436.527344 514.085938 432.46875 527.921875 438.496094 538.960938 C 444.527344 549.996094 458.363281 554.058594 469.398438 548.027344 C 480.4375 542 484.496094 528.164062 478.46875 517.125 C 472.4375 506.085938 458.605469 502.027344 447.566406 508.058594 Z M 447.566406 508.058594 " clip-rule="nonzero"/></clipPath><clipPath id="847cc0af72"><path d="M 197 435 L 244 435 L 244 482 L 197 482 Z M 197 435 " clip-rule="nonzero"/></clipPath><clipPath id="e7ce174bf4"><path d="M 189.6875 449.519531 L 229.660156 427.683594 L 251.492188 467.65625 L 211.523438 489.488281 Z M 189.6875 449.519531 " clip-rule="nonzero"/></clipPath><clipPath id="83d3071b25"><path d="M 209.675781 438.601562 C 198.636719 444.632812 194.578125 458.464844 200.605469 469.503906 C 206.632812 480.542969 220.46875 484.601562 231.507812 478.574219 C 242.546875 472.542969 246.605469 458.707031 240.578125 447.671875 C 234.546875 436.632812 220.710938 432.574219 209.675781 438.601562 Z M 209.675781 438.601562 " clip-rule="nonzero"/></clipPath></defs><g clip-path="url(#82093f67fb)"><g clip-path="url(#804a001f25)"><g clip-path="url(#25a7f1e654)"><path fill="#ffffff" d="M 293.3125 9.199219 L 378.613281 0 L 387.8125 85.300781 L 302.511719 94.5 Z M 293.3125 9.199219 " fill-opacity="1" fill-rule="nonzero"/></g></g></g><g clip-path="url(#bb42dce761)"><g clip-path="url(#91c2a533fd)"><g clip-path="url(#b3e8820c52)"><path fill="#ffffff" d="M 655.5 301.699219 L 740.800781 292.5 L 750 377.800781 L 664.699219 387 Z M 655.5 301.699219 " fill-opacity="1" fill-rule="nonzero"/></g></g></g><g clip-path="url(#fa4dda7ecc)"><g clip-path="url(#1ee348a5cd)"><g clip-path="url(#f9e9707229)"><path fill="#ffffff" d="M 364.003906 664.699219 L 449.308594 655.5 L 458.507812 740.800781 L 373.207031 750 Z M 364.003906 664.699219 " fill-opacity="1" fill-rule="nonzero"/></g></g></g><g clip-path="url(#b2bc313ff2)"><g clip-path="url(#c2b2d97ffb)"><g clip-path="url(#9ad37797f5)"><path fill="#ffffff" d="M 0 372.394531 L 85.300781 363.195312 L 94.5 448.496094 L 9.199219 457.695312 Z M 0 372.394531 " fill-opacity="1" fill-rule="nonzero"/></g></g></g><g clip-path="url(#2767549b0c)"><g clip-path="url(#4c337ddd63)"><g clip-path="url(#82d788e556)"><path fill="#ffffff" d="M 410.222656 0.949219 L 494.195312 18.546875 L 476.597656 102.519531 L 392.625 84.921875 Z M 410.222656 0.949219 " fill-opacity="1" fill-rule="nonzero"/></g></g></g><g clip-path="url(#6227d34e9e)"><g clip-path="url(#8d946a443d)"><g clip-path="url(#7db92c877d)"><path fill="#ffffff" d="M 664.355469 391.019531 L 748.328125 408.617188 L 730.730469 492.589844 L 646.757812 474.992188 Z M 664.355469 391.019531 " fill-opacity="1" fill-rule="nonzero"/></g></g></g><g clip-path="url(#fad1c1fe9f)"><g clip-path="url(#3dee91610f)"><g clip-path="url(#61d76c94ff)"><path fill="#ffffff" d="M 274.996094 646.230469 L 358.96875 663.828125 L 341.371094 747.800781 L 257.398438 730.203125 Z M 274.996094 646.230469 " fill-opacity="1" fill-rule="nonzero"/></g></g></g><g clip-path="url(#fa5cd94753)"><g clip-path="url(#94f6ae01c7)"><g clip-path="url(#1174065624)"><path fill="#ffffff" d="M 19.074219 255.789062 L 103.046875 273.386719 L 85.449219 357.359375 L 1.476562 339.761719 Z M 19.074219 255.789062 " fill-opacity="1" fill-rule="nonzero"/></g></g></g><g clip-path="url(#e570f4e182)"><g clip-path="url(#c89336c5b6)"><g clip-path="url(#1d66d6e91c)"><path fill="#ffffff" d="M 184.070312 51.484375 L 262.347656 16.355469 L 297.476562 94.632812 L 219.199219 129.761719 Z M 184.070312 51.484375 " fill-opacity="1" fill-rule="nonzero"/></g></g></g><g clip-path="url(#b91601c5d3)"><g clip-path="url(#abd1f86a9f)"><g clip-path="url(#4051885502)"><path fill="#ffffff" d="M 618.957031 217.648438 L 697.234375 182.523438 L 732.359375 260.800781 L 654.082031 295.925781 Z M 618.957031 217.648438 " fill-opacity="1" fill-rule="nonzero"/></g></g></g><g clip-path="url(#b8d1b15ec2)"><g clip-path="url(#a0dd7490f8)"><g clip-path="url(#7f95611778)"><path fill="#ffffff" d="M 454 652.996094 L 532.273438 617.867188 L 567.402344 696.144531 L 489.125 731.269531 Z M 454 652.996094 " fill-opacity="1" fill-rule="nonzero"/></g></g></g><g clip-path="url(#51f4a61b17)"><g clip-path="url(#9f6bfe9c9a)"><g clip-path="url(#6e0a8e0e40)"><path fill="#ffffff" d="M 17.445312 487.578125 L 95.722656 452.449219 L 130.847656 530.726562 L 52.570312 565.851562 Z M 17.445312 487.578125 " fill-opacity="1" fill-rule="nonzero"/></g></g></g><g clip-path="url(#3080c0ad4e)"><g clip-path="url(#82ede1d8b7)"><g clip-path="url(#80110c9f57)"><path fill="#ffffff" d="M 29.824219 226.757812 L 72.402344 152.273438 L 146.886719 194.851562 L 104.308594 269.335938 Z M 29.824219 226.757812 " fill-opacity="1" fill-rule="nonzero"/></g></g></g><g clip-path="url(#c222e78dd4)"><g clip-path="url(#4500a22a47)"><g clip-path="url(#c8e6b097a8)"><path fill="#ffffff" d="M 479.15625 104.957031 L 521.734375 30.472656 L 596.21875 73.050781 L 553.640625 147.539062 Z M 479.15625 104.957031 " fill-opacity="1" fill-rule="nonzero"/></g></g></g><g clip-path="url(#2c55e9fbf0)"><g clip-path="url(#5cb02c7e3f)"><g clip-path="url(#bfbba2228e)"><path fill="#ffffff" d="M 602.203125 553.953125 L 644.78125 479.464844 L 719.265625 522.046875 L 676.6875 596.53125 Z M 602.203125 553.953125 " fill-opacity="1" fill-rule="nonzero"/></g></g></g><g clip-path="url(#d8188393be)"><g clip-path="url(#ce15846606)"><g clip-path="url(#dc18557ca0)"><path fill="#ffffff" d="M 151.960938 677.339844 L 194.539062 602.851562 L 269.027344 645.433594 L 226.445312 719.917969 Z M 151.960938 677.339844 " fill-opacity="1" fill-rule="nonzero"/></g></g></g><g clip-path="url(#db942610d7)"><g clip-path="url(#0a8e1ae8b4)"><g clip-path="url(#0d4b83d965)"><path fill="#ffffff" d="M 91.710938 127.226562 L 155.214844 69.535156 L 212.90625 133.039062 L 149.402344 190.730469 Z M 91.710938 127.226562 " fill-opacity="1" fill-rule="nonzero"/></g></g></g><g clip-path="url(#56f7f5fddf)"><g clip-path="url(#33ac2e6384)"><g clip-path="url(#ea4f308d3f)"><path fill="#ffffff" d="M 556.695312 150.171875 L 620.195312 92.480469 L 677.890625 155.980469 L 614.386719 213.675781 Z M 556.695312 150.171875 " fill-opacity="1" fill-rule="nonzero"/></g></g></g><g clip-path="url(#d21c84eebf)"><g clip-path="url(#8d8fb833ae)"><g clip-path="url(#205de6faf9)"><path fill="#ffffff" d="M 535.042969 615.214844 L 598.542969 557.523438 L 656.238281 621.027344 L 592.734375 678.71875 Z M 535.042969 615.214844 " fill-opacity="1" fill-rule="nonzero"/></g></g></g><g clip-path="url(#84a66329e7)"><g clip-path="url(#78f0945b00)"><g clip-path="url(#7493499212)"><path fill="#ffffff" d="M 68.703125 593.5 L 132.207031 535.808594 L 189.898438 599.3125 L 126.394531 657.003906 Z M 68.703125 593.5 " fill-opacity="1" fill-rule="nonzero"/></g></g></g><g clip-path="url(#7a822a7fa3)"><g clip-path="url(#88224edc09)"><path fill="#ffffff" d="M 343.703125 97.398438 L 407.660156 97.398438 L 407.660156 161.351562 L 343.703125 161.351562 Z M 343.703125 97.398438 " fill-opacity="1" fill-rule="nonzero"/></g></g><g clip-path="url(#580d97898c)"><g clip-path="url(#51d5090706)"><path fill="#ffffff" d="M 588.746094 343.121094 L 652.699219 343.121094 L 652.699219 407.074219 L 588.746094 407.074219 Z M 588.746094 343.121094 " fill-opacity="1" fill-rule="nonzero"/></g></g><g clip-path="url(#cf3c3eafae)"><g clip-path="url(#b972803da8)"><path fill="#ffffff" d="M 343.703125 588.84375 L 407.660156 588.84375 L 407.660156 652.800781 L 343.703125 652.800781 Z M 343.703125 588.84375 " fill-opacity="1" fill-rule="nonzero"/></g></g><g clip-path="url(#eb2fb946af)"><g clip-path="url(#c684aad785)"><path fill="#ffffff" d="M 97.300781 343.121094 L 161.253906 343.121094 L 161.253906 407.074219 L 97.300781 407.074219 Z M 97.300781 343.121094 " fill-opacity="1" fill-rule="nonzero"/></g></g><g clip-path="url(#67ad492bb9)"><g clip-path="url(#fcc70a6bfc)"><g clip-path="url(#e2658ff6dc)"><path fill="#ffffff" d="M 431.007812 100.628906 L 491.835938 120.382812 L 472.082031 181.210938 L 411.253906 161.457031 Z M 431.007812 100.628906 " fill-opacity="1" fill-rule="nonzero"/></g></g></g><g clip-path="url(#9400efec8b)"><g clip-path="url(#29ec03cd4e)"><g clip-path="url(#58c624a13b)"><path fill="#ffffff" d="M 588.171875 410.023438 L 648.996094 429.777344 L 629.242188 490.605469 L 568.417969 470.851562 Z M 588.171875 410.023438 " fill-opacity="1" fill-rule="nonzero"/></g></g></g><g clip-path="url(#15b8d1bc5d)"><g clip-path="url(#1c25ce398a)"><g clip-path="url(#e275c2a854)"><path fill="#ffffff" d="M 279.214844 568.046875 L 340.039062 587.800781 L 320.285156 648.628906 L 259.460938 628.875 Z M 279.214844 568.046875 " fill-opacity="1" fill-rule="nonzero"/></g></g></g><g clip-path="url(#4e81d053a7)"><g clip-path="url(#b0db425c8e)"><g clip-path="url(#74ff690974)"><path fill="#ffffff" d="M 120.753906 258.230469 L 181.578125 277.984375 L 161.824219 338.808594 L 101 319.054688 Z M 120.753906 258.230469 " fill-opacity="1" fill-rule="nonzero"/></g></g></g><g clip-path="url(#53748b8370)"><g clip-path="url(#8af812c3e1)"><g clip-path="url(#83e3eca9a2)"><path fill="#ffffff" d="M 259.367188 120 L 320.1875 100.226562 L 339.964844 161.042969 L 279.144531 180.820312 Z M 259.367188 120 " fill-opacity="1" fill-rule="nonzero"/></g></g></g><g clip-path="url(#b958095e95)"><g clip-path="url(#09d79ce499)"><g clip-path="url(#687cfcca38)"><path fill="#ffffff" d="M 568.382812 277.910156 L 629.203125 258.132812 L 648.980469 318.953125 L 588.160156 338.726562 Z M 568.382812 277.910156 " fill-opacity="1" fill-rule="nonzero"/></g></g></g><g clip-path="url(#e6f8888284)"><g clip-path="url(#86f176c95a)"><g clip-path="url(#b9d01c3218)"><path fill="#ffffff" d="M 411.335938 587.363281 L 472.15625 567.585938 L 491.929688 628.40625 L 431.113281 648.183594 Z M 411.335938 587.363281 " fill-opacity="1" fill-rule="nonzero"/></g></g></g><g clip-path="url(#0f5f8c9969)"><g clip-path="url(#77d175a001)"><g clip-path="url(#6a89ee80a6)"><path fill="#ffffff" d="M 101.023438 429.878906 L 161.84375 410.101562 L 181.617188 470.921875 L 120.796875 490.695312 Z M 101.023438 429.878906 " fill-opacity="1" fill-rule="nonzero"/></g></g></g><g clip-path="url(#3ee822765b)"><g clip-path="url(#32698ec670)"><g clip-path="url(#5639979e2e)"><path fill="#ffffff" d="M 131.042969 237.566406 L 168.550781 185.769531 L 220.351562 223.277344 L 182.839844 275.078125 Z M 131.042969 237.566406 " fill-opacity="1" fill-rule="nonzero"/></g></g></g><g clip-path="url(#9fed0af140)"><g clip-path="url(#9aa7ac368b)"><g clip-path="url(#336b631aee)"><path fill="#ffffff" d="M 473.785156 183.214844 L 511.292969 131.417969 L 563.09375 168.925781 L 525.582031 220.722656 Z M 473.785156 183.214844 " fill-opacity="1" fill-rule="nonzero"/></g></g></g><g clip-path="url(#2a27755f8a)"><g clip-path="url(#3348e99c92)"><g clip-path="url(#10a4d07e38)"><path fill="#ffffff" d="M 529.089844 525.804688 L 566.597656 474.003906 L 618.398438 511.515625 L 580.886719 563.3125 Z M 529.089844 525.804688 " fill-opacity="1" fill-rule="nonzero"/></g></g></g><g clip-path="url(#e73bd00750)"><g clip-path="url(#e802a084a2)"><g clip-path="url(#d6c5f3267f)"><path fill="#ffffff" d="M 185.546875 581.261719 L 223.054688 529.460938 L 274.855469 566.972656 L 237.347656 618.769531 Z M 185.546875 581.261719 " fill-opacity="1" fill-rule="nonzero"/></g></g></g><g clip-path="url(#84064472ef)"><g clip-path="url(#82a0338c17)"><g clip-path="url(#4cad24caba)"><path fill="#ffffff" d="M 184.863281 168.75 L 236.539062 131.070312 L 274.21875 182.746094 L 222.542969 220.425781 Z M 184.863281 168.75 " fill-opacity="1" fill-rule="nonzero"/></g></g></g><g clip-path="url(#5c074a10d5)"><g clip-path="url(#a2eff04f6e)"><g clip-path="url(#8fd2ef621e)"><path fill="#ffffff" d="M 527.632812 222.921875 L 579.308594 185.242188 L 616.988281 236.914062 L 565.316406 274.59375 Z M 527.632812 222.921875 " fill-opacity="1" fill-rule="nonzero"/></g></g></g><g clip-path="url(#abd6469031)"><g clip-path="url(#977a94bc20)"><g clip-path="url(#44eb2603fb)"><path fill="#ffffff" d="M 474.417969 565.839844 L 526.09375 528.160156 L 563.773438 579.835938 L 512.097656 617.515625 Z M 474.417969 565.839844 " fill-opacity="1" fill-rule="nonzero"/></g></g></g><g clip-path="url(#78301ed68d)"><g clip-path="url(#cdd594711a)"><g clip-path="url(#7b0f45374f)"><path fill="#ffffff" d="M 130.546875 512.476562 L 182.21875 474.792969 L 219.902344 526.46875 L 168.226562 564.148438 Z M 130.546875 512.476562 " fill-opacity="1" fill-rule="nonzero"/></g></g></g><g clip-path="url(#67da840988)"><g clip-path="url(#05049eb8ab)"><g clip-path="url(#675bbc0f3d)"><path fill="#ffffff" d="M 378.558594 176.109375 L 423.71875 182.019531 L 417.808594 227.179688 L 372.648438 221.273438 Z M 378.558594 176.109375 " fill-opacity="1" fill-rule="nonzero"/></g></g></g><g clip-path="url(#1bbe395ff7)"><g clip-path="url(#37ccf30ba6)"><g clip-path="url(#42de4821e3)"><path fill="#ffffff" d="M 528.890625 372.265625 L 574.050781 378.175781 L 568.140625 423.335938 L 522.980469 417.425781 Z M 528.890625 372.265625 " fill-opacity="1" fill-rule="nonzero"/></g></g></g><g clip-path="url(#bc55af43d9)"><g clip-path="url(#2ccf771f42)"><g clip-path="url(#9834517627)"><path fill="#ffffff" d="M 333.152344 523.144531 L 378.3125 529.050781 L 372.402344 574.210938 L 327.242188 568.304688 Z M 333.152344 523.144531 " fill-opacity="1" fill-rule="nonzero"/></g></g></g><g clip-path="url(#7393bff062)"><g clip-path="url(#f3952537fb)"><g clip-path="url(#968059600e)"><path fill="#ffffff" d="M 181.859375 326.863281 L 227.019531 332.769531 L 221.109375 377.929688 L 175.949219 372.023438 Z M 181.859375 326.863281 " fill-opacity="1" fill-rule="nonzero"/></g></g></g><g clip-path="url(#46f14fbb8b)"><g clip-path="url(#c5f730737b)"><g clip-path="url(#339e646fc2)"><path fill="#ffffff" d="M 439.90625 186.460938 L 481.035156 206.027344 L 461.464844 247.15625 L 420.335938 227.585938 Z M 439.90625 186.460938 " fill-opacity="1" fill-rule="nonzero"/></g></g></g><g clip-path="url(#b15dd24c00)"><g clip-path="url(#1e2a608d33)"><g clip-path="url(#5ed20cfc8a)"><path fill="#ffffff" d="M 522.300781 419.457031 L 563.425781 439.027344 L 543.859375 480.152344 L 502.730469 460.585938 Z M 522.300781 419.457031 " fill-opacity="1" fill-rule="nonzero"/></g></g></g><g clip-path="url(#975503cb23)"><g clip-path="url(#d18182a141)"><g clip-path="url(#3f060ba553)"><path fill="#ffffff" d="M 289.53125 502.5 L 330.660156 522.066406 L 311.089844 563.195312 L 269.964844 543.625 Z M 289.53125 502.5 " fill-opacity="1" fill-rule="nonzero"/></g></g></g><g clip-path="url(#fd6796a1a0)"><g clip-path="url(#a15deb8952)"><g clip-path="url(#c315a86ade)"><path fill="#ffffff" d="M 206.261719 269.082031 L 247.386719 288.652344 L 227.820312 329.777344 L 186.691406 310.210938 Z M 206.261719 269.082031 " fill-opacity="1" fill-rule="nonzero"/></g></g></g><g clip-path="url(#25d900aa03)"><g clip-path="url(#4dc7f38ee5)"><g clip-path="url(#637cb78829)"><path fill="#ffffff" d="M 316.917969 184.28125 L 361.691406 175.933594 L 370.035156 220.707031 L 325.261719 229.054688 Z M 316.917969 184.28125 " fill-opacity="1" fill-rule="nonzero"/></g></g></g><g clip-path="url(#b9979e1c9e)"><g clip-path="url(#857c735944)"><g clip-path="url(#c5867deedb)"><path fill="#ffffff" d="M 520.535156 324.335938 L 565.308594 315.992188 L 573.65625 360.765625 L 528.882812 369.109375 Z M 520.535156 324.335938 " fill-opacity="1" fill-rule="nonzero"/></g></g></g><g clip-path="url(#6165910016)"><g clip-path="url(#975622f5b8)"><g clip-path="url(#93b294b4ba)"><path fill="#ffffff" d="M 381.046875 528.34375 L 425.820312 520 L 434.167969 564.773438 L 389.390625 573.117188 Z M 381.046875 528.34375 " fill-opacity="1" fill-rule="nonzero"/></g></g></g><g clip-path="url(#a3808bf626)"><g clip-path="url(#b5e72e0ded)"><g clip-path="url(#41084a4883)"><path fill="#ffffff" d="M 176.472656 388.464844 L 221.246094 380.121094 L 229.589844 424.894531 L 184.816406 433.242188 Z M 176.472656 388.464844 " fill-opacity="1" fill-rule="nonzero"/></g></g></g><g clip-path="url(#05f6371695)"><g clip-path="url(#213aba02d4)"><g clip-path="url(#533111606f)"><path fill="#ffffff" d="M 215.4375 255.441406 L 246.710938 222.328125 L 279.824219 253.601562 L 248.550781 286.710938 Z M 215.4375 255.441406 " fill-opacity="1" fill-rule="nonzero"/></g></g></g><g clip-path="url(#6c66942ea6)"><g clip-path="url(#5ad412e011)"><g clip-path="url(#30c350b320)"><path fill="#ffffff" d="M 462.484375 248.726562 L 493.757812 215.613281 L 526.871094 246.886719 L 495.597656 280 Z M 462.484375 248.726562 " fill-opacity="1" fill-rule="nonzero"/></g></g></g><g clip-path="url(#9f44185d08)"><g clip-path="url(#74664057cd)"><g clip-path="url(#771aedf89c)"><path fill="#ffffff" d="M 469.886719 495.753906 L 501.15625 462.640625 L 534.269531 493.914062 L 502.996094 527.023438 Z M 469.886719 495.753906 " fill-opacity="1" fill-rule="nonzero"/></g></g></g><g clip-path="url(#760dcc26e3)"><g clip-path="url(#503f579643)"><g clip-path="url(#ad1e981252)"><path fill="#ffffff" d="M 222.171875 503.171875 L 253.445312 470.058594 L 286.558594 501.332031 L 255.285156 534.445312 Z M 222.171875 503.171875 " fill-opacity="1" fill-rule="nonzero"/></g></g></g><g clip-path="url(#220d4cee25)"><g clip-path="url(#e1c1089592)"><g clip-path="url(#f1b258a026)"><path fill="#ffffff" d="M 259.800781 211.820312 L 299.773438 189.988281 L 321.605469 229.957031 L 281.636719 251.789062 Z M 259.800781 211.820312 " fill-opacity="1" fill-rule="nonzero"/></g></g></g><g clip-path="url(#c16edd5d78)"><g clip-path="url(#83ccf26715)"><g clip-path="url(#c987e640c5)"><path fill="#ffffff" d="M 496.84375 281.742188 L 536.8125 259.90625 L 558.648438 299.878906 L 518.675781 321.710938 Z M 496.84375 281.742188 " fill-opacity="1" fill-rule="nonzero"/></g></g></g><g clip-path="url(#e6e30f6acb)"><g clip-path="url(#8324c10f3c)"><g clip-path="url(#3e39902203)"><path fill="#ffffff" d="M 427.582031 518.972656 L 467.550781 497.140625 L 489.386719 537.109375 L 449.414062 558.945312 Z M 427.582031 518.972656 " fill-opacity="1" fill-rule="nonzero"/></g></g></g><g clip-path="url(#847cc0af72)"><g clip-path="url(#e7ce174bf4)"><g clip-path="url(#83d3071b25)"><path fill="#ffffff" d="M 189.6875 449.519531 L 229.660156 427.683594 L 251.492188 467.65625 L 211.523438 489.488281 Z M 189.6875 449.519531 " fill-opacity="1" fill-rule="nonzero"/></g></g></g></svg>