<svg xmlns="http://www.w3.org/2000/svg" xmlns:xlink="http://www.w3.org/1999/xlink" width="1000" zoomAndPan="magnify" viewBox="0 0 750 149.999998" height="200" preserveAspectRatio="xMidYMid meet" version="1.0"><defs><g/><clipPath id="8c8da4a23a"><path d="M 57 15 L 72 15 L 72 29 L 57 29 Z M 57 15 " clip-rule="nonzero"/></clipPath><clipPath id="f5bc8c7d81"><path d="M 56.65625 15.898438 L 70.4375 14.414062 L 71.921875 28.195312 L 58.140625 29.679688 Z M 56.65625 15.898438 " clip-rule="nonzero"/></clipPath><clipPath id="35b7f8016e"><path d="M 63.546875 15.15625 C 59.738281 15.566406 56.988281 18.984375 57.398438 22.789062 C 57.808594 26.597656 61.226562 29.347656 65.03125 28.9375 C 68.835938 28.527344 71.589844 25.109375 71.179688 21.304688 C 70.769531 17.5 67.351562 14.746094 63.546875 15.15625 Z M 63.546875 15.15625 " clip-rule="nonzero"/></clipPath><clipPath id="5201c541dc"><path d="M 115 62 L 130 62 L 130 77 L 115 77 Z M 115 62 " clip-rule="nonzero"/></clipPath><clipPath id="3208b6e1eb"><path d="M 115.171875 63.15625 L 128.953125 61.671875 L 130.4375 75.453125 L 116.65625 76.9375 Z M 115.171875 63.15625 " clip-rule="nonzero"/></clipPath><clipPath id="4a3def5254"><path d="M 122.0625 62.414062 C 118.257812 62.824219 115.503906 66.242188 115.914062 70.046875 C 116.324219 73.855469 119.742188 76.605469 123.546875 76.195312 C 127.355469 75.785156 130.105469 72.367188 129.695312 68.5625 C 129.285156 64.757812 125.867188 62.003906 122.0625 62.414062 Z M 122.0625 62.414062 " clip-rule="nonzero"/></clipPath><clipPath id="9783673c48"><path d="M 68 121 L 83 121 L 83 135 L 68 135 Z M 68 121 " clip-rule="nonzero"/></clipPath><clipPath id="22f20c9ed2"><path d="M 68.078125 121.804688 L 81.859375 120.320312 L 83.34375 134.101562 L 69.5625 135.585938 Z M 68.078125 121.804688 " clip-rule="nonzero"/></clipPath><clipPath id="039284c5c8"><path d="M 74.96875 121.0625 C 71.160156 121.472656 68.410156 124.890625 68.820312 128.695312 C 69.230469 132.5 72.648438 135.253906 76.453125 134.84375 C 80.257812 134.433594 83.011719 131.015625 82.601562 127.210938 C 82.191406 123.402344 78.773438 120.652344 74.96875 121.0625 Z M 74.96875 121.0625 " clip-rule="nonzero"/></clipPath><clipPath id="a778d6499e"><path d="M 9 73 L 24 73 L 24 88 L 9 88 Z M 9 73 " clip-rule="nonzero"/></clipPath><clipPath id="6eff337c3e"><path d="M 9.265625 74.578125 L 23.046875 73.09375 L 24.535156 86.875 L 10.753906 88.359375 Z M 9.265625 74.578125 " clip-rule="nonzero"/></clipPath><clipPath id="8876dcc40f"><path d="M 16.15625 73.835938 C 12.351562 74.246094 9.597656 77.664062 10.007812 81.46875 C 10.417969 85.277344 13.835938 88.027344 17.644531 87.617188 C 21.449219 87.207031 24.203125 83.789062 23.789062 79.984375 C 23.378906 76.179688 19.960938 73.425781 16.15625 73.835938 Z M 16.15625 73.835938 " clip-rule="nonzero"/></clipPath><clipPath id="5df8b7b934"><path d="M 73 15 L 88 15 L 88 30 L 73 30 Z M 73 15 " clip-rule="nonzero"/></clipPath><clipPath id="c25e26ce24"><path d="M 75.542969 14.566406 L 89.109375 17.410156 L 86.265625 30.976562 L 72.699219 28.132812 Z M 75.542969 14.566406 " clip-rule="nonzero"/></clipPath><clipPath id="b83c24cc72"><path d="M 82.328125 15.988281 C 78.582031 15.203125 74.90625 17.605469 74.121094 21.351562 C 73.335938 25.097656 75.738281 28.769531 79.484375 29.554688 C 83.230469 30.339844 86.902344 27.941406 87.6875 24.195312 C 88.472656 20.445312 86.074219 16.773438 82.328125 15.988281 Z M 82.328125 15.988281 " clip-rule="nonzero"/></clipPath><clipPath id="a60743ef5b"><path d="M 115 78 L 129 78 L 129 93 L 115 93 Z M 115 78 " clip-rule="nonzero"/></clipPath><clipPath id="4497902c1b"><path d="M 116.601562 77.589844 L 130.167969 80.429688 L 127.324219 93.996094 L 113.757812 91.15625 Z M 116.601562 77.589844 " clip-rule="nonzero"/></clipPath><clipPath id="2a846ef955"><path d="M 123.386719 79.007812 C 119.640625 78.222656 115.964844 80.625 115.179688 84.371094 C 114.394531 88.117188 116.796875 91.792969 120.542969 92.578125 C 124.289062 93.363281 127.960938 90.960938 128.746094 87.214844 C 129.53125 83.46875 127.132812 79.792969 123.386719 79.007812 Z M 123.386719 79.007812 " clip-rule="nonzero"/></clipPath><clipPath id="51ecae0998"><path d="M 52 120 L 66 120 L 66 134 L 52 134 Z M 52 120 " clip-rule="nonzero"/></clipPath><clipPath id="32d84ef579"><path d="M 53.695312 118.820312 L 67.261719 121.664062 L 64.417969 135.230469 L 50.851562 132.386719 Z M 53.695312 118.820312 " clip-rule="nonzero"/></clipPath><clipPath id="2ab035e290"><path d="M 60.480469 120.242188 C 56.734375 119.457031 53.058594 121.859375 52.273438 125.605469 C 51.488281 129.351562 53.890625 133.023438 57.636719 133.808594 C 61.382812 134.59375 65.054688 132.195312 65.839844 128.449219 C 66.625 124.703125 64.226562 121.027344 60.480469 120.242188 Z M 60.480469 120.242188 " clip-rule="nonzero"/></clipPath><clipPath id="26c09d6128"><path d="M 10 57 L 25 57 L 25 71 L 10 71 Z M 10 57 " clip-rule="nonzero"/></clipPath><clipPath id="30973cf78a"><path d="M 12.347656 55.738281 L 25.914062 58.582031 L 23.070312 72.148438 L 9.503906 69.308594 Z M 12.347656 55.738281 " clip-rule="nonzero"/></clipPath><clipPath id="096982a5c5"><path d="M 19.132812 57.160156 C 15.382812 56.375 11.710938 58.777344 10.925781 62.523438 C 10.140625 66.269531 12.542969 69.941406 16.289062 70.726562 C 20.035156 71.511719 23.707031 69.113281 24.492188 65.367188 C 25.277344 61.621094 22.878906 57.945312 19.132812 57.160156 Z M 19.132812 57.160156 " clip-rule="nonzero"/></clipPath><clipPath id="95408c59c8"><path d="M 41 19 L 56 19 L 56 34 L 41 34 Z M 41 19 " clip-rule="nonzero"/></clipPath><clipPath id="3c1b478a6d"><path d="M 39.003906 22.730469 L 51.652344 17.054688 L 57.328125 29.703125 L 44.679688 35.378906 Z M 39.003906 22.730469 " clip-rule="nonzero"/></clipPath><clipPath id="7ae245abda"><path d="M 45.328125 19.894531 C 41.835938 21.460938 40.277344 25.5625 41.84375 29.054688 C 43.410156 32.546875 47.511719 34.109375 51.003906 32.539062 C 54.496094 30.972656 56.058594 26.871094 54.488281 23.378906 C 52.921875 19.886719 48.820312 18.328125 45.328125 19.894531 Z M 45.328125 19.894531 " clip-rule="nonzero"/></clipPath><clipPath id="01da4f865e"><path d="M 111 46 L 126 46 L 126 60 L 111 60 Z M 111 46 " clip-rule="nonzero"/></clipPath><clipPath id="fd18b089e5"><path d="M 109.265625 49.578125 L 121.914062 43.902344 L 127.589844 56.550781 L 114.941406 62.222656 Z M 109.265625 49.578125 " clip-rule="nonzero"/></clipPath><clipPath id="71e70aa33e"><path d="M 115.589844 46.742188 C 112.097656 48.308594 110.539062 52.410156 112.105469 55.902344 C 113.671875 59.394531 117.773438 60.953125 121.265625 59.386719 C 124.757812 57.820312 126.320312 53.71875 124.75 50.226562 C 123.183594 46.734375 119.082031 45.171875 115.589844 46.742188 Z M 115.589844 46.742188 " clip-rule="nonzero"/></clipPath><clipPath id="3edc56551a"><path d="M 84 116 L 99 116 L 99 131 L 84 131 Z M 84 116 " clip-rule="nonzero"/></clipPath><clipPath id="c2139b8f51"><path d="M 82.617188 119.914062 L 95.261719 114.238281 L 100.9375 126.886719 L 88.292969 132.5625 Z M 82.617188 119.914062 " clip-rule="nonzero"/></clipPath><clipPath id="2566079d3a"><path d="M 88.9375 117.078125 C 85.445312 118.644531 83.886719 122.746094 85.453125 126.238281 C 87.019531 129.730469 91.121094 131.289062 94.613281 129.722656 C 98.105469 128.15625 99.667969 124.054688 98.101562 120.5625 C 96.53125 117.070312 92.429688 115.507812 88.9375 117.078125 Z M 88.9375 117.078125 " clip-rule="nonzero"/></clipPath><clipPath id="19d36a200f"><path d="M 14 89 L 29 89 L 29 104 L 14 104 Z M 14 89 " clip-rule="nonzero"/></clipPath><clipPath id="7e913cdba3"><path d="M 12.085938 93.1875 L 24.730469 87.511719 L 30.40625 100.160156 L 17.757812 105.835938 Z M 12.085938 93.1875 " clip-rule="nonzero"/></clipPath><clipPath id="e571236fe3"><path d="M 18.40625 90.351562 C 14.914062 91.917969 13.355469 96.019531 14.921875 99.511719 C 16.488281 103.003906 20.589844 104.566406 24.082031 102.996094 C 27.574219 101.429688 29.136719 97.328125 27.570312 93.835938 C 26 90.34375 21.898438 88.785156 18.40625 90.351562 Z M 18.40625 90.351562 " clip-rule="nonzero"/></clipPath><clipPath id="58ef657f92"><path d="M 16 41 L 31 41 L 31 56 L 16 56 Z M 16 41 " clip-rule="nonzero"/></clipPath><clipPath id="3e1e8a9cee"><path d="M 14.085938 51.050781 L 20.964844 39.015625 L 32.996094 45.894531 L 26.117188 57.929688 Z M 14.085938 51.050781 " clip-rule="nonzero"/></clipPath><clipPath id="4c1b409912"><path d="M 17.523438 45.03125 C 15.625 48.355469 16.777344 52.589844 20.101562 54.488281 C 23.425781 56.386719 27.660156 55.234375 29.558594 51.910156 C 31.457031 48.589844 30.304688 44.355469 26.980469 42.453125 C 23.65625 40.554688 19.421875 41.707031 17.523438 45.03125 Z M 17.523438 45.03125 " clip-rule="nonzero"/></clipPath><clipPath id="26d8517257"><path d="M 89 21 L 104 21 L 104 36 L 89 36 Z M 89 21 " clip-rule="nonzero"/></clipPath><clipPath id="3b24d11339"><path d="M 86.679688 31.371094 L 93.558594 19.335938 L 105.59375 26.214844 L 98.714844 38.25 Z M 86.679688 31.371094 " clip-rule="nonzero"/></clipPath><clipPath id="aebdc661a7"><path d="M 90.121094 25.355469 C 88.21875 28.675781 89.375 32.910156 92.699219 34.8125 C 96.019531 36.710938 100.253906 35.554688 102.15625 32.234375 C 104.054688 28.910156 102.898438 24.675781 99.578125 22.777344 C 96.253906 20.875 92.019531 22.03125 90.121094 25.355469 Z M 90.121094 25.355469 " clip-rule="nonzero"/></clipPath><clipPath id="1396c02b34"><path d="M 109 94 L 123 94 L 123 109 L 109 109 Z M 109 94 " clip-rule="nonzero"/></clipPath><clipPath id="6f7664b2e2"><path d="M 106.558594 103.914062 L 113.441406 91.878906 L 125.472656 98.757812 L 118.59375 110.792969 Z M 106.558594 103.914062 " clip-rule="nonzero"/></clipPath><clipPath id="3f30b1a401"><path d="M 110 97.894531 C 108.101562 101.21875 109.253906 105.453125 112.578125 107.351562 C 115.902344 109.25 120.132812 108.097656 122.035156 104.773438 C 123.933594 101.453125 122.78125 97.21875 119.457031 95.316406 C 116.132812 93.417969 111.898438 94.570312 110 97.894531 Z M 110 97.894531 " clip-rule="nonzero"/></clipPath><clipPath id="7bc2f402bd"><path d="M 36 114 L 51 114 L 51 129 L 36 129 Z M 36 114 " clip-rule="nonzero"/></clipPath><clipPath id="6f4fb71c7c"><path d="M 33.816406 123.847656 L 40.695312 111.8125 L 52.730469 118.691406 L 45.851562 130.726562 Z M 33.816406 123.847656 " clip-rule="nonzero"/></clipPath><clipPath id="aeb788d7b0"><path d="M 37.257812 117.832031 C 35.359375 121.152344 36.511719 125.386719 39.835938 127.285156 C 43.15625 129.1875 47.390625 128.03125 49.292969 124.710938 C 51.191406 121.386719 50.035156 117.152344 46.714844 115.253906 C 43.390625 113.351562 39.15625 114.507812 37.257812 117.832031 Z M 37.257812 117.832031 " clip-rule="nonzero"/></clipPath><clipPath id="302ce780a8"><path d="M 26 28 L 41 28 L 41 43 L 26 43 Z M 26 28 " clip-rule="nonzero"/></clipPath><clipPath id="08f6e0cfb5"><path d="M 24.082031 34.96875 L 34.34375 25.648438 L 43.664062 35.90625 L 33.402344 45.226562 Z M 24.082031 34.96875 " clip-rule="nonzero"/></clipPath><clipPath id="9e53b5ee8a"><path d="M 29.214844 30.308594 C 26.378906 32.882812 26.167969 37.265625 28.742188 40.097656 C 31.316406 42.933594 35.699219 43.140625 38.535156 40.566406 C 41.367188 37.992188 41.578125 33.609375 39.003906 30.777344 C 36.429688 27.945312 32.046875 27.734375 29.214844 30.308594 Z M 29.214844 30.308594 " clip-rule="nonzero"/></clipPath><clipPath id="0d76543ec8"><path d="M 102 32 L 116 32 L 116 47 L 102 47 Z M 102 32 " clip-rule="nonzero"/></clipPath><clipPath id="b0893f5158"><path d="M 99.207031 38.675781 L 109.46875 29.355469 L 118.789062 39.613281 L 108.527344 48.933594 Z M 99.207031 38.675781 " clip-rule="nonzero"/></clipPath><clipPath id="c2e8ae7923"><path d="M 104.335938 34.015625 C 101.503906 36.589844 101.292969 40.972656 103.867188 43.804688 C 106.441406 46.640625 110.824219 46.847656 113.660156 44.273438 C 116.492188 41.699219 116.703125 37.316406 114.128906 34.484375 C 111.554688 31.652344 107.171875 31.441406 104.335938 34.015625 Z M 104.335938 34.015625 " clip-rule="nonzero"/></clipPath><clipPath id="33d7f5b49e"><path d="M 98 107 L 113 107 L 113 122 L 98 122 Z M 98 107 " clip-rule="nonzero"/></clipPath><clipPath id="2db72c89d0"><path d="M 95.710938 113.808594 L 105.96875 104.488281 L 115.289062 114.75 L 105.03125 124.070312 Z M 95.710938 113.808594 " clip-rule="nonzero"/></clipPath><clipPath id="7b8b959b5f"><path d="M 100.839844 109.148438 C 98.007812 111.722656 97.796875 116.105469 100.371094 118.941406 C 102.945312 121.773438 107.328125 121.984375 110.160156 119.410156 C 112.992188 116.835938 113.203125 112.453125 110.628906 109.621094 C 108.054688 106.785156 103.671875 106.574219 100.839844 109.148438 Z M 100.839844 109.148438 " clip-rule="nonzero"/></clipPath><clipPath id="b36b26e714"><path d="M 23 103 L 38 103 L 38 118 L 23 118 Z M 23 103 " clip-rule="nonzero"/></clipPath><clipPath id="aaed2c8bb0"><path d="M 20.367188 110.300781 L 30.625 100.980469 L 39.945312 111.242188 L 29.6875 120.5625 Z M 20.367188 110.300781 " clip-rule="nonzero"/></clipPath><clipPath id="407a2e1c80"><path d="M 25.496094 105.640625 C 22.664062 108.214844 22.453125 112.597656 25.027344 115.433594 C 27.601562 118.265625 31.984375 118.476562 34.816406 115.902344 C 37.648438 113.328125 37.859375 108.945312 35.285156 106.109375 C 32.710938 103.277344 28.328125 103.066406 25.496094 105.640625 Z M 25.496094 105.640625 " clip-rule="nonzero"/></clipPath><clipPath id="06a1767c11"><path d="M 64.796875 30.148438 L 75.128906 30.148438 L 75.128906 40.480469 L 64.796875 40.480469 Z M 64.796875 30.148438 " clip-rule="nonzero"/></clipPath><clipPath id="0a8d951ad7"><path d="M 69.960938 30.148438 C 67.109375 30.148438 64.796875 32.460938 64.796875 35.316406 C 64.796875 38.167969 67.109375 40.480469 69.960938 40.480469 C 72.816406 40.480469 75.128906 38.167969 75.128906 35.316406 C 75.128906 32.460938 72.816406 30.148438 69.960938 30.148438 Z M 69.960938 30.148438 " clip-rule="nonzero"/></clipPath><clipPath id="d7cec8f9a1"><path d="M 104.386719 69.847656 L 114.71875 69.847656 L 114.71875 80.183594 L 104.386719 80.183594 Z M 104.386719 69.847656 " clip-rule="nonzero"/></clipPath><clipPath id="b5ae868ebf"><path d="M 109.554688 69.847656 C 106.699219 69.847656 104.386719 72.164062 104.386719 75.015625 C 104.386719 77.867188 106.699219 80.183594 109.554688 80.183594 C 112.40625 80.183594 114.71875 77.867188 114.71875 75.015625 C 114.71875 72.164062 112.40625 69.847656 109.554688 69.847656 Z M 109.554688 69.847656 " clip-rule="nonzero"/></clipPath><clipPath id="ade7fe2973"><path d="M 64.796875 109.550781 L 75.128906 109.550781 L 75.128906 119.882812 L 64.796875 119.882812 Z M 64.796875 109.550781 " clip-rule="nonzero"/></clipPath><clipPath id="c1f1809e4a"><path d="M 69.960938 109.550781 C 67.109375 109.550781 64.796875 111.863281 64.796875 114.714844 C 64.796875 117.570312 67.109375 119.882812 69.960938 119.882812 C 72.816406 119.882812 75.128906 117.570312 75.128906 114.714844 C 75.128906 111.863281 72.816406 109.550781 69.960938 109.550781 Z M 69.960938 109.550781 " clip-rule="nonzero"/></clipPath><clipPath id="2844dff3da"><path d="M 24.984375 69.847656 L 35.320312 69.847656 L 35.320312 80.183594 L 24.984375 80.183594 Z M 24.984375 69.847656 " clip-rule="nonzero"/></clipPath><clipPath id="80ff1213f6"><path d="M 30.152344 69.847656 C 27.300781 69.847656 24.984375 72.164062 24.984375 75.015625 C 24.984375 77.867188 27.300781 80.183594 30.152344 80.183594 C 33.003906 80.183594 35.320312 77.867188 35.320312 75.015625 C 35.320312 72.164062 33.003906 69.847656 30.152344 69.847656 Z M 30.152344 69.847656 " clip-rule="nonzero"/></clipPath><clipPath id="2739069262"><path d="M 77 32 L 88 32 L 88 43 L 77 43 Z M 77 32 " clip-rule="nonzero"/></clipPath><clipPath id="4c03aad266"><path d="M 78.902344 30.671875 L 88.730469 33.863281 L 85.539062 43.691406 L 75.710938 40.5 Z M 78.902344 30.671875 " clip-rule="nonzero"/></clipPath><clipPath id="409932215b"><path d="M 83.816406 32.265625 C 81.101562 31.386719 78.1875 32.871094 77.304688 35.585938 C 76.425781 38.300781 77.910156 41.214844 80.625 42.09375 C 83.335938 42.976562 86.25 41.492188 87.132812 38.777344 C 88.015625 36.0625 86.527344 33.148438 83.816406 32.265625 Z M 83.816406 32.265625 " clip-rule="nonzero"/></clipPath><clipPath id="e4ed729966"><path d="M 102 82 L 113 82 L 113 93 L 102 93 Z M 102 82 " clip-rule="nonzero"/></clipPath><clipPath id="79d8be8d77"><path d="M 104.292969 80.660156 L 114.121094 83.851562 L 110.929688 93.675781 L 101.101562 90.484375 Z M 104.292969 80.660156 " clip-rule="nonzero"/></clipPath><clipPath id="510732fd81"><path d="M 109.207031 82.253906 C 106.492188 81.375 103.578125 82.859375 102.699219 85.574219 C 101.816406 88.285156 103.300781 91.199219 106.015625 92.082031 C 108.730469 92.964844 111.644531 91.476562 112.523438 88.765625 C 113.40625 86.050781 111.921875 83.136719 109.207031 82.253906 Z M 109.207031 82.253906 " clip-rule="nonzero"/></clipPath><clipPath id="a405ec757b"><path d="M 52 107 L 63 107 L 63 118 L 52 118 Z M 52 107 " clip-rule="nonzero"/></clipPath><clipPath id="93ce4cc84d"><path d="M 54.375 106.191406 L 64.203125 109.382812 L 61.011719 119.207031 L 51.183594 116.015625 Z M 54.375 106.191406 " clip-rule="nonzero"/></clipPath><clipPath id="f3dde17564"><path d="M 59.289062 107.785156 C 56.578125 106.902344 53.664062 108.390625 52.78125 111.101562 C 51.898438 113.816406 53.386719 116.730469 56.097656 117.613281 C 58.8125 118.492188 61.726562 117.007812 62.609375 114.292969 C 63.488281 111.582031 62.003906 108.667969 59.289062 107.785156 Z M 59.289062 107.785156 " clip-rule="nonzero"/></clipPath><clipPath id="4c535894f4"><path d="M 26 57 L 38 57 L 38 68 L 26 68 Z M 26 57 " clip-rule="nonzero"/></clipPath><clipPath id="d6f5b03034"><path d="M 28.777344 56.132812 L 38.601562 59.324219 L 35.410156 69.152344 L 25.582031 65.960938 Z M 28.777344 56.132812 " clip-rule="nonzero"/></clipPath><clipPath id="f53d2b935f"><path d="M 33.6875 57.730469 C 30.976562 56.847656 28.0625 58.335938 27.179688 61.046875 C 26.296875 63.761719 27.785156 66.675781 30.496094 67.558594 C 33.210938 68.4375 36.125 66.953125 37.007812 64.238281 C 37.886719 61.527344 36.402344 58.609375 33.6875 57.730469 Z M 33.6875 57.730469 " clip-rule="nonzero"/></clipPath><clipPath id="ac3f7ff641"><path d="M 52 31 L 63 31 L 63 43 L 52 43 Z M 52 31 " clip-rule="nonzero"/></clipPath><clipPath id="6b2f67213a"><path d="M 51.171875 33.800781 L 60.996094 30.605469 L 64.191406 40.433594 L 54.367188 43.628906 Z M 51.171875 33.800781 " clip-rule="nonzero"/></clipPath><clipPath id="d048061e76"><path d="M 56.082031 32.203125 C 53.371094 33.085938 51.886719 36 52.769531 38.714844 C 53.652344 41.429688 56.566406 42.914062 59.277344 42.03125 C 61.992188 41.148438 63.476562 38.234375 62.59375 35.519531 C 61.710938 32.804688 58.796875 31.320312 56.082031 32.203125 Z M 56.082031 32.203125 " clip-rule="nonzero"/></clipPath><clipPath id="3d570fd2bf"><path d="M 102 57 L 113 57 L 113 68 L 102 68 Z M 102 57 " clip-rule="nonzero"/></clipPath><clipPath id="fbcf57dab9"><path d="M 101.097656 59.3125 L 110.921875 56.117188 L 114.117188 65.945312 L 104.292969 69.140625 Z M 101.097656 59.3125 " clip-rule="nonzero"/></clipPath><clipPath id="be00f6f087"><path d="M 106.011719 57.714844 C 103.296875 58.597656 101.8125 61.511719 102.695312 64.226562 C 103.578125 66.941406 106.492188 68.425781 109.203125 67.542969 C 111.917969 66.660156 113.402344 63.746094 112.519531 61.03125 C 111.636719 58.316406 108.722656 56.832031 106.011719 57.714844 Z M 106.011719 57.714844 " clip-rule="nonzero"/></clipPath><clipPath id="0b00a4b078"><path d="M 77 107 L 88 107 L 88 118 L 77 118 Z M 77 107 " clip-rule="nonzero"/></clipPath><clipPath id="e51bab275c"><path d="M 75.722656 109.308594 L 85.550781 106.113281 L 88.746094 115.941406 L 78.917969 119.136719 Z M 75.722656 109.308594 " clip-rule="nonzero"/></clipPath><clipPath id="a5e698ebe3"><path d="M 80.636719 107.710938 C 77.921875 108.59375 76.4375 111.511719 77.320312 114.222656 C 78.203125 116.9375 81.117188 118.421875 83.832031 117.539062 C 86.542969 116.65625 88.03125 113.742188 87.148438 111.027344 C 86.265625 108.316406 83.351562 106.832031 80.636719 107.710938 Z M 80.636719 107.710938 " clip-rule="nonzero"/></clipPath><clipPath id="3209a8dfb4"><path d="M 26 82 L 38 82 L 38 93 L 26 93 Z M 26 82 " clip-rule="nonzero"/></clipPath><clipPath id="f31ab5966b"><path d="M 25.585938 83.867188 L 35.414062 80.671875 L 38.609375 90.496094 L 28.78125 93.691406 Z M 25.585938 83.867188 " clip-rule="nonzero"/></clipPath><clipPath id="947b690083"><path d="M 30.5 82.269531 C 27.789062 83.152344 26.304688 86.066406 27.183594 88.78125 C 28.066406 91.492188 30.984375 92.976562 33.695312 92.09375 C 36.410156 91.210938 37.894531 88.296875 37.011719 85.585938 C 36.128906 82.871094 33.214844 81.386719 30.5 82.269531 Z M 30.5 82.269531 " clip-rule="nonzero"/></clipPath><clipPath id="1cb5fe0cb1"><path d="M 32 46 L 43 46 L 43 57 L 32 57 Z M 32 46 " clip-rule="nonzero"/></clipPath><clipPath id="68c12be62a"><path d="M 30.4375 52.796875 L 36.496094 44.425781 L 44.867188 50.488281 L 38.808594 58.855469 Z M 30.4375 52.796875 " clip-rule="nonzero"/></clipPath><clipPath id="faaf3382bf"><path d="M 33.46875 48.609375 C 31.792969 50.921875 32.3125 54.152344 34.621094 55.824219 C 36.933594 57.5 40.164062 56.984375 41.835938 54.671875 C 43.511719 52.359375 42.992188 49.128906 40.683594 47.457031 C 38.371094 45.785156 35.140625 46.300781 33.46875 48.609375 Z M 33.46875 48.609375 " clip-rule="nonzero"/></clipPath><clipPath id="b626e0e7c5"><path d="M 87 37 L 99 37 L 99 49 L 87 49 Z M 87 37 " clip-rule="nonzero"/></clipPath><clipPath id="f0603ee828"><path d="M 85.8125 44.015625 L 91.871094 35.644531 L 100.242188 41.707031 L 94.179688 50.074219 Z M 85.8125 44.015625 " clip-rule="nonzero"/></clipPath><clipPath id="82bcb82204"><path d="M 88.84375 39.828125 C 87.167969 42.140625 87.6875 45.371094 89.996094 47.042969 C 92.308594 48.71875 95.539062 48.199219 97.210938 45.890625 C 98.886719 43.578125 98.367188 40.347656 96.058594 38.675781 C 93.746094 37.003906 90.515625 37.519531 88.84375 39.828125 Z M 88.84375 39.828125 " clip-rule="nonzero"/></clipPath><clipPath id="e674646e0f"><path d="M 96 93 L 108 93 L 108 104 L 96 104 Z M 96 93 " clip-rule="nonzero"/></clipPath><clipPath id="4e836d0fc7"><path d="M 94.746094 99.363281 L 100.808594 90.996094 L 109.175781 97.054688 L 103.117188 105.425781 Z M 94.746094 99.363281 " clip-rule="nonzero"/></clipPath><clipPath id="f4d80f97b9"><path d="M 97.777344 95.179688 C 96.105469 97.492188 96.621094 100.722656 98.933594 102.394531 C 101.242188 104.066406 104.472656 103.550781 106.148438 101.242188 C 107.820312 98.929688 107.304688 95.699219 104.992188 94.027344 C 102.679688 92.351562 99.453125 92.871094 97.777344 95.179688 Z M 97.777344 95.179688 " clip-rule="nonzero"/></clipPath><clipPath id="c8ddcf54a1"><path d="M 41 102 L 52 102 L 52 113 L 41 113 Z M 41 102 " clip-rule="nonzero"/></clipPath><clipPath id="08f1e920a1"><path d="M 39.242188 108.324219 L 45.304688 99.957031 L 53.671875 106.015625 L 47.613281 114.382812 Z M 39.242188 108.324219 " clip-rule="nonzero"/></clipPath><clipPath id="06c67060b7"><path d="M 42.273438 104.140625 C 40.601562 106.449219 41.117188 109.679688 43.429688 111.355469 C 45.738281 113.027344 48.96875 112.511719 50.644531 110.199219 C 52.316406 107.890625 51.800781 104.660156 49.488281 102.984375 C 47.175781 101.3125 43.949219 101.828125 42.273438 104.140625 Z M 42.273438 104.140625 " clip-rule="nonzero"/></clipPath><clipPath id="0e35856dd1"><path d="M 41 37 L 52 37 L 52 48 L 41 48 Z M 41 37 " clip-rule="nonzero"/></clipPath><clipPath id="4c6f06fb5d"><path d="M 39.132812 41.675781 L 47.480469 35.589844 L 53.570312 43.9375 L 45.222656 50.027344 Z M 39.132812 41.675781 " clip-rule="nonzero"/></clipPath><clipPath id="e009221d13"><path d="M 43.308594 38.632812 C 41.003906 40.316406 40.496094 43.546875 42.175781 45.851562 C 43.859375 48.15625 47.089844 48.664062 49.394531 46.984375 C 51.699219 45.300781 52.207031 42.070312 50.527344 39.765625 C 48.84375 37.457031 45.613281 36.953125 43.308594 38.632812 Z M 43.308594 38.632812 " clip-rule="nonzero"/></clipPath><clipPath id="b5c35efda9"><path d="M 96 46 L 107 46 L 107 57 L 96 57 Z M 96 46 " clip-rule="nonzero"/></clipPath><clipPath id="f7724fe0c8"><path d="M 94.511719 50.429688 L 102.863281 44.339844 L 108.949219 52.691406 L 100.601562 58.777344 Z M 94.511719 50.429688 " clip-rule="nonzero"/></clipPath><clipPath id="c827d437a6"><path d="M 98.6875 47.386719 C 96.382812 49.066406 95.875 52.296875 97.558594 54.605469 C 99.238281 56.910156 102.46875 57.414062 104.773438 55.734375 C 107.082031 54.054688 107.585938 50.820312 105.90625 48.515625 C 104.222656 46.210938 100.992188 45.703125 98.6875 47.386719 Z M 98.6875 47.386719 " clip-rule="nonzero"/></clipPath><clipPath id="fd68a090d8"><path d="M 87 101 L 99 101 L 99 113 L 87 113 Z M 87 101 " clip-rule="nonzero"/></clipPath><clipPath id="0342c523f2"><path d="M 85.914062 105.832031 L 94.265625 99.746094 L 100.351562 108.09375 L 92.003906 114.183594 Z M 85.914062 105.832031 " clip-rule="nonzero"/></clipPath><clipPath id="b94143743d"><path d="M 90.089844 102.789062 C 87.785156 104.46875 87.277344 107.703125 88.957031 110.007812 C 90.640625 112.3125 93.871094 112.820312 96.175781 111.136719 C 98.484375 109.457031 98.988281 106.226562 97.308594 103.917969 C 95.625 101.613281 92.394531 101.109375 90.089844 102.789062 Z M 90.089844 102.789062 " clip-rule="nonzero"/></clipPath><clipPath id="78c48459af"><path d="M 32 93 L 43 93 L 43 104 L 32 104 Z M 32 93 " clip-rule="nonzero"/></clipPath><clipPath id="004e3fc7c8"><path d="M 30.359375 97.210938 L 38.707031 91.125 L 44.792969 99.472656 L 36.445312 105.558594 Z M 30.359375 97.210938 " clip-rule="nonzero"/></clipPath><clipPath id="3f953b52db"><path d="M 34.53125 94.167969 C 32.226562 95.847656 31.71875 99.078125 33.402344 101.386719 C 35.082031 103.691406 38.3125 104.195312 40.621094 102.515625 C 42.925781 100.835938 43.429688 97.601562 41.75 95.296875 C 40.070312 92.992188 36.835938 92.484375 34.53125 94.167969 Z M 34.53125 94.167969 " clip-rule="nonzero"/></clipPath><clipPath id="e92a170cac"><path d="M 69 43 L 78 43 L 78 51 L 69 51 Z M 69 43 " clip-rule="nonzero"/></clipPath><clipPath id="15ece0efa4"><path d="M 70.425781 42.867188 L 77.722656 43.820312 L 76.769531 51.117188 L 69.472656 50.164062 Z M 70.425781 42.867188 " clip-rule="nonzero"/></clipPath><clipPath id="e56ac488d6"><path d="M 74.074219 43.34375 C 72.0625 43.082031 70.214844 44.5 69.949219 46.515625 C 69.6875 48.53125 71.105469 50.375 73.121094 50.640625 C 75.136719 50.902344 76.984375 49.484375 77.246094 47.46875 C 77.511719 45.453125 76.089844 43.609375 74.074219 43.34375 Z M 74.074219 43.34375 " clip-rule="nonzero"/></clipPath><clipPath id="49b97a59e6"><path d="M 94 75 L 102 75 L 102 83 L 94 83 Z M 94 75 " clip-rule="nonzero"/></clipPath><clipPath id="4cf093249b"><path d="M 94.714844 74.558594 L 102.011719 75.511719 L 101.058594 82.808594 L 93.761719 81.855469 Z M 94.714844 74.558594 " clip-rule="nonzero"/></clipPath><clipPath id="44ebc0c142"><path d="M 98.363281 75.035156 C 96.347656 74.773438 94.503906 76.191406 94.238281 78.207031 C 93.976562 80.222656 95.394531 82.070312 97.410156 82.332031 C 99.425781 82.59375 101.269531 81.175781 101.535156 79.160156 C 101.796875 77.144531 100.378906 75.300781 98.363281 75.035156 Z M 98.363281 75.035156 " clip-rule="nonzero"/></clipPath><clipPath id="b358382043"><path d="M 62 99 L 70 99 L 70 107 L 62 107 Z M 62 99 " clip-rule="nonzero"/></clipPath><clipPath id="a5470bd0e2"><path d="M 63.089844 98.933594 L 70.386719 99.890625 L 69.433594 107.1875 L 62.136719 106.230469 Z M 63.089844 98.933594 " clip-rule="nonzero"/></clipPath><clipPath id="1ddfeb94bc"><path d="M 66.738281 99.410156 C 64.726562 99.148438 62.878906 100.566406 62.613281 102.582031 C 62.351562 104.597656 63.769531 106.445312 65.785156 106.707031 C 67.800781 106.972656 69.648438 105.550781 69.910156 103.539062 C 70.175781 101.523438 68.753906 99.675781 66.738281 99.410156 Z M 66.738281 99.410156 " clip-rule="nonzero"/></clipPath><clipPath id="ce7afdbb54"><path d="M 38 67 L 46 67 L 46 76 L 38 76 Z M 38 67 " clip-rule="nonzero"/></clipPath><clipPath id="0c0b937fc0"><path d="M 38.648438 67.222656 L 45.945312 68.175781 L 44.988281 75.472656 L 37.691406 74.519531 Z M 38.648438 67.222656 " clip-rule="nonzero"/></clipPath><clipPath id="d2c3d0f425"><path d="M 42.296875 67.699219 C 40.28125 67.4375 38.433594 68.855469 38.171875 70.871094 C 37.90625 72.886719 39.328125 74.734375 41.339844 74.996094 C 43.355469 75.257812 45.203125 73.839844 45.464844 71.824219 C 45.730469 69.808594 44.3125 67.964844 42.296875 67.699219 Z M 42.296875 67.699219 " clip-rule="nonzero"/></clipPath><clipPath id="e53c5d3f52"><path d="M 78 45 L 86 45 L 86 54 L 78 54 Z M 78 45 " clip-rule="nonzero"/></clipPath><clipPath id="c5f26f97ee"><path d="M 80.339844 44.539062 L 86.984375 47.699219 L 83.824219 54.34375 L 77.175781 51.183594 Z M 80.339844 44.539062 " clip-rule="nonzero"/></clipPath><clipPath id="bbea38704f"><path d="M 83.660156 46.121094 C 81.828125 45.246094 79.632812 46.027344 78.757812 47.859375 C 77.886719 49.695312 78.664062 51.890625 80.5 52.765625 C 82.335938 53.636719 84.53125 52.859375 85.402344 51.023438 C 86.277344 49.1875 85.496094 46.992188 83.660156 46.121094 Z M 83.660156 46.121094 " clip-rule="nonzero"/></clipPath><clipPath id="b593b6b293"><path d="M 91 83 L 100 83 L 100 91 L 91 91 Z M 91 83 " clip-rule="nonzero"/></clipPath><clipPath id="13fecad8f1"><path d="M 93.652344 82.183594 L 100.296875 85.34375 L 97.132812 91.988281 L 90.488281 88.828125 Z M 93.652344 82.183594 " clip-rule="nonzero"/></clipPath><clipPath id="b0249565d6"><path d="M 96.972656 83.761719 C 95.136719 82.890625 92.945312 83.671875 92.070312 85.503906 C 91.195312 87.339844 91.976562 89.535156 93.8125 90.410156 C 95.648438 91.28125 97.84375 90.5 98.714844 88.667969 C 99.589844 86.832031 98.808594 84.636719 96.972656 83.761719 Z M 96.972656 83.761719 " clip-rule="nonzero"/></clipPath><clipPath id="aba722a631"><path d="M 54 96 L 62 96 L 62 105 L 54 105 Z M 54 96 " clip-rule="nonzero"/></clipPath><clipPath id="b5198cff11"><path d="M 56.042969 95.597656 L 62.6875 98.761719 L 59.527344 105.40625 L 52.882812 102.242188 Z M 56.042969 95.597656 " clip-rule="nonzero"/></clipPath><clipPath id="c68e8b1b88"><path d="M 59.367188 97.179688 C 57.53125 96.308594 55.335938 97.085938 54.464844 98.921875 C 53.589844 100.757812 54.371094 102.953125 56.203125 103.824219 C 58.039062 104.699219 60.234375 103.917969 61.109375 102.082031 C 61.980469 100.25 61.203125 98.054688 59.367188 97.179688 Z M 59.367188 97.179688 " clip-rule="nonzero"/></clipPath><clipPath id="813d92bd1b"><path d="M 40 59 L 49 59 L 49 67 L 40 67 Z M 40 59 " clip-rule="nonzero"/></clipPath><clipPath id="9ce601ec7e"><path d="M 42.589844 57.886719 L 49.234375 61.050781 L 46.074219 67.695312 L 39.429688 64.53125 Z M 42.589844 57.886719 " clip-rule="nonzero"/></clipPath><clipPath id="3e6fb81a91"><path d="M 45.914062 59.46875 C 44.078125 58.59375 41.882812 59.375 41.007812 61.210938 C 40.136719 63.042969 40.917969 65.238281 42.75 66.113281 C 44.585938 66.984375 46.78125 66.207031 47.65625 64.371094 C 48.527344 62.535156 47.746094 60.339844 45.914062 59.46875 Z M 45.914062 59.46875 " clip-rule="nonzero"/></clipPath><clipPath id="78a9d7a5f2"><path d="M 61 43 L 69 43 L 69 51 L 61 51 Z M 61 43 " clip-rule="nonzero"/></clipPath><clipPath id="a2c1e3d46f"><path d="M 60.46875 44.1875 L 67.703125 42.839844 L 69.050781 50.070312 L 61.816406 51.421875 Z M 60.46875 44.1875 " clip-rule="nonzero"/></clipPath><clipPath id="4be82c23d6"><path d="M 64.085938 43.511719 C 62.085938 43.882812 60.769531 45.804688 61.140625 47.804688 C 61.515625 49.800781 63.4375 51.117188 65.433594 50.746094 C 67.429688 50.375 68.75 48.453125 68.375 46.453125 C 68.003906 44.457031 66.082031 43.140625 64.085938 43.511719 Z M 64.085938 43.511719 " clip-rule="nonzero"/></clipPath><clipPath id="d2d47a54b8"><path d="M 93 66 L 102 66 L 102 74 L 93 74 Z M 93 66 " clip-rule="nonzero"/></clipPath><clipPath id="ec7747dd48"><path d="M 93.367188 66.816406 L 100.601562 65.464844 L 101.949219 72.699219 L 94.714844 74.046875 Z M 93.367188 66.816406 " clip-rule="nonzero"/></clipPath><clipPath id="3509584cf5"><path d="M 96.984375 66.140625 C 94.984375 66.511719 93.667969 68.433594 94.039062 70.429688 C 94.414062 72.429688 96.332031 73.746094 98.332031 73.375 C 100.328125 73 101.648438 71.082031 101.273438 69.082031 C 100.902344 67.085938 98.980469 65.769531 96.984375 66.140625 Z M 96.984375 66.140625 " clip-rule="nonzero"/></clipPath><clipPath id="cdfd1a664f"><path d="M 71 99 L 79 99 L 79 107 L 71 107 Z M 71 99 " clip-rule="nonzero"/></clipPath><clipPath id="3b0ea53f02"><path d="M 70.828125 99.773438 L 78.0625 98.425781 L 79.410156 105.660156 L 72.179688 107.007812 Z M 70.828125 99.773438 " clip-rule="nonzero"/></clipPath><clipPath id="57aa789d74"><path d="M 74.445312 99.101562 C 72.449219 99.472656 71.132812 101.394531 71.503906 103.390625 C 71.875 105.390625 73.796875 106.707031 75.792969 106.335938 C 77.792969 105.960938 79.109375 104.042969 78.738281 102.042969 C 78.367188 100.046875 76.445312 98.726562 74.445312 99.101562 Z M 74.445312 99.101562 " clip-rule="nonzero"/></clipPath><clipPath id="2b71c81d0c"><path d="M 38 76 L 46 76 L 46 84 L 38 84 Z M 38 76 " clip-rule="nonzero"/></clipPath><clipPath id="2c0cc6793b"><path d="M 37.777344 77.175781 L 45.011719 75.828125 L 46.359375 83.0625 L 39.125 84.410156 Z M 37.777344 77.175781 " clip-rule="nonzero"/></clipPath><clipPath id="5013dd3f04"><path d="M 41.394531 76.5 C 39.398438 76.875 38.078125 78.796875 38.453125 80.792969 C 38.824219 82.789062 40.746094 84.109375 42.742188 83.734375 C 44.742188 83.363281 46.058594 81.441406 45.6875 79.445312 C 45.3125 77.445312 43.390625 76.128906 41.394531 76.5 Z M 41.394531 76.5 " clip-rule="nonzero"/></clipPath><clipPath id="6f4e26de6c"><path d="M 45 51 L 53 51 L 53 60 L 45 60 Z M 45 51 " clip-rule="nonzero"/></clipPath><clipPath id="df8452f545"><path d="M 44.074219 55.683594 L 49.125 50.332031 L 54.476562 55.386719 L 49.421875 60.734375 Z M 44.074219 55.683594 " clip-rule="nonzero"/></clipPath><clipPath id="0c9d08d343"><path d="M 46.597656 53.007812 C 45.203125 54.484375 45.269531 56.8125 46.75 58.210938 C 48.226562 59.605469 50.554688 59.539062 51.949219 58.0625 C 53.34375 56.582031 53.277344 54.253906 51.800781 52.859375 C 50.324219 51.464844 47.996094 51.53125 46.597656 53.007812 Z M 46.597656 53.007812 " clip-rule="nonzero"/></clipPath><clipPath id="99d5894dc2"><path d="M 85 50 L 93 50 L 93 59 L 85 59 Z M 85 50 " clip-rule="nonzero"/></clipPath><clipPath id="4401277ba6"><path d="M 83.988281 54.597656 L 89.039062 49.25 L 94.390625 54.300781 L 89.335938 59.652344 Z M 83.988281 54.597656 " clip-rule="nonzero"/></clipPath><clipPath id="ca17a7c84a"><path d="M 86.511719 51.921875 C 85.117188 53.402344 85.183594 55.730469 86.660156 57.125 C 88.140625 58.519531 90.46875 58.453125 91.863281 56.976562 C 93.257812 55.5 93.191406 53.171875 91.714844 51.773438 C 90.238281 50.378906 87.910156 50.445312 86.511719 51.921875 Z M 86.511719 51.921875 " clip-rule="nonzero"/></clipPath><clipPath id="98472c4b3a"><path d="M 86 90 L 95 90 L 95 99 L 86 99 Z M 86 90 " clip-rule="nonzero"/></clipPath><clipPath id="0556e4b77f"><path d="M 85.183594 94.507812 L 90.234375 89.160156 L 95.585938 94.210938 L 90.53125 99.5625 Z M 85.183594 94.507812 " clip-rule="nonzero"/></clipPath><clipPath id="8062355162"><path d="M 87.707031 91.835938 C 86.3125 93.3125 86.378906 95.640625 87.859375 97.035156 C 89.335938 98.429688 91.664062 98.363281 93.058594 96.886719 C 94.453125 95.410156 94.386719 93.082031 92.910156 91.6875 C 91.433594 90.289062 89.105469 90.355469 87.707031 91.835938 Z M 87.707031 91.835938 " clip-rule="nonzero"/></clipPath><clipPath id="9a9c9546f9"><path d="M 46 91 L 55 91 L 55 100 L 46 100 Z M 46 91 " clip-rule="nonzero"/></clipPath><clipPath id="161a3a2fff"><path d="M 45.160156 95.707031 L 50.214844 90.359375 L 55.5625 95.410156 L 50.511719 100.761719 Z M 45.160156 95.707031 " clip-rule="nonzero"/></clipPath><clipPath id="de27369871"><path d="M 47.6875 93.03125 C 46.292969 94.511719 46.359375 96.839844 47.835938 98.234375 C 49.3125 99.628906 51.640625 99.5625 53.039062 98.085938 C 54.433594 96.609375 54.367188 94.28125 52.886719 92.882812 C 51.410156 91.488281 49.082031 91.554688 47.6875 93.03125 Z M 47.6875 93.03125 " clip-rule="nonzero"/></clipPath><clipPath id="ffdf9e548e"><path d="M 52 46 L 60 46 L 60 54 L 52 54 Z M 52 46 " clip-rule="nonzero"/></clipPath><clipPath id="4f7bb9e1d3"><path d="M 51.242188 48.636719 L 57.699219 45.109375 L 61.226562 51.566406 L 54.769531 55.09375 Z M 51.242188 48.636719 " clip-rule="nonzero"/></clipPath><clipPath id="3848aff373"><path d="M 54.46875 46.871094 C 52.6875 47.847656 52.03125 50.082031 53.003906 51.863281 C 53.980469 53.648438 56.214844 54.304688 57.996094 53.328125 C 59.78125 52.355469 60.4375 50.121094 59.460938 48.335938 C 58.488281 46.554688 56.253906 45.898438 54.46875 46.871094 Z M 54.46875 46.871094 " clip-rule="nonzero"/></clipPath><clipPath id="18d695e8a1"><path d="M 90 57 L 99 57 L 99 66 L 90 66 Z M 90 57 " clip-rule="nonzero"/></clipPath><clipPath id="38790ede57"><path d="M 89.539062 59.933594 L 95.996094 56.40625 L 99.523438 62.863281 L 93.066406 66.390625 Z M 89.539062 59.933594 " clip-rule="nonzero"/></clipPath><clipPath id="6b76dd0105"><path d="M 92.765625 58.167969 C 90.984375 59.144531 90.328125 61.378906 91.300781 63.160156 C 92.277344 64.945312 94.511719 65.601562 96.292969 64.625 C 98.078125 63.652344 98.734375 61.417969 97.757812 59.632812 C 96.785156 57.851562 94.550781 57.195312 92.765625 58.167969 Z M 92.765625 58.167969 " clip-rule="nonzero"/></clipPath><clipPath id="1bfab828ad"><path d="M 79 96 L 88 96 L 88 104 L 79 104 Z M 79 96 " clip-rule="nonzero"/></clipPath><clipPath id="b7f8b8dec6"><path d="M 78.347656 98.261719 L 84.804688 94.734375 L 88.332031 101.191406 L 81.875 104.71875 Z M 78.347656 98.261719 " clip-rule="nonzero"/></clipPath><clipPath id="df45b6d74d"><path d="M 81.578125 96.496094 C 79.792969 97.472656 79.136719 99.707031 80.113281 101.488281 C 81.085938 103.273438 83.320312 103.929688 85.105469 102.957031 C 86.886719 101.980469 87.542969 99.746094 86.570312 97.960938 C 85.59375 96.179688 83.359375 95.523438 81.578125 96.496094 Z M 81.578125 96.496094 " clip-rule="nonzero"/></clipPath><clipPath id="f146b08df6"><path d="M 41 84 L 49 84 L 49 93 L 41 93 Z M 41 84 " clip-rule="nonzero"/></clipPath><clipPath id="4e622a22f9"><path d="M 39.914062 87.039062 L 46.371094 83.511719 L 49.898438 89.96875 L 43.441406 93.496094 Z M 39.914062 87.039062 " clip-rule="nonzero"/></clipPath><clipPath id="6fad365602"><path d="M 43.140625 85.277344 C 41.359375 86.25 40.703125 88.484375 41.675781 90.269531 C 42.652344 92.050781 44.886719 92.707031 46.667969 91.734375 C 48.453125 90.757812 49.109375 88.523438 48.132812 86.742188 C 47.160156 84.957031 44.925781 84.300781 43.140625 85.277344 Z M 43.140625 85.277344 " clip-rule="nonzero"/></clipPath></defs><g clip-path="url(#8c8da4a23a)"><g clip-path="url(#f5bc8c7d81)"><g clip-path="url(#35b7f8016e)"><path fill="#ffffff" d="M 56.65625 15.898438 L 70.4375 14.414062 L 71.921875 28.195312 L 58.140625 29.679688 Z M 56.65625 15.898438 " fill-opacity="1" fill-rule="nonzero"/></g></g></g><g clip-path="url(#5201c541dc)"><g clip-path="url(#3208b6e1eb)"><g clip-path="url(#4a3def5254)"><path fill="#ffffff" d="M 115.171875 63.15625 L 128.953125 61.671875 L 130.4375 75.453125 L 116.65625 76.9375 Z M 115.171875 63.15625 " fill-opacity="1" fill-rule="nonzero"/></g></g></g><g clip-path="url(#9783673c48)"><g clip-path="url(#22f20c9ed2)"><g clip-path="url(#039284c5c8)"><path fill="#ffffff" d="M 68.078125 121.804688 L 81.859375 120.320312 L 83.34375 134.101562 L 69.5625 135.585938 Z M 68.078125 121.804688 " fill-opacity="1" fill-rule="nonzero"/></g></g></g><g clip-path="url(#a778d6499e)"><g clip-path="url(#6eff337c3e)"><g clip-path="url(#8876dcc40f)"><path fill="#ffffff" d="M 9.265625 74.578125 L 23.046875 73.09375 L 24.535156 86.875 L 10.753906 88.359375 Z M 9.265625 74.578125 " fill-opacity="1" fill-rule="nonzero"/></g></g></g><g clip-path="url(#5df8b7b934)"><g clip-path="url(#c25e26ce24)"><g clip-path="url(#b83c24cc72)"><path fill="#ffffff" d="M 75.542969 14.566406 L 89.109375 17.410156 L 86.265625 30.976562 L 72.699219 28.132812 Z M 75.542969 14.566406 " fill-opacity="1" fill-rule="nonzero"/></g></g></g><g clip-path="url(#a60743ef5b)"><g clip-path="url(#4497902c1b)"><g clip-path="url(#2a846ef955)"><path fill="#ffffff" d="M 116.601562 77.589844 L 130.167969 80.429688 L 127.324219 93.996094 L 113.757812 91.15625 Z M 116.601562 77.589844 " fill-opacity="1" fill-rule="nonzero"/></g></g></g><g clip-path="url(#51ecae0998)"><g clip-path="url(#32d84ef579)"><g clip-path="url(#2ab035e290)"><path fill="#ffffff" d="M 53.695312 118.820312 L 67.261719 121.664062 L 64.417969 135.230469 L 50.851562 132.386719 Z M 53.695312 118.820312 " fill-opacity="1" fill-rule="nonzero"/></g></g></g><g clip-path="url(#26c09d6128)"><g clip-path="url(#30973cf78a)"><g clip-path="url(#096982a5c5)"><path fill="#ffffff" d="M 12.347656 55.738281 L 25.914062 58.582031 L 23.070312 72.148438 L 9.503906 69.308594 Z M 12.347656 55.738281 " fill-opacity="1" fill-rule="nonzero"/></g></g></g><g clip-path="url(#95408c59c8)"><g clip-path="url(#3c1b478a6d)"><g clip-path="url(#7ae245abda)"><path fill="#ffffff" d="M 39.003906 22.730469 L 51.652344 17.054688 L 57.328125 29.703125 L 44.679688 35.378906 Z M 39.003906 22.730469 " fill-opacity="1" fill-rule="nonzero"/></g></g></g><g clip-path="url(#01da4f865e)"><g clip-path="url(#fd18b089e5)"><g clip-path="url(#71e70aa33e)"><path fill="#ffffff" d="M 109.265625 49.578125 L 121.914062 43.902344 L 127.589844 56.550781 L 114.941406 62.222656 Z M 109.265625 49.578125 " fill-opacity="1" fill-rule="nonzero"/></g></g></g><g clip-path="url(#3edc56551a)"><g clip-path="url(#c2139b8f51)"><g clip-path="url(#2566079d3a)"><path fill="#ffffff" d="M 82.617188 119.914062 L 95.261719 114.238281 L 100.9375 126.886719 L 88.292969 132.5625 Z M 82.617188 119.914062 " fill-opacity="1" fill-rule="nonzero"/></g></g></g><g clip-path="url(#19d36a200f)"><g clip-path="url(#7e913cdba3)"><g clip-path="url(#e571236fe3)"><path fill="#ffffff" d="M 12.085938 93.1875 L 24.730469 87.511719 L 30.40625 100.160156 L 17.757812 105.835938 Z M 12.085938 93.1875 " fill-opacity="1" fill-rule="nonzero"/></g></g></g><g clip-path="url(#58ef657f92)"><g clip-path="url(#3e1e8a9cee)"><g clip-path="url(#4c1b409912)"><path fill="#ffffff" d="M 14.085938 51.050781 L 20.964844 39.015625 L 32.996094 45.894531 L 26.117188 57.929688 Z M 14.085938 51.050781 " fill-opacity="1" fill-rule="nonzero"/></g></g></g><g clip-path="url(#26d8517257)"><g clip-path="url(#3b24d11339)"><g clip-path="url(#aebdc661a7)"><path fill="#ffffff" d="M 86.679688 31.371094 L 93.558594 19.335938 L 105.59375 26.214844 L 98.714844 38.25 Z M 86.679688 31.371094 " fill-opacity="1" fill-rule="nonzero"/></g></g></g><g clip-path="url(#1396c02b34)"><g clip-path="url(#6f7664b2e2)"><g clip-path="url(#3f30b1a401)"><path fill="#ffffff" d="M 106.558594 103.914062 L 113.441406 91.878906 L 125.472656 98.757812 L 118.59375 110.792969 Z M 106.558594 103.914062 " fill-opacity="1" fill-rule="nonzero"/></g></g></g><g clip-path="url(#7bc2f402bd)"><g clip-path="url(#6f4fb71c7c)"><g clip-path="url(#aeb788d7b0)"><path fill="#ffffff" d="M 33.816406 123.847656 L 40.695312 111.8125 L 52.730469 118.691406 L 45.851562 130.726562 Z M 33.816406 123.847656 " fill-opacity="1" fill-rule="nonzero"/></g></g></g><g clip-path="url(#302ce780a8)"><g clip-path="url(#08f6e0cfb5)"><g clip-path="url(#9e53b5ee8a)"><path fill="#ffffff" d="M 24.082031 34.96875 L 34.34375 25.648438 L 43.664062 35.90625 L 33.402344 45.226562 Z M 24.082031 34.96875 " fill-opacity="1" fill-rule="nonzero"/></g></g></g><g clip-path="url(#0d76543ec8)"><g clip-path="url(#b0893f5158)"><g clip-path="url(#c2e8ae7923)"><path fill="#ffffff" d="M 99.207031 38.675781 L 109.46875 29.355469 L 118.789062 39.613281 L 108.527344 48.933594 Z M 99.207031 38.675781 " fill-opacity="1" fill-rule="nonzero"/></g></g></g><g clip-path="url(#33d7f5b49e)"><g clip-path="url(#2db72c89d0)"><g clip-path="url(#7b8b959b5f)"><path fill="#ffffff" d="M 95.710938 113.808594 L 105.96875 104.488281 L 115.289062 114.75 L 105.03125 124.070312 Z M 95.710938 113.808594 " fill-opacity="1" fill-rule="nonzero"/></g></g></g><g clip-path="url(#b36b26e714)"><g clip-path="url(#aaed2c8bb0)"><g clip-path="url(#407a2e1c80)"><path fill="#ffffff" d="M 20.367188 110.300781 L 30.625 100.980469 L 39.945312 111.242188 L 29.6875 120.5625 Z M 20.367188 110.300781 " fill-opacity="1" fill-rule="nonzero"/></g></g></g><g clip-path="url(#06a1767c11)"><g clip-path="url(#0a8d951ad7)"><path fill="#ffffff" d="M 64.796875 30.148438 L 75.128906 30.148438 L 75.128906 40.480469 L 64.796875 40.480469 Z M 64.796875 30.148438 " fill-opacity="1" fill-rule="nonzero"/></g></g><g clip-path="url(#d7cec8f9a1)"><g clip-path="url(#b5ae868ebf)"><path fill="#ffffff" d="M 104.386719 69.847656 L 114.71875 69.847656 L 114.71875 80.183594 L 104.386719 80.183594 Z M 104.386719 69.847656 " fill-opacity="1" fill-rule="nonzero"/></g></g><g clip-path="url(#ade7fe2973)"><g clip-path="url(#c1f1809e4a)"><path fill="#ffffff" d="M 64.796875 109.550781 L 75.128906 109.550781 L 75.128906 119.882812 L 64.796875 119.882812 Z M 64.796875 109.550781 " fill-opacity="1" fill-rule="nonzero"/></g></g><g clip-path="url(#2844dff3da)"><g clip-path="url(#80ff1213f6)"><path fill="#ffffff" d="M 24.984375 69.847656 L 35.320312 69.847656 L 35.320312 80.183594 L 24.984375 80.183594 Z M 24.984375 69.847656 " fill-opacity="1" fill-rule="nonzero"/></g></g><g clip-path="url(#2739069262)"><g clip-path="url(#4c03aad266)"><g clip-path="url(#409932215b)"><path fill="#ffffff" d="M 78.902344 30.671875 L 88.730469 33.863281 L 85.539062 43.691406 L 75.710938 40.5 Z M 78.902344 30.671875 " fill-opacity="1" fill-rule="nonzero"/></g></g></g><g clip-path="url(#e4ed729966)"><g clip-path="url(#79d8be8d77)"><g clip-path="url(#510732fd81)"><path fill="#ffffff" d="M 104.292969 80.660156 L 114.121094 83.851562 L 110.929688 93.675781 L 101.101562 90.484375 Z M 104.292969 80.660156 " fill-opacity="1" fill-rule="nonzero"/></g></g></g><g clip-path="url(#a405ec757b)"><g clip-path="url(#93ce4cc84d)"><g clip-path="url(#f3dde17564)"><path fill="#ffffff" d="M 54.375 106.191406 L 64.203125 109.382812 L 61.011719 119.207031 L 51.183594 116.015625 Z M 54.375 106.191406 " fill-opacity="1" fill-rule="nonzero"/></g></g></g><g clip-path="url(#4c535894f4)"><g clip-path="url(#d6f5b03034)"><g clip-path="url(#f53d2b935f)"><path fill="#ffffff" d="M 28.777344 56.132812 L 38.601562 59.324219 L 35.410156 69.152344 L 25.582031 65.960938 Z M 28.777344 56.132812 " fill-opacity="1" fill-rule="nonzero"/></g></g></g><g clip-path="url(#ac3f7ff641)"><g clip-path="url(#6b2f67213a)"><g clip-path="url(#d048061e76)"><path fill="#ffffff" d="M 51.171875 33.800781 L 60.996094 30.605469 L 64.191406 40.433594 L 54.367188 43.628906 Z M 51.171875 33.800781 " fill-opacity="1" fill-rule="nonzero"/></g></g></g><g clip-path="url(#3d570fd2bf)"><g clip-path="url(#fbcf57dab9)"><g clip-path="url(#be00f6f087)"><path fill="#ffffff" d="M 101.097656 59.3125 L 110.921875 56.117188 L 114.117188 65.945312 L 104.292969 69.140625 Z M 101.097656 59.3125 " fill-opacity="1" fill-rule="nonzero"/></g></g></g><g clip-path="url(#0b00a4b078)"><g clip-path="url(#e51bab275c)"><g clip-path="url(#a5e698ebe3)"><path fill="#ffffff" d="M 75.722656 109.308594 L 85.550781 106.113281 L 88.746094 115.941406 L 78.917969 119.136719 Z M 75.722656 109.308594 " fill-opacity="1" fill-rule="nonzero"/></g></g></g><g clip-path="url(#3209a8dfb4)"><g clip-path="url(#f31ab5966b)"><g clip-path="url(#947b690083)"><path fill="#ffffff" d="M 25.585938 83.867188 L 35.414062 80.671875 L 38.609375 90.496094 L 28.78125 93.691406 Z M 25.585938 83.867188 " fill-opacity="1" fill-rule="nonzero"/></g></g></g><g clip-path="url(#1cb5fe0cb1)"><g clip-path="url(#68c12be62a)"><g clip-path="url(#faaf3382bf)"><path fill="#ffffff" d="M 30.4375 52.796875 L 36.496094 44.425781 L 44.867188 50.488281 L 38.808594 58.855469 Z M 30.4375 52.796875 " fill-opacity="1" fill-rule="nonzero"/></g></g></g><g clip-path="url(#b626e0e7c5)"><g clip-path="url(#f0603ee828)"><g clip-path="url(#82bcb82204)"><path fill="#ffffff" d="M 85.8125 44.015625 L 91.871094 35.644531 L 100.242188 41.707031 L 94.179688 50.074219 Z M 85.8125 44.015625 " fill-opacity="1" fill-rule="nonzero"/></g></g></g><g clip-path="url(#e674646e0f)"><g clip-path="url(#4e836d0fc7)"><g clip-path="url(#f4d80f97b9)"><path fill="#ffffff" d="M 94.746094 99.363281 L 100.808594 90.996094 L 109.175781 97.054688 L 103.117188 105.425781 Z M 94.746094 99.363281 " fill-opacity="1" fill-rule="nonzero"/></g></g></g><g clip-path="url(#c8ddcf54a1)"><g clip-path="url(#08f1e920a1)"><g clip-path="url(#06c67060b7)"><path fill="#ffffff" d="M 39.242188 108.324219 L 45.304688 99.957031 L 53.671875 106.015625 L 47.613281 114.382812 Z M 39.242188 108.324219 " fill-opacity="1" fill-rule="nonzero"/></g></g></g><g clip-path="url(#0e35856dd1)"><g clip-path="url(#4c6f06fb5d)"><g clip-path="url(#e009221d13)"><path fill="#ffffff" d="M 39.132812 41.675781 L 47.480469 35.589844 L 53.570312 43.9375 L 45.222656 50.027344 Z M 39.132812 41.675781 " fill-opacity="1" fill-rule="nonzero"/></g></g></g><g clip-path="url(#b5c35efda9)"><g clip-path="url(#f7724fe0c8)"><g clip-path="url(#c827d437a6)"><path fill="#ffffff" d="M 94.511719 50.429688 L 102.863281 44.339844 L 108.949219 52.691406 L 100.601562 58.777344 Z M 94.511719 50.429688 " fill-opacity="1" fill-rule="nonzero"/></g></g></g><g clip-path="url(#fd68a090d8)"><g clip-path="url(#0342c523f2)"><g clip-path="url(#b94143743d)"><path fill="#ffffff" d="M 85.914062 105.832031 L 94.265625 99.746094 L 100.351562 108.09375 L 92.003906 114.183594 Z M 85.914062 105.832031 " fill-opacity="1" fill-rule="nonzero"/></g></g></g><g clip-path="url(#78c48459af)"><g clip-path="url(#004e3fc7c8)"><g clip-path="url(#3f953b52db)"><path fill="#ffffff" d="M 30.359375 97.210938 L 38.707031 91.125 L 44.792969 99.472656 L 36.445312 105.558594 Z M 30.359375 97.210938 " fill-opacity="1" fill-rule="nonzero"/></g></g></g><g clip-path="url(#e92a170cac)"><g clip-path="url(#15ece0efa4)"><g clip-path="url(#e56ac488d6)"><path fill="#ffffff" d="M 70.425781 42.867188 L 77.722656 43.820312 L 76.769531 51.117188 L 69.472656 50.164062 Z M 70.425781 42.867188 " fill-opacity="1" fill-rule="nonzero"/></g></g></g><g clip-path="url(#49b97a59e6)"><g clip-path="url(#4cf093249b)"><g clip-path="url(#44ebc0c142)"><path fill="#ffffff" d="M 94.714844 74.558594 L 102.011719 75.511719 L 101.058594 82.808594 L 93.761719 81.855469 Z M 94.714844 74.558594 " fill-opacity="1" fill-rule="nonzero"/></g></g></g><g clip-path="url(#b358382043)"><g clip-path="url(#a5470bd0e2)"><g clip-path="url(#1ddfeb94bc)"><path fill="#ffffff" d="M 63.089844 98.933594 L 70.386719 99.890625 L 69.433594 107.1875 L 62.136719 106.230469 Z M 63.089844 98.933594 " fill-opacity="1" fill-rule="nonzero"/></g></g></g><g clip-path="url(#ce7afdbb54)"><g clip-path="url(#0c0b937fc0)"><g clip-path="url(#d2c3d0f425)"><path fill="#ffffff" d="M 38.648438 67.222656 L 45.945312 68.175781 L 44.988281 75.472656 L 37.691406 74.519531 Z M 38.648438 67.222656 " fill-opacity="1" fill-rule="nonzero"/></g></g></g><g clip-path="url(#e53c5d3f52)"><g clip-path="url(#c5f26f97ee)"><g clip-path="url(#bbea38704f)"><path fill="#ffffff" d="M 80.339844 44.539062 L 86.984375 47.699219 L 83.824219 54.34375 L 77.175781 51.183594 Z M 80.339844 44.539062 " fill-opacity="1" fill-rule="nonzero"/></g></g></g><g clip-path="url(#b593b6b293)"><g clip-path="url(#13fecad8f1)"><g clip-path="url(#b0249565d6)"><path fill="#ffffff" d="M 93.652344 82.183594 L 100.296875 85.34375 L 97.132812 91.988281 L 90.488281 88.828125 Z M 93.652344 82.183594 " fill-opacity="1" fill-rule="nonzero"/></g></g></g><g clip-path="url(#aba722a631)"><g clip-path="url(#b5198cff11)"><g clip-path="url(#c68e8b1b88)"><path fill="#ffffff" d="M 56.042969 95.597656 L 62.6875 98.761719 L 59.527344 105.40625 L 52.882812 102.242188 Z M 56.042969 95.597656 " fill-opacity="1" fill-rule="nonzero"/></g></g></g><g clip-path="url(#813d92bd1b)"><g clip-path="url(#9ce601ec7e)"><g clip-path="url(#3e6fb81a91)"><path fill="#ffffff" d="M 42.589844 57.886719 L 49.234375 61.050781 L 46.074219 67.695312 L 39.429688 64.53125 Z M 42.589844 57.886719 " fill-opacity="1" fill-rule="nonzero"/></g></g></g><g clip-path="url(#78a9d7a5f2)"><g clip-path="url(#a2c1e3d46f)"><g clip-path="url(#4be82c23d6)"><path fill="#ffffff" d="M 60.46875 44.1875 L 67.703125 42.839844 L 69.050781 50.070312 L 61.816406 51.421875 Z M 60.46875 44.1875 " fill-opacity="1" fill-rule="nonzero"/></g></g></g><g clip-path="url(#d2d47a54b8)"><g clip-path="url(#ec7747dd48)"><g clip-path="url(#3509584cf5)"><path fill="#ffffff" d="M 93.367188 66.816406 L 100.601562 65.464844 L 101.949219 72.699219 L 94.714844 74.046875 Z M 93.367188 66.816406 " fill-opacity="1" fill-rule="nonzero"/></g></g></g><g clip-path="url(#cdfd1a664f)"><g clip-path="url(#3b0ea53f02)"><g clip-path="url(#57aa789d74)"><path fill="#ffffff" d="M 70.828125 99.773438 L 78.0625 98.425781 L 79.410156 105.660156 L 72.179688 107.007812 Z M 70.828125 99.773438 " fill-opacity="1" fill-rule="nonzero"/></g></g></g><g clip-path="url(#2b71c81d0c)"><g clip-path="url(#2c0cc6793b)"><g clip-path="url(#5013dd3f04)"><path fill="#ffffff" d="M 37.777344 77.175781 L 45.011719 75.828125 L 46.359375 83.0625 L 39.125 84.410156 Z M 37.777344 77.175781 " fill-opacity="1" fill-rule="nonzero"/></g></g></g><g clip-path="url(#6f4e26de6c)"><g clip-path="url(#df8452f545)"><g clip-path="url(#0c9d08d343)"><path fill="#ffffff" d="M 44.074219 55.683594 L 49.125 50.332031 L 54.476562 55.386719 L 49.421875 60.734375 Z M 44.074219 55.683594 " fill-opacity="1" fill-rule="nonzero"/></g></g></g><g clip-path="url(#99d5894dc2)"><g clip-path="url(#4401277ba6)"><g clip-path="url(#ca17a7c84a)"><path fill="#ffffff" d="M 83.988281 54.597656 L 89.039062 49.25 L 94.390625 54.300781 L 89.335938 59.652344 Z M 83.988281 54.597656 " fill-opacity="1" fill-rule="nonzero"/></g></g></g><g clip-path="url(#98472c4b3a)"><g clip-path="url(#0556e4b77f)"><g clip-path="url(#8062355162)"><path fill="#ffffff" d="M 85.183594 94.507812 L 90.234375 89.160156 L 95.585938 94.210938 L 90.53125 99.5625 Z M 85.183594 94.507812 " fill-opacity="1" fill-rule="nonzero"/></g></g></g><g clip-path="url(#9a9c9546f9)"><g clip-path="url(#161a3a2fff)"><g clip-path="url(#de27369871)"><path fill="#ffffff" d="M 45.160156 95.707031 L 50.214844 90.359375 L 55.5625 95.410156 L 50.511719 100.761719 Z M 45.160156 95.707031 " fill-opacity="1" fill-rule="nonzero"/></g></g></g><g clip-path="url(#ffdf9e548e)"><g clip-path="url(#4f7bb9e1d3)"><g clip-path="url(#3848aff373)"><path fill="#ffffff" d="M 51.242188 48.636719 L 57.699219 45.109375 L 61.226562 51.566406 L 54.769531 55.09375 Z M 51.242188 48.636719 " fill-opacity="1" fill-rule="nonzero"/></g></g></g><g clip-path="url(#18d695e8a1)"><g clip-path="url(#38790ede57)"><g clip-path="url(#6b76dd0105)"><path fill="#ffffff" d="M 89.539062 59.933594 L 95.996094 56.40625 L 99.523438 62.863281 L 93.066406 66.390625 Z M 89.539062 59.933594 " fill-opacity="1" fill-rule="nonzero"/></g></g></g><g clip-path="url(#1bfab828ad)"><g clip-path="url(#b7f8b8dec6)"><g clip-path="url(#df45b6d74d)"><path fill="#ffffff" d="M 78.347656 98.261719 L 84.804688 94.734375 L 88.332031 101.191406 L 81.875 104.71875 Z M 78.347656 98.261719 " fill-opacity="1" fill-rule="nonzero"/></g></g></g><g clip-path="url(#f146b08df6)"><g clip-path="url(#4e622a22f9)"><g clip-path="url(#6fad365602)"><path fill="#ffffff" d="M 39.914062 87.039062 L 46.371094 83.511719 L 49.898438 89.96875 L 43.441406 93.496094 Z M 39.914062 87.039062 " fill-opacity="1" fill-rule="nonzero"/></g></g></g><g fill="#ffffff" fill-opacity="1"><g transform="translate(148.201603, 91.02383)"><g><path d="M 46.890625 0 L 41.5625 0 L 41.5625 -10.65625 L 11.78125 -10.65625 L 11.78125 -15.984375 L 41.5625 -15.984375 L 41.5625 -31.96875 L 22.4375 -31.96875 C 20.019531 -31.96875 17.796875 -31.375 15.765625 -30.1875 C 13.742188 -29 12.140625 -27.390625 10.953125 -25.359375 C 9.765625 -23.335938 9.171875 -21.101562 9.171875 -18.65625 L 9.171875 0 L 3.84375 0 L 3.84375 -18.65625 C 3.84375 -21.207031 4.320312 -23.609375 5.28125 -25.859375 C 6.238281 -28.117188 7.566406 -30.109375 9.265625 -31.828125 C 10.972656 -33.554688 12.953125 -34.898438 15.203125 -35.859375 C 17.460938 -36.816406 19.875 -37.296875 22.4375 -37.296875 L 46.890625 -37.296875 Z M 46.890625 0 "/></g></g></g><g fill="#ffffff" fill-opacity="1"><g transform="translate(200.617061, 91.02383)"><g><path d="M 40.125 0 L 4.46875 0 L 4.46875 -37.296875 L 9.796875 -37.296875 L 9.796875 -5.328125 L 40.125 -5.328125 Z M 40.125 0 "/></g></g></g><g fill="#ffffff" fill-opacity="1"><g transform="translate(242.325793, 91.02383)"><g><path d="M 40.125 0 L 4.46875 0 L 4.46875 -37.296875 L 9.796875 -37.296875 L 9.796875 -5.328125 L 40.125 -5.328125 Z M 40.125 0 "/></g></g></g><g fill="#ffffff" fill-opacity="1"><g transform="translate(284.034524, 91.02383)"><g/></g></g><g fill="#ffffff" fill-opacity="1"><g transform="translate(305.075582, 91.02383)"><g><path d="M 43.53125 0 L 19.5 0 C 16.90625 0 14.5625 -0.476562 12.46875 -1.4375 C 10.375 -2.394531 8.570312 -3.726562 7.0625 -5.4375 C 5.550781 -7.144531 4.382812 -9.125 3.5625 -11.375 C 2.75 -13.632812 2.34375 -16.0625 2.34375 -18.65625 C 2.34375 -21.207031 2.75 -23.609375 3.5625 -25.859375 C 4.382812 -28.117188 5.550781 -30.109375 7.0625 -31.828125 C 8.570312 -33.554688 10.375 -34.898438 12.46875 -35.859375 C 14.5625 -36.816406 16.90625 -37.296875 19.5 -37.296875 L 43.53125 -37.296875 L 43.53125 -31.96875 L 19.5 -31.96875 C 17.050781 -31.96875 14.945312 -31.375 13.1875 -30.1875 C 11.425781 -29 10.066406 -27.390625 9.109375 -25.359375 C 8.148438 -23.335938 7.671875 -21.101562 7.671875 -18.65625 C 7.671875 -16.195312 8.148438 -13.960938 9.109375 -11.953125 C 10.066406 -9.953125 11.425781 -8.347656 13.1875 -7.140625 C 14.945312 -5.929688 17.050781 -5.328125 19.5 -5.328125 L 43.53125 -5.328125 Z M 43.53125 0 "/></g></g></g><g fill="#ffffff" fill-opacity="1"><g transform="translate(351.631636, 91.02383)"><g><path d="M 49.015625 -18.65625 C 49.015625 -16.0625 48.601562 -13.632812 47.78125 -11.375 C 46.96875 -9.125 45.804688 -7.144531 44.296875 -5.4375 C 42.785156 -3.726562 40.984375 -2.394531 38.890625 -1.4375 C 36.796875 -0.476562 34.472656 0 31.921875 0 L 19.5 0 C 16.90625 0 14.5625 -0.476562 12.46875 -1.4375 C 10.375 -2.394531 8.570312 -3.726562 7.0625 -5.4375 C 5.550781 -7.144531 4.382812 -9.125 3.5625 -11.375 C 2.75 -13.632812 2.34375 -16.0625 2.34375 -18.65625 C 2.34375 -21.207031 2.75 -23.609375 3.5625 -25.859375 C 4.382812 -28.117188 5.550781 -30.109375 7.0625 -31.828125 C 8.570312 -33.554688 10.375 -34.898438 12.46875 -35.859375 C 14.5625 -36.816406 16.90625 -37.296875 19.5 -37.296875 L 31.921875 -37.296875 C 34.472656 -37.296875 36.796875 -36.816406 38.890625 -35.859375 C 40.984375 -34.898438 42.785156 -33.554688 44.296875 -31.828125 C 45.804688 -30.109375 46.96875 -28.117188 47.78125 -25.859375 C 48.601562 -23.609375 49.015625 -21.207031 49.015625 -18.65625 Z M 43.6875 -18.65625 C 43.6875 -21.101562 43.210938 -23.335938 42.265625 -25.359375 C 41.328125 -27.390625 39.976562 -29 38.21875 -30.1875 C 36.46875 -31.375 34.367188 -31.96875 31.921875 -31.96875 L 19.5 -31.96875 C 17.050781 -31.96875 14.945312 -31.375 13.1875 -30.1875 C 11.425781 -29 10.066406 -27.390625 9.109375 -25.359375 C 8.148438 -23.335938 7.671875 -21.101562 7.671875 -18.65625 C 7.671875 -16.195312 8.148438 -13.960938 9.109375 -11.953125 C 10.066406 -9.953125 11.425781 -8.347656 13.1875 -7.140625 C 14.945312 -5.929688 17.050781 -5.328125 19.5 -5.328125 L 31.921875 -5.328125 C 34.367188 -5.328125 36.46875 -5.929688 38.21875 -7.140625 C 39.976562 -8.347656 41.328125 -9.953125 42.265625 -11.953125 C 43.210938 -13.960938 43.6875 -16.195312 43.6875 -18.65625 Z M 43.6875 -18.65625 "/></g></g></g><g fill="#ffffff" fill-opacity="1"><g transform="translate(404.047095, 91.02383)"><g><path d="M 9.796875 0 L 4.46875 0 L 4.46875 -37.296875 L 7.140625 -37.296875 C 9.734375 -37.296875 12.546875 -36.796875 15.578125 -35.796875 C 18.617188 -34.804688 21.664062 -33.40625 24.71875 -31.59375 C 27.78125 -29.78125 30.664062 -27.617188 33.375 -25.109375 C 36.09375 -22.609375 38.429688 -19.832031 40.390625 -16.78125 L 40.390625 -37.296875 L 45.71875 -37.296875 L 45.71875 0 L 40.390625 0 C 40.390625 -3.269531 39.722656 -6.40625 38.390625 -9.40625 C 37.054688 -12.40625 35.285156 -15.175781 33.078125 -17.71875 C 30.878906 -20.257812 28.4375 -22.515625 25.75 -24.484375 C 23.070312 -26.453125 20.347656 -28.066406 17.578125 -29.328125 C 14.804688 -30.585938 12.210938 -31.394531 9.796875 -31.75 Z M 9.796875 0 "/></g></g></g><g fill="#ffffff" fill-opacity="1"><g transform="translate(455.290656, 91.02383)"><g><path d="M 9.796875 0 L 4.46875 0 L 4.46875 -37.296875 L 7.140625 -37.296875 C 9.734375 -37.296875 12.546875 -36.796875 15.578125 -35.796875 C 18.617188 -34.804688 21.664062 -33.40625 24.71875 -31.59375 C 27.78125 -29.78125 30.664062 -27.617188 33.375 -25.109375 C 36.09375 -22.609375 38.429688 -19.832031 40.390625 -16.78125 L 40.390625 -37.296875 L 45.71875 -37.296875 L 45.71875 0 L 40.390625 0 C 40.390625 -3.269531 39.722656 -6.40625 38.390625 -9.40625 C 37.054688 -12.40625 35.285156 -15.175781 33.078125 -17.71875 C 30.878906 -20.257812 28.4375 -22.515625 25.75 -24.484375 C 23.070312 -26.453125 20.347656 -28.066406 17.578125 -29.328125 C 14.804688 -30.585938 12.210938 -31.394531 9.796875 -31.75 Z M 9.796875 0 "/></g></g></g><g fill="#ffffff" fill-opacity="1"><g transform="translate(506.534198, 91.02383)"><g><path d="M 43.046875 0 L 4.46875 0 L 4.46875 -37.296875 L 43.046875 -37.296875 L 43.046875 -31.96875 L 9.796875 -31.96875 L 9.796875 -5.328125 L 43.046875 -5.328125 Z M 38.515625 -15.984375 L 12.46875 -15.984375 L 12.46875 -21.3125 L 38.515625 -21.3125 Z M 38.515625 -15.984375 "/></g></g></g><g fill="#ffffff" fill-opacity="1"><g transform="translate(552.770665, 91.02383)"><g><path d="M 43.53125 0 L 19.5 0 C 16.90625 0 14.5625 -0.476562 12.46875 -1.4375 C 10.375 -2.394531 8.570312 -3.726562 7.0625 -5.4375 C 5.550781 -7.144531 4.382812 -9.125 3.5625 -11.375 C 2.75 -13.632812 2.34375 -16.0625 2.34375 -18.65625 C 2.34375 -21.207031 2.75 -23.609375 3.5625 -25.859375 C 4.382812 -28.117188 5.550781 -30.109375 7.0625 -31.828125 C 8.570312 -33.554688 10.375 -34.898438 12.46875 -35.859375 C 14.5625 -36.816406 16.90625 -37.296875 19.5 -37.296875 L 43.53125 -37.296875 L 43.53125 -31.96875 L 19.5 -31.96875 C 17.050781 -31.96875 14.945312 -31.375 13.1875 -30.1875 C 11.425781 -29 10.066406 -27.390625 9.109375 -25.359375 C 8.148438 -23.335938 7.671875 -21.101562 7.671875 -18.65625 C 7.671875 -16.195312 8.148438 -13.960938 9.109375 -11.953125 C 10.066406 -9.953125 11.425781 -8.347656 13.1875 -7.140625 C 14.945312 -5.929688 17.050781 -5.328125 19.5 -5.328125 L 43.53125 -5.328125 Z M 43.53125 0 "/></g></g></g><g fill="#ffffff" fill-opacity="1"><g transform="translate(599.326719, 91.02383)"><g><path d="M 24.71875 0 L 19.390625 0 L 19.390625 -31.96875 L 0.53125 -31.96875 L 0.53125 -37.296875 L 43.578125 -37.296875 L 43.578125 -31.96875 L 24.71875 -31.96875 Z M 24.71875 0 "/></g></g></g><g fill="#ffffff" fill-opacity="1"><g transform="translate(644.497817, 91.02383)"><g><path d="M 43.046875 0 L 4.46875 0 L 4.46875 -37.296875 L 43.046875 -37.296875 L 43.046875 -31.96875 L 9.796875 -31.96875 L 9.796875 -5.328125 L 43.046875 -5.328125 Z M 38.515625 -15.984375 L 12.46875 -15.984375 L 12.46875 -21.3125 L 38.515625 -21.3125 Z M 38.515625 -15.984375 "/></g></g></g><g fill="#ffffff" fill-opacity="1"><g transform="translate(690.734285, 91.02383)"><g><path d="M 48.4375 -18.65625 C 48.4375 -16.0625 48.023438 -13.632812 47.203125 -11.375 C 46.390625 -9.125 45.226562 -7.144531 43.71875 -5.4375 C 42.207031 -3.726562 40.394531 -2.394531 38.28125 -1.4375 C 36.164062 -0.476562 33.832031 0 31.28125 0 L 12.46875 0 L 12.46875 -5.328125 L 31.28125 -5.328125 C 33.726562 -5.328125 35.835938 -5.929688 37.609375 -7.140625 C 39.390625 -8.347656 40.75 -9.953125 41.6875 -11.953125 C 42.632812 -13.960938 43.109375 -16.195312 43.109375 -18.65625 C 43.109375 -21.101562 42.632812 -23.335938 41.6875 -25.359375 C 40.75 -27.390625 39.390625 -29 37.609375 -30.1875 C 35.835938 -31.375 33.726562 -31.96875 31.28125 -31.96875 L 9.796875 -31.96875 L 9.796875 0 L 4.46875 0 L 4.46875 -37.296875 L 31.28125 -37.296875 C 33.832031 -37.296875 36.164062 -36.816406 38.28125 -35.859375 C 40.394531 -34.898438 42.207031 -33.554688 43.71875 -31.828125 C 45.226562 -30.109375 46.390625 -28.117188 47.203125 -25.859375 C 48.023438 -23.609375 48.4375 -21.207031 48.4375 -18.65625 Z M 48.4375 -18.65625 "/></g></g></g></svg>